<?xml version="1.0" encoding="UTF-8"?>
<svg id="Layer_1" xmlns="http://www.w3.org/2000/svg" version="1.1" viewBox="0 0 990.6 244.5">
  <!-- Generator: Adobe Illustrator 29.4.0, SVG Export Plug-In . SVG Version: 2.1.0 Build 152)  -->
  <defs>
    <style>
      .st0 {
        fill: #ff4f4f;
      }

      .st1 {
        fill: #fff;
      }
    </style>
  </defs>
  <path class="st0" d="M550.9,155.6c40.6-11,82.8-14.6,124.7-10.7s3.3-4.9,0-5.2c-42.3-3.9-85.1-.2-126.1,10.9-3.2.9-1.9,5.9,1.4,5h0Z"/>
  <g>
    <path class="st1" d="M161.5,5.6l-11.8,48.3h-16.5l-6.6-29.6-6.8,29.6h-16.5l-11.7-48.3h14.5l5.6,33,7.6-33h14.7l7.4,32.7,5.6-32.7h14.5Z"/>
    <path class="st1" d="M203.7,37.4h-25.4c.1,2.1.7,3.7,1.7,4.7,1,1,2.3,1.5,3.9,1.5s3.8-1,4.8-3h14.3c-.6,2.6-1.7,5-3.5,7.1-1.7,2.1-3.9,3.7-6.5,4.9-2.6,1.2-5.5,1.8-8.6,1.8s-7.2-.8-10.1-2.4-5.3-3.9-6.9-6.8c-1.7-3-2.5-6.5-2.5-10.5s.8-7.5,2.5-10.4c1.6-2.9,3.9-5.2,6.9-6.8,2.9-1.6,6.3-2.4,10.2-2.4s7.1.8,10.1,2.3c2.9,1.6,5.2,3.8,6.8,6.7,1.6,2.9,2.5,6.3,2.5,10.2s0,2.1-.2,3.2ZM190.2,30.9c0-1.6-.5-2.9-1.6-3.9-1.1-.9-2.5-1.4-4.1-1.4s-3,.4-4,1.3c-1.1.9-1.7,2.2-2.1,3.9h11.8Z"/>
    <path class="st1" d="M279.2,15.4l-9.8,38.4h-15.1l-5.3-23.3-5.5,23.3h-15l-9.7-38.4h13.4l4.3,25.5,5.7-25.5h14.4l5.9,25.5,4.2-25.5h12.6Z"/>
    <path class="st1" d="M283,24.2c1.4-3,3.4-5.3,5.9-6.8,2.5-1.6,5.3-2.4,8.3-2.4s4.9.5,6.8,1.6,3.4,2.5,4.5,4.2v-5.3h13.4v38.4h-13.4v-5.3c-1.1,1.8-2.5,3.2-4.5,4.2-1.9,1.1-4.2,1.6-6.8,1.6s-5.8-.8-8.3-2.4c-2.5-1.6-4.5-3.9-5.9-6.9-1.4-3-2.2-6.5-2.2-10.4s.7-7.4,2.2-10.4ZM306.5,28.8c-1.3-1.4-3-2.1-5-2.1s-3.7.7-5,2.1c-1.3,1.4-2,3.3-2,5.9s.7,4.4,2,5.9c1.3,1.4,3,2.2,5,2.2s3.6-.7,5-2.1c1.3-1.4,2-3.4,2-5.9s-.7-4.4-2-5.8Z"/>
    <path class="st1" d="M365.3,19.5c2.6,2.9,3.9,6.9,3.9,12v22.4h-13.4v-20.6c0-2.2-.6-3.9-1.7-5.2-1.1-1.3-2.7-1.9-4.6-1.9s-3.6.6-4.7,1.9c-1.1,1.3-1.7,3-1.7,5.2v20.6h-13.4V15.4h13.4v5.5c1.2-1.7,2.8-3.1,4.8-4.2,2-1.1,4.3-1.6,6.9-1.6,4.4,0,7.9,1.5,10.5,4.4Z"/>
    <path class="st1" d="M399.3,42.4v11.4h-5.8c-9.8,0-14.7-4.9-14.7-14.6v-12.7h-4.7v-11.2h4.7V6.1h13.5v9.3h7v11.2h-7v12.9c0,1.1.2,1.8.7,2.3.5.5,1.3.7,2.4.7h3.9Z"/>
    <path class="st1" d="M441.2,42.4v11.4h-5.8c-9.8,0-14.7-4.9-14.7-14.6v-12.7h-4.7v-11.2h4.7V6.1h13.5v9.3h7v11.2h-7v12.9c0,1.1.2,1.8.7,2.3.5.5,1.3.7,2.4.7h3.9Z"/>
    <path class="st1" d="M454.9,51.9c-3-1.6-5.4-3.9-7.2-6.8-1.7-3-2.6-6.5-2.6-10.5s.9-7.4,2.6-10.4c1.8-3,4.2-5.3,7.2-6.8,3-1.6,6.5-2.4,10.3-2.4s7.3.8,10.3,2.4c3,1.6,5.4,3.9,7.2,6.8,1.8,3,2.6,6.4,2.6,10.4s-.9,7.5-2.6,10.4c-1.8,3-4.2,5.3-7.2,6.9-3.1,1.6-6.5,2.4-10.3,2.4s-7.3-.8-10.3-2.4ZM469.9,40.6c1.3-1.4,1.9-3.4,1.9-6s-.6-4.6-1.9-6c-1.3-1.4-2.8-2.1-4.6-2.1s-3.4.7-4.6,2.1-1.8,3.4-1.8,6,.6,4.7,1.8,6c1.2,1.4,2.7,2.1,4.6,2.1s3.4-.7,4.7-2.1Z"/>
    <path class="st1" d="M528,53.9l-10.6-15.8v15.8h-13.4V3.2h13.4v27.3l10.6-15.1h16.1l-15.1,19.3,15.4,19.1h-16.4Z"/>
    <path class="st1" d="M584,19.5c2.6,2.9,3.9,6.9,3.9,12v22.4h-13.4v-20.6c0-2.2-.6-3.9-1.7-5.2s-2.7-1.9-4.6-1.9-3.6.6-4.7,1.9c-1.1,1.3-1.7,3-1.7,5.2v20.6h-13.4V15.4h13.4v5.5c1.2-1.7,2.8-3.1,4.8-4.2,2-1.1,4.3-1.6,6.9-1.6,4.4,0,7.9,1.5,10.5,4.4Z"/>
    <path class="st1" d="M602.8,51.9c-3-1.6-5.4-3.9-7.2-6.8-1.7-3-2.6-6.5-2.6-10.5s.9-7.4,2.6-10.4c1.8-3,4.2-5.3,7.2-6.8,3-1.6,6.5-2.4,10.3-2.4s7.3.8,10.3,2.4c3,1.6,5.4,3.9,7.2,6.8,1.8,3,2.6,6.4,2.6,10.4s-.9,7.5-2.6,10.4c-1.8,3-4.2,5.3-7.2,6.9-3.1,1.6-6.5,2.4-10.3,2.4s-7.3-.8-10.3-2.4ZM617.8,40.6c1.3-1.4,1.9-3.4,1.9-6s-.6-4.6-1.9-6c-1.3-1.4-2.8-2.1-4.6-2.1s-3.4.7-4.6,2.1c-1.2,1.4-1.9,3.4-1.9,6s.6,4.7,1.8,6c1.2,1.4,2.7,2.1,4.6,2.1s3.4-.7,4.7-2.1Z"/>
    <path class="st1" d="M695.6,15.4l-9.8,38.4h-15.1l-5.3-23.3-5.5,23.3h-15l-9.7-38.4h13.4l4.3,25.5,5.7-25.5h14.4l5.9,25.5,4.2-25.5h12.6Z"/>
    <path class="st1" d="M774.1,19.5c2.8,2.9,4.1,6.9,4.1,12v22.4h-13.4v-20.6c0-2.1-.6-3.7-1.7-4.8-1.1-1.1-2.7-1.7-4.7-1.7s-3.5.6-4.7,1.7-1.7,2.7-1.7,4.8v20.6h-13.4v-20.6c0-2.1-.6-3.7-1.7-4.8-1.1-1.1-2.7-1.7-4.6-1.7s-3.6.6-4.7,1.7-1.7,2.7-1.7,4.8v20.6h-13.4V15.4h13.4v5.1c1.2-1.6,2.7-3,4.6-3.9,1.9-1,4.1-1.5,6.5-1.5s5.4.6,7.6,1.8c2.2,1.2,4,3,5.2,5.2,1.4-2.1,3.2-3.8,5.4-5.1,2.2-1.3,4.7-2,7.4-2,4.8,0,8.6,1.5,11.4,4.4Z"/>
    <path class="st1" d="M793.1,51.9c-3-1.6-5.4-3.9-7.2-6.8-1.7-3-2.6-6.5-2.6-10.5s.9-7.4,2.6-10.4c1.8-3,4.2-5.3,7.2-6.8,3-1.6,6.5-2.4,10.3-2.4s7.3.8,10.3,2.4c3,1.6,5.4,3.9,7.2,6.8,1.8,3,2.6,6.4,2.6,10.4s-.9,7.5-2.6,10.4c-1.8,3-4.2,5.3-7.2,6.9-3.1,1.6-6.5,2.4-10.3,2.4s-7.3-.8-10.3-2.4ZM808.1,40.6c1.3-1.4,1.9-3.4,1.9-6s-.6-4.6-1.9-6-2.8-2.1-4.6-2.1-3.4.7-4.6,2.1c-1.2,1.4-1.8,3.4-1.8,6s.6,4.7,1.8,6c1.2,1.4,2.7,2.1,4.6,2.1s3.4-.7,4.7-2.1Z"/>
    <path class="st1" d="M848,17c2.1-1.3,4.5-1.9,6.9-1.9v14.3h-3.8c-2.9,0-5.1.6-6.5,1.7-1.4,1.1-2.1,3.1-2.1,6v16.8h-13.4V15.4h13.4v6.8c1.5-2.2,3.3-3.9,5.5-5.2Z"/>
    <path class="st1" d="M896.2,37.4h-25.4c.1,2.1.7,3.7,1.7,4.7,1,1,2.3,1.5,3.9,1.5s3.8-1,4.8-3h14.3c-.6,2.6-1.7,5-3.5,7.1-1.7,2.1-3.9,3.7-6.5,4.9-2.6,1.2-5.5,1.8-8.6,1.8s-7.2-.8-10.1-2.4c-2.9-1.6-5.3-3.9-6.9-6.8-1.7-3-2.5-6.5-2.5-10.5s.8-7.5,2.5-10.4c1.6-2.9,3.9-5.2,6.9-6.8,2.9-1.6,6.3-2.4,10.2-2.4s7.1.8,10.1,2.3c2.9,1.6,5.2,3.8,6.8,6.7,1.6,2.9,2.5,6.3,2.5,10.2s0,2.1-.2,3.2ZM882.7,30.9c0-1.6-.5-2.9-1.6-3.9-1.1-.9-2.5-1.4-4.1-1.4s-3,.4-4,1.3c-1.1.9-1.7,2.2-2.1,3.9h11.8Z"/>
    <path class="st1" d="M113.5,106.4c1.4-3,3.4-5.3,5.9-6.8,2.5-1.6,5.3-2.4,8.3-2.4s4.9.5,6.8,1.6,3.4,2.5,4.5,4.2v-5.3h13.4v38.4h-13.4v-5.3c-1.1,1.8-2.5,3.2-4.5,4.2-1.9,1.1-4.2,1.6-6.8,1.6s-5.8-.8-8.3-2.4c-2.5-1.6-4.5-3.9-5.9-6.9-1.4-3-2.2-6.5-2.2-10.4s.7-7.4,2.2-10.4ZM137,111c-1.3-1.4-3-2.1-5-2.1s-3.7.7-5,2.1c-1.3,1.4-2,3.3-2,5.9s.7,4.4,2,5.9c1.3,1.4,3,2.2,5,2.2s3.6-.7,5-2.1c1.3-1.4,2-3.4,2-5.9s-.7-4.4-2-5.8Z"/>
    <path class="st1" d="M177.9,98.7c1.9-1,4.2-1.5,6.8-1.5s5.8.8,8.3,2.4c2.5,1.6,4.5,3.9,5.9,6.8,1.4,3,2.2,6.4,2.2,10.4s-.7,7.5-2.2,10.4c-1.4,3-3.4,5.3-5.9,6.9-2.5,1.6-5.3,2.4-8.3,2.4s-4.9-.5-6.8-1.5-3.4-2.5-4.5-4.3v5.3h-13.4v-50.7h13.4v17.6c1-1.8,2.5-3.3,4.5-4.3ZM185.4,110.9c-1.3-1.4-3-2.1-5-2.1s-3.6.7-5,2.1c-1.3,1.4-2,3.4-2,5.8s.7,4.5,2,5.9c1.3,1.4,3,2.1,5,2.1s3.6-.7,5-2.2c1.3-1.4,2-3.4,2-5.9s-.7-4.5-2-5.9Z"/>
    <path class="st1" d="M214.2,134.1c-3-1.6-5.4-3.9-7.2-6.8-1.7-3-2.6-6.5-2.6-10.5s.9-7.4,2.6-10.4c1.8-3,4.2-5.3,7.2-6.8,3-1.6,6.5-2.4,10.3-2.4s7.3.8,10.3,2.4c3,1.6,5.4,3.9,7.2,6.8,1.8,3,2.6,6.4,2.6,10.4s-.9,7.5-2.6,10.4c-1.8,3-4.2,5.3-7.2,6.9-3.1,1.6-6.5,2.4-10.3,2.4s-7.3-.8-10.3-2.4ZM229.2,122.8c1.3-1.4,1.9-3.4,1.9-6s-.6-4.6-1.9-6c-1.3-1.4-2.8-2.1-4.6-2.1s-3.4.7-4.6,2.1-1.8,3.4-1.8,6,.6,4.7,1.8,6c1.2,1.4,2.7,2.1,4.6,2.1s3.4-.7,4.7-2.1Z"/>
    <path class="st1" d="M289.5,97.6v38.4h-13.5v-5.5c-1.1,1.7-2.7,3.1-4.7,4.2-2,1.1-4.3,1.6-6.9,1.6-4.5,0-8-1.5-10.6-4.4-2.6-2.9-3.9-7-3.9-12v-22.3h13.4v20.6c0,2.2.6,3.9,1.7,5.2,1.2,1.3,2.7,1.9,4.6,1.9s3.5-.6,4.7-1.9c1.1-1.3,1.7-3,1.7-5.2v-20.6h13.5Z"/>
    <path class="st1" d="M319.8,124.6v11.4h-5.8c-9.8,0-14.7-4.9-14.7-14.6v-12.7h-4.7v-11.2h4.7v-9.3h13.5v9.3h7v11.2h-7v12.9c0,1.1.2,1.8.7,2.3.5.5,1.3.7,2.4.7h3.9Z"/>
    <path class="st1" d="M395.9,97.6l-9.8,38.4h-15.1l-5.3-23.3-5.5,23.3h-15l-9.7-38.4h13.4l4.3,25.5,5.7-25.5h14.4l5.9,25.5,4.2-25.5h12.6Z"/>
    <path class="st1" d="M435.4,101.7c2.6,2.9,3.9,6.9,3.9,12v22.4h-13.4v-20.6c0-2.2-.6-3.9-1.7-5.2-1.1-1.3-2.7-1.9-4.6-1.9s-3.6.6-4.7,1.9c-1.1,1.3-1.7,3-1.7,5.2v20.6h-13.4v-50.7h13.4v17.7c1.2-1.7,2.8-3.1,4.8-4.2,2-1.1,4.4-1.6,7-1.6,4.4,0,7.9,1.5,10.4,4.4Z"/>
    <path class="st1" d="M446.6,106.4c1.4-3,3.4-5.3,5.9-6.8,2.5-1.6,5.3-2.4,8.3-2.4s4.9.5,6.8,1.6,3.4,2.5,4.5,4.2v-5.3h13.4v38.4h-13.4v-5.3c-1.1,1.8-2.5,3.2-4.5,4.2-1.9,1.1-4.2,1.6-6.8,1.6s-5.8-.8-8.3-2.4c-2.5-1.6-4.5-3.9-5.9-6.9-1.4-3-2.2-6.5-2.2-10.4s.7-7.4,2.2-10.4ZM470.1,111c-1.3-1.4-3-2.1-5-2.1s-3.7.7-5,2.1c-1.3,1.4-2,3.3-2,5.9s.7,4.4,2,5.9c1.3,1.4,3,2.2,5,2.2s3.6-.7,5-2.1c1.3-1.4,2-3.4,2-5.9s-.7-4.4-2-5.8Z"/>
    <path class="st1" d="M515.9,124.6v11.4h-5.8c-9.8,0-14.7-4.9-14.7-14.6v-12.7h-4.7v-11.2h4.7v-9.3h13.5v9.3h7v11.2h-7v12.9c0,1.1.2,1.8.7,2.3.5.5,1.3.7,2.4.7h3.9Z"/>
    <path class="st1" d="M579.1,87.8l-17,32.9v15.3h-13.5v-15.3l-17-32.9h15.3l8.5,18.6,8.5-18.6h15.1Z"/>
    <path class="st1" d="M593.8,133.3c-3.8-2.1-6.8-5.1-9-8.8-2.2-3.8-3.3-8-3.3-12.8s1.1-9,3.3-12.8c2.2-3.8,5.2-6.7,9-8.8,3.8-2.1,7.9-3.2,12.5-3.2s8.7,1.1,12.5,3.2,6.7,5,8.9,8.8c2.2,3.8,3.3,8,3.3,12.8s-1.1,9-3.3,12.8c-2.2,3.8-5.2,6.7-9,8.8-3.8,2.1-7.9,3.2-12.5,3.2s-8.7-1.1-12.5-3.2ZM614.4,120.7c2-2.2,3-5.2,3-9s-1-6.9-3-9.1c-2-2.2-4.7-3.3-8.1-3.3s-6.2,1.1-8.1,3.3c-2,2.2-2.9,5.2-2.9,9.1s1,6.8,2.9,9c2,2.2,4.7,3.3,8.1,3.3s6.1-1.1,8.1-3.4Z"/>
    <path class="st1" d="M650.2,87.8v28c0,2.6.6,4.6,1.8,6,1.2,1.4,3,2.1,5.5,2.1s4.3-.7,5.6-2.2c1.3-1.4,1.9-3.4,1.9-6v-28h13.4v28c0,4.4-.9,8.2-2.8,11.3-1.9,3.1-4.4,5.5-7.6,7.1-3.2,1.6-6.8,2.4-10.7,2.4s-7.4-.8-10.5-2.4c-3.1-1.6-5.5-3.9-7.3-7-1.8-3.1-2.6-6.9-2.6-11.4v-28h13.4Z"/>
    <path class="st1" d="M755.7,97.6l-9.8,38.4h-15.1l-5.3-23.3-5.5,23.3h-15l-9.7-38.4h13.4l4.3,25.5,5.7-25.5h14.4l5.9,25.5,4.2-25.5h12.6Z"/>
    <path class="st1" d="M759.5,106.4c1.4-3,3.4-5.3,5.9-6.8,2.5-1.6,5.3-2.4,8.3-2.4s4.9.5,6.8,1.6c1.9,1.1,3.4,2.5,4.5,4.2v-5.3h13.4v38.4h-13.4v-5.3c-1.1,1.8-2.5,3.2-4.5,4.2s-4.2,1.6-6.8,1.6-5.8-.8-8.3-2.4-4.5-3.9-5.9-6.9c-1.4-3-2.2-6.5-2.2-10.4s.7-7.4,2.2-10.4ZM783,111c-1.3-1.4-3-2.1-5-2.1s-3.7.7-5,2.1c-1.3,1.4-2,3.3-2,5.9s.7,4.4,2,5.9c1.3,1.4,3,2.2,5,2.2s3.6-.7,5-2.1c1.3-1.4,2-3.4,2-5.9s-.7-4.4-2-5.8Z"/>
    <path class="st1" d="M841.8,101.7c2.6,2.9,3.9,6.9,3.9,12v22.4h-13.4v-20.6c0-2.2-.6-3.9-1.7-5.2s-2.7-1.9-4.6-1.9-3.6.6-4.7,1.9c-1.1,1.3-1.7,3-1.7,5.2v20.6h-13.4v-38.4h13.4v5.5c1.2-1.7,2.8-3.1,4.8-4.2,2-1.1,4.3-1.6,6.9-1.6,4.4,0,7.9,1.5,10.5,4.4Z"/>
    <path class="st1" d="M875.7,124.6v11.4h-5.8c-9.8,0-14.7-4.9-14.7-14.6v-12.7h-4.7v-11.2h4.7v-9.3h13.5v9.3h7v11.2h-7v12.9c0,1.1.2,1.8.7,2.3s1.3.7,2.4.7h3.9Z"/>
  </g>
  <g>
    <path class="st0" d="M934.2,216.1c0-.1.2-.2.3-.4"/>
    <path class="st0" d="M936.4,217.1c-.9-1.2-.7-2.9.1-4.1,11-15.6,15.1-39.1,6.3-60,0,0,0-.1,0-.2-4.2-14.8-27.6-35.2-40.2-33.5-3.9.2-5.3,2-1.4,5.5s.1,0,.2.1c3.1,2.2,13.9,8.7,16.7,12.1,19,18.1,19.1,47.7,7.4,63.4,0,0,0,0,0,.1l-.3.4c-.7.8-2.1.5-2.4-.5-1.2-4.4-3.5-11.3-8.1-9.2-4.8,2.2-9.4,16.1-11.2,21.2-.8,2.2-3.9,11.2-3.6,12.9.4,1.9,2.4,2.8,4.6,3.3,3.5,1.2,7.9,1.5,10.5,1.8,5.4.6,23.4,1.5,27.6-.9,4.9-2.9.5-6.5-3.6-9.9s-2-1.9-2.5-2.6Z"/>
  </g>
</svg>