<svg width="152" height="125" viewBox="0 0 152 125" fill="none" xmlns="http://www.w3.org/2000/svg">
<g clip-path="url(#clip0_6228_771)">
<path d="M78.8146 91.2483C78.7526 91.4459 78.6905 91.621 78.6172 91.813C80.0781 92.2421 81.6461 93.3772 82.7122 95.9183C83.2932 97.2735 83.5019 98.6401 83.5865 99.8542C86.0344 100.165 87.1174 99.6509 87.1174 99.6396C88.8772 98.7022 88.4993 97.443 88.2963 96.9743C87.7322 96.7089 86.7733 96.1555 85.1263 95.1221C83.0168 93.8233 80.4898 92.084 78.8202 91.2483H78.8146Z" fill="#EB088B"/>
<path d="M149.343 60.4274C149.005 53.7697 146.963 47.095 139.969 40.3978C138.643 39.1272 136.579 38.5174 135.383 38.9465C125.602 42.4759 116.826 45.8866 112.37 47.6597C113.831 48.8399 114.756 50.0427 115.168 51.2455C116.978 57.1974 114.598 59.857 113.927 60.7436C113.65 61.0429 113.255 61.2236 112.928 61.2236C112.787 61.2236 112.663 61.1897 112.562 61.1333C112.201 60.9243 112.229 60.3822 112.618 59.9643C112.624 59.9643 112.635 59.953 112.641 59.9474C112.714 59.7215 114.998 57.5983 113.396 51.9118C113.007 50.6639 111.907 49.382 110.08 48.0945C104.62 44.232 94.4726 41.6796 94.4218 41.6627C94.309 41.6345 94.2131 41.6006 94.1003 41.5385C86.497 37.9583 83.5977 39.0651 82.2779 39.6693C81.5615 39.9912 76.2482 42.0806 73.5577 43.1817C73.4674 43.2269 73.3828 43.2551 73.2982 43.2834C73.2192 43.3173 73.1403 43.3568 73.0669 43.385C72.9823 43.4132 72.909 43.4415 72.847 43.4754C72.7906 43.4923 72.7511 43.5205 72.7059 43.5318C72.6947 43.5488 72.6608 43.5431 72.6552 43.5657C71.4763 44.4749 71.7019 46.5134 71.6794 46.6941C72.2604 50.2968 69.5642 54.1593 69.457 54.3231C69.4006 54.3965 69.3499 54.4586 69.2765 54.5207C68.0807 55.5541 67.5167 56.9319 67.9228 57.8355C68.3515 58.7615 70.0944 59.2754 73.7438 57.9145C76.6881 56.8134 78.9782 54.9612 80.0555 52.3862C80.8847 50.4493 80.5801 48.8117 80.5688 48.7665C80.4785 48.2809 80.7944 47.8574 81.3021 47.8348C81.8153 47.8065 82.323 48.1736 82.402 48.6592C82.402 48.7044 82.5599 49.478 82.4302 50.6131C83.3834 50.3138 84.331 50.0201 85.273 49.7208C85.3632 49.687 85.4478 49.6757 85.5437 49.6757C85.6565 49.6757 90.6145 49.6531 94.4275 53.2953C96.7683 55.6049 99.3798 57.6039 101.044 58.9253C101.884 59.5747 102.454 60.0603 102.747 60.4048C102.888 60.5742 103.057 60.7549 103.227 60.9638C104.129 62.0311 105.573 63.8155 107.434 65.8484C108.45 66.9213 111.304 70.3377 112.105 73.1838C112.894 72.8562 113.87 72.2577 114.824 71.1791C114.824 71.1678 114.835 71.1565 114.84 71.1452C115.461 70.4394 116.031 69.5867 116.504 68.6267C116.736 68.1467 117.334 67.7401 117.819 67.7458C118.315 67.7288 118.524 68.1185 118.292 68.5985C118.078 69.0502 117.83 69.4624 117.576 69.869C117.931 69.7674 118.304 69.6601 118.682 69.6036C119.296 69.4963 122.872 68.7848 127.058 67.966C134.12 66.5825 142.998 64.8546 145.113 64.5045C145.113 64.5045 145.124 64.5045 145.13 64.5045C147.268 64.1261 149.439 62.0819 149.355 60.3992C149.355 60.4048 149.349 60.4104 149.343 60.4217V60.4274Z" fill="#EB088B"/>
<path d="M75.9041 93.157C75.921 93.1231 76.9702 91.4968 77.4496 89.8422C77.4496 89.8084 77.4609 89.7914 77.4778 89.7688C77.4778 89.7688 77.4778 89.7575 77.4778 89.7519C77.6978 88.8936 77.726 88.0296 77.1789 87.3802C75.7462 85.6635 73.2644 86.1322 72.3675 86.3637C71.9219 88.8936 70.4046 91.4629 70.399 91.4968C70.3595 91.5532 70.2975 91.6775 70.2185 91.8187C69.3893 93.1118 68.0864 96.6637 65.9091 97.827C66.8906 98.4199 68.1089 98.9394 69.3611 99.2895C71.1774 99.809 72.7229 99.8824 73.2926 99.4984C74.133 98.8547 74.9057 95.3423 75.8477 93.2925C75.8646 93.236 75.8928 93.1852 75.9154 93.1513C75.9154 93.1513 75.9154 93.1513 75.921 93.1513L75.9041 93.157Z" fill="#EB088B"/>
<path d="M77.9291 93.3828C77.7034 93.8346 77.5286 94.1734 77.4496 94.2976C77.083 94.9978 76.2369 98.6796 75.5488 100.408C77.7937 102.141 79.8355 102.457 80.3939 102.508C80.9524 102.559 81.2964 102.361 81.3754 101.966C81.5051 100.938 82.0748 98.3069 81.1272 96.0538C80.2247 93.9588 78.7074 93.4845 77.9347 93.3828H77.9291Z" fill="#EB088B"/>
<path d="M53.0488 87.7189C52.8119 87.5665 51.1593 86.4653 49.8845 85.9684C48.5928 85.4545 46.8499 84.3534 45.0845 82.8569C44.3794 87.5608 47.2448 90.3617 51.8474 91.1692C52.8345 91.3442 53.0883 90.9885 53.1842 90.8755C53.658 90.2487 53.5001 88.7862 53.4155 87.99C53.2406 87.8714 53.1109 87.7641 53.0545 87.7189H53.0488Z" fill="#EB088B"/>
<path d="M105.692 67.2772C103.825 65.2161 102.409 63.4091 101.523 62.3192C101.343 62.1103 101.196 61.9296 101.061 61.7602C100.824 61.4891 100.226 60.9922 99.5265 60.4106C97.8738 59.0609 95.2905 56.9998 92.9723 54.5999C90.1746 51.7595 86.3785 51.4771 85.7242 51.4546C84.4551 51.8498 83.1747 52.2508 81.8887 52.6461C81.8492 52.7364 81.8154 52.8437 81.7759 52.934C80.8847 55.0516 78.4931 57.9203 74.0258 59.5635C72.2716 60.2129 70.7487 60.5404 69.4965 60.5348C69.2483 60.5348 69.0171 60.5178 68.8084 60.5009C67.5167 60.3428 66.5917 59.7668 66.163 58.8181C65.4466 57.2201 66.1968 54.9782 67.9397 53.3406C68.3346 52.7364 70.1677 49.5628 69.7503 46.7112C68.6561 46.8241 67.1106 47.0104 65.8922 47.321C65.2267 47.4848 64.6852 47.8123 64.0929 48.1455C62.8633 48.857 61.4363 49.6363 59.0898 48.8287C57.9843 48.456 55.1471 47.1234 50.8208 45.2768C44.6558 42.6228 35.4223 39.133 27.9317 36.942C25.8447 36.3265 24.6997 36.8573 25.0663 38.1787C26.9841 45.4971 23.3855 52.838 18.2526 60.2016C17.1245 61.8505 17.5363 63.9286 19.189 64.4876C27.4297 67.328 32.6133 70.9985 32.8672 71.1849C33.3692 71.5406 34.0573 71.7213 34.8582 71.919C36.2402 72.286 37.9549 72.7321 39.3876 74.3528C40.3352 75.4257 40.792 75.8492 41.2489 76.3066C41.8073 76.8544 42.3714 77.419 43.9451 79.1131C47.4873 82.8909 49.9917 84.0372 50.6178 84.297C52.1294 84.9125 53.9457 86.2 54.0246 86.2452C54.0359 86.2621 54.0698 86.2791 54.0754 86.296C54.0754 86.296 54.3236 86.5049 54.662 86.7647C55.8296 87.6117 56.2978 87.6851 56.3654 87.6964C56.9295 87.5722 57.6346 87.6738 58.4694 87.9901C58.554 88.0239 58.6555 88.0239 58.7401 87.9562C58.9714 87.8207 59.2139 87.6795 59.4621 87.544C59.6369 86.9623 60.0825 85.9007 61.0471 84.856C62.3049 83.4838 64.7698 81.897 68.5151 82.0947C70.7036 82.2246 71.9219 82.9925 72.2998 84.4156C72.3224 84.472 72.328 84.5398 72.345 84.5963C73.7156 84.2744 76.6994 83.8961 78.4931 86.1548C79.3166 87.1826 79.3956 88.3741 79.2264 89.5543C80.9975 90.4352 83.4624 92.2196 85.7186 93.6991C86.8692 94.4614 88.2737 95.3423 88.6234 95.4722C89.3228 95.619 89.8869 95.5343 89.8869 95.5343C89.9489 95.5174 90.0223 95.5174 90.1125 95.5343C90.214 95.5456 90.3325 95.5682 90.434 95.5626C92.2108 95.5456 92.9215 93.0836 93.1527 91.2483C93.1527 91.2483 93.1415 91.1072 92.944 90.7966C92.8707 90.7232 92.7917 90.6328 92.7466 90.5312C92.2954 89.9439 91.3591 88.9444 89.4977 87.4197C87.6251 85.8781 85.8032 84.585 85.775 84.5737C85.4196 84.3139 85.3914 83.7888 85.7411 83.3652C86.0908 82.9417 86.638 82.8005 86.982 83.0603C87.0554 83.1168 88.8773 84.4382 90.7386 86.0532C92.3913 87.4762 93.4178 88.5548 94.0101 89.3905C96.537 89.8874 97.1011 89.2832 98.1107 88.3006C98.342 88.0748 98.6015 87.8319 98.8835 87.5891C99.4024 87.1487 100.181 85.9628 100.35 84.4269C100.429 83.6476 100.367 82.6707 99.7578 81.6881C99.7578 81.6881 99.7521 81.6768 99.7465 81.6712C99.3404 81.0105 98.6973 80.3667 97.7103 79.7738C92.2051 76.5099 95.1156 71.7947 95.251 71.5971C95.7812 71.7044 96.3114 71.806 96.836 71.9133C96.836 71.9133 96.836 71.902 96.8416 71.8964C96.7345 72.0488 94.6644 75.5273 99.064 78.1757C100.158 78.8477 100.886 79.5988 101.348 80.3611C103.024 81.6938 105.19 81.6203 107.231 80.1747C109.121 78.8364 110.452 76.7075 110.351 75.1095C110.08 72.9354 107.841 69.6433 105.692 67.2828C105.692 67.2828 105.703 67.2828 105.703 67.2772H105.692Z" fill="#EB088B"/>
<path d="M68.7407 90.7682C68.8366 90.6158 68.9099 90.4972 68.9607 90.4012C69.4401 89.5824 71.0476 86.6742 70.6585 85.1326C70.4385 84.3759 69.5868 83.9355 68.0864 83.8564C62.2598 83.5458 60.9117 88.1255 61.0019 88.3288C60.9624 88.5998 60.7989 88.8313 60.5733 88.9556C60.2517 89.125 59.9472 89.3283 59.6426 89.509C59.1518 89.8308 58.5314 89.893 57.9504 89.6727C57.3469 89.4469 56.9408 89.4073 56.7716 89.4525C56.4952 89.5259 56.0327 89.5316 55.1809 89.125C55.2035 89.9607 55.1809 90.9376 54.8425 91.7056C56.9972 95.1502 59.3944 95.5907 60.1277 95.6359C60.7255 95.6472 61.3404 95.8053 61.9439 96.082C62.5474 96.3474 63.0946 96.466 63.6191 96.4377C65.4692 96.3022 66.6199 94.3992 68.7238 90.7852C68.7238 90.7852 68.7294 90.7852 68.735 90.7852L68.7407 90.7682Z" fill="#EB088B"/>
<path d="M104.783 115.412C106.12 113.977 107.282 112.554 108.038 111.148C108.585 113.017 108.444 114.892 108.173 116.761C108.162 116.84 108.185 116.919 108.241 116.97C109.516 118.184 110.762 119.381 112.133 120.562C110.238 120.545 108.337 120.533 106.442 120.516C106.357 120.516 106.278 120.55 106.222 120.612C104.874 122.058 103.661 123.521 102.849 124.994C102.324 123.091 102.499 121.194 102.798 119.291C102.809 119.212 102.787 119.127 102.73 119.076C101.467 117.851 100.265 116.614 98.9737 115.361C100.841 115.406 102.702 115.451 104.569 115.491C104.648 115.491 104.727 115.457 104.789 115.395L104.783 115.412Z" fill="#EB088B"/>
<path d="M54.0528 112.961C54.2897 111.865 54.4364 110.775 54.1995 109.686C55.0738 110.6 55.6886 111.504 56.2244 112.402C56.2639 112.469 56.3316 112.509 56.4106 112.52C57.4823 112.616 58.5483 112.707 59.62 112.803C58.6724 113.407 57.6797 114.017 56.6982 114.638C56.6249 114.683 56.5741 114.762 56.5572 114.836C56.3372 115.914 56.2019 116.998 56.4388 118.082C55.5363 117.202 54.8933 116.315 54.3574 115.417C54.3179 115.349 54.2502 115.31 54.1656 115.304C53.0827 115.225 51.9997 115.14 50.9167 115.056C51.9038 114.418 52.9191 113.791 53.9005 113.164C53.9739 113.119 54.0246 113.04 54.0416 112.961H54.0528Z" fill="#EB088B"/>
<path d="M146.427 84.1502C146.664 83.0547 146.811 81.9649 146.574 80.875C147.448 81.7898 148.063 82.6933 148.599 83.5912C148.638 83.6589 148.706 83.6985 148.785 83.7098C149.857 83.8057 150.923 83.8961 151.994 83.9921C151.047 84.5963 150.054 85.2062 149.073 85.8273C148.999 85.8725 148.948 85.9459 148.932 86.025C148.712 87.1035 148.576 88.1877 148.813 89.272C147.911 88.391 147.268 87.5045 146.732 86.6123C146.692 86.5445 146.625 86.505 146.54 86.4993C145.457 86.4203 144.374 86.3356 143.291 86.2509C144.278 85.6128 145.293 84.9859 146.275 84.3591C146.348 84.314 146.399 84.2406 146.416 84.1559L146.427 84.1502Z" fill="#EB088B"/>
<path d="M38.7897 21.848C39.0266 20.7525 39.1732 19.6626 38.9363 18.5728C39.8106 19.4876 40.4254 20.3911 40.9613 21.2889C41.0007 21.3567 41.0684 21.3962 41.1474 21.4075C42.2191 21.5035 43.2851 21.5939 44.3568 21.6898C43.4092 22.2941 42.4165 22.9039 41.4351 23.5251C41.3617 23.5703 41.311 23.6437 41.294 23.7227C41.0741 24.8013 40.9387 25.8855 41.1756 26.9697C40.2731 26.0888 39.6301 25.2022 39.0942 24.3044C39.0548 24.2366 38.9871 24.1971 38.9025 24.1914C37.8195 24.1067 36.7365 24.0277 35.6535 23.943C36.6406 23.3049 37.6559 22.6781 38.6374 22.0513C38.7107 22.0061 38.7615 21.9327 38.7784 21.848H38.7897Z" fill="#EB088B"/>
<path d="M12.2455 101.424C13.3059 104.281 14.6822 107.122 16.8651 109.951C15.9795 106.817 16.0472 103.683 16.4082 100.554C16.4308 100.385 16.6056 100.255 16.7748 100.295C19.7643 101.04 22.7876 101.774 25.8391 102.497C23.4532 100.56 21.2647 98.595 19.11 96.6129C18.9915 96.5056 19.0254 96.2967 19.1777 96.195C21.9415 94.3033 24.6715 92.4342 27.2323 90.5877C24.1582 91.2032 21.056 91.8243 17.9311 92.4511C17.7563 92.485 17.6153 92.3551 17.6322 92.1801C18.0101 89.0517 18.0947 85.9233 17.2261 82.7949C16.6846 85.5676 15.3647 88.3515 13.7346 91.158C13.6444 91.3105 13.4413 91.3556 13.3172 91.2427C11.0948 89.2042 8.7484 87.1487 6.09737 85.065C7.78952 87.9788 8.84429 90.8757 9.76369 93.7556C9.81446 93.9137 9.69601 94.1 9.52115 94.1339C6.36247 94.7607 3.18688 95.3932 0 96.0426C2.92742 96.8049 5.86611 97.5616 8.82173 98.307C8.9853 98.3465 9.04735 98.5385 8.94582 98.6966C7.1183 101.526 5.39795 104.372 4.26985 107.235C6.58245 105.247 9.16016 103.276 11.8394 101.334C11.986 101.226 12.1891 101.277 12.2455 101.435V101.424Z" fill="#EB088B"/>
<path fill-rule="evenodd" clip-rule="evenodd" d="M128.062 22.3562C129.32 22.1642 130.566 22.4918 131.548 23.3049C131.452 18.8777 131.361 14.4506 131.266 10.0234C137.115 9.14247 143.032 9.09729 149.027 6.11572C148.683 12.3838 148.334 18.6519 147.99 24.9199C147.696 29.6351 142.569 32.8595 139.67 29.6351C136.742 26.6253 138.762 21.9101 143.178 21.1873C144.47 20.9614 145.711 21.1139 146.647 21.7633C146.816 18.3018 146.986 14.8346 147.155 11.373C142.366 13.2252 137.628 13.3833 132.941 13.8633C132.997 18.0928 133.054 22.3224 133.11 26.5519C133.11 30.5838 128.254 32.1367 125.213 30.1659C122.145 28.421 123.752 23.1581 128.067 22.3506L128.062 22.3562Z" fill="#EB088B"/>
<path d="M90.8345 7.14899C92.1431 6.29066 93.4799 5.44362 94.7603 4.60223C93.2543 4.51753 91.7482 4.42718 90.2422 4.33683C90.1351 4.33118 90.0505 4.26342 90.0279 4.16177C89.6669 2.77828 89.1762 1.39479 88.2117 0C88.1609 1.34396 87.642 2.69922 86.9764 4.06013C86.9256 4.16742 86.8128 4.23518 86.7056 4.23518C85.194 4.23518 83.6823 4.23518 82.1707 4.23518C83.2311 5.18386 84.2464 6.1156 85.3181 7.0417C85.397 7.10946 85.4196 7.22804 85.3689 7.33534C84.7597 8.73577 84.2633 10.1418 84.2351 11.5536C85.2842 10.7291 86.4857 9.91597 87.7604 9.11411C87.8507 9.05764 87.9691 9.05764 88.0594 9.11411C89.3341 9.94985 90.7217 10.78 92.301 11.5988C91.3873 10.2209 90.9699 8.83177 90.6935 7.44263C90.6709 7.33534 90.7273 7.2111 90.8288 7.14334L90.8345 7.14899Z" fill="#EB088B"/>
</g>
<defs>
<clipPath id="clip0_6228_771">
<rect width="152" height="125" fill="white"/>
</clipPath>
</defs>
</svg>
