<?xml version="1.0" encoding="UTF-8"?>
<svg id="Layer_1" xmlns="http://www.w3.org/2000/svg" version="1.1" viewBox="0 0 108.8 25.8">
  <!-- Generator: Adobe Illustrator 29.6.0, SVG Export Plug-In . SVG Version: 2.1.1 Build 207)  -->
  <defs>
    <style>
      .st0 {
        fill: #ffef09;
        stroke: #000;
        stroke-linecap: round;
        stroke-linejoin: round;
        stroke-width: .5px;
      }
    </style>
  </defs>
  <g>
    <path d="M2.4,17.4c0-2.8.3-5.5.4-8.3,0-1.1,0-2.1,0-3.2,0-.5.2-.9.4-1.3s.6-.6,1-.5c1.6,0,3.2,0,4.8-.2,1.3,0,2.7,0,4.1,0s1,.2,1,1.1v3.8c0,.8-.4,1.2-1.2,1.3h-1.9c-.5,0-1,.1-1.4.2-.5.1-.8.6-.7,1,0,.4.4.7,1,.7h1c.8,0,1.2.4,1.3,1.1v3c0,.4-.3.7-.7.7h-2c-.5,0-.8.5-.8.9s.3.7.7.7c.7,0,1.5.1,2.2.2h1.8c.4,0,.7.2.7.7v4.5c0,.5-.3.8-.7.8h-2.9c-2.1,0-4.1-.1-6.2,0-1.3,0-1.8-.3-1.9-1.7v-5.3h0v-.2Z"/>
    <path d="M28.6,24.8c-.9-.1-1.8-.2-2.7-.3h-1.3c-.5,0-.8,0-1-.5-.2-.3-.4-.6-.5-.9-1.3-2.8-2.6-5.6-3.7-8.4-1.3-3.3-2.5-6.6-3.7-9.9q-.3-.9.6-1.1c.9-.2,1.8-.4,2.7-.2.9.2,1.8.2,2.6.3.5,0,.8.3,1,.8,0,.2.1.4.2.7.5,2.8,1.6,5.4,2.8,7.9.5,1.1.9,2.2,1,3.4,0,.4,0,.8.5.8s.5-.4.7-.8c.2-.8.4-1.5.6-2.3.8-3.1,1.6-6.2,2.5-9.4q.3-1,1.4-.9c1.1,0,2.2,0,3.3,0s.9-.2,1.3-.2c.9,0,1.1.3.8,1.2-.7,1.9-1.3,3.8-2,5.7-1.4,4-2.8,7.9-4.2,11.9-.6,1.7-1.1,2.1-2.8,2h0v.2Z"/>
    <path d="M39.2,17.4c0-2.8.3-5.5.4-8.3,0-1.1,0-2.1,0-3.2,0-.5.2-.9.4-1.3s.6-.6,1-.5c1.6,0,3.2,0,4.8-.2,1.3,0,2.7,0,4.1,0s1,.2,1,1.1v3.8c0,.8-.4,1.2-1.2,1.3h-1.9c-.5,0-1,.1-1.4.2-.5.1-.8.6-.7,1,0,.4.4.7,1,.7h1c.8,0,1.2.4,1.3,1.1v3c0,.4-.3.7-.7.7h-2c-.5,0-.8.5-.8.9s.3.7.7.7c.7,0,1.5.1,2.2.2h1.8c.4,0,.7.2.7.7v4.5c0,.5-.3.8-.7.8h-2.9c-2.1,0-4.1-.1-6.2,0-1.3,0-1.8-.3-1.9-1.7v-5.3h0v-.2Z"/>
    <path d="M71.6,19.6c0,1.1,0,2.3-.2,3.4,0,.9-.2,1.2-1.1,1.3-.8.1-1.6.1-2.4.1s-1.3-.4-1.7-1c-.8-1.1-1.6-2.3-2.3-3.5-.9-1.7-1.7-3.4-2.5-5.1-.2-.3-.3-.6-.5-.9,0-.1-.4-.2-.5-.1-.2,0-.3.3-.4.5v1.7c0,2.3,0,4.6-.2,7,0,1-.2,1.3-1.2,1.5s-2,.3-3.1.4-2.2-.7-2.1-2.1c0-3.4,0-6.7.2-10.1v-7.2c0-1.2.5-1.7,1.6-1.8,1,0,2.1,0,3.1,0s1.4.5,1.8,1.1c1.1,1.8,2.2,3.6,3.2,5.3.8,1.3,1.5,2.6,2.3,3.9,0,.2.4.4.5.3.2,0,.4-.3.4-.5,0-.4,0-.8,0-1.1-.3-1-.4-1.9-.4-2.9v-4.9c0-1,.3-1.5,1.3-1.4,1.1,0,2.3.2,3.4.4.8.2,1,.4,1,1.3v7.7h0v6.9h0Z"/>
    <path d="M78.6,15v-3.6c0-.5,0-1,.2-1.5s0-.8-.5-.8h-1.5c-.8.2-1.6.4-2.5.6-.8.2-.9,0-.9-.8v-1.2c.3-1.1.5-2.2.4-3.3,0-.5.3-.7.7-.7.7,0,1.4,0,2.1,0,1.1,0,2.2,0,3.3,0,2.9-.4,5.8-.6,8.7-.3.9,0,1.3.3,1.4,1.2.2,1.3.3,2.6,0,3.8-.2.7-.5.9-1.2.9-1.1,0-2.1-.2-3.2-.3-.9-.1-1,0-1,.9v13.6c0,1.1-.5,1.3-1.5,1.2-1.1,0-2.3-.2-3.4-.2s-.9,0-1-.8,0-1.5,0-2.3v-1.3h0v-5h0Z"/>
    <path d="M99.9,25.6c-3,0-5.2-.6-7-2-.6-.5-1.1-1.2-1.6-1.9-.3-.4-.3-.9.2-1.2,1-.7,1.9-1.3,2.9-2,.3-.2.6-.2,1,.1.6.5,1.2.9,1.8,1.4.9.6,1.9.7,3,.6,1.4,0,2-1.2,1.6-2.1-.2-.5-.6-.9-1-1.3-1.5-1.4-3.5-2.2-5.3-3.2-1.7-.9-2.9-2.1-3.9-3.4-.6-.9-.6-1.9-.5-2.9.4-2.1,1.7-3.5,3.8-4.4,1.7-.7,3.5-1,5.3-.7.9,0,1.7.3,2.6.5.8.2,1.5.6,2.1,1,1.6,1,1.6,1.4.3,2.6-.7.6-1.4,1.3-2.1,1.9-.6.6-1.1.6-1.8.1-.5-.3-.9-.6-1.4-.7-.7-.2-1.4,0-1.8.6-.3.5-.3,1.1.4,1.5,1.2.9,2.6,1.6,3.9,2.4,1.5.9,3,1.8,4.2,3,1.7,1.8,2.1,3.8,1.4,6-.2.7-.8,1.3-1.4,1.9-1.1,1.1-2.6,1.7-4.2,2-1,.2-2.1.2-2.6.3h0Z"/>
  </g>
  <g>
    <path class="st0" d="M.5,15.5c.1-2.8.3-5.5.4-8.3,0-1.1,0-2.1.1-3.2,0-.5.2-.9.4-1.3.2-.4.6-.6,1-.5,1.6,0,3.2,0,4.8-.2,1.3-.1,2.7,0,4.1,0s1,.2,1,1.1v3.8c0,.8-.4,1.2-1.2,1.3h-1.9c-.5,0-1,.1-1.4.2-.5.1-.8.6-.7,1,0,.4.4.7,1,.7h1c.8,0,1.2.4,1.3,1.1v3c0,.4-.3.7-.7.7h-2c-.5,0-.8.5-.8.9s.3.7.7.7c.7,0,1.5.1,2.2.2h1.8c.4,0,.7.2.7.7v4.5c0,.5-.3.8-.7.8h-2.9c-2.1,0-4.1-.1-6.2,0-1.3,0-1.8-.3-1.9-1.7v-5.3h-.1v-.2Z"/>
    <path class="st0" d="M26.7,22.8c-.9-.1-1.8-.2-2.7-.3h-1.3c-.5,0-.8,0-1-.5-.2-.3-.4-.6-.5-.9-1.3-2.8-2.6-5.6-3.7-8.4-1.3-3.3-2.5-6.6-3.7-9.9q-.3-.9.6-1.1c.9-.2,1.8-.4,2.7-.2.9.2,1.8.2,2.6.3.5,0,.8.3,1,.8,0,.2.1.4.2.7.5,2.8,1.6,5.4,2.8,7.9.5,1.1.9,2.2,1,3.4,0,.4,0,.8.5.8s.5-.4.7-.8c.2-.8.4-1.5.6-2.3.8-3.1,1.6-6.2,2.5-9.4q.3-1,1.4-.9c1.1,0,2.2,0,3.3,0s.9-.2,1.3-.2c.9,0,1.1.3.8,1.2-.7,1.9-1.3,3.8-2,5.7-1.4,4-2.8,7.9-4.2,11.9-.6,1.7-1.1,2.1-2.8,2h0v.2Z"/>
    <path class="st0" d="M37.2,15.5c0-2.8.3-5.5.4-8.3,0-1.1,0-2.1,0-3.2,0-.5.2-.9.4-1.3s.6-.6,1-.5c1.6,0,3.2,0,4.8-.2,1.3-.1,2.7,0,4.1,0s1,.2,1,1.1v3.8c0,.8-.4,1.2-1.2,1.3h-1.9c-.5,0-1,.1-1.4.2-.5.1-.8.6-.7,1,0,.4.4.7,1,.7h1c.8,0,1.2.4,1.3,1.1v3c0,.4-.3.7-.7.7h-2c-.5,0-.8.5-.8.9s.3.7.7.7c.7,0,1.5.1,2.2.2h1.8c.4,0,.7.2.7.7v4.5c0,.5-.3.8-.7.8h-2.9c-2.1,0-4.1-.1-6.2,0-1.3,0-1.8-.3-1.9-1.7v-5.3h0v-.2Z"/>
    <path class="st0" d="M69.7,17.7c0,1.1,0,2.3-.2,3.4,0,.9-.2,1.2-1.1,1.3-.8.1-1.6.1-2.4.1s-1.3-.4-1.7-1c-.8-1.1-1.6-2.3-2.3-3.5-.9-1.7-1.7-3.4-2.5-5.1-.2-.3-.3-.6-.5-.9,0-.1-.4-.2-.5-.1-.2,0-.3.3-.4.5v1.7c0,2.3,0,4.6-.2,7,0,1-.2,1.3-1.2,1.5s-2,.3-3.1.4-2.2-.7-2.1-2.1c0-3.4,0-6.7.2-10.1V3.6c0-1.2.5-1.7,1.6-1.8,1-.1,2.1-.1,3.1-.1s1.4.5,1.8,1.1c1.1,1.8,2.2,3.6,3.2,5.3.8,1.3,1.5,2.6,2.3,3.9,0,.2.4.4.5.3.2,0,.4-.3.4-.5,0-.4,0-.8,0-1.1-.3-1-.4-1.9-.4-2.9V2.9c0-1,.3-1.5,1.3-1.4,1.1,0,2.3.2,3.4.4.8.2,1,.4,1,1.3v7.7h0v6.9h0Z"/>
    <path class="st0" d="M76.7,13.1v-3.6c0-.5,0-1,.2-1.5s0-.8-.5-.8h-1.5c-.8.2-1.6.4-2.5.6-.8.2-.9,0-.9-.8v-1.2c.3-1.1.5-2.2.4-3.3,0-.5.3-.7.7-.7.7,0,1.4-.1,2.1,0,1.1.1,2.2.1,3.3,0,2.9-.4,5.8-.6,8.7-.3.9,0,1.3.3,1.4,1.2.2,1.3.3,2.6,0,3.8-.2.7-.5.9-1.2.9-1.1,0-2.1-.2-3.2-.3-.9,0-1,0-1,.9v13.6c0,1.1-.5,1.3-1.5,1.2-1.1,0-2.3-.2-3.4-.2s-.9,0-1-.8,0-1.5,0-2.3v-1.3h0v-5h0Z"/>
    <path class="st0" d="M97.9,23.7c-3,0-5.2-.6-7-2-.6-.5-1.1-1.2-1.6-1.9-.3-.4-.3-.9.2-1.2,1-.7,1.9-1.3,2.9-2,.3-.2.6-.2,1,.1.6.5,1.2.9,1.8,1.4.9.6,1.9.7,3,.6,1.4,0,2-1.2,1.6-2.1-.2-.5-.6-.9-1-1.3-1.5-1.4-3.5-2.2-5.3-3.2-1.7-.9-2.9-2.1-3.9-3.4-.6-.9-.6-1.9-.5-2.9.4-2.1,1.7-3.5,3.8-4.4,1.7-.7,3.5-1,5.3-.7.9.1,1.7.3,2.6.5.8.2,1.5.6,2.1,1,1.6,1,1.6,1.4.3,2.6-.7.6-1.4,1.3-2.1,1.9-.6.6-1.1.6-1.8,0-.5-.3-.9-.6-1.4-.7-.7-.2-1.4,0-1.8.6-.3.5-.3,1.1.4,1.5,1.2.9,2.6,1.6,3.9,2.4,1.5.9,3,1.8,4.2,3,1.7,1.8,2.1,3.8,1.4,6-.2.7-.8,1.3-1.4,1.9-1.1,1.1-2.6,1.7-4.2,2-1,.2-2.1.2-2.6.3h0Z"/>
  </g>
</svg>