<?xml version="1.0" encoding="UTF-8"?>
<svg id="Layer_1" xmlns="http://www.w3.org/2000/svg" version="1.1" viewBox="0 0 94.5 25.8">
  <!-- Generator: Adobe Illustrator 29.4.0, SVG Export Plug-In . SVG Version: 2.1.0 Build 152)  -->
  <defs>
    <style>
      .st0 {
        fill: #ffef09;
        stroke: #000;
        stroke-linecap: round;
        stroke-linejoin: round;
        stroke-width: .5px;
      }
    </style>
  </defs>
  <g>
    <path d="M3.5,9.3c0-1.1,0-2.1.1-3.2,0-.5.2-.9.4-1.3.2-.4.6-.5,1-.5,1.6.1,3.2,0,4.8-.2,1.3-.1,2.7,0,4.1,0,.8,0,1,.2,1,1.1,0,1.2,0,2.5,0,3.7,0,.8-.4,1.2-1.2,1.3-.6,0-1.2,0-1.9,0s-.9.1-1.4.2c-.5.1-.8.6-.7,1,0,.4.4.6,1,.7.3,0,.7,0,1,0,.8,0,1.2.4,1.2,1.1,0,1,0,2,0,3,0,.4-.3.7-.7.7-.4,0-.7,0-1.1,0-.3,0-.6,0-.9,0-.5,0-.8.5-.8.9,0,.4.3.7.7.7.7,0,1.5.1,2.2.2.6,0,1.2,0,1.8,0,.4,0,.7.2.7.7,0,1.5,0,3,0,4.5,0,.5-.3.8-.7.8-1,0-1.9,0-2.9,0-2.1,0-4.1-.1-6.2,0-1.3,0-1.8-.3-1.9-1.7,0-1.8,0-3.5,0-5.3h-.1c.1-2.8.3-5.5.4-8.2Z"/>
    <path d="M21.4,20.1c0-1.6,0-3.3,0-4.9,0-1.2,0-2.4,0-3.6,0-.5,0-1,.2-1.5.2-.5,0-.8-.5-.8-.5,0-1,0-1.5,0-.8.2-1.6.4-2.5.6-.8.2-.9,0-.9-.8,0-.4,0-.8,0-1.2.3-1.1.5-2.1.4-3.3,0-.5.3-.7.7-.7.7,0,1.4-.1,2.1,0,1.1.1,2.2.1,3.3,0,2.9-.4,5.8-.6,8.7-.3.9,0,1.3.3,1.4,1.2.2,1.3.3,2.6,0,3.8-.2.7-.5.9-1.2.9-1.1,0-2.1-.2-3.2-.3-.9-.1-1,0-1,.9,0,1.5,0,3,0,4.5,0,2.7,0,5.4,0,8.2,0,.3,0,.6,0,.9-.1,1.1-.5,1.3-1.5,1.2-1.1,0-2.3-.2-3.4-.2-.8,0-.9,0-1-.8-.1-.8,0-1.5-.1-2.3,0-.4,0-.9,0-1.3h0Z"/>
    <path d="M34.5,13.9c0-2.8,0-5.7,0-8.5,0-.2,0-.4,0-.7,0-.5.3-.8.8-.7,1.3.3,2.6-.1,3.9,0,.1,0,.3,0,.4,0,.8,0,1.1.3,1.2,1.1,0,1.3.1,2.5.2,3.8,0,.4,0,.8,0,1.1.1.7.4.9,1.1,1,.4,0,.9,0,1.3,0,.9,0,1.1-.3,1.1-1.2,0-1.4,0-2.8,0-4.3,0-1.3.5-1.6,1.7-1.6.8,0,1.7,0,2.5,0,.3,0,.5,0,.8.1,1,.4,1,.4,1.1,1.4,0,3.2.2,6.5.3,9.7,0,1.2.1,2.4.1,3.6,0,1.4,0,2.8-.1,4.3,0,.8-.3,1.1-1,1.2-.8.1-1.5.3-2.3.3-.7,0-1.4-.2-2.1-.4-.5-.1-.5-.6-.5-1,0-1.2-.2-2.5-.2-3.7,0-.7,0-1.4,0-2.1,0-.9-.3-1.2-1.2-1.1-.5,0-1.1.1-1.6.3-.2,0-.5.3-.5.5-.1.4-.2.8-.2,1.2,0,1.3.1,2.6.1,3.9,0,.6,0,1.2-.2,1.8,0,.4-.3.5-.7.5-1-.1-2-.3-3-.3-.6,0-1.3,0-2,.1-.6,0-.8,0-.8-.6-.1-1.3-.2-2.6-.2-3.9,0-2,0-4,0-5.9h-.1Z"/>
    <path d="M65.3,25.9c-4.1,0-6.8-1.2-8.8-3.6-3.6-4.1-4.2-8.8-1.8-13.6,2.6-5.2,8.4-6.7,13-4.9,3.4,1.4,5.6,3.9,6.7,7.3,1.1,3.2.9,6.4-.8,9.4-1.9,3.6-5,5.4-8.4,5.5h0ZM60.4,17c1.5,2.8,5.3,3.4,7.5,1,2-2.2,2.1-5.3.1-7.7-.7-.8-1.6-1.3-2.6-1.5-.7,0-1.5-.2-2.1,0-2.3,1-3.6,2.8-3.6,5.3,0,1,.3,2,.7,2.9Z"/>
    <path d="M78,23.7c-.6-.5-1.1-1.2-1.6-1.9-.3-.4-.3-.9.2-1.2.9-.7,1.9-1.3,2.9-1.9.3-.2.6-.2.9.1.6.5,1.2.9,1.8,1.4.9.6,1.9.7,3,.6,1.3,0,2-1.2,1.6-2.1-.2-.5-.6-.9-1-1.3-1.5-1.4-3.4-2.2-5.3-3.2-1.7-.8-2.9-2.1-3.9-3.4-.6-.9-.6-1.9-.5-2.9.4-2.1,1.7-3.5,3.8-4.4,1.7-.7,3.4-1,5.3-.7.9.1,1.7.3,2.6.5.7.2,1.5.6,2.1,1,1.6,1,1.6,1.4.3,2.6-.7.6-1.4,1.3-2.1,1.9-.6.5-1.1.6-1.8.1-.5-.3-.9-.6-1.4-.7-.7-.2-1.4,0-1.8.6-.3.5-.2,1.1.4,1.5,1.2.8,2.5,1.6,3.8,2.4,1.5.9,3,1.8,4.2,3,1.7,1.8,2.1,3.8,1.4,5.9-.2.7-.8,1.3-1.4,1.9-1.1,1.1-2.6,1.7-4.2,2-1,.2-2.1.2-2.6.3-2.9,0-5.2-.6-7-2Z"/>
  </g>
  <g>
    <path class="st0" d="M1.5,7.3c0-1.1,0-2.1.1-3.2,0-.5.2-.9.4-1.3.2-.4.6-.5,1-.5,1.6.1,3.2,0,4.8-.2,1.3-.1,2.7,0,4.1,0,.8,0,1,.2,1,1.1,0,1.2,0,2.5,0,3.7,0,.8-.4,1.2-1.2,1.3-.6,0-1.2,0-1.9,0s-.9.1-1.4.2c-.5.1-.8.6-.7,1,0,.4.4.6,1,.7.3,0,.7,0,1,0,.8,0,1.2.4,1.2,1.1,0,1,0,2,0,3,0,.4-.3.7-.7.7-.4,0-.7,0-1.1,0-.3,0-.6,0-.9,0-.5,0-.8.5-.8.9,0,.4.3.7.7.7.7,0,1.5.1,2.2.2.6,0,1.2,0,1.8,0,.4,0,.7.2.7.7,0,1.5,0,3,0,4.5,0,.5-.3.8-.7.8-1,0-1.9,0-2.9,0-2.1,0-4.1-.1-6.2,0-1.3,0-1.8-.3-1.9-1.7,0-1.8,0-3.5,0-5.3h-.1c.1-2.8.3-5.5.4-8.2Z"/>
    <path class="st0" d="M19.4,18.1c0-1.6,0-3.3,0-4.9,0-1.2,0-2.4,0-3.6,0-.5,0-1,.2-1.5.2-.5,0-.8-.5-.8-.5,0-1,0-1.5,0-.8.2-1.6.4-2.5.6-.8.2-.9,0-.9-.8,0-.4,0-.8,0-1.2.3-1.1.5-2.1.4-3.3,0-.5.3-.7.7-.7.7,0,1.4-.1,2.1,0,1.1.1,2.2.1,3.3,0,2.9-.4,5.8-.6,8.7-.3.9,0,1.3.3,1.4,1.2.2,1.3.3,2.6,0,3.8-.2.7-.5.9-1.2.9-1.1,0-2.1-.2-3.2-.3-.9-.1-1,0-1,.9,0,1.5,0,3,0,4.5,0,2.7,0,5.4,0,8.2,0,.3,0,.6,0,.9-.1,1.1-.5,1.3-1.5,1.2-1.1,0-2.3-.2-3.4-.2-.8,0-.9,0-1-.8-.1-.8,0-1.5-.1-2.3,0-.4,0-.9,0-1.3h0Z"/>
    <path class="st0" d="M32.5,11.9c0-2.8,0-5.7,0-8.5,0-.2,0-.4,0-.7,0-.5.3-.8.8-.7,1.3.3,2.6-.1,3.9,0,.1,0,.3,0,.4,0,.8,0,1.1.3,1.2,1.1,0,1.3.1,2.5.2,3.8,0,.4,0,.8,0,1.1.1.7.4.9,1.1,1,.4,0,.9,0,1.3,0,.9,0,1.1-.3,1.1-1.2,0-1.4,0-2.8,0-4.3,0-1.3.5-1.6,1.7-1.6.8,0,1.7,0,2.5,0,.3,0,.5,0,.8.1,1,.4,1,.4,1.1,1.4,0,3.2.2,6.5.3,9.7,0,1.2.1,2.4.1,3.6,0,1.4,0,2.8-.1,4.3,0,.8-.3,1.1-1,1.2-.8.1-1.5.3-2.3.3-.7,0-1.4-.2-2.1-.4-.5-.1-.5-.6-.5-1,0-1.2-.2-2.5-.2-3.7,0-.7,0-1.4,0-2.1,0-.9-.3-1.2-1.2-1.1-.5,0-1.1.1-1.6.3-.2,0-.5.3-.5.5-.1.4-.2.8-.2,1.2,0,1.3.1,2.6.1,3.9,0,.6,0,1.2-.2,1.8,0,.4-.3.5-.7.5-1-.1-2-.3-3-.3-.6,0-1.3,0-2,.1-.6,0-.8,0-.8-.6-.1-1.3-.2-2.6-.2-3.9,0-2,0-4,0-5.9h-.1Z"/>
    <path class="st0" d="M63.3,23.9c-4.1,0-6.8-1.2-8.8-3.6-3.6-4.1-4.2-8.8-1.8-13.6C55.2,1.4,61,0,65.7,1.8c3.4,1.4,5.6,3.9,6.7,7.3,1.1,3.2.9,6.4-.8,9.4-1.9,3.6-5,5.4-8.4,5.5h0ZM58.4,15c1.5,2.8,5.3,3.4,7.5,1,2-2.2,2.1-5.3.1-7.7-.7-.8-1.6-1.3-2.6-1.5-.7,0-1.5-.2-2.1,0-2.3,1-3.6,2.8-3.6,5.3,0,1,.3,2,.7,2.9Z"/>
    <path class="st0" d="M76,21.7c-.6-.5-1.1-1.2-1.6-1.9-.3-.4-.3-.9.2-1.2.9-.7,1.9-1.3,2.9-1.9.3-.2.6-.2.9.1.6.5,1.2.9,1.8,1.4.9.6,1.9.7,3,.6,1.3,0,2-1.2,1.6-2.1-.2-.5-.6-.9-1-1.3-1.5-1.4-3.4-2.2-5.3-3.2-1.7-.8-2.9-2.1-3.9-3.4-.6-.9-.6-1.9-.5-2.9.4-2.1,1.7-3.5,3.8-4.4,1.7-.7,3.4-1,5.3-.7.9.1,1.7.3,2.6.5.7.2,1.5.6,2.1,1,1.6,1,1.6,1.4.3,2.6-.7.6-1.4,1.3-2.1,1.9-.6.5-1.1.6-1.8.1-.5-.3-.9-.6-1.4-.7-.7-.2-1.4,0-1.8.6-.3.5-.2,1.1.4,1.5,1.2.8,2.5,1.6,3.8,2.4,1.5.9,3,1.8,4.2,3,1.7,1.8,2.1,3.8,1.4,5.9-.2.7-.8,1.3-1.4,1.9-1.1,1.1-2.6,1.7-4.2,2-1,.2-2.1.2-2.6.3-2.9,0-5.2-.6-7-2Z"/>
  </g>
</svg>