<?xml version="1.0" encoding="UTF-8"?>
<svg id="Layer_1" xmlns="http://www.w3.org/2000/svg" version="1.1" viewBox="0 0 213.5 25.8">
  <!-- Generator: Adobe Illustrator 29.4.0, SVG Export Plug-In . SVG Version: 2.1.0 Build 152)  -->
  <path d="M25.5,2.4c.8,0,1.5,0,2.3,0,.6,0,.7.1.7.7,0,.9-.2,1.9-.3,2.8-.6,3.9-1.3,7.8-1.9,11.7-.2,1.4-.5,2.8-.7,4.1,0,.6-.4,1-1,1.1-.3,0-.6.2-1,.2-1.4,0-2.8,0-4.2,0-.6,0-1-.2-1.2-.8-.4-1.2-.9-2.5-1.3-3.8s-.8-2.5-1.2-3.8c0-.2-.3-.6-.5-.6-.4-.1-.6.3-.7.6-.4,1.2-.8,2.4-1.2,3.6-.4,1.3-.8,2.5-1.2,3.8-.3.9-.6,1.2-1.6,1.1-.5,0-.9,0-1.4-.1-.3,0-.6-.1-.9,0-.6.2-1.2,0-1.8-.2-.4-.2-.7-.4-.7-.9-.2-.9-.4-1.8-.6-2.8-.3-2-.6-4-1-6.1-.3-1.9-.8-3.8-1.2-5.7-.3-1.2-.5-2.4-.7-3.6-.2-1.3.1-1.7,1.4-1.6,1.4,0,2.8.2,4.2.2.6,0,.8.3.9.8.4,2.4.9,4.9,1.2,7.3,0,.5,0,1.1,0,1.6,0,.4,0,1.1.4,1.2.6.1.6-.6.7-1,.5-1.3,1-2.5,1.5-3.8.2-.6.7-.9,1.4-.9.9,0,1.8,0,2.6,0,.8,0,1.2.3,1.5,1,.5,1.3.9,2.5,1.4,3.8.1.4.3.7.4,1,0,.1.3.2.3.2.1,0,.3-.2.4-.4,0,0,0-.1,0-.2-.2-1.7.3-3.4.6-5.1.2-1.3.5-2.6.8-3.9,0-.3.1-.5.2-.8.3-.8.8-1.2,1.6-1.2.6,0,1.2,0,1.8,0h0s0,0,0,0Z"/>
  <path d="M30.5,12.6c0-2.8,0-5.6,0-8.4,0-.2,0-.4,0-.7,0-.5.3-.8.8-.7,1.3.3,2.6-.1,3.9,0,.1,0,.3,0,.4,0,.8,0,1.1.3,1.2,1.1,0,1.3.1,2.5.2,3.8,0,.4,0,.7,0,1.1.1.7.4.9,1.1,1,.4,0,.9,0,1.3,0,.9,0,1.1-.2,1.1-1.1,0-1.4,0-2.8,0-4.2,0-1.3.4-1.6,1.7-1.6.8,0,1.7,0,2.5,0,.3,0,.5,0,.8.1,1,.4,1,.4,1.1,1.4,0,3.2.2,6.4.3,9.7,0,1.2.1,2.4.1,3.6,0,1.4,0,2.8-.1,4.2,0,.8-.3,1.1-1,1.2-.7.1-1.5.3-2.3.3-.7,0-1.4-.2-2.1-.4-.4-.1-.5-.6-.5-1,0-1.2-.2-2.4-.2-3.7,0-.7,0-1.4,0-2.1,0-.9-.3-1.2-1.2-1.1-.5,0-1.1.1-1.6.3-.2,0-.5.3-.5.5-.1.4-.2.8-.2,1.2,0,1.3,0,2.6.1,3.9,0,.6,0,1.2-.2,1.8,0,.4-.3.5-.7.5-1-.1-2-.3-3-.3-.6,0-1.3,0-1.9.1-.6,0-.8,0-.8-.6-.1-1.3-.2-2.6-.2-3.9,0-2,0-3.9,0-5.9h-.1Z"/>
  <path d="M60.9,23.5c-1.1,0-2.1-.1-3-.2-.9,0-1.1-.3-1.2-1.3,0-1.4-.2-2.7-.3-4.1-.1-1.6-.2-3.1-1.1-4.5-.2-.4-.5-.9-.7-1.3-2.1-2.9-4.1-5.8-6.2-8.7-.1-.2-.3-.5-.2-.6.1-.2.4-.3.6-.3,1,0,2,0,3,0,1,0,2,0,3-.1,2.3-.3,2.2,0,2.9,1.6.7,1.6,1.3,3.3,1.9,5,0,0,0,0,0,.1.2.2.4.6.6.7.4,0,.6-.4.7-.7.3-.9.6-1.9.9-2.8.4-1.1.9-2.2,1.4-3.2,0-.2.4-.3.6-.3,1.4-.1,2.9-.3,4.4-.3.9,0,1.7,0,2.6.1.4,0,.5.4.4.8-.2.5-.4,1.1-.7,1.6-1,1.6-2,3.1-3,4.7-.7,1-1.4,2.1-2.1,3.1-1.8,2.5-2.3,5.3-1.8,8.3,0,.4.2.9.2,1.3,0,.7,0,1-.7,1.1-.8.1-1.7.1-2.3.2Z"/>
  <path d="M86.4,23.3c-.7,0-1.4,0-2.1,0-.7,0-.9-.3-1-1,0-.2,0-.3,0-.5,0-4.1-.1-8.2-.2-12.3,0-1.8,0-3.6,0-5.4,0-.9.3-1.2,1.1-1.4,1.3-.3,2.7-.4,4-.2.9,0,1.7,0,2.6,0,1.6,0,3.2-.3,4.8,0,1.1.2,1.9.8,2.4,1.8,1.3,2.6,1.6,5.3.4,8-.4,1-1.2,1.7-2.1,2-1.4.5-2.8,1-4.2,1.1-.3,0-.5,0-.8.1-1.1.3-1.4.6-1.4,1.8,0,1.4,0,2.9-.1,4.3,0,1.3-.3,1.6-1.6,1.6-.3,0-.6,0-.9,0s-.6,0-.9,0h0ZM91.3,6.8h0c-.3,0-.5,0-.8,0-.8,0-1,.2-1,1,0,.6,0,1.1,0,1.7,0,.8.5,1.2,1.3,1.3,1,.1,1.9-.2,2.7-.7.2-.1.4-.4.4-.6.3-1.5-.5-2.6-2-2.7-.2,0-.4,0-.7,0h0Z"/>
  <path d="M101.2,19.1c0-5,0-10-.1-15.1,0-.9.3-1.2,1.1-1.4,1.3-.3,2.6-.4,3.9-.2.9,0,1.8,0,2.7,0,1.8-.1,3.6-.3,5.3.1,1.4.3,2.4,1,3,2.3,1.1,2.3,1.1,4.8.4,7.3-.3.9-.8,1.7-1.6,2.3-.9.6-.8.6-.4,1.6,1,2.1,2,4.2,3,6.3.1.2.2.5.2.8,0,.5-.2.8-.6.8-1.6,0-3.1,0-4.7,0-.5,0-.8-.2-.9-.6-.7-1.6-1.4-3.1-2.1-4.7-.2-.5-.4-1.1-.7-1.6-.2-.3-.5-.6-.8-.7-.6-.2-1,.1-1.1.8,0,.9,0,1.8,0,2.6,0,.8,0,1.6,0,2.4,0,1.1-.4,1.4-1.4,1.5-1.3,0-2.6,0-3.9,0-.8,0-1.1-.3-1.1-1.2,0-1,0-2,0-3h0ZM109.5,7.2h0c-.4.1-.8,0-1.2.1-.2,0-.4,0-.6.2-.7.6-.3,3.2.5,3.6,0,0,.1,0,.2,0,.8,0,1.5.1,2.3,0,1.2-.2,2-.8,1.7-2.5-.1-.7-.4-1.1-1-1.2-.6-.1-1.3-.2-1.9-.3Z"/>
  <path d="M123.2,20.9c-3.6-4.1-4.2-8.7-1.8-13.5,2.6-5.2,8.3-6.7,12.9-4.8,3.4,1.4,5.6,3.8,6.7,7.2,1.1,3.2.9,6.3-.8,9.3-1.9,3.5-5,5.4-8.3,5.5-4,0-6.7-1.2-8.8-3.6ZM126.3,12.8c0,1,.3,2,.7,2.9,1.5,2.8,5.3,3.3,7.4,1,2-2.2,2.1-5.3.1-7.6-.7-.8-1.5-1.3-2.6-1.5-.7,0-1.5-.2-2.1,0-2.3,1-3.6,2.7-3.6,5.3h0Z"/>
  <path d="M151.5,24.3c-2.9,0-5.1-.5-6.9-2-.6-.5-1.1-1.2-1.6-1.9-.3-.4-.2-.9.2-1.2.9-.7,1.9-1.3,2.9-1.9.3-.2.6-.2.9.1.6.5,1.2.9,1.8,1.4.9.6,1.9.6,3,.6,1.3,0,2-1.2,1.6-2.1-.2-.5-.6-.9-1-1.3-1.5-1.3-3.4-2.2-5.3-3.1-1.6-.8-2.9-2-3.9-3.4-.6-.8-.6-1.9-.5-2.9.4-2,1.7-3.5,3.8-4.4,1.7-.7,3.4-1,5.2-.7.9.1,1.7.3,2.5.5.7.2,1.5.6,2.1,1,1.6,1,1.6,1.4.3,2.6-.7.6-1.4,1.3-2.1,1.9-.6.5-1.1.6-1.8.1-.5-.3-.9-.6-1.4-.7-.7-.2-1.4,0-1.8.6-.3.5-.2,1,.4,1.5,1.2.8,2.5,1.6,3.8,2.4,1.5.9,3,1.7,4.2,3,1.7,1.8,2.1,3.7,1.4,5.9-.2.7-.8,1.3-1.3,1.9-1.1,1.1-2.5,1.7-4.2,2-1,.2-2.1.2-2.6.3h0Z"/>
  <path d="M162.9,23.2c-.7,0-.9-.3-1-1,0-.2,0-.3,0-.5,0-4.1-.1-8.2-.2-12.3,0-1.8,0-3.6,0-5.4,0-.9.3-1.2,1.1-1.4,1.3-.3,2.7-.4,4-.2.9,0,1.7,0,2.6,0,1.6,0,3.2-.3,4.8,0,1.1.2,1.9.8,2.4,1.8,1.3,2.6,1.6,5.3.4,8-.4,1-1.2,1.7-2.1,2-1.4.5-2.8,1-4.2,1.1-.3,0-.5,0-.8.1-1.1.3-1.4.6-1.4,1.8,0,1.4,0,2.9-.1,4.3,0,1.3-.3,1.6-1.6,1.6-.3,0-.6,0-.9,0s-.6,0-.9,0c-.7,0-1.4,0-2.1,0ZM169.8,6.8h0c-.3,0-.5,0-.8,0-.8,0-1,.2-1,1,0,.6,0,1.1,0,1.7,0,.8.5,1.2,1.3,1.3,1,.1,1.9-.2,2.7-.7.2-.1.4-.4.4-.6.3-1.5-.5-2.6-2-2.7-.2,0-.4,0-.7,0h0Z"/>
  <path d="M179.4,16.2c.1-2.7.3-5.5.4-8.2,0-1.1,0-2.1.1-3.2,0-.5.2-.9.4-1.3.2-.4.6-.5,1-.5,1.6.1,3.2,0,4.8-.2,1.3-.1,2.7,0,4,0,.8,0,1,.2,1,1.1,0,1.2,0,2.5,0,3.7,0,.8-.4,1.2-1.2,1.3-.6,0-1.2,0-1.9,0-.5,0-.9.1-1.4.2-.5.1-.8.6-.7,1,0,.4.4.6,1,.7.3,0,.7,0,1,0,.7,0,1.2.4,1.2,1.1,0,1,0,2,0,3,0,.4-.3.7-.7.7-.4,0-.7,0-1.1,0-.3,0-.6,0-.9,0-.5,0-.8.5-.8.9,0,.4.3.7.7.7.7,0,1.5.1,2.2.2.6,0,1.2,0,1.8,0,.4,0,.7.2.7.7,0,1.5,0,3,0,4.5,0,.5-.3.7-.7.8-.9,0-1.9,0-2.8,0-2,0-4.1-.1-6.1,0-1.3,0-1.8-.3-1.9-1.7,0-1.7,0-3.5,0-5.2h-.1Z"/>
  <path d="M193.8,19.1c0-5,0-10-.1-15.1,0-.9.3-1.2,1.1-1.4,1.3-.3,2.6-.4,3.9-.2.9,0,1.8,0,2.7,0,1.8-.1,3.6-.3,5.3.1,1.4.3,2.4,1,3,2.3,1.1,2.3,1.1,4.8.4,7.3-.3.9-.8,1.7-1.6,2.3-.9.6-.8.6-.4,1.6,1,2.1,2,4.2,3,6.3.1.2.2.5.2.8,0,.5-.2.8-.6.8-1.6,0-3.1,0-4.7,0-.5,0-.8-.2-.9-.6-.7-1.6-1.4-3.1-2.1-4.7-.2-.5-.4-1.1-.7-1.6-.2-.3-.5-.6-.8-.7-.6-.2-1,.1-1.1.8,0,.9,0,1.8,0,2.6,0,.8,0,1.6,0,2.4,0,1.1-.4,1.4-1.4,1.5-1.3,0-2.6,0-3.9,0-.8,0-1.1-.3-1.1-1.2,0-1,0-2,0-3h0ZM202.2,7.2h0c-.4.1-.8,0-1.2.1-.2,0-.4,0-.6.2-.7.6-.3,3.2.5,3.6,0,0,.1,0,.2,0,.8,0,1.5.1,2.3,0,1.2-.2,2-.8,1.7-2.5-.1-.7-.4-1.1-1-1.2-.6-.1-1.3-.2-1.9-.3Z"/>
</svg>