<?xml version="1.0" encoding="UTF-8"?>
<svg id="Layer_1" xmlns="http://www.w3.org/2000/svg" version="1.1" viewBox="0 0 1080 107.5">
  <!-- Generator: Adobe Illustrator 29.4.0, SVG Export Plug-In . SVG Version: 2.1.0 Build 152)  -->
  <defs>
    <style>
      .st0 {
        fill: #ffef09;
        stroke: #000;
        stroke-linejoin: round;
        stroke-width: 8.3px;
      }
    </style>
  </defs>
  <path class="st0" d="M30.6,42.2c.3-7.8.5-15.5.8-23.3,0-1,.1-2.1.3-3.1.3-1.5,1.2-2.3,2.7-2.4,5.3-.2,10.6-.6,15.9-.7,3.4,0,4.5.9,4.8,4.5.4,4.3.6,8.7.6,13,0,9.3-.2,18.6-.7,27.8-.3,6.4-1,12.8-1.9,19.1-1.5,9.9-7.9,15.4-16.9,18-7,2-14.1,2.7-21.4,1.5-4.9-.9-5.3-1.7-6.2-6.5-1.2-6.3.3-12.5.2-18.8,0-.7.1-1.5.4-2.2.6-1.9,1.6-2.3,3.4-1.6.5.2,1,.6,1.5.9,2.7,1.7,5.8,2.2,8.9,2,4.6-.3,6.7-2.3,7-7,.4-7,.6-14.1.9-21.1,0,0,0,0-.1,0h0Z"/>
  <path class="st0" d="M111.4,100.6c-16.3,0-27.1-5-35.4-14.5-14.4-16.6-17-35.1-7.3-54.6,10.4-21,33.6-27,52.1-19.5,13.8,5.5,22.4,15.4,27,29.1,4.4,13,3.5,25.5-3,37.5-7.8,14.2-20.1,21.6-33.5,22.1h0ZM88.7,53.4c0,4,1,8.1,2.9,11.5,6.2,11.3,21.4,13.4,30,4,8.2-9,8.4-21.2.5-30.8-2.7-3.2-6.2-5.3-10.5-5.9-2.7-.4-6-1-8.3,0-9.4,3.9-14.5,11.1-14.6,21.2h0Z"/>
  <path class="st0" d="M184.1,54.4c0,8.7,0,17.3,0,26,0,4-.3,7.9-.6,11.9-.3,3.2-.9,3.8-4.2,3.7-5.7,0-11.4-.4-17.1-.8-.7,0-1.8-1.1-2-1.9-.5-2.3-.9-4.6-.9-7-.2-16.2-.2-32.3-.3-48.5,0-4.7-.2-9.4,0-14.1,0-2.4.6-4.9,1.2-7.3.5-1.8,1.8-3,3.8-3.1,3.9-.3,7.9-.6,11.8-.9.9,0,1.8,0,2.6,0,4,.2,5.1,1.4,5.1,5.5,0,12.2,0,24.4,0,36.6h.5,0Z"/>
  <path class="st0" d="M267.6,48.4c0,9.2,0,18.3,0,27.5,0,4.6-.4,9.2-.7,13.7-.3,3.7-.9,4.6-4.4,5.1-3.2.5-6.5.5-9.7.5-2.8,0-5.1-1.6-6.7-3.9-3.2-4.6-6.5-9.1-9.2-14-3.6-6.6-6.8-13.5-10.1-20.3-.6-1.2-1.2-2.5-2-3.5-.4-.5-1.4-.8-1.9-.6-.7.3-1.3,1.1-1.6,1.9-.2.6.1,1.5.2,2.2.1,1.5.3,3,.2,4.6-.2,9.3-.5,18.6-.8,27.8-.1,4.1-.8,5.1-4.7,5.9-4,.8-8.2,1.2-12.2,1.6-4.4.5-8.6-2.8-8.5-8.2.3-13.4.5-26.9.7-40.3,0-2,0-3.9,0-5.9,0-7.6-.4-15.3-.2-22.9.1-4.6,1.9-6.6,6.3-7.2,4.1-.5,8.2-.6,12.3-.4,3.1.1,5.6,1.8,7.3,4.6,4.3,7.1,8.6,14.2,12.9,21.3,3.1,5.2,6.1,10.4,9.2,15.6.4.7,1.6,1.5,2,1.3.8-.4,1.7-1.4,1.8-2.2.2-1.5,0-3.1-.4-4.5-1.3-3.8-1.6-7.7-1.4-11.7.2-6.6.2-13.1.3-19.7,0-4.2,1.3-5.9,5.1-5.8,4.5.2,9,.8,13.5,1.8,3.4.7,3.8,1.7,3.8,5.1,0,5.2-.3,10.4-.4,15.5,0,5,0,10.1,0,15.1h-.5,0Z"/>
  <path class="st0" d="M337.7,77.2c0-6.6,0-13.2,0-19.8,0-4.8-.2-9.7-.3-14.5,0-2-.2-4,.8-6,1-1.8.1-3.2-2-3.4-2-.2-4.1,0-6.1.4-3.3.6-6.6,1.6-9.9,2.3-3.1.6-3.6,0-3.5-3.1,0-1.6,0-3.3.4-4.8,1.2-4.3,1.9-8.6,1.6-13.1-.1-1.9,1.1-2.7,2.7-2.9,2.8-.3,5.6-.6,8.3-.3,4.4.4,8.7.5,13.1-.1,11.5-1.7,23.1-2.5,34.7-1.3,3.7.4,5.1,1.2,5.7,4.9.8,5.1,1.3,10.2,0,15.3-.6,2.6-1.9,3.6-4.8,3.5-4.2-.2-8.5-.6-12.7-1.1-3.4-.4-4,.3-3.9,3.7.3,6,.3,12,.4,18.1,0,10.9,0,21.8,0,32.7,0,1.2,0,2.4-.2,3.5-.6,4.3-1.8,5.2-6.1,4.8-4.5-.4-9.1-.6-13.6-.8-3.2-.1-3.6-.1-4-3.3-.4-3-.4-6.2-.5-9.2,0-1.8,0-3.5,0-5.3h-.1,0Z"/>
  <path class="st0" d="M390.4,52.5c0-11.4,0-22.7,0-34.1,0-.9,0-1.8.1-2.7.3-1.9,1.4-3.2,3.3-2.7,5.3,1.3,10.5-.4,15.8-.3.6,0,1.2,0,1.8,0,3.3.2,4.5,1.3,4.8,4.6.3,5.1.5,10.2.8,15.2,0,1.5,0,3,.2,4.5.4,2.7,1.7,3.7,4.5,3.9,1.8.1,3.5.2,5.3.1,3.5-.1,4.3-1,4.4-4.6.1-5.7,0-11.4.3-17,.2-5.1,1.8-6.5,6.8-6.4,3.4,0,6.8.2,10.1.3,1,0,2.1.1,3,.5,4,1.7,4.2,1.8,4.3,5.7.4,13,.8,26,1.2,39,.1,4.8.5,9.6.5,14.3,0,5.7-.3,11.4-.5,17-.1,3-1.1,4.4-3.9,5-3,.6-6.1,1.3-9.1,1.3-2.9,0-5.8-.7-8.6-1.4-1.8-.5-1.8-2.5-2-4.2-.3-4.9-.6-9.8-.9-14.8-.1-2.8,0-5.7-.1-8.5,0-3.7-1.2-4.8-4.8-4.5-2.2.2-4.4.5-6.5,1.1-.9.2-1.9,1.1-2.2,1.9-.5,1.5-.9,3.2-.8,4.8,0,5.2.4,10.4.4,15.7,0,2.4-.3,4.7-.7,7.1-.3,1.4-1.3,2.1-3,1.8-4-.6-8.1-1.1-12.2-1.3-2.6-.1-5.2.1-7.8.4-2.3.3-3,.1-3.2-2.3-.4-5.2-.7-10.4-.7-15.7-.1-7.9,0-15.9,0-23.8h-.4,0Z"/>
  <path class="st0" d="M467.7,66.9c.6-11,1.1-22,1.6-33,.2-4.2,0-8.5.4-12.7.1-1.8.9-3.7,1.8-5.3.8-1.5,2.3-2.2,4.1-2.1,6.5.5,12.9,0,19.3-.8,5.4-.6,10.9-.3,16.3-.3,3.2,0,4,.9,4.1,4.3,0,5,.2,10,.1,15,0,3.4-1.4,4.9-4.7,5.1-2.5.2-5,0-7.5.2-1.9.1-3.8.4-5.6,1-1.8.5-3.1,2.5-3,4,.2,1.6,1.7,2.6,4,2.7,1.3,0,2.6-.2,4-.1,3,0,4.9,1.5,5,4.4.2,4,0,7.9-.2,11.9,0,1.7-1.2,2.6-2.9,2.7-1.5,0-2.9,0-4.4,0-1.2,0-2.4,0-3.5,0-1.9.3-3.2,1.9-3.2,3.6,0,1.8,1.2,2.7,2.8,2.9,2.9.3,5.9.5,8.8.7,2.3,0,4.7,0,7.1,0,1.7,0,2.7.8,2.7,2.7,0,6,0,12.1.1,18.1,0,2-1.1,3-3,3.1-3.8.1-7.6.3-11.4.3-8.2,0-16.5-.4-24.7-.3-5.3,0-7.4-1.2-7.5-6.7-.2-7.1,0-14.1,0-21.2h-.4Z"/>
  <path class="st0" d="M657.2,11.3c3.1,0,6.2,0,9.2,0,2.3,0,3,.5,2.8,3-.2,3.8-.7,7.6-1.3,11.4-2.5,15.7-5.1,31.4-7.7,47.1-.9,5.6-2,11.1-2.9,16.7-.4,2.4-1.5,3.9-3.9,4.3-1.3.2-2.6.7-3.9.7-5.6.2-11.2,0-16.8.4-2.6.2-3.9-1-4.7-3.1-1.8-5-3.5-10.1-5.1-15.2-1.6-5.1-3.1-10.2-4.8-15.3-.3-1-1.2-2.2-2.1-2.5-1.6-.4-2.2,1.1-2.7,2.4-1.7,4.9-3.3,9.8-5,14.7-1.7,5.1-3.3,10.1-5,15.2-1.3,3.8-2.6,4.7-6.6,4.6-1.9,0-3.8-.4-5.7-.5-1.2-.1-2.4-.5-3.5-.1-2.6.8-4.9,0-7.3-.9-1.7-.7-2.7-1.6-3-3.5-.7-3.7-1.7-7.4-2.3-11.2-1.4-8.1-2.4-16.3-3.9-24.4-1.4-7.6-3.2-15.2-4.8-22.8-1-4.8-2.2-9.5-3-14.4-.9-5.3.5-6.8,5.6-6.5,5.6.3,11.2.7,16.8.9,2.2,0,3.2,1.2,3.5,3.3,1.7,9.8,3.4,19.6,5,29.4.3,2.1-.2,4.3-.1,6.4,0,1.8,0,4.3,1.8,4.7,2.3.5,2.3-2.2,2.9-3.8,2-5.1,4-10.2,6.1-15.3,1-2.5,2.7-3.7,5.5-3.5,3.5.2,7.1.2,10.6,0,3.2-.3,5,1.2,6.1,4.1,1.9,5.1,3.8,10.3,5.7,15.4.5,1.4,1,2.8,1.7,4.2.2.4,1.1.9,1.4.8.6-.2,1-.9,1.5-1.5.2-.2.1-.6,0-.9-.9-7,1.4-13.6,2.3-20.4.7-5.3,2.1-10.5,3.1-15.7.2-1,.5-2.1.8-3.1,1.1-3.3,3.2-4.9,6.4-4.9,2.4,0,4.7,0,7.1,0h0s0,0,0,0Z"/>
  <path class="st0" d="M708.8,14.1c3.4,0,6.8,0,10.1,0,4.6,0,8.4,2.8,9.8,7.4,3,10.1,5.9,20.3,8.6,30.6,2.9,11.4,5.5,22.8,8.2,34.3.4,1.7.9,3.5.9,5.2,0,2.9-1.7,4.6-4.7,4.7-4.4.2-8.8.3-13.2.4-1,0-2.1,0-3.1-.1-2-.4-3.4-1.4-3.8-3.7-.7-3.8-1.6-7.5-2.4-11.2-.9-4-2.1-5.1-6.3-5.3-4.1-.1-8.2,0-12.4,0-2.7,0-3.3.5-4,3.2-1,3.7-1.7,7.5-2.8,11.1-1.3,4.7-2.4,5.3-7.3,5-3.8-.2-7.6-.5-11.5-.4-6.1.2-7-2.4-6.1-7.3,1.1-5.6,2.2-11.2,3.6-16.8,4.1-16.8,8.3-33.7,12.6-50.5,1.1-4.4,2.3-5.6,6.9-5.9,5.6-.5,11.1-.7,16.7-1v.4s0,0,0,0ZM706.2,58.1h0c1,.1,2.1.1,3.1.1,4.2,0,5.2-1.3,4.4-5.4-.8-4.2-1.6-8.3-2.5-12.5-.7-3.2-1.7-4.2-4.1-4.3-2.7-.2-4.8,1.2-5.6,4-1.1,4.2-2.2,8.5-2.9,12.8-.7,4.5,0,5.1,4.5,5.3,1,0,2.1,0,3.1,0h0Z"/>
  <path class="st0" d="M778.6,54.4c0,8.7,0,17.3,0,26,0,4-.3,7.9-.6,11.9-.3,3.2-.9,3.8-4.2,3.7-5.7,0-11.4-.4-17.1-.8-.7,0-1.8-1.1-2-1.9-.5-2.3-.9-4.6-.9-7-.2-16.2-.2-32.3-.3-48.5,0-4.7-.2-9.4,0-14.1,0-2.4.6-4.9,1.2-7.3.5-1.8,1.8-3,3.8-3.1,3.9-.3,7.9-.6,11.8-.9.9,0,1.8,0,2.6,0,4,.2,5.1,1.4,5.1,5.5,0,12.2,0,24.4,0,36.6h.5,0Z"/>
  <path class="st0" d="M806.1,77.2c0-6.6,0-13.2,0-19.8,0-4.8-.2-9.7-.3-14.5,0-2-.2-4,.8-6,1-1.8.1-3.2-2-3.4-2-.2-4.1,0-6.1.4-3.3.6-6.6,1.6-9.9,2.3-3.1.6-3.6,0-3.5-3.1,0-1.6,0-3.3.4-4.8,1.2-4.3,1.9-8.6,1.6-13.1-.1-1.9,1.1-2.7,2.7-2.9,2.8-.3,5.6-.6,8.3-.3,4.4.4,8.7.5,13.1-.1,11.5-1.7,23.1-2.5,34.7-1.3,3.7.4,5.1,1.2,5.7,4.9.8,5.1,1.3,10.2,0,15.3-.6,2.6-1.9,3.6-4.8,3.5-4.2-.2-8.5-.6-12.7-1.1-3.4-.4-4,.3-3.9,3.7.3,6,.3,12,.4,18.1,0,10.9,0,21.8,0,32.7,0,1.2,0,2.4-.2,3.5-.6,4.3-1.8,5.2-6.1,4.8-4.5-.4-9.1-.6-13.6-.8-3.2-.1-3.6-.1-4-3.3-.4-3-.4-6.2-.5-9.2,0-1.8,0-3.5,0-5.3h-.1,0Z"/>
  <path class="st0" d="M858.9,51.7c0-10.4,0-20.8,0-31.3,0-1.3.1-2.8.6-4,.3-.8,1.4-1.7,2.2-1.8,5.8-.4,11.7-1.5,17.6-.3,3.8.8,4,.7,4.1,4.9,0,15.1,0,30.2,0,45.3,0,2.4.4,4.8.7,7.2.2,1.7,1.3,2.7,3,2.8,1.6,0,3.2,0,4.8,0,4.2-.1,5.4,1,5.4,5.1,0,4.4,0,8.8,0,13.1,0,2-.7,3.1-2.8,3-6.2-.3-12.3-.5-18.5-.8-4.1-.1-8.2-.3-12.4-.3-3.1,0-3.6-.2-3.8-3.4-.4-4.5-.7-9-.7-13.5-.1-8.8,0-17.5,0-26.3h0Z"/>
  <path class="st0" d="M929.1,54.4c0,8.7,0,17.3,0,26,0,4-.3,7.9-.6,11.9-.3,3.2-.9,3.8-4.2,3.7-5.7,0-11.4-.4-17.1-.8-.7,0-1.8-1.1-2-1.9-.5-2.3-.9-4.6-.9-7-.2-16.2-.2-32.3-.3-48.5,0-4.7-.2-9.4,0-14.1,0-2.4.6-4.9,1.2-7.3.5-1.8,1.8-3,3.8-3.1,3.9-.3,7.9-.6,11.8-.9.9,0,1.8,0,2.6,0,4,.2,5.1,1.4,5.1,5.5,0,12.2,0,24.4,0,36.6h.5,0Z"/>
  <path class="st0" d="M972.8,99.7c-11.8,0-20.7-2.2-27.9-8.1-2.6-2.1-4.4-4.9-6.4-7.5-1.4-1.8-1-3.6.9-5,3.8-2.6,7.7-5.2,11.5-7.8,1.4-.9,2.5-.7,3.8.5,2.3,2,4.8,3.8,7.3,5.5,3.5,2.5,7.7,2.6,12,2.4,5.4-.2,8-4.9,6.6-8.6-.8-1.9-2.3-3.8-4-5.2-6.1-5.4-13.8-8.9-21.2-12.7-6.6-3.4-11.6-8.3-15.7-13.8-2.5-3.4-2.6-7.7-1.9-11.7,1.5-8.2,6.8-14.1,15.2-17.7,6.7-2.8,13.8-3.9,21.2-2.7,3.5.5,7,1.1,10.3,2.2,3,.9,6,2.2,8.6,3.8,6.5,4,6.6,5.6,1.1,10.5-2.8,2.5-5.6,5.2-8.4,7.7-2.5,2.2-4.4,2.3-7.2.5-1.8-1.1-3.7-2.3-5.8-3-2.8-.9-5.7.3-7.1,2.4-1.3,1.9-1,4.2,1.7,6.1,5,3.4,10.2,6.5,15.4,9.6,6,3.7,12.1,7,16.9,12.1,6.7,7.1,8.4,15.1,5.7,23.8-.9,2.7-3.2,5.3-5.4,7.5-4.5,4.3-10.3,6.9-16.8,7.9-4.1.6-8.3.9-10.4,1.1h0Z"/>
  <path class="st0" d="M1025.7,77.2c0-6.6,0-13.2,0-19.8,0-4.8-.2-9.7-.3-14.5,0-2-.2-4,.8-6,1-1.8.1-3.2-2-3.4-2-.2-4.1,0-6.1.4-3.3.6-6.6,1.6-9.9,2.3-3.1.6-3.6,0-3.5-3.1,0-1.6,0-3.3.4-4.8,1.2-4.3,1.9-8.6,1.6-13.1-.1-1.9,1.1-2.7,2.7-2.9,2.8-.3,5.6-.6,8.3-.3,4.4.4,8.7.5,13.1-.1,11.5-1.7,23.1-2.5,34.7-1.3,3.7.4,5.1,1.2,5.7,4.9.8,5.1,1.3,10.2,0,15.3-.6,2.6-1.9,3.6-4.8,3.5-4.2-.2-8.5-.6-12.7-1.1-3.4-.4-4,.3-3.9,3.7.3,6,.3,12,.4,18.1,0,10.9,0,21.8,0,32.7,0,1.2,0,2.4-.2,3.5-.6,4.3-1.8,5.2-6.1,4.8-4.5-.4-9.1-.6-13.6-.8-3.2-.1-3.6-.1-4-3.3-.4-3-.4-6.2-.5-9.2,0-1.8,0-3.5,0-5.3h-.1,0Z"/>
</svg>