<?xml version="1.0" encoding="UTF-8"?>
<svg id="Layer_1" xmlns="http://www.w3.org/2000/svg" xmlns:xlink="http://www.w3.org/1999/xlink" version="1.1" viewBox="0 0 5466.8 720">
  <!-- Generator: Adobe Illustrator 29.4.0, SVG Export Plug-In . SVG Version: 2.1.0 Build 152)  -->
  <defs>
    <style>
      .st0 {
        fill: url(#linear-gradient9);
      }

      .st1 {
        fill: url(#linear-gradient8);
        opacity: .9;
      }

      .st2 {
        fill: url(#linear-gradient7);
        opacity: .8;
      }

      .st3 {
        fill: url(#linear-gradient6);
        opacity: .7;
      }

      .st4 {
        fill: url(#linear-gradient5);
        opacity: .6;
      }

      .st5 {
        fill: url(#linear-gradient4);
        opacity: .5;
      }

      .st6 {
        fill: url(#linear-gradient1);
        opacity: .2;
      }

      .st7 {
        fill: url(#linear-gradient3);
        opacity: .4;
      }

      .st8 {
        fill: url(#linear-gradient2);
        opacity: .3;
      }

      .st9 {
        fill: url(#linear-gradient);
        opacity: 0;
      }
    </style>
    <linearGradient id="linear-gradient" x1="35.9" y1="361.6" x2="5431.5" y2="361.6" gradientTransform="translate(0 722) scale(1 -1)" gradientUnits="userSpaceOnUse">
      <stop offset="0" stop-color="#b9539f"/>
      <stop offset="0" stop-color="#3a53a4"/>
      <stop offset=".2" stop-color="#70cddd"/>
      <stop offset=".3" stop-color="#6abd45"/>
      <stop offset=".5" stop-color="#f6eb16"/>
      <stop offset=".6" stop-color="#faed24"/>
      <stop offset=".8" stop-color="#f15b27"/>
      <stop offset="1" stop-color="#be2328"/>
    </linearGradient>
    <linearGradient id="linear-gradient1" x1="156.3" y1="360.4" x2="5311.1" y2="360.4" gradientTransform="matrix(1,0,0,1,0,0)" xlink:href="#linear-gradient"/>
    <linearGradient id="linear-gradient2" x1="276.7" y1="360.4" x2="5190.7" y2="360.4" gradientTransform="matrix(1,0,0,1,0,0)" xlink:href="#linear-gradient"/>
    <linearGradient id="linear-gradient3" x1="397.1" y1="360.4" x2="5070.3" y2="360.4" gradientTransform="matrix(1,0,0,1,0,0)" xlink:href="#linear-gradient"/>
    <linearGradient id="linear-gradient4" x1="517.6" y1="360.4" x2="4949.8" y2="360.4" gradientTransform="matrix(1,0,0,1,0,0)" xlink:href="#linear-gradient"/>
    <linearGradient id="linear-gradient5" x1="638" y1="360.4" x2="4829.4" y2="360.4" gradientTransform="matrix(1,0,0,1,0,0)" xlink:href="#linear-gradient"/>
    <linearGradient id="linear-gradient6" x1="758.4" y1="360.4" x2="4709" y2="360.4" gradientTransform="matrix(1,0,0,1,0,0)" xlink:href="#linear-gradient"/>
    <linearGradient id="linear-gradient7" x1="878.8" y1="360.4" x2="4588.6" y2="360.4" gradientTransform="matrix(1,0,0,1,0,0)" xlink:href="#linear-gradient"/>
    <linearGradient id="linear-gradient8" x1="999.2" y1="360.4" x2="4468.2" y2="360.4" gradientTransform="matrix(1,0,0,1,0,0)" xlink:href="#linear-gradient"/>
    <linearGradient id="linear-gradient9" x1="1119.6" x2="4347.8" xlink:href="#linear-gradient"/>
  </defs>
  <path class="st9" d="M5191,175.9v108.5h212.3v140.6h-212.3v119.8h240.5v148.1h-425.4V27.8h425.4v148.1h-240.5ZM4567.5,321.2h91.5c25.1,0,44-6,56.6-17.9,12.6-12,18.9-29.2,18.9-51.9s-6.4-38.2-19.3-50.5c-12.9-12.3-31.6-18.4-56.1-18.4h-91.5v138.7h-.1ZM220.8,175.9v108.5h212.3v140.6h-212.3v119.8h240.5v148.1H35.9V27.8h425.4v148.1h-240.5,0ZM1168.8,692.8h-184.9l-246.2-371.7v371.7h-184.9V27.8h184.9l246.2,376.4V27.8h184.9v665ZM1775.4,27.8v147.1h-177.3v517.9h-184.9V175h-175.4V27.8h537.7,0ZM2029.1,175.9v108.5h212.3v140.6h-212.3v119.8h240.5v148.1h-425.4V27.8h425.4v148.1h-240.5,0ZM2697.9,692.8l-132-245.3h-19.8v245.3h-184.9V27.8h291.5c53.4,0,98.7,9.3,135.8,27.8,37.1,18.6,65.1,44,84,76.4,18.9,32.4,28.3,68.7,28.3,109s-12.4,85-37.3,119.3c-24.9,34.3-61.2,58.6-109,73.1l150,259.4h-206.6ZM2546,321.2h91.5c25.1,0,44-6,56.6-17.9,12.6-12,18.9-29.2,18.9-51.9s-6.4-38.2-19.3-50.5c-12.9-12.3-31.6-18.4-56.1-18.4h-91.5v138.7h0ZM3760.1,27.8v665h-184.9v-267h-225.5v267h-184.9V27.8h184.9v250h225.5V27.8h184.9ZM4050.6,175.9v108.5h212.3v140.6h-212.3v119.8h240.5v148.1h-425.4V27.8h425.4v148.1h-240.5,0ZM4719.4,692.8l-132-245.3h-19.8v245.3h-184.9V27.8h291.5c53.4,0,98.7,9.3,135.8,27.8,37.1,18.6,65.1,44,84,76.4,18.9,32.4,28.3,68.7,28.3,109s-12.4,85-37.3,119.3c-24.9,34.3-61.2,58.6-109,73.1l150,259.4h-206.6Z"/>
  <path class="st6" d="M5081.3,184.1v103.7h202.8v134.3h-202.8v114.5h229.8v141.5h-406.4V42.6h406.4v141.5h-229.8ZM4485.7,322.9h87.4c24,0,42-5.7,54.1-17.1,12-11.5,18.1-27.9,18.1-49.6s-6.1-36.5-18.4-48.2c-12.3-11.8-30.2-17.6-53.6-17.6h-87.4v132.5h0ZM333,184.1v103.7h202.8v134.3h-202.8v114.5h229.8v141.5H156.3V42.6h406.4v141.5h-229.8,0ZM1238.7,678h-176.6l-235.2-355.1v355.1h-176.6V42.6h176.6l235.2,359.6V42.6h176.6v635.3ZM1818.2,42.6v140.5h-169.4v494.8h-176.6V183.3h-167.6V42.6h513.7,0ZM2060.6,184.1v103.7h202.8v134.3h-202.8v114.5h229.8v141.5h-406.4V42.6h406.4v141.5h-229.8,0ZM2699.5,678l-126.1-234.4h-18.9v234.4h-176.6V42.6h278.5c51,0,94.3,8.9,129.7,26.6,35.4,17.8,62.2,42,80.3,73,18.1,31,27,65.6,27,104.1s-11.8,81.2-35.6,114c-23.8,32.8-58.5,56-104.1,69.8l143.3,247.8h-197.4ZM2554.4,322.9h87.4c24,0,42-5.7,54.1-17.1,12-11.5,18.1-27.9,18.1-49.6s-6.1-36.5-18.4-48.2c-12.3-11.8-30.2-17.6-53.6-17.6h-87.4v132.5h0ZM3714.3,42.6v635.3h-176.6v-255.1h-215.4v255.1h-176.6V42.6h176.6v238.8h215.4V42.6h176.6ZM3991.8,184.1v103.7h202.8v134.3h-202.8v114.5h229.8v141.5h-406.4V42.6h406.4v141.5h-229.8,0ZM4630.8,678l-126.1-234.4h-18.9v234.4h-176.6V42.6h278.5c51,0,94.3,8.9,129.7,26.6,35.4,17.8,62.2,42,80.3,73,18.1,31,27,65.6,27,104.1s-11.8,81.2-35.6,114c-23.8,32.8-58.5,56-104.1,69.8l143.3,247.8h-197.4Z"/>
  <path class="st8" d="M4971.6,192.4v98.8h193.3v128h-193.3v109.1h219v134.9h-387.4V57.5h387.4v134.9h-219ZM4403.8,324.7h83.3c22.9,0,40.1-5.5,51.5-16.3,11.5-10.9,17.2-26.6,17.2-47.3s-5.8-34.8-17.6-46c-11.7-11.2-28.8-16.8-51.1-16.8h-83.3v126.3h0ZM445.1,192.4v98.8h193.3v128h-193.3v109.1h219v134.9h-387.4V57.5h387.4v134.9h-219,0ZM1308.5,663.1h-168.4l-224.2-338.5v338.5h-168.4V57.5h168.4l224.2,342.8V57.5h168.4v605.6ZM1860.9,57.5v134h-161.5v471.7h-168.4V191.5h-159.7V57.5h489.7,0ZM2092,192.4v98.8h193.3v128h-193.3v109.1h219v134.9h-387.4V57.5h387.4v134.9h-219,0ZM2701.1,663.1l-120.2-223.4h-18v223.4h-168.4V57.5h265.5c48.6,0,89.9,8.5,123.7,25.3,33.8,16.9,59.3,40.1,76.5,69.6,17.2,29.5,25.8,62.6,25.8,99.3s-11.3,77.4-34,108.7c-22.7,31.2-55.7,53.4-99.3,66.6l136.6,236.2h-188.2ZM2562.8,324.7h83.3c22.9,0,40.1-5.5,51.5-16.3,11.5-10.9,17.2-26.6,17.2-47.3s-5.8-34.8-17.6-46c-11.7-11.2-28.8-16.8-51.1-16.8h-83.3v126.3h0ZM3668.5,57.5v605.6h-168.4v-243.2h-205.4v243.2h-168.4V57.5h168.4v227.7h205.4V57.5h168.4ZM3933,192.4v98.8h193.3v128h-193.3v109.1h219v134.9h-387.4V57.5h387.4v134.9h-219,0ZM4542.1,663.1l-120.2-223.4h-18v223.4h-168.4V57.5h265.5c48.6,0,89.9,8.5,123.7,25.3,33.8,16.9,59.3,40.1,76.5,69.6,17.2,29.5,25.8,62.6,25.8,99.3s-11.3,77.4-34,108.7c-22.7,31.2-55.7,53.4-99.3,66.6l136.6,236.2h-188.2Z"/>
  <path class="st7" d="M4862,200.6v94h183.9v121.8h-183.9v103.8h208.3v128.3h-368.4V72.3h368.4v128.3h-208.3ZM4322,326.4h79.2c21.7,0,38.1-5.2,49-15.5,10.9-10.4,16.4-25.3,16.4-45s-5.5-33.1-16.7-43.7c-11.2-10.7-27.4-15.9-48.6-15.9h-79.2v120.1h0ZM557.3,200.6v94h183.9v121.8h-183.9v103.8h208.3v128.3h-368.4V72.3h368.4v128.3h-208.3,0ZM1378.3,648.3h-160.1l-213.2-321.9v321.9h-160.1V72.3h160.1l213.2,326V72.3h160.1v576ZM1903.7,72.3v127.4h-153.6v448.6h-160.1V199.8h-151.9v-127.5h465.7,0ZM2123.5,200.6v94h183.9v121.8h-183.9v103.8h208.3v128.3h-368.4V72.3h368.4v128.3h-208.3,0ZM2702.7,648.3l-114.3-212.5h-17.1v212.5h-160.1V72.3h252.5c46.2,0,85.5,8.1,117.6,24.1,32.1,16.1,56.4,38.1,72.8,66.2,16.4,28.1,24.5,59.5,24.5,94.4s-10.7,73.6-32.3,103.3c-21.6,29.7-53,50.8-94.4,63.3l129.9,224.7h-178.9ZM2571.1,326.4h79.2c21.7,0,38.1-5.2,49-15.5,10.9-10.4,16.4-25.3,16.4-45s-5.5-33.1-16.7-43.7c-11.2-10.7-27.4-15.9-48.6-15.9h-79.2v120.1h0ZM3622.7,72.3v576h-160.1v-231.2h-195.3v231.2h-160.1V72.3h160.1v216.5h195.3V72.3h160.1ZM3874.3,200.6v94h183.9v121.8h-183.9v103.8h208.3v128.3h-368.4V72.3h368.4v128.3h-208.3,0ZM4453.5,648.3l-114.3-212.5h-17.1v212.5h-160.1V72.3h252.5c46.2,0,85.5,8.1,117.6,24.1,32.1,16.1,56.4,38.1,72.8,66.2,16.4,28.1,24.5,59.5,24.5,94.4s-10.7,73.6-32.3,103.3c-21.6,29.7-53,50.8-94.4,63.3l129.9,224.7h-178.9Z"/>
  <path class="st5" d="M4752.3,208.8v89.1h174.4v115.5h-174.4v98.4h197.6v121.7h-349.5V87.2h349.5v121.7h-197.6ZM4240.1,328.2h75.2c20.6,0,36.1-4.9,46.5-14.7,10.4-9.9,15.5-24,15.5-42.6s-5.3-31.4-15.9-41.5c-10.6-10.1-26-15.1-46.1-15.1h-75.2v113.9h0ZM669.4,208.8v89.1h174.4v115.5h-174.4v98.4h197.6v121.7h-349.5V87.2h349.5v121.7h-197.6,0ZM1448.2,633.4h-151.9l-202.2-305.3v305.3h-151.9V87.2h151.9l202.2,309.2V87.2h151.9v546.3ZM1946.5,87.2v120.8h-145.6v425.4h-151.9V208.1h-144.1v-120.9h441.7,0ZM2154.9,208.8v89.1h174.4v115.5h-174.4v98.4h197.6v121.7h-349.5V87.2h349.5v121.7h-197.6,0ZM2704.3,633.4l-108.4-201.5h-16.3v201.5h-151.9V87.2h239.5c43.9,0,81.1,7.6,111.6,22.8,30.5,15.3,53.5,36.1,69,62.8,15.5,26.6,23.2,56.4,23.2,89.5s-10.2,69.8-30.6,98c-20.5,28.2-50.3,48.1-89.5,60l123.2,213.1h-169.7ZM2579.5,328.2h75.2c20.6,0,36.1-4.9,46.5-14.7,10.4-9.9,15.5-24,15.5-42.6s-5.3-31.4-15.9-41.5c-10.6-10.1-26-15.1-46.1-15.1h-75.2v113.9h0ZM3576.9,87.2v546.3h-151.9v-219.3h-185.2v219.3h-151.9V87.2h151.9v205.4h185.2V87.2h151.9ZM3815.5,208.8v89.1h174.4v115.5h-174.4v98.4h197.6v121.7h-349.5V87.2h349.5v121.7h-197.6,0ZM4364.9,633.4l-108.4-201.5h-16.3v201.5h-151.9V87.2h239.5c43.9,0,81.1,7.6,111.6,22.8,30.5,15.3,53.5,36.1,69,62.8,15.5,26.6,23.2,56.4,23.2,89.5s-10.2,69.8-30.6,98c-20.5,28.2-50.3,48.1-89.5,60l123.2,213.1h-169.7Z"/>
  <path class="st4" d="M4642.6,217.1v84.3h164.9v109.2h-164.9v93.1h186.8v115h-330.5V102h330.5v115h-186.8ZM4158.3,329.9h71.1c19.5,0,34.2-4.7,44-13.9,9.8-9.3,14.7-22.7,14.7-40.3s-5-29.7-15-39.2c-10-9.6-24.5-14.3-43.6-14.3h-71.1v107.7h0ZM781.6,217.1v84.3h164.9v109.2h-164.9v93.1h186.8v115h-330.5V102h330.5v115h-186.8,0ZM1518,618.6h-143.6l-191.3-288.7v288.7h-143.6V102h143.6l191.3,292.4V102h143.6v516.6ZM1989.3,102v114.3h-137.7v402.3h-143.6V216.4h-136.3v-114.3h417.7,0ZM2186.4,217.1v84.3h164.9v109.2h-164.9v93.1h186.8v115h-330.5V102h330.5v115h-186.8,0ZM2705.9,618.6l-102.5-190.6h-15.4v190.6h-143.6V102h226.4c41.5,0,76.7,7.2,105.5,21.6,28.8,14.4,50.6,34.2,65.3,59.3,14.7,25.2,22,53.4,22,84.7s-9.6,66-29,92.7c-19.3,26.6-47.5,45.5-84.7,56.8l116.5,201.5h-160.5ZM2587.9,329.9h71.1c19.5,0,34.2-4.7,44-13.9,9.8-9.3,14.7-22.7,14.7-40.3s-5-29.7-15-39.2c-10-9.6-24.5-14.3-43.6-14.3h-71.1v107.7h0ZM3531,102v516.6h-143.6v-207.4h-175.2v207.4h-143.6V102h143.6v194.2h175.2V102h143.6ZM3756.7,217.1v84.3h164.9v109.2h-164.9v93.1h186.8v115h-330.5V102h330.5v115h-186.8,0ZM4276.3,618.6l-102.5-190.6h-15.4v190.6h-143.6V102h226.4c41.5,0,76.7,7.2,105.5,21.6,28.8,14.4,50.6,34.2,65.3,59.3,14.7,25.2,22,53.4,22,84.7s-9.6,66-29,92.7c-19.3,26.6-47.5,45.5-84.7,56.8l116.5,201.5h-160.5Z"/>
  <path class="st3" d="M4532.9,225.3v79.4h155.4v102.9h-155.4v87.7h176.1v108.4h-311.5V116.9h311.5v108.4h-176.1ZM4076.4,331.7h67c18.4,0,32.2-4.4,41.4-13.1,9.2-8.8,13.8-21.4,13.8-38s-4.7-28-14.1-37c-9.4-9-23.1-13.5-41.1-13.5h-67v101.6h0ZM893.8,225.3v79.4h155.4v102.9h-155.4v87.7h176.1v108.4h-311.5V116.9h311.5v108.4h-176.1,0ZM1587.9,603.8h-135.4l-180.3-272.2v272.2h-135.4V116.9h135.4l180.3,275.6V116.9h135.4v486.9ZM2032,116.9v107.7h-129.8v379.2h-135.4V224.6h-128.4v-107.8h393.7,0ZM2217.8,225.3v79.4h155.4v102.9h-155.4v87.7h176.1v108.4h-311.5V116.9h311.5v108.4h-176.1,0ZM2707.5,603.8l-96.6-179.6h-14.5v179.6h-135.4V116.9h213.4c39.1,0,72.3,6.8,99.4,20.4,27.2,13.6,47.7,32.2,61.5,55.9,13.8,23.7,20.7,50.3,20.7,79.8s-9.1,62.2-27.3,87.4c-18.2,25.1-44.8,42.9-79.8,53.5l109.8,189.9h-151.3ZM2596.3,331.7h67c18.4,0,32.2-4.4,41.4-13.1,9.2-8.8,13.8-21.4,13.8-38s-4.7-28-14.1-37c-9.4-9-23.1-13.5-41.1-13.5h-67v101.6h0ZM3485.2,116.9v486.9h-135.4v-195.5h-165.1v195.5h-135.4V116.9h135.4v183h165.1V116.9h135.4ZM3697.9,225.3v79.4h155.4v102.9h-155.4v87.7h176.1v108.4h-311.5V116.9h311.5v108.4h-176.1,0ZM4187.6,603.8l-96.6-179.6h-14.5v179.6h-135.4V116.9h213.4c39.1,0,72.3,6.8,99.4,20.4,27.2,13.6,47.7,32.2,61.5,55.9,13.8,23.7,20.7,50.3,20.7,79.8s-9.1,62.2-27.3,87.4c-18.2,25.1-44.8,42.9-79.8,53.5l109.8,189.9h-151.3Z"/>
  <path class="st2" d="M4423.2,233.5v74.6h146v96.7h-146v82.4h165.4v101.8h-292.5V131.7h292.5v101.8h-165.4ZM3994.5,333.4h62.9c17.3,0,30.3-4.1,38.9-12.3,8.7-8.3,13-20.1,13-35.7s-4.4-26.3-13.3-34.7c-8.9-8.5-21.7-12.7-38.6-12.7h-62.9v95.4h0ZM1005.9,233.5v74.6h146v96.7h-146v82.4h165.4v101.8h-292.5V131.7h292.5v101.8h-165.4,0ZM1657.7,588.9h-127.1l-169.3-255.6v255.6h-127.1V131.7h127.1l169.3,258.8V131.7h127.1v457.2ZM2074.8,131.7v101.1h-121.9v356.1h-127.1V232.9h-120.6v-101.2h369.7,0ZM2249.2,233.5v74.6h146v96.7h-146v82.4h165.4v101.8h-292.5V131.7h292.5v101.8h-165.4,0ZM2709.1,588.9l-90.8-168.7h-13.6v168.7h-127.1V131.7h200.4c36.7,0,67.9,6.4,93.4,19.1,25.5,12.8,44.8,30.3,57.8,52.5,13,22.3,19.5,47.2,19.5,74.9s-8.5,58.4-25.6,82c-17.1,23.6-42.1,40.3-74.9,50.3l103.1,178.4h-142ZM2604.6,333.4h62.9c17.3,0,30.3-4.1,38.9-12.3,8.7-8.3,13-20.1,13-35.7s-4.4-26.3-13.3-34.7c-8.9-8.5-21.7-12.7-38.6-12.7h-62.9v95.4h0ZM3439.4,131.7v457.2h-127.1v-183.6h-155v183.6h-127.1V131.7h127.1v171.9h155v-171.9h127.1ZM3639.2,233.5v74.6h146v96.7h-146v82.4h165.4v101.8h-292.5V131.7h292.5v101.8h-165.4,0ZM4099,588.9l-90.8-168.7h-13.6v168.7h-127.1V131.7h200.4c36.7,0,67.9,6.4,93.4,19.1,25.5,12.8,44.8,30.3,57.8,52.5,13,22.3,19.5,47.2,19.5,74.9s-8.5,58.4-25.6,82c-17.1,23.6-42.1,40.3-74.9,50.3l103.1,178.4h-142Z"/>
  <path class="st1" d="M4313.6,241.8v69.8h136.5v90.4h-136.5v77h154.6v95.2h-273.5V146.5h273.5v95.2h-154.6ZM3912.7,335.2h58.8c16.1,0,28.3-3.9,36.4-11.5,8.1-7.7,12.2-18.8,12.2-33.4s-4.1-24.6-12.4-32.5c-8.3-7.9-20.3-11.8-36.1-11.8h-58.8v89.2h0ZM1118.1,241.8v69.8h136.5v90.4h-136.5v77h154.6v95.2h-273.5V146.5h273.5v95.2h-154.6,0ZM1727.6,574.1h-118.9l-158.3-239v239h-118.9V146.5h118.9l158.3,242v-242h118.9v427.5ZM2117.6,146.5v94.6h-114v333h-118.9V241.2h-112.8v-94.6h345.7,0ZM2280.7,241.8v69.8h136.5v90.4h-136.5v77h154.6v95.2h-273.5V146.5h273.5v95.2h-154.6,0ZM2710.7,574.1l-84.9-157.7h-12.7v157.7h-118.9V146.5h187.4c34.3,0,63.5,6,87.3,17.9,23.9,12,41.9,28.3,54,49.1,12.2,20.8,18.2,44.2,18.2,70.1s-8,54.6-24,76.7c-16,22.1-39.3,37.7-70.1,47l96.4,166.8h-132.8ZM2613,335.2h58.8c16.1,0,28.3-3.9,36.4-11.5,8.1-7.7,12.2-18.8,12.2-33.4s-4.1-24.6-12.4-32.5c-8.3-7.9-20.3-11.8-36.1-11.8h-58.8v89.2h0ZM3393.6,146.5v427.5h-118.9v-171.7h-145v171.7h-118.9V146.5h118.9v160.7h145v-160.7h118.9ZM3580.4,241.8v69.8h136.5v90.4h-136.5v77h154.6v95.2h-273.5V146.5h273.5v95.2h-154.6,0ZM4010.4,574.1l-84.9-157.7h-12.7v157.7h-118.9V146.5h187.4c34.3,0,63.5,6,87.3,17.9,23.9,12,41.9,28.3,54,49.1,12.2,20.8,18.2,44.2,18.2,70.1s-8,54.6-24,76.7c-16,22.1-39.3,37.7-70.1,47l96.4,166.8h-132.8Z"/>
  <path class="st0" d="M4203.9,250v64.9h127v84.1h-127v71.7h143.9v88.6h-254.5V161.4h254.5v88.6h-143.9ZM3830.8,336.9h54.7c15,0,26.3-3.6,33.9-10.7,7.5-7.2,11.3-17.5,11.3-31.1s-3.8-22.9-11.5-30.2c-7.7-7.4-18.9-11-33.6-11h-54.7v83h0ZM1230.3,250v64.9h127v84.1h-127v71.7h143.9v88.6h-254.5V161.4h254.5v88.6h-143.9,0ZM1797.4,559.3h-110.6l-147.3-222.4v222.4h-110.6V161.4h110.6l147.3,225.2v-225.2h110.6v397.9ZM2160.4,161.4v88h-106.1v309.9h-110.6V249.5h-104.9v-88.1h321.7,0ZM2312.1,250v64.9h127v84.1h-127v71.7h143.9v88.6h-254.5V161.4h254.5v88.6h-143.9,0ZM2712.3,559.3l-79-146.8h-11.8v146.8h-110.6V161.4h174.4c31.9,0,59.1,5.6,81.2,16.6,22.2,11.1,38.9,26.3,50.3,45.7,11.3,19.4,16.9,41.1,16.9,65.2s-7.4,50.9-22.3,71.4c-14.9,20.5-36.6,35.1-65.2,43.7l89.7,155.2h-123.6ZM2621.4,336.9h54.7c15,0,26.3-3.6,33.9-10.7,7.5-7.2,11.3-17.5,11.3-31.1s-3.8-22.9-11.5-30.2c-7.7-7.4-18.9-11-33.6-11h-54.7v83h0ZM3347.8,161.4v397.9h-110.6v-159.7h-134.9v159.7h-110.6V161.4h110.6v149.6h134.9v-149.6h110.6ZM3521.6,250v64.9h127v84.1h-127v71.7h143.9v88.6h-254.5V161.4h254.5v88.6h-143.9,0ZM3921.7,559.3l-79-146.8h-11.8v146.8h-110.6V161.4h174.4c31.9,0,59.1,5.6,81.2,16.6,22.2,11.1,38.9,26.3,50.3,45.7,11.3,19.4,16.9,41.1,16.9,65.2s-7.4,50.9-22.3,71.4c-14.9,20.5-36.6,35.1-65.2,43.7l89.7,155.2h-123.6Z"/>
</svg>