<?xml version="1.0" encoding="UTF-8"?>
<svg id="Layer_1" xmlns="http://www.w3.org/2000/svg" version="1.1" viewBox="0 0 210.5 25.8">
  <!-- Generator: Adobe Illustrator 29.4.0, SVG Export Plug-In . SVG Version: 2.1.0 Build 152)  -->
  <defs>
    <style>
      .st0 {
        fill: #ffef09;
        stroke: #000;
        stroke-linecap: round;
        stroke-linejoin: round;
        stroke-width: .5px;
      }
    </style>
  </defs>
  <g>
    <path d="M20.5,12.1c1,0,1.9,0,2.9,0,1.6,0,1.9.4,2,2,0,1.3,0,2.7-.4,4-.5,1.7-1.3,3.2-2.5,4.4-1.4,1.5-3.3,2.2-5.3,2.4-2.3.2-4.5,0-6.7-.8-2.7-.9-4.5-2.8-5.7-5.3-1.6-3.8-1.2-7.4.9-10.9,1-1.6,2.3-2.8,3.8-3.7.5-.4,1.2-.5,1.9-.7,1.9-.8,3.8-.6,5.7-.6,1.3,0,1.7.4,1.7,1.7s-.2,1.8-.2,2.7c0,.5-.4.7-.8.7-1.4,0-2.7.3-4,.8-2.3,1-3.8,3.2-3.4,5.6.9,4.6,5.3,5.8,8.1,4.3.5-.3,1-.7,1.3-1.2.4-.6.2-1-.6-1-.7,0-1.5,0-2.2,0-1.1,0-1.3-.2-1.3-1.3,0-.7,0-1.3,0-2,0-.5.3-.8.8-.9,1.4,0,2.7-.2,4.1-.3,0,0,0,0,0,.1Z"/>
    <path d="M27.1,17.2c.1-2.8.3-5.6.4-8.4,0-1.1,0-2.1.1-3.2,0-.5.2-.9.4-1.3.2-.4.6-.6,1-.5,1.6.1,3.3,0,4.9-.2,1.4-.2,2.7,0,4.1,0,.8,0,1,.2,1,1.1,0,1.3,0,2.5,0,3.8,0,.8-.4,1.2-1.2,1.3-.6,0-1.3,0-1.9,0-.5,0-1,.1-1.4.2-.5.1-.8.6-.8,1,0,.4.4.7,1,.7.3,0,.7,0,1,0,.8,0,1.2.4,1.3,1.1,0,1,0,2,0,3,0,.4-.3.7-.7.7-.4,0-.7,0-1.1,0-.3,0-.6,0-.9,0-.5,0-.8.5-.8.9,0,.5.3.7.7.7.7,0,1.5.1,2.2.2.6,0,1.2,0,1.8,0,.4,0,.7.2.7.7,0,1.5,0,3.1,0,4.6,0,.5-.3.8-.7.8-1,0-1.9,0-2.9,0-2.1,0-4.2-.1-6.2,0-1.3,0-1.9-.3-1.9-1.7,0-1.8,0-3.6,0-5.4h-.1Z"/>
    <path d="M45.7,14.8c0-1.2,0-2.4,0-3.7,0-.5,0-1,.2-1.5.2-.5,0-.8-.5-.8-.5,0-1,0-1.5,0-.8.2-1.7.4-2.5.6-.8.2-.9,0-.9-.8,0-.4,0-.8,0-1.2.3-1.1.5-2.2.4-3.3,0-.5.3-.7.7-.7.7,0,1.4-.2,2.1,0,1.1.1,2.2.1,3.3,0,2.9-.4,5.8-.6,8.8-.3.9,0,1.3.3,1.5,1.2.2,1.3.3,2.6,0,3.9-.2.7-.5.9-1.2.9-1.1,0-2.1-.2-3.2-.3-.9-.1-1,0-1,.9,0,1.5,0,3,0,4.6,0,2.8,0,5.5,0,8.3,0,.3,0,.6,0,.9-.1,1.1-.5,1.3-1.6,1.2-1.1,0-2.3-.2-3.4-.2-.8,0-.9,0-1-.8-.1-.8,0-1.6-.1-2.3,0-.4,0-.9,0-1.3h0c0-1.7,0-3.3,0-5Z"/>
    <path d="M76,14c0,2.2,0,4.4,0,6.6,0,1,0,2-.2,3,0,.8-.2,1-1.1.9-1.4,0-2.9-.1-4.3-.2-.2,0-.5-.3-.5-.5-.1-.6-.2-1.2-.2-1.8,0-4.1,0-8.2,0-12.3,0-1.2,0-2.4,0-3.6,0-.6.1-1.2.3-1.8.1-.5.4-.8,1-.8,1,0,2-.2,3-.2.2,0,.4,0,.7,0,1,0,1.3.3,1.3,1.4,0,3.1,0,6.2,0,9.3h.1,0Z"/>
    <path d="M97.1,12.5c0,2.3,0,4.6,0,7,0,1.2,0,2.3-.2,3.5,0,.9-.2,1.2-1.1,1.3-.8.1-1.6.1-2.4.1-.7,0-1.3-.4-1.7-1-.8-1.2-1.6-2.3-2.3-3.5-.9-1.7-1.7-3.4-2.6-5.1-.2-.3-.3-.6-.5-.9,0-.1-.4-.2-.5-.1-.2,0-.3.3-.4.5,0,.2,0,.4,0,.6,0,.4,0,.8,0,1.2,0,2.3-.1,4.7-.2,7,0,1-.2,1.3-1.2,1.5-1,.2-2.1.3-3.1.4-1.1.1-2.2-.7-2.1-2.1,0-3.4.1-6.8.2-10.2,0-.5,0-1,0-1.5,0-1.9,0-3.9,0-5.8,0-1.2.5-1.7,1.6-1.8,1-.1,2.1-.1,3.1-.1.8,0,1.4.5,1.8,1.2,1.1,1.8,2.2,3.6,3.3,5.4.8,1.3,1.5,2.6,2.3,3.9.1.2.4.4.5.3.2,0,.4-.3.5-.6,0-.4,0-.8-.1-1.1-.3-1-.4-1.9-.4-3,0-1.7,0-3.3,0-5,0-1.1.3-1.5,1.3-1.5,1.1,0,2.3.2,3.4.4.8.2,1,.4,1,1.3,0,1.3,0,2.6,0,3.9,0,1.3,0,2.5,0,3.8h-.1,0Z"/>
    <path d="M109.4,24.3c-.4,0-.9,0-1.3,0-.5,0-.8,0-1.1-.5-.2-.3-.4-.6-.5-.9-1.3-2.8-2.6-5.6-3.8-8.5-1.3-3.3-2.5-6.7-3.8-10-.3-.9-.3-.9.6-1.1.9-.2,1.8-.4,2.7-.2.9.2,1.8.2,2.7.3.5,0,.8.3,1,.8,0,.2.1.4.2.7.5,2.8,1.6,5.4,2.9,8,.5,1.1.9,2.3,1.1,3.5,0,.4,0,.8.6.9.5,0,.6-.5.7-.8.2-.8.4-1.5.6-2.3.8-3.2,1.7-6.3,2.5-9.5.3-1.1.3-1,1.4-.9,1.1.1,2.2,0,3.3,0,.4,0,.9-.2,1.3-.2.9,0,1.1.3.9,1.2-.7,1.9-1.3,3.9-2,5.8-1.4,4-2.8,8-4.3,12-.6,1.7-1.1,2.1-2.9,2.1-.9-.1-1.8-.2-2.7-.3Z"/>
    <path d="M124.7,22c-3.6-4.2-4.3-8.9-1.9-13.8,2.6-5.3,8.5-6.8,13.2-4.9,3.5,1.4,5.7,3.9,6.8,7.4,1.1,3.3.9,6.5-.8,9.5-2,3.6-5.1,5.5-8.5,5.6-4.1,0-6.8-1.3-8.9-3.7ZM127.9,13.7c0,1,.3,2.1.7,2.9,1.6,2.8,5.4,3.4,7.6,1,2.1-2.3,2.1-5.4.1-7.8-.7-.8-1.6-1.3-2.6-1.5-.7,0-1.5-.3-2.1,0-2.4,1-3.7,2.8-3.7,5.4h0Z"/>
    <path d="M145.7,13.3c0-2.6,0-5.3,0-7.9,0-.3,0-.7.2-1,0-.2.4-.4.6-.4,1.5-.1,3-.4,4.4,0,1,.2,1,.2,1,1.2,0,3.8,0,7.6,0,11.5,0,.6,0,1.2.2,1.8,0,.4.3.7.8.7.4,0,.8,0,1.2,0,1.1,0,1.4.3,1.4,1.3,0,1.1,0,2.2,0,3.3,0,.5-.2.8-.7.8-1.6,0-3.1-.1-4.7-.2-1,0-2.1,0-3.1,0-.8,0-.9,0-1-.9,0-1.1-.2-2.3-.2-3.4,0-2.2,0-4.4,0-6.6h0Z"/>
    <path d="M167.1,24.6c-.9-.1-1.8-.2-2.7-.3-.4,0-.9,0-1.3,0-.5,0-.8,0-1.1-.5-.2-.3-.4-.6-.5-.9-1.3-2.8-2.6-5.6-3.8-8.5-1.3-3.3-2.5-6.7-3.8-10-.3-.9-.3-.9.6-1.1.9-.2,1.8-.4,2.7-.2.9.2,1.8.2,2.7.3.5,0,.8.3,1,.8,0,.2.1.4.2.7.5,2.8,1.6,5.4,2.9,8,.5,1.1.9,2.3,1.1,3.5,0,.4,0,.8.6.9.5,0,.6-.5.7-.8.2-.8.4-1.5.6-2.3.8-3.2,1.7-6.3,2.5-9.5.3-1.1.3-1,1.4-.9,1.1.1,2.2,0,3.3,0,.4,0,.9-.2,1.3-.2.9,0,1.1.3.9,1.2-.7,1.9-1.3,3.9-2,5.8-1.4,4-2.8,8-4.3,12-.6,1.7-1.1,2.1-2.9,2.1h0Z"/>
    <path d="M177.7,17.2c.1-2.8.3-5.6.4-8.4,0-1.1,0-2.1.1-3.2,0-.5.2-.9.4-1.3.2-.4.6-.6,1-.5,1.6.1,3.3,0,4.9-.2,1.4-.2,2.7,0,4.1,0,.8,0,1,.2,1,1.1,0,1.3,0,2.5,0,3.8,0,.8-.4,1.2-1.2,1.3-.6,0-1.3,0-1.9,0-.5,0-1,.1-1.4.2-.5.1-.8.6-.8,1,0,.4.4.7,1,.7.3,0,.7,0,1,0,.8,0,1.2.4,1.3,1.1,0,1,0,2,0,3,0,.4-.3.7-.7.7-.4,0-.7,0-1.1,0-.3,0-.6,0-.9,0-.5,0-.8.5-.8.9,0,.5.3.7.7.7.7,0,1.5.1,2.2.2.6,0,1.2,0,1.8,0,.4,0,.7.2.7.7,0,1.5,0,3.1,0,4.6,0,.5-.3.8-.7.8-1,0-1.9,0-2.9,0-2.1,0-4.2-.1-6.2,0-1.3,0-1.9-.3-1.9-1.7,0-1.8,0-3.6,0-5.4h-.1Z"/>
    <path d="M192.6,5.4c0-.3,0-.6,0-.9,0-.4.2-.6.7-.7,1.1,0,2.3-.3,3.4-.4,1.7,0,3.4,0,5,0,2.2,0,3.8.9,4.9,2.7,1.2,1.9,1.8,4,2,6.2.2,2.2,0,4.4-.7,6.5-.5,1.3-1,2.6-2,3.7-1.1,1.1-2.3,1.9-4,1.9-2.6,0-5.3-.1-7.9-.2,0,0-.2,0-.2,0-2.1-.3-1.7-.3-1.7-1.9,0-2.4,0-4.8,0-7.8.1-2.6.3-5.8.4-9ZM198.2,14.8c0,1,0,1.9-.1,2.9,0,.3,0,.6,0,.9,0,.5.4.7.8.9.9.3,2.4-.3,2.9-1.2,1.5-2.8,1.5-5.7.2-8.6-.4-1-1.2-1.5-2.3-1.5-1,0-1.2.2-1.3,1.1-.1,1.8-.2,3.6-.4,5.4h0Z"/>
  </g>
  <g>
    <path class="st0" d="M18.5,10.1c1,0,1.9,0,2.9,0,1.6,0,1.9.4,2,2,0,1.3,0,2.7-.4,4-.5,1.7-1.3,3.2-2.5,4.4-1.4,1.5-3.3,2.2-5.3,2.4-2.3.2-4.5,0-6.7-.8-2.7-.9-4.5-2.8-5.7-5.3-1.6-3.8-1.2-7.4.9-10.9,1-1.6,2.3-2.8,3.8-3.7.5-.4,1.2-.5,1.9-.7,1.9-.8,3.8-.6,5.7-.6,1.3,0,1.7.4,1.7,1.7s-.2,1.8-.2,2.7c0,.5-.4.7-.8.7-1.4,0-2.7.3-4,.8-2.3,1-3.8,3.2-3.4,5.6.9,4.6,5.3,5.8,8.1,4.3.5-.3,1-.7,1.3-1.2.4-.6.2-1-.6-1-.7,0-1.5,0-2.2,0-1.1,0-1.3-.2-1.3-1.3,0-.7,0-1.3,0-2,0-.5.3-.8.8-.9,1.4,0,2.7-.2,4.1-.3,0,0,0,0,0,.1Z"/>
    <path class="st0" d="M25.1,15.2c.1-2.8.3-5.6.4-8.4,0-1.1,0-2.1.1-3.2,0-.5.2-.9.4-1.3.2-.4.6-.6,1-.5,1.6.1,3.3,0,4.9-.2,1.4-.2,2.7,0,4.1,0,.8,0,1,.2,1,1.1,0,1.3,0,2.5,0,3.8,0,.8-.4,1.2-1.2,1.3-.6,0-1.3,0-1.9,0-.5,0-1,.1-1.4.2-.5.1-.8.6-.8,1,0,.4.4.7,1,.7.3,0,.7,0,1,0,.8,0,1.2.4,1.3,1.1,0,1,0,2,0,3,0,.4-.3.7-.7.7-.4,0-.7,0-1.1,0-.3,0-.6,0-.9,0-.5,0-.8.5-.8.9,0,.5.3.7.7.7.7,0,1.5.1,2.2.2.6,0,1.2,0,1.8,0,.4,0,.7.2.7.7,0,1.5,0,3.1,0,4.6,0,.5-.3.8-.7.8-1,0-1.9,0-2.9,0-2.1,0-4.2-.1-6.2,0-1.3,0-1.9-.3-1.9-1.7,0-1.8,0-3.6,0-5.4h-.1Z"/>
    <path class="st0" d="M43.7,12.8c0-1.2,0-2.4,0-3.7,0-.5,0-1,.2-1.5.2-.5,0-.8-.5-.8-.5,0-1,0-1.5,0-.8.2-1.7.4-2.5.6-.8.2-.9,0-.9-.8,0-.4,0-.8,0-1.2.3-1.1.5-2.2.4-3.3,0-.5.3-.7.7-.7.7,0,1.4-.2,2.1,0,1.1.1,2.2.1,3.3,0,2.9-.4,5.8-.6,8.8-.3.9,0,1.3.3,1.5,1.2.2,1.3.3,2.6,0,3.9-.2.7-.5.9-1.2.9-1.1,0-2.1-.2-3.2-.3-.9-.1-1,0-1,.9,0,1.5,0,3,0,4.6,0,2.8,0,5.5,0,8.3,0,.3,0,.6,0,.9-.1,1.1-.5,1.3-1.6,1.2-1.1,0-2.3-.2-3.4-.2-.8,0-.9,0-1-.8-.1-.8,0-1.6-.1-2.3,0-.4,0-.9,0-1.3h0c0-1.7,0-3.3,0-5Z"/>
    <path class="st0" d="M74,12c0,2.2,0,4.4,0,6.6,0,1,0,2-.2,3,0,.8-.2,1-1.1.9-1.4,0-2.9-.1-4.3-.2-.2,0-.5-.3-.5-.5-.1-.6-.2-1.2-.2-1.8,0-4.1,0-8.2,0-12.3,0-1.2,0-2.4,0-3.6,0-.6.1-1.2.3-1.8.1-.5.4-.8,1-.8,1,0,2-.2,3-.2.2,0,.4,0,.7,0,1,0,1.3.3,1.3,1.4,0,3.1,0,6.2,0,9.3h.1,0Z"/>
    <path class="st0" d="M95.1,10.5c0,2.3,0,4.6,0,7,0,1.2,0,2.3-.2,3.5,0,.9-.2,1.2-1.1,1.3-.8.1-1.6.1-2.4.1-.7,0-1.3-.4-1.7-1-.8-1.2-1.6-2.3-2.3-3.5-.9-1.7-1.7-3.4-2.6-5.1-.2-.3-.3-.6-.5-.9,0-.1-.4-.2-.5-.1-.2,0-.3.3-.4.5,0,.2,0,.4,0,.6,0,.4,0,.8,0,1.2,0,2.3-.1,4.7-.2,7,0,1-.2,1.3-1.2,1.5-1,.2-2.1.3-3.1.4-1.1.1-2.2-.7-2.1-2.1,0-3.4.1-6.8.2-10.2,0-.5,0-1,0-1.5,0-1.9,0-3.9,0-5.8,0-1.2.5-1.7,1.6-1.8,1-.1,2.1-.1,3.1-.1.8,0,1.4.5,1.8,1.2,1.1,1.8,2.2,3.6,3.3,5.4.8,1.3,1.5,2.6,2.3,3.9.1.2.4.4.5.3.2,0,.4-.3.5-.6,0-.4,0-.8-.1-1.1-.3-1-.4-1.9-.4-3,0-1.7,0-3.3,0-5,0-1.1.3-1.5,1.3-1.5,1.1,0,2.3.2,3.4.4.8.2,1,.4,1,1.3,0,1.3,0,2.6,0,3.9,0,1.3,0,2.5,0,3.8h-.1,0Z"/>
    <path class="st0" d="M110.1,22.6c-.9-.1-1.8-.2-2.7-.3-.4,0-.9,0-1.3,0-.5,0-.8,0-1.1-.5-.2-.3-.4-.6-.5-.9-1.3-2.8-2.6-5.6-3.8-8.5-1.3-3.3-2.5-6.7-3.8-10-.3-.9-.3-.9.6-1.1.9-.2,1.8-.4,2.7-.2.9.2,1.8.2,2.7.3.5,0,.8.3,1,.8,0,.2.1.4.2.7.5,2.8,1.6,5.4,2.9,8,.5,1.1.9,2.3,1.1,3.5,0,.4,0,.8.6.9.5,0,.6-.5.7-.8.2-.8.4-1.5.6-2.3.8-3.2,1.7-6.3,2.5-9.5.3-1.1.3-1,1.4-.9,1.1.1,2.2,0,3.3,0,.4,0,.9-.2,1.3-.2.9,0,1.1.3.9,1.2-.7,1.9-1.3,3.9-2,5.8-1.4,4-2.8,8-4.3,12-.6,1.7-1.1,2.1-2.9,2.1h0Z"/>
    <path class="st0" d="M122.7,20c-3.6-4.2-4.3-8.9-1.9-13.8,2.6-5.3,8.5-6.8,13.2-4.9,3.5,1.4,5.7,3.9,6.8,7.4,1.1,3.3.9,6.5-.8,9.5-2,3.6-5.1,5.5-8.5,5.6-4.1,0-6.8-1.3-8.9-3.7ZM125.9,11.7c0,1,.3,2.1.7,2.9,1.6,2.8,5.4,3.4,7.6,1,2.1-2.3,2.1-5.4.1-7.8-.7-.8-1.6-1.3-2.6-1.5-.7,0-1.5-.3-2.1,0-2.4,1-3.7,2.8-3.7,5.4h0Z"/>
    <path class="st0" d="M143.7,11.3c0-2.6,0-5.3,0-7.9,0-.3,0-.7.2-1,0-.2.4-.4.6-.4,1.5-.1,3-.4,4.4,0,1,.2,1,.2,1,1.2,0,3.8,0,7.6,0,11.5,0,.6,0,1.2.2,1.8,0,.4.3.7.8.7.4,0,.8,0,1.2,0,1.1,0,1.4.3,1.4,1.3,0,1.1,0,2.2,0,3.3,0,.5-.2.8-.7.8-1.6,0-3.1-.1-4.7-.2-1,0-2.1,0-3.1,0-.8,0-.9,0-1-.9,0-1.1-.2-2.3-.2-3.4,0-2.2,0-4.4,0-6.6h0Z"/>
    <path class="st0" d="M165.1,22.6c-.9-.1-1.8-.2-2.7-.3-.4,0-.9,0-1.3,0-.5,0-.8,0-1.1-.5-.2-.3-.4-.6-.5-.9-1.3-2.8-2.6-5.6-3.8-8.5-1.3-3.3-2.5-6.7-3.8-10-.3-.9-.3-.9.6-1.1.9-.2,1.8-.4,2.7-.2.9.2,1.8.2,2.7.3.5,0,.8.3,1,.8,0,.2.1.4.2.7.5,2.8,1.6,5.4,2.9,8,.5,1.1.9,2.3,1.1,3.5,0,.4,0,.8.6.9.5,0,.6-.5.7-.8.2-.8.4-1.5.6-2.3.8-3.2,1.7-6.3,2.5-9.5.3-1.1.3-1,1.4-.9,1.1.1,2.2,0,3.3,0,.4,0,.9-.2,1.3-.2.9,0,1.1.3.9,1.2-.7,1.9-1.3,3.9-2,5.8-1.4,4-2.8,8-4.3,12-.6,1.7-1.1,2.1-2.9,2.1h0Z"/>
    <path class="st0" d="M175.7,15.2c.1-2.8.3-5.6.4-8.4,0-1.1,0-2.1.1-3.2,0-.5.2-.9.4-1.3.2-.4.6-.6,1-.5,1.6.1,3.3,0,4.9-.2,1.4-.2,2.7,0,4.1,0,.8,0,1,.2,1,1.1,0,1.3,0,2.5,0,3.8,0,.8-.4,1.2-1.2,1.3-.6,0-1.3,0-1.9,0-.5,0-1,.1-1.4.2-.5.1-.8.6-.8,1,0,.4.4.7,1,.7.3,0,.7,0,1,0,.8,0,1.2.4,1.3,1.1,0,1,0,2,0,3,0,.4-.3.7-.7.7-.4,0-.7,0-1.1,0-.3,0-.6,0-.9,0-.5,0-.8.5-.8.9,0,.5.3.7.7.7.7,0,1.5.1,2.2.2.6,0,1.2,0,1.8,0,.4,0,.7.2.7.7,0,1.5,0,3.1,0,4.6,0,.5-.3.8-.7.8-1,0-1.9,0-2.9,0-2.1,0-4.2-.1-6.2,0-1.3,0-1.9-.3-1.9-1.7,0-1.8,0-3.6,0-5.4h-.1Z"/>
    <path class="st0" d="M190.2,12.4c.1-2.6.3-5.8.4-9,0-.3,0-.6,0-.9,0-.4.2-.6.7-.7,1.1,0,2.3-.3,3.4-.4,1.7,0,3.4,0,5,0,2.2,0,3.8.9,4.9,2.7,1.2,1.9,1.8,4,2,6.2.2,2.2,0,4.4-.7,6.5-.5,1.3-1,2.6-2,3.7-1.1,1.1-2.3,1.9-4,1.9-2.6,0-5.3-.1-7.9-.2,0,0-.2,0-.2,0-2.1-.3-1.7-.3-1.7-1.9,0-2.4,0-4.8,0-7.8h0ZM196.2,12.8c0,1,0,1.9-.1,2.9,0,.3,0,.6,0,.9,0,.5.4.7.8.9.9.3,2.4-.3,2.9-1.2,1.5-2.8,1.5-5.7.2-8.6-.4-1-1.2-1.5-2.3-1.5-1,0-1.2.2-1.3,1.1-.1,1.8-.2,3.6-.4,5.4h0Z"/>
  </g>
</svg>