<?xml version="1.0" encoding="UTF-8"?>
<svg id="Layer_1" xmlns="http://www.w3.org/2000/svg" xmlns:xlink="http://www.w3.org/1999/xlink" version="1.1" viewBox="0 0 5466.8 720">
  <!-- Generator: Adobe Illustrator 29.4.0, SVG Export Plug-In . SVG Version: 2.1.0 Build 152)  -->
  <defs>
    <style>
      .st0 {
        fill: url(#linear-gradient);
      }
    </style>
    <linearGradient id="linear-gradient" x1="35.9" y1="360.3" x2="5431.6" y2="360.3" gradientUnits="userSpaceOnUse">
      <stop offset="0" stop-color="#be2328"/>
      <stop offset=".2" stop-color="#f15b27"/>
      <stop offset=".4" stop-color="#faed24"/>
      <stop offset=".5" stop-color="#f6eb16"/>
      <stop offset=".7" stop-color="#6abd45"/>
      <stop offset=".8" stop-color="#70cddd"/>
      <stop offset=".9" stop-color="#3a53a4"/>
      <stop offset="1" stop-color="#b9539f"/>
    </linearGradient>
  </defs>
  <path class="st0" d="M220.8,175.9v108.5h212.3v140.6h-212.3v119.8h240.5v148.1H35.9V27.8h425.4v148.1h-240.5ZM1168.8,692.8h-184.9l-246.2-371.7v371.7h-184.9V27.8h184.9l246.2,376.4V27.8h184.9v665ZM1775.4,27.8v147.1h-177.3v517.9h-184.9V175h-175.4V27.8h537.7ZM2029.1,175.9v108.5h212.3v140.6h-212.3v119.8h240.5v148.1h-425.4V27.8h425.4v148.1h-240.5ZM2697.9,692.8l-132-245.3h-19.8v245.3h-184.9V27.8h291.5c53.4,0,98.7,9.3,135.8,27.8,37.1,18.6,65.1,44,84,76.4,18.9,32.4,28.3,68.7,28.3,109s-12.4,85-37.3,119.3c-24.9,34.3-61.2,58.6-109,73.1l150,259.4h-206.6ZM2546,321.2h91.5c25.1,0,44-6,56.6-17.9,12.6-12,18.9-29.2,18.9-51.9s-6.4-38.2-19.3-50.5c-12.9-12.3-31.6-18.4-56.1-18.4h-91.5v138.7ZM3760.1,27.8v665h-184.9v-267h-225.5v267h-184.9V27.8h184.9v250h225.5V27.8h184.9ZM4050.6,175.9v108.5h212.3v140.6h-212.3v119.8h240.5v148.1h-425.4V27.8h425.4v148.1h-240.5ZM4719.4,692.8l-132-245.3h-19.8v245.3h-184.9V27.8h291.5c53.4,0,98.7,9.3,135.8,27.8,37.1,18.6,65.1,44,84,76.4,18.9,32.4,28.3,68.7,28.3,109s-12.4,85-37.3,119.3c-24.9,34.3-61.2,58.6-109,73.1l150,259.4h-206.6ZM4567.5,321.2h91.5c25.1,0,44-6,56.6-17.9,12.6-12,18.9-29.2,18.9-51.9s-6.4-38.2-19.3-50.5c-12.9-12.3-31.6-18.4-56.1-18.4h-91.5v138.7ZM5191,175.9v108.5h212.3v140.6h-212.3v119.8h240.5v148.1h-425.4V27.8h425.4v148.1h-240.5Z"/>
</svg>