<?xml version="1.0" encoding="UTF-8"?>
<svg id="Layer_1" xmlns="http://www.w3.org/2000/svg" version="1.1" viewBox="0 0 1080 180">
  <!-- Generator: Adobe Illustrator 29.4.0, SVG Export Plug-In . SVG Version: 2.1.0 Build 152)  -->
  <defs>
    <style>
      .st0 {
        fill: #ffef09;
        stroke: #000;
        stroke-linecap: round;
        stroke-linejoin: round;
        stroke-width: 2.3px;
      }
    </style>
  </defs>
  <g>
    <path d="M83.9,19.1c2.3,0,4.5,0,6.8,0,1.7,0,2.2.4,2.1,2.2-.2,2.8-.5,5.6-.9,8.4-1.8,11.6-3.7,23.1-5.6,34.6-.7,4.1-1.5,8.2-2.2,12.3-.3,1.8-1.1,2.9-2.9,3.2-1,.2-1.9.5-2.9.5-4.1.1-8.2,0-12.3.3-1.9.1-2.9-.7-3.4-2.3-1.3-3.7-2.5-7.4-3.7-11.2-1.2-3.7-2.3-7.5-3.5-11.2-.2-.7-.9-1.6-1.6-1.8-1.2-.3-1.7.8-2,1.8-1.2,3.6-2.4,7.2-3.6,10.8-1.2,3.7-2.4,7.5-3.7,11.2-.9,2.8-1.9,3.5-4.8,3.4-1.4,0-2.8-.3-4.2-.4-.9,0-1.8-.3-2.5-.1-1.9.6-3.6,0-5.3-.6-1.2-.5-2-1.2-2.2-2.6-.5-2.8-1.2-5.5-1.7-8.2-1-6-1.8-12-2.8-18-1-5.6-2.3-11.2-3.5-16.8-.7-3.5-1.6-7-2.2-10.6-.6-3.9.4-5,4.1-4.8,4.1.2,8.2.5,12.3.6,1.7,0,2.3.9,2.6,2.4,1.2,7.2,2.5,14.4,3.7,21.6.2,1.5-.1,3.1,0,4.7,0,1.3,0,3.2,1.3,3.5,1.7.4,1.7-1.7,2.1-2.8,1.5-3.7,2.9-7.5,4.5-11.2.7-1.8,2-2.7,4.1-2.6,2.6.2,5.2.2,7.8,0,2.4-.2,3.7.9,4.5,3,1.4,3.8,2.8,7.6,4.2,11.3.4,1,.8,2.1,1.3,3.1.2.3.8.7,1,.6.4-.2.8-.7,1.1-1.1.1-.1,0-.4,0-.7-.7-5.1,1-10,1.7-15,.5-3.9,1.5-7.7,2.3-11.6.2-.8.3-1.5.6-2.3.8-2.4,2.4-3.6,4.7-3.6,1.7,0,3.5,0,5.2,0h0s0,0,0,0Z"/>
    <path d="M98.5,49.3c0-8.4,0-16.7,0-25.1,0-.7,0-1.3,0-2,.2-1.4,1-2.4,2.4-2,3.9.9,7.7-.3,11.6-.2.4,0,.9,0,1.3,0,2.4.1,3.3.9,3.5,3.4.2,3.7.4,7.5.6,11.2,0,1.1,0,2.2.2,3.3.3,2,1.3,2.8,3.3,2.9,1.3,0,2.6.2,3.9.1,2.6-.1,3.2-.7,3.2-3.4,0-4.2,0-8.4.2-12.5.1-3.7,1.3-4.8,5-4.7,2.5,0,5,.1,7.5.2.8,0,1.6.1,2.2.4,2.9,1.3,3.1,1.3,3.2,4.2.3,9.6.6,19.1.9,28.7.1,3.5.4,7,.4,10.5,0,4.2-.2,8.4-.4,12.5,0,2.2-.8,3.3-2.9,3.7-2.2.4-4.5,1-6.7.9-2.1,0-4.3-.5-6.3-1.1-1.3-.4-1.4-1.9-1.4-3.1-.2-3.6-.5-7.2-.6-10.9,0-2.1,0-4.2,0-6.3,0-2.8-.9-3.5-3.6-3.3-1.6.1-3.2.4-4.8.8-.6.2-1.4.8-1.6,1.4-.4,1.1-.6,2.4-.6,3.5,0,3.8.3,7.7.3,11.5,0,1.7-.2,3.5-.5,5.2-.2,1-1,1.5-2.2,1.4-3-.4-6-.8-9-1-1.9-.1-3.8,0-5.8.3-1.7.2-2.2,0-2.4-1.7-.3-3.8-.5-7.7-.5-11.5,0-5.8,0-11.7,0-17.5h-.3,0Z"/>
    <path d="M155.5,60c.4-8.1.8-16.2,1.2-24.3.1-3.1,0-6.3.3-9.4.1-1.3.7-2.7,1.3-3.9.6-1.1,1.7-1.6,3-1.5,4.8.4,9.5,0,14.2-.6,4-.4,8-.2,12-.2,2.4,0,3,.7,3,3.2,0,3.7.1,7.4,0,11,0,2.5-1,3.6-3.5,3.7-1.8.1-3.7,0-5.5.1-1.4,0-2.8.3-4.1.7-1.4.4-2.3,1.8-2.2,2.9.1,1.1,1.2,1.9,3,2,1,0,1.9-.1,2.9-.1,2.2,0,3.6,1.1,3.7,3.3.1,2.9,0,5.8-.2,8.8,0,1.2-.9,1.9-2.2,2-1.1,0-2.2,0-3.2,0-.9,0-1.7,0-2.6,0-1.4.2-2.4,1.4-2.3,2.7,0,1.3.9,2,2.1,2.1,2.1.2,4.3.4,6.5.5,1.7,0,3.5,0,5.2,0,1.3,0,2,.6,2,2,0,4.4,0,8.9.1,13.3,0,1.5-.8,2.2-2.2,2.3-2.8.1-5.6.2-8.4.2-6.1,0-12.1-.3-18.2-.2-3.9,0-5.4-.9-5.5-4.9-.2-5.2,0-10.4,0-15.6h-.3Z"/>
    <path d="M250.7,46.3c0,6.7,0,13.5,0,20.2,0,3.4-.3,6.7-.5,10.1-.2,2.8-.7,3.4-3.2,3.8-2.3.3-4.7.4-7.1.4-2.1,0-3.7-1.2-4.9-2.9-2.3-3.4-4.8-6.7-6.7-10.3-2.7-4.9-5-10-7.5-14.9-.4-.9-.9-1.8-1.5-2.6-.3-.3-1.1-.6-1.4-.4-.5.2-1,.8-1.2,1.4-.2.5.1,1.1.1,1.6,0,1.1.2,2.2.2,3.4-.2,6.8-.4,13.7-.6,20.5,0,3-.6,3.8-3.5,4.3-3,.6-6,.9-9,1.2-3.3.4-6.3-2.1-6.2-6.1.2-9.9.3-19.8.5-29.7,0-1.4,0-2.9,0-4.3,0-5.6-.3-11.2-.1-16.9,0-3.4,1.4-4.9,4.7-5.3,3-.4,6-.4,9.1-.3,2.3,0,4.1,1.3,5.3,3.4,3.2,5.2,6.4,10.4,9.5,15.7,2.3,3.8,4.5,7.7,6.8,11.5.3.5,1.2,1.1,1.4,1,.6-.3,1.2-1,1.3-1.6.1-1.1,0-2.3-.3-3.3-1-2.8-1.1-5.7-1-8.6.2-4.8.1-9.7.2-14.5,0-3.1,1-4.4,3.8-4.3,3.3.1,6.7.6,9.9,1.3,2.5.5,2.8,1.2,2.8,3.8,0,3.8-.2,7.6-.3,11.4,0,3.7,0,7.4,0,11.1h-.4,0Z"/>
    <path d="M316.7,21.1c2.5,0,5,0,7.5,0,3.4,0,6.2,2.1,7.2,5.5,2.2,7.5,4.4,14.9,6.3,22.5,2.2,8.4,4.1,16.8,6.1,25.2.3,1.3.6,2.5.6,3.8,0,2.2-1.3,3.4-3.4,3.5-3.2.1-6.5.2-9.7.3-.8,0-1.5,0-2.3-.1-1.5-.3-2.5-1.1-2.8-2.7-.5-2.8-1.2-5.5-1.8-8.2-.6-2.9-1.6-3.8-4.7-3.9-3,0-6.1,0-9.1,0-2,0-2.4.4-2.9,2.3-.7,2.7-1.3,5.5-2,8.2-1,3.4-1.8,3.9-5.4,3.7-2.8-.2-5.6-.4-8.4-.3-4.5.2-5.2-1.8-4.5-5.4.8-4.1,1.7-8.3,2.7-12.4,3-12.4,6.1-24.8,9.2-37.1.8-3.3,1.7-4.1,5.1-4.4,4.1-.3,8.2-.5,12.3-.8v.3s0,0,0,0ZM314.8,53.5h0c.8,0,1.5,0,2.3,0,3.1,0,3.8-1,3.3-4-.6-3.1-1.2-6.1-1.8-9.2-.5-2.3-1.2-3.1-3-3.2-2-.1-3.6.9-4.1,2.9-.8,3.1-1.6,6.3-2.1,9.4-.5,3.3,0,3.8,3.3,3.9.8,0,1.5,0,2.3,0h0Z"/>
    <path d="M349.9,68.9c-.1-14.9-.3-29.8-.4-44.7,0-2.6.8-3.7,3.2-4.2,3.8-.8,7.7-1.1,11.6-.7,2.7.3,5.4,0,8.1-.2,5.3-.3,10.6-.7,15.8.3,4,.8,7,3,8.8,6.8,3.4,7,3.4,14.2,1.2,21.5-.8,2.7-2.4,5.1-4.8,6.7-2.5,1.7-2.4,1.9-1.1,4.6,3,6.2,5.9,12.4,8.8,18.6.3.7.6,1.5.7,2.2.2,1.4-.5,2.2-1.8,2.3-4.6,0-9.3,0-13.9,0-1.4,0-2.2-.6-2.8-1.9-2-4.6-4.1-9.3-6.1-13.9-.7-1.5-1.2-3.2-2-4.6-.5-.9-1.5-1.7-2.4-2-1.7-.6-3,.4-3.1,2.3-.2,2.6-.2,5.2-.3,7.8,0,2.4,0,4.8-.1,7.2-.2,3.2-1.2,4.3-4.2,4.4-3.9.1-7.8,0-11.7,0-2.4,0-3.2-.9-3.2-3.6,0-3,0-5.9,0-8.9,0,0-.2,0-.3,0ZM374.8,33.3v.3c-1.2,0-2.4,0-3.6,0-.6,0-1.3.2-1.8.6-2.2,1.9-1,9.5,1.6,10.6.2,0,.4.2.6.2,2.3,0,4.5.4,6.7,0,3.6-.5,5.9-2.5,5-7.4-.3-1.9-1.1-3.2-2.9-3.5-1.9-.3-3.8-.6-5.7-.8Z"/>
    <path d="M419.7,67.6c0-4.9,0-9.7,0-14.6,0-3.6-.2-7.1-.3-10.7,0-1.5-.2-3,.6-4.4.7-1.3.1-2.3-1.5-2.5-1.5-.1-3,0-4.5.3-2.4.5-4.8,1.2-7.3,1.7-2.3.5-2.7,0-2.6-2.3,0-1.2,0-2.4.3-3.6.9-3.2,1.4-6.3,1.2-9.6,0-1.4.8-2,2-2.1,2-.2,4.1-.4,6.1-.2,3.2.3,6.4.4,9.7-.1,8.5-1.2,17-1.8,25.5-1,2.7.3,3.8.9,4.2,3.6.6,3.7,1,7.5,0,11.3-.5,1.9-1.4,2.7-3.5,2.6-3.1-.2-6.2-.5-9.3-.8-2.5-.3-3,.2-2.8,2.7.2,4.4.3,8.9.3,13.3,0,8,0,16,0,24,0,.9,0,1.7-.1,2.6-.4,3.1-1.4,3.8-4.5,3.6-3.3-.3-6.7-.5-10-.6-2.4-.1-2.6-.1-2.9-2.4-.3-2.2-.3-4.5-.4-6.8,0-1.3,0-2.6,0-3.9h0,0Z"/>
    <path d="M476.9,50.7c0,6.4,0,12.7,0,19.1,0,2.9-.2,5.8-.5,8.7-.2,2.3-.6,2.8-3.1,2.8-4.2,0-8.4-.3-12.6-.6-.5,0-1.3-.8-1.4-1.4-.4-1.7-.6-3.4-.7-5.1-.1-11.9-.2-23.8-.2-35.7,0-3.5-.1-6.9,0-10.4,0-1.8.4-3.6.9-5.4.3-1.3,1.3-2.2,2.8-2.3,2.9-.2,5.8-.5,8.7-.7.6,0,1.3,0,1.9,0,3,.2,3.8,1,3.8,4,0,9,0,17.9,0,26.9h.3Z"/>
    <path d="M509.1,84.1c-8.7,0-15.2-1.6-20.5-5.9-1.9-1.5-3.2-3.6-4.7-5.5-1-1.3-.7-2.7.7-3.7,2.8-1.9,5.6-3.8,8.5-5.7,1-.7,1.9-.5,2.8.3,1.7,1.5,3.5,2.8,5.4,4.1,2.6,1.8,5.7,1.9,8.8,1.8,4-.2,5.9-3.6,4.8-6.3-.6-1.4-1.7-2.8-2.9-3.8-4.5-4-10.2-6.5-15.6-9.3-4.9-2.5-8.5-6.1-11.5-10.1-1.9-2.5-1.9-5.7-1.4-8.6,1.1-6.1,5-10.4,11.2-13,4.9-2.1,10.2-2.9,15.6-2,2.6.4,5.1.8,7.6,1.6,2.2.7,4.4,1.6,6.3,2.8,4.8,3,4.8,4.1.8,7.7-2.1,1.9-4.1,3.8-6.2,5.7-1.8,1.6-3.2,1.7-5.3.4-1.4-.8-2.7-1.7-4.2-2.2-2.1-.7-4.2.2-5.2,1.8-1,1.4-.7,3.1,1.2,4.5,3.7,2.5,7.5,4.8,11.3,7.1,4.4,2.7,8.9,5.2,12.4,8.9,4.9,5.2,6.2,11.1,4.2,17.5-.6,2-2.3,3.9-4,5.5-3.3,3.2-7.5,5.1-12.4,5.8-3,.5-6.1.6-7.7.8h0Z"/>
    <path d="M548.1,67.6c0-4.9,0-9.7,0-14.6,0-3.6-.2-7.1-.3-10.7,0-1.5-.2-3,.6-4.4.7-1.3.1-2.3-1.5-2.5-1.5-.1-3,0-4.5.3-2.4.5-4.8,1.2-7.3,1.7-2.3.5-2.7,0-2.6-2.3,0-1.2,0-2.4.3-3.6.9-3.2,1.4-6.3,1.2-9.6,0-1.4.8-2,2-2.1,2-.2,4.1-.4,6.1-.2,3.2.3,6.4.4,9.7-.1,8.5-1.2,17-1.8,25.5-1,2.7.3,3.8.9,4.2,3.6.6,3.7,1,7.5,0,11.3-.5,1.9-1.4,2.7-3.5,2.6-3.1-.2-6.2-.5-9.3-.8-2.5-.3-3,.2-2.8,2.7.2,4.4.3,8.9.3,13.3,0,8,0,16,0,24,0,.9,0,1.7-.1,2.6-.4,3.1-1.4,3.8-4.5,3.6-3.3-.3-6.7-.5-10-.6-2.4-.1-2.6-.1-2.9-2.4-.3-2.2-.3-4.5-.4-6.8,0-1.3,0-2.6,0-3.9h0,0Z"/>
    <path d="M610.5,84.1c-8.7,0-15.2-1.6-20.5-5.9-1.9-1.5-3.2-3.6-4.7-5.5-1-1.3-.7-2.7.7-3.7,2.8-1.9,5.6-3.8,8.5-5.7,1-.7,1.9-.5,2.8.3,1.7,1.5,3.5,2.8,5.4,4.1,2.6,1.8,5.7,1.9,8.8,1.8,4-.2,5.9-3.6,4.8-6.3-.6-1.4-1.7-2.8-2.9-3.8-4.5-4-10.2-6.5-15.6-9.3-4.9-2.5-8.5-6.1-11.5-10.1-1.9-2.5-1.9-5.7-1.4-8.6,1.1-6.1,5-10.4,11.2-13,4.9-2.1,10.2-2.9,15.6-2,2.6.4,5.1.8,7.6,1.6,2.2.7,4.4,1.6,6.3,2.8,4.8,3,4.8,4.1.8,7.7-2.1,1.9-4.1,3.8-6.2,5.7-1.8,1.6-3.2,1.7-5.3.4-1.4-.8-2.7-1.7-4.2-2.2-2.1-.7-4.2.2-5.2,1.8-1,1.4-.7,3.1,1.2,4.5,3.7,2.5,7.5,4.8,11.3,7.1,4.4,2.7,8.9,5.2,12.4,8.9,4.9,5.2,6.2,11.1,4.2,17.5-.6,2-2.3,3.9-4,5.5-3.3,3.2-7.5,5.1-12.4,5.8-3,.5-6.1.6-7.7.8h0Z"/>
    <path d="M675.3,81c-2,0-2.6-.8-2.9-2.9,0-.4,0-.9,0-1.4-.2-12.2-.4-24.4-.6-36.5,0-5.3-.1-10.6-.2-15.9,0-2.5.8-3.7,3.2-4.2,3.9-.8,7.9-1.1,11.9-.7,2.6.3,5.2,0,7.8-.2,4.7-.2,9.5-.8,14.2.3,3.2.7,5.7,2.4,7.2,5.3,3.8,7.7,4.7,15.7,1.2,23.8-1.2,2.8-3.4,5-6.3,5.9-4.1,1.4-8.2,2.9-12.6,3.2-.8,0-1.5.2-2.2.3-3.4.9-4,1.7-4.2,5.3-.1,4.3-.3,8.5-.4,12.8-.1,3.9-.9,4.7-4.7,4.8-.9,0-1.7,0-2.6,0-.9,0-1.7,0-2.6,0-2.1,0-4.1,0-6.2,0ZM695.9,32.1h0c-.8,0-1.5,0-2.3,0-2.3.2-2.9.7-3.1,3-.1,1.7,0,3.4.1,5,.2,2.3,1.6,3.6,3.8,3.9,2.9.4,5.5-.7,8-2.1.6-.3,1.1-1.1,1.2-1.8,1-4.4-1.5-7.8-5.9-8-.6,0-1.3,0-1.9,0h0Z"/>
    <path d="M725.2,68.9c-.1-14.9-.3-29.8-.4-44.7,0-2.6.8-3.7,3.2-4.2,3.8-.8,7.7-1.1,11.6-.7,2.7.3,5.4,0,8.1-.2,5.3-.3,10.6-.7,15.8.3,4,.8,7,3,8.8,6.8,3.4,7,3.4,14.2,1.2,21.5-.8,2.7-2.4,5.1-4.8,6.7-2.5,1.7-2.4,1.9-1.1,4.6,3,6.2,5.9,12.4,8.8,18.6.3.7.6,1.5.7,2.2.2,1.4-.5,2.2-1.8,2.3-4.6,0-9.3,0-13.9,0-1.4,0-2.2-.6-2.8-1.9-2-4.6-4.1-9.3-6.1-13.9-.7-1.5-1.2-3.2-2-4.6-.5-.9-1.5-1.7-2.4-2-1.7-.6-3,.4-3.1,2.3-.2,2.6-.2,5.2-.3,7.8,0,2.4,0,4.8-.1,7.2-.2,3.2-1.2,4.3-4.2,4.4-3.9.1-7.8,0-11.7,0-2.4,0-3.2-.9-3.2-3.6,0-3,0-5.9,0-8.9,0,0-.2,0-.3,0ZM750.1,33.3v.3c-1.2,0-2.4,0-3.6,0-.6,0-1.3.2-1.8.6-2.2,1.9-1,9.5,1.6,10.6.2,0,.4.2.6.2,2.3,0,4.5.4,6.7,0,3.6-.5,5.9-2.5,5-7.4-.3-1.9-1.1-3.2-2.9-3.5-1.9-.3-3.8-.6-5.7-.8Z"/>
    <path d="M816.5,84.7c-12,0-19.9-3.7-26-10.7-10.6-12.2-12.5-25.8-5.4-40.2,7.7-15.5,24.7-19.8,38.4-14.3,10.1,4.1,16.5,11.4,19.9,21.4,3.2,9.5,2.6,18.8-2.2,27.6-5.7,10.5-14.8,15.9-24.6,16.2h0ZM799.8,50.1c0,2.9.8,6,2.1,8.5,4.5,8.3,15.7,9.9,22,2.9,6-6.6,6.2-15.6.4-22.7-2-2.4-4.6-3.9-7.7-4.3-2-.3-4.4-.7-6.1,0-6.9,2.9-10.6,8.1-10.7,15.6h0Z"/>
    <path d="M874.6,84.1c-8.7,0-15.2-1.6-20.5-5.9-1.9-1.5-3.2-3.6-4.7-5.5-1-1.3-.7-2.7.7-3.7,2.8-1.9,5.6-3.8,8.5-5.7,1-.7,1.9-.5,2.8.3,1.7,1.5,3.5,2.8,5.4,4.1,2.6,1.8,5.7,1.9,8.8,1.8,4-.2,5.9-3.6,4.8-6.3-.6-1.4-1.7-2.8-2.9-3.8-4.5-4-10.2-6.5-15.6-9.3-4.9-2.5-8.5-6.1-11.5-10.1-1.9-2.5-1.9-5.7-1.4-8.6,1.1-6.1,5-10.4,11.2-13,4.9-2.1,10.2-2.9,15.6-2,2.6.4,5.1.8,7.6,1.6,2.2.7,4.4,1.6,6.3,2.8,4.8,3,4.8,4.1.8,7.7-2.1,1.9-4.1,3.8-6.2,5.7-1.8,1.6-3.2,1.7-5.3.4-1.4-.8-2.7-1.7-4.2-2.2-2.1-.7-4.2.2-5.2,1.8-1,1.4-.7,3.1,1.2,4.5,3.7,2.5,7.5,4.8,11.3,7.1,4.4,2.7,8.9,5.2,12.4,8.9,4.9,5.2,6.2,11.1,4.2,17.5-.6,2-2.3,3.9-4,5.5-3.3,3.2-7.5,5.1-12.4,5.8-3,.5-6.1.6-7.7.8h0Z"/>
    <path d="M908.5,81c-2,0-2.6-.8-2.9-2.9,0-.4,0-.9,0-1.4-.2-12.2-.4-24.4-.6-36.5,0-5.3-.1-10.6-.2-15.9,0-2.5.8-3.7,3.2-4.2,3.9-.8,7.9-1.1,11.9-.7,2.6.3,5.2,0,7.8-.2,4.7-.2,9.5-.8,14.2.3,3.2.7,5.7,2.4,7.2,5.3,3.8,7.7,4.7,15.7,1.2,23.8-1.2,2.8-3.4,5-6.3,5.9-4.1,1.4-8.2,2.9-12.6,3.2-.8,0-1.5.2-2.2.3-3.4.9-4,1.7-4.2,5.3-.1,4.3-.3,8.5-.4,12.8-.1,3.9-.9,4.7-4.7,4.8-.9,0-1.7,0-2.6,0-.9,0-1.7,0-2.6,0-2.1,0-4.1,0-6.2,0ZM929.1,32.1h0c-.8,0-1.5,0-2.3,0-2.3.2-2.9.7-3.1,3-.1,1.7,0,3.4.1,5,.2,2.3,1.6,3.6,3.8,3.9,2.9.4,5.5-.7,8-2.1.6-.3,1.1-1.1,1.2-1.8,1-4.4-1.5-7.8-5.9-8-.6,0-1.3,0-1.9,0h0Z"/>
    <path d="M957.6,60c.4-8.1.8-16.2,1.2-24.3.1-3.1,0-6.3.3-9.4.1-1.3.7-2.7,1.3-3.9.6-1.1,1.7-1.6,3-1.5,4.8.4,9.5,0,14.2-.6,4-.4,8-.2,12-.2,2.4,0,3,.7,3,3.2,0,3.7.1,7.4,0,11,0,2.5-1,3.6-3.5,3.7-1.8.1-3.7,0-5.5.1-1.4,0-2.8.3-4.1.7-1.4.4-2.3,1.8-2.2,2.9.1,1.1,1.2,1.9,3,2,1,0,1.9-.1,2.9-.1,2.2,0,3.6,1.1,3.7,3.3.1,2.9,0,5.8-.2,8.8,0,1.2-.9,1.9-2.2,2-1.1,0-2.2,0-3.2,0-.9,0-1.7,0-2.6,0-1.4.2-2.4,1.4-2.3,2.7,0,1.3.9,2,2.1,2.1,2.1.2,4.3.4,6.5.5,1.7,0,3.5,0,5.2,0,1.3,0,2,.6,2,2,0,4.4,0,8.9.1,13.3,0,1.5-.8,2.2-2.2,2.3-2.8.1-5.6.2-8.4.2-6.1,0-12.1-.3-18.2-.2-3.9,0-5.4-.9-5.5-4.9-.2-5.2,0-10.4,0-15.6h-.3Z"/>
    <path d="M1000.2,68.9c-.1-14.9-.3-29.8-.4-44.7,0-2.6.8-3.7,3.2-4.2,3.8-.8,7.7-1.1,11.6-.7,2.7.3,5.4,0,8.1-.2,5.3-.3,10.6-.7,15.8.3,4,.8,7,3,8.8,6.8,3.4,7,3.4,14.2,1.2,21.5-.8,2.7-2.4,5.1-4.8,6.7-2.5,1.7-2.4,1.9-1.1,4.6,3,6.2,5.9,12.4,8.8,18.6.3.7.6,1.5.7,2.2.2,1.4-.5,2.2-1.8,2.3-4.6,0-9.3,0-13.9,0-1.4,0-2.2-.6-2.8-1.9-2-4.6-4.1-9.3-6.1-13.9-.7-1.5-1.2-3.2-2-4.6-.5-.9-1.5-1.7-2.4-2-1.7-.6-3,.4-3.1,2.3-.2,2.6-.2,5.2-.3,7.8,0,2.4,0,4.8-.1,7.2-.2,3.2-1.2,4.3-4.2,4.4-3.9.1-7.8,0-11.7,0-2.4,0-3.2-.9-3.2-3.6,0-3,0-5.9,0-8.9,0,0-.2,0-.3,0ZM1025.1,33.3v.3c-1.2,0-2.4,0-3.6,0-.6,0-1.3.2-1.8.6-2.2,1.9-1,9.5,1.6,10.6.2,0,.4.2.6.2,2.3,0,4.5.4,6.7,0,3.6-.5,5.9-2.5,5-7.4-.3-1.9-1.1-3.2-2.9-3.5-1.9-.3-3.8-.6-5.7-.8Z"/>
    <path d="M1064.6,64.5c5.4.8,8.8,5.4,7.3,10.5-1,3.5-2,7-4.7,9.8-1.3,1.4-2.2,3.1-3.5,4.6-.6.7-1.4,1.3-2.2,1.6-2.7,1-4.6-.8-4-3.6.2-1.1.7-2.2,1.1-3.3.7-2,.8-3.8-.5-5.7-.7-.9-1-2.2-1-3.4,0-1.9,0-3.9.4-5.8.2-.8,1.1-1.5,1.8-2.1.6-.6,1.4-1,2.2-1.3,1.1-.5,2.2-.9,3.3-1.3h0Z"/>
    <path d="M220.8,159.2c0,1.8,0,3.7,0,5.5,0,3.9-.4,4.5-4.4,4.7-5.6.4-11-.3-16.3-2.2-10.9-3.9-18.8-14.9-19.2-26.5-.5-13.5,5.2-23.8,16.1-31.3,1.7-1.2,4-1.6,6-2.4,5-2.1,10.2-1.6,15.4-1.6,1.9,0,2.5.7,2.5,2.6,0,4,0,8-.1,12,0,2.1-.6,2.6-2.6,2.9-1.2.2-2.4.2-3.6.3-8.5.4-15.2,9.5-13.2,17.7,1.1,4.4,4.2,6.8,8.1,8.1,2.3.8,4.9.8,7.3,1.1.6,0,1.3,0,1.9,0,1.4,0,2.2.7,2.1,2.2,0,2.3,0,4.5,0,6.8h0Z"/>
    <path d="M261.5,133.5c-.1-4.9-.2-9.8-.4-14.7-.2-3.1-.6-6.1-1-9.2-.3-2.2,0-2.7,2.2-2.9,3.8-.3,7.7-1.2,11.6-.3,1.3.3,2.8,0,4.1-.3,1-.2,1.7.1,1.6,1-.5,5.9,1.5,11.5,1.1,17.4-.6,8.4-.4,16.8-1.1,25.2-.4,4-2.2,8-3.4,11.9-.2.8-1,1.4-1.6,2-.8.8-1.9,1.5-2.6,2.4-2.2,3.1-5.3,4.2-8.9,4.5-6.6.6-13.2,1.2-19.5-1.6-3.7-1.6-7.6-2.9-10.2-6.4-2.6-3.4-4.3-7.1-4.6-11.4-.4-5.4-1-10.8-1.2-16.2-.2-3.7,0-7.4,0-11.2-.2-4.6-.7-9.1-1-13.7,0-.6-.2-1.3-.2-1.9,0-2,.1-2.3,2.1-2.3,5.1,0,10.2,0,15.2,0,2.2,0,2.5.2,2.6,2.4.5,8.1.8,16.1,1.1,24.2.2,4.6.2,9.1.4,13.7,0,1.3.3,2.5.6,3.8,1.4,4.8,6,6.7,10.4,4.2,2.1-1.2,3.4-2.8,3.2-5.4-.2-3.8,0-7.7-.1-11.5,0-1.3-.1-2.5-.2-3.8,0,0,0,0-.1,0h0Z"/>
    <path d="M288.4,135.7c0-7.7,0-15.3,0-23,0-1,0-2,.4-2.9.2-.6,1-1.3,1.6-1.3,4.3-.3,8.6-1.1,12.9-.2,2.8.6,3,.5,3,3.6,0,11.1,0,22.2,0,33.3,0,1.8.3,3.5.5,5.3.2,1.3.9,2,2.2,2,1.2,0,2.4,0,3.6,0,3.1,0,4,.7,4,3.8,0,3.2,0,6.4,0,9.7,0,1.4-.5,2.3-2.1,2.2-4.5-.2-9.1-.4-13.6-.6-3-.1-6.1-.2-9.1-.2-2.3,0-2.6-.1-2.8-2.5-.3-3.3-.5-6.6-.5-10,0-6.4,0-12.9,0-19.3h0Z"/>
    <path d="M328.4,154.5c0-4.9,0-9.7,0-14.6,0-3.6-.2-7.1-.3-10.7,0-1.5-.2-3,.6-4.4.7-1.3.1-2.3-1.5-2.5-1.5-.1-3,0-4.5.3-2.4.5-4.8,1.2-7.3,1.7-2.3.5-2.7,0-2.6-2.3,0-1.2,0-2.4.3-3.6.9-3.2,1.4-6.3,1.2-9.6,0-1.4.8-2,2-2.1,2-.2,4.1-.4,6.1-.2,3.2.3,6.4.4,9.7-.1,8.5-1.2,17-1.8,25.5-1,2.7.3,3.8.9,4.2,3.6.6,3.7,1,7.5,0,11.3-.5,1.9-1.4,2.7-3.5,2.6-3.1-.2-6.2-.5-9.3-.8-2.5-.3-3,.2-2.8,2.7.2,4.4.3,8.9.3,13.3,0,8,0,16,0,24,0,.9,0,1.7-.1,2.6-.4,3.1-1.4,3.8-4.5,3.6-3.3-.3-6.7-.5-10-.6-2.4-.1-2.6-.1-2.9-2.4-.3-2.2-.3-4.5-.4-6.8,0-1.3,0-2.6,0-3.9h0,0Z"/>
    <path d="M401,133.5c-.1-4.9-.2-9.8-.4-14.7-.2-3.1-.6-6.1-1-9.2-.3-2.2,0-2.7,2.2-2.9,3.8-.3,7.7-1.2,11.6-.3,1.3.3,2.8,0,4.1-.3,1-.2,1.7.1,1.6,1-.5,5.9,1.5,11.5,1.1,17.4-.6,8.4-.4,16.8-1.1,25.2-.4,4-2.2,8-3.4,11.9-.2.8-1,1.4-1.6,2-.8.8-1.9,1.5-2.6,2.4-2.2,3.1-5.3,4.2-8.9,4.5-6.6.6-13.2,1.2-19.5-1.6-3.7-1.6-7.6-2.9-10.2-6.4-2.6-3.4-4.3-7.1-4.6-11.4-.4-5.4-1-10.8-1.2-16.2-.2-3.7,0-7.4,0-11.2-.2-4.6-.7-9.1-1-13.7,0-.6-.2-1.3-.2-1.9,0-2,.1-2.3,2.1-2.3,5.1,0,10.2,0,15.2,0,2.2,0,2.5.2,2.6,2.4.5,8.1.8,16.1,1.1,24.2.2,4.6.2,9.1.4,13.7,0,1.3.3,2.5.6,3.8,1.4,4.8,6,6.7,10.4,4.2,2.1-1.2,3.4-2.8,3.2-5.4-.2-3.8,0-7.7-.1-11.5,0-1.3-.1-2.5-.2-3.8,0,0,0,0-.1,0h0Z"/>
    <path d="M428.2,155.8c-.1-14.9-.3-29.8-.4-44.7,0-2.6.8-3.7,3.2-4.2,3.8-.8,7.7-1.1,11.6-.7,2.7.3,5.4,0,8.1-.2,5.3-.3,10.6-.7,15.8.3,4,.8,7,3,8.8,6.8,3.4,7,3.4,14.2,1.2,21.5-.8,2.7-2.4,5.1-4.8,6.7-2.5,1.7-2.4,1.9-1.1,4.6,3,6.2,5.9,12.4,8.8,18.6.3.7.6,1.5.7,2.2.2,1.4-.5,2.2-1.8,2.3-4.6,0-9.3,0-13.9,0-1.4,0-2.2-.6-2.8-1.9-2-4.6-4.1-9.3-6.1-13.9-.7-1.5-1.2-3.2-2-4.6-.5-.9-1.5-1.7-2.4-2-1.7-.6-3,.4-3.1,2.3-.2,2.6-.2,5.2-.3,7.8,0,2.4,0,4.8-.1,7.2-.2,3.2-1.2,4.3-4.2,4.4-3.9.1-7.8,0-11.7,0-2.4,0-3.2-.9-3.2-3.6,0-3,0-5.9,0-8.9,0,0-.2,0-.3,0ZM453.1,120.2v.3c-1.2,0-2.4,0-3.6,0-.6,0-1.3.2-1.8.6-2.2,1.9-1,9.5,1.6,10.6.2,0,.4.2.6.2,2.3,0,4.5.4,6.7,0,3.6-.5,5.9-2.5,5-7.4-.3-1.9-1.1-3.2-2.9-3.5-1.9-.3-3.8-.6-5.7-.8Z"/>
    <path d="M485.6,146.9c.4-8.1.8-16.2,1.2-24.3.1-3.1,0-6.3.3-9.4.1-1.3.7-2.7,1.3-3.9.6-1.1,1.7-1.6,3-1.5,4.8.4,9.5,0,14.2-.6,4-.4,8-.2,12-.2,2.4,0,3,.7,3,3.2,0,3.7.1,7.4,0,11,0,2.5-1,3.6-3.5,3.7-1.8.1-3.7,0-5.5.1-1.4,0-2.8.3-4.1.7-1.4.4-2.3,1.8-2.2,2.9.1,1.1,1.2,1.9,3,2,1,0,1.9-.1,2.9-.1,2.2,0,3.6,1.1,3.7,3.3.1,2.9,0,5.8-.2,8.8,0,1.2-.9,1.9-2.2,2-1.1,0-2.2,0-3.2,0-.9,0-1.7,0-2.6,0-1.4.2-2.4,1.4-2.3,2.7,0,1.3.9,2,2.1,2.1,2.1.2,4.3.4,6.5.5,1.7,0,3.5,0,5.2,0,1.3,0,2,.6,2,2,0,4.4,0,8.9.1,13.3,0,1.5-.8,2.2-2.2,2.3-2.8.1-5.6.2-8.4.2-6.1,0-12.1-.3-18.2-.2-3.9,0-5.4-.9-5.5-4.9-.2-5.2,0-10.4,0-15.6h-.3Z"/>
    <path d="M570.6,154.5c0-4.9,0-9.7,0-14.6,0-3.6-.2-7.1-.3-10.7,0-1.5-.2-3,.6-4.4.7-1.3.1-2.3-1.5-2.5-1.5-.1-3,0-4.5.3-2.4.5-4.8,1.2-7.3,1.7-2.3.5-2.7,0-2.6-2.3,0-1.2,0-2.4.3-3.6.9-3.2,1.4-6.3,1.2-9.6,0-1.4.8-2,2-2.1,2-.2,4.1-.4,6.1-.2,3.2.3,6.4.4,9.7-.1,8.5-1.2,17-1.8,25.5-1,2.7.3,3.8.9,4.2,3.6.6,3.7,1,7.5,0,11.3-.5,1.9-1.4,2.7-3.5,2.6-3.1-.2-6.2-.5-9.3-.8-2.5-.3-3,.2-2.8,2.7.2,4.4.3,8.9.3,13.3,0,8,0,16,0,24,0,.9,0,1.7-.1,2.6-.4,3.1-1.4,3.8-4.5,3.6-3.3-.3-6.7-.5-10-.6-2.4-.1-2.6-.1-2.9-2.4-.3-2.2-.3-4.5-.4-6.8,0-1.3,0-2.6,0-3.9h0,0Z"/>
    <path d="M609.4,136.3c0-8.4,0-16.7,0-25.1,0-.7,0-1.3,0-2,.2-1.4,1-2.4,2.4-2,3.9.9,7.7-.3,11.6-.2.4,0,.9,0,1.3,0,2.4.1,3.3.9,3.5,3.4.2,3.7.4,7.5.6,11.2,0,1.1,0,2.2.2,3.3.3,2,1.3,2.8,3.3,2.9,1.3,0,2.6.2,3.9.1,2.6-.1,3.2-.7,3.2-3.4,0-4.2,0-8.4.2-12.5.1-3.7,1.3-4.8,5-4.7,2.5,0,5,.1,7.5.2.8,0,1.6.1,2.2.4,2.9,1.3,3.1,1.3,3.2,4.2.3,9.6.6,19.1.9,28.7.1,3.5.4,7,.4,10.5,0,4.2-.2,8.4-.4,12.5,0,2.2-.8,3.3-2.9,3.7-2.2.4-4.5,1-6.7.9-2.1,0-4.3-.5-6.3-1.1-1.3-.4-1.4-1.9-1.4-3.1-.2-3.6-.5-7.2-.6-10.9,0-2.1,0-4.2,0-6.3,0-2.8-.9-3.5-3.6-3.3-1.6.1-3.2.4-4.8.8-.6.2-1.4.8-1.6,1.4-.4,1.1-.6,2.4-.6,3.5,0,3.8.3,7.7.3,11.5,0,1.7-.2,3.5-.5,5.2-.2,1-1,1.5-2.2,1.4-3-.4-6-.8-9-1-1.9-.1-3.8,0-5.8.3-1.7.2-2.2,0-2.4-1.7-.3-3.8-.5-7.7-.5-11.5,0-5.8,0-11.7,0-17.5h-.3,0Z"/>
    <path d="M667.2,155.8c-.1-14.9-.3-29.8-.4-44.7,0-2.6.8-3.7,3.2-4.2,3.8-.8,7.7-1.1,11.6-.7,2.7.3,5.4,0,8.1-.2,5.3-.3,10.6-.7,15.8.3,4,.8,7,3,8.8,6.8,3.4,7,3.4,14.2,1.2,21.5-.8,2.7-2.4,5.1-4.8,6.7-2.5,1.7-2.4,1.9-1.1,4.6,3,6.2,5.9,12.4,8.8,18.6.3.7.6,1.5.7,2.2.2,1.4-.5,2.2-1.8,2.3-4.6,0-9.3,0-13.9,0-1.4,0-2.2-.6-2.8-1.9-2-4.6-4.1-9.3-6.1-13.9-.7-1.5-1.2-3.2-2-4.6-.5-.9-1.5-1.7-2.4-2-1.7-.6-3,.4-3.1,2.3-.2,2.6-.2,5.2-.3,7.8,0,2.4,0,4.8-.1,7.2-.2,3.2-1.2,4.3-4.2,4.4-3.9.1-7.8,0-11.7,0-2.4,0-3.2-.9-3.2-3.6,0-3,0-5.9,0-8.9,0,0-.2,0-.3,0ZM692.1,120.2v.3c-1.2,0-2.4,0-3.6,0-.6,0-1.3.2-1.8.6-2.2,1.9-1,9.5,1.6,10.6.2,0,.4.2.6.2,2.3,0,4.5.4,6.7,0,3.6-.5,5.9-2.5,5-7.4-.3-1.9-1.1-3.2-2.9-3.5-1.9-.3-3.8-.6-5.7-.8Z"/>
    <path d="M743.6,137.7c0,6.4,0,12.7,0,19.1,0,2.9-.2,5.8-.5,8.7-.2,2.3-.6,2.8-3.1,2.8-4.2,0-8.4-.3-12.6-.6-.5,0-1.3-.8-1.4-1.4-.4-1.7-.6-3.4-.7-5.1-.1-11.9-.2-23.8-.2-35.7,0-3.5-.1-6.9,0-10.4,0-1.8.4-3.6.9-5.4.3-1.3,1.3-2.2,2.8-2.3,2.9-.2,5.8-.5,8.7-.7.6,0,1.3,0,1.9,0,3,.2,3.8,1,3.8,4,0,9,0,17.9,0,26.9h.3Z"/>
    <path d="M786.8,168.6c-2.7-.3-5.3-.6-7.8-.9-1.3-.1-2.6-.2-3.9,0-1.3.2-2.3-.2-3.1-1.3-.5-.8-1.1-1.6-1.5-2.5-3.7-8.2-7.6-16.4-11-24.8-3.9-9.6-7.4-19.4-11-29.1-.9-2.5-.8-2.5,1.8-3.2,2.6-.7,5.2-1.2,8-.6,2.5.5,5.2.6,7.7.8,1.5,0,2.4.8,2.8,2.2.2.6.4,1.3.5,1.9,1.5,8.2,4.8,15.8,8.4,23.3,1.5,3.2,2.5,6.6,3.1,10.1.2,1.1.2,2.4,1.6,2.5,1.4,0,1.6-1.3,1.9-2.3.7-2.2,1.2-4.5,1.8-6.7,2.4-9.2,4.8-18.3,7.3-27.5.8-3.1,1-2.8,4.1-2.5,3.2.3,6.4.1,9.7,0,1.3,0,2.6-.5,3.8-.6,2.6-.1,3.3.9,2.5,3.4-1.9,5.6-3.9,11.2-5.9,16.9-4.1,11.6-8.2,23.3-12.4,34.9-1.8,5-3.3,6-8.3,6h0Z"/>
    <path d="M817.8,146.9c.4-8.1.8-16.2,1.2-24.3.1-3.1,0-6.3.3-9.4.1-1.3.7-2.7,1.3-3.9.6-1.1,1.7-1.6,3-1.5,4.8.4,9.5,0,14.2-.6,4-.4,8-.2,12-.2,2.4,0,3,.7,3,3.2,0,3.7.1,7.4,0,11,0,2.5-1,3.6-3.5,3.7-1.8.1-3.7,0-5.5.1-1.4,0-2.8.3-4.1.7-1.4.4-2.3,1.8-2.2,2.9.1,1.1,1.2,1.9,3,2,1,0,1.9-.1,2.9-.1,2.2,0,3.6,1.1,3.7,3.3.1,2.9,0,5.8-.2,8.8,0,1.2-.9,1.9-2.2,2-1.1,0-2.2,0-3.2,0-.9,0-1.7,0-2.6,0-1.4.2-2.4,1.4-2.3,2.7,0,1.3.9,2,2.1,2.1,2.1.2,4.3.4,6.5.5,1.7,0,3.5,0,5.2,0,1.3,0,2,.6,2,2,0,4.4,0,8.9.1,13.3,0,1.5-.8,2.2-2.2,2.3-2.8.1-5.6.2-8.4.2-6.1,0-12.1-.3-18.2-.2-3.9,0-5.4-.9-5.5-4.9-.2-5.2,0-10.4,0-15.6h-.3Z"/>
    <path d="M883.8,171c-8.7,0-15.2-1.6-20.5-5.9-1.9-1.5-3.2-3.6-4.7-5.5-1-1.3-.7-2.7.7-3.7,2.8-1.9,5.6-3.8,8.5-5.7,1-.7,1.9-.5,2.8.3,1.7,1.5,3.5,2.8,5.4,4.1,2.6,1.8,5.7,1.9,8.8,1.8,4-.2,5.9-3.6,4.8-6.3-.6-1.4-1.7-2.8-2.9-3.8-4.5-4-10.2-6.5-15.6-9.3-4.9-2.5-8.5-6.1-11.5-10.1-1.9-2.5-1.9-5.7-1.4-8.6,1.1-6.1,5-10.4,11.2-13,4.9-2.1,10.2-2.9,15.6-2,2.6.4,5.1.8,7.6,1.6,2.2.7,4.4,1.6,6.3,2.8,4.8,3,4.8,4.1.8,7.7-2.1,1.9-4.1,3.8-6.2,5.7-1.8,1.6-3.2,1.7-5.3.4-1.4-.8-2.7-1.7-4.2-2.2-2.1-.7-4.2.2-5.2,1.8-1,1.4-.7,3.1,1.2,4.5,3.7,2.5,7.5,4.8,11.3,7.1,4.4,2.7,8.9,5.2,12.4,8.9,4.9,5.2,6.2,11.1,4.2,17.5-.6,2-2.3,3.9-4,5.5-3.3,3.2-7.5,5.1-12.4,5.8-3,.5-6.1.6-7.7.8h0Z"/>
  </g>
  <g>
    <path class="st0" d="M76.9,12.1c2.3,0,4.5,0,6.8,0,1.7,0,2.2.4,2.1,2.2-.2,2.8-.5,5.6-.9,8.4-1.8,11.6-3.7,23.1-5.6,34.6-.7,4.1-1.5,8.2-2.2,12.3-.3,1.8-1.1,2.9-2.9,3.2-1,.2-1.9.5-2.9.5-4.1.1-8.2,0-12.3.3-1.9.1-2.9-.7-3.4-2.3-1.3-3.7-2.5-7.4-3.7-11.2-1.2-3.7-2.3-7.5-3.5-11.2-.2-.7-.9-1.6-1.6-1.8-1.2-.3-1.7.8-2,1.8-1.2,3.6-2.4,7.2-3.6,10.8-1.2,3.7-2.4,7.5-3.7,11.2-.9,2.8-1.9,3.5-4.8,3.4-1.4,0-2.8-.3-4.2-.4-.9,0-1.8-.3-2.5-.1-1.9.6-3.6,0-5.3-.6-1.2-.5-2-1.2-2.2-2.6-.5-2.8-1.2-5.5-1.7-8.2-1-6-1.8-12-2.8-18-1-5.6-2.3-11.2-3.5-16.8-.7-3.5-1.6-7-2.2-10.6-.6-3.9.4-5,4.1-4.8,4.1.2,8.2.5,12.3.6,1.7,0,2.3.9,2.6,2.4,1.2,7.2,2.5,14.4,3.7,21.6.2,1.5-.1,3.1,0,4.7,0,1.3,0,3.2,1.3,3.5,1.7.4,1.7-1.7,2.1-2.8,1.5-3.7,2.9-7.5,4.5-11.2.7-1.8,2-2.7,4.1-2.6,2.6.2,5.2.2,7.8,0,2.4-.2,3.7.9,4.5,3,1.4,3.8,2.8,7.6,4.2,11.3.4,1,.8,2.1,1.3,3.1.2.3.8.7,1,.6.4-.2.8-.7,1.1-1.1.1-.1,0-.4,0-.7-.7-5.1,1-10,1.7-15,.5-3.9,1.5-7.7,2.3-11.6.2-.8.3-1.5.6-2.3.8-2.4,2.4-3.6,4.7-3.6,1.7,0,3.5,0,5.2,0h0s0,0,0,0Z"/>
    <path class="st0" d="M91.6,42.4c0-8.4,0-16.7,0-25.1,0-.7,0-1.3,0-2,.2-1.4,1-2.4,2.4-2,3.9.9,7.7-.3,11.6-.2.4,0,.9,0,1.3,0,2.4.1,3.3.9,3.5,3.4.2,3.7.4,7.5.6,11.2,0,1.1,0,2.2.2,3.3.3,2,1.3,2.8,3.3,2.9,1.3,0,2.6.2,3.9.1,2.6-.1,3.2-.7,3.2-3.4,0-4.2,0-8.4.2-12.5.1-3.7,1.3-4.8,5-4.7,2.5,0,5,.1,7.5.2.8,0,1.6.1,2.2.4,2.9,1.3,3.1,1.3,3.2,4.2.3,9.6.6,19.1.9,28.7.1,3.5.4,7,.4,10.5,0,4.2-.2,8.4-.4,12.5,0,2.2-.8,3.3-2.9,3.7-2.2.4-4.5,1-6.7.9-2.1,0-4.3-.5-6.3-1.1-1.3-.4-1.4-1.9-1.4-3.1-.2-3.6-.5-7.2-.6-10.9,0-2.1,0-4.2,0-6.3,0-2.8-.9-3.5-3.6-3.3-1.6.1-3.2.4-4.8.8-.6.2-1.4.8-1.6,1.4-.4,1.1-.6,2.4-.6,3.5,0,3.8.3,7.7.3,11.5,0,1.7-.2,3.5-.5,5.2-.2,1-1,1.5-2.2,1.4-3-.4-6-.8-9-1-1.9-.1-3.8,0-5.8.3-1.7.2-2.2,0-2.4-1.7-.3-3.8-.5-7.7-.5-11.5,0-5.8,0-11.7,0-17.5h-.3,0Z"/>
    <path class="st0" d="M148.5,53c.4-8.1.8-16.2,1.2-24.3.1-3.1,0-6.3.3-9.4.1-1.3.7-2.7,1.3-3.9.6-1.1,1.7-1.6,3-1.5,4.8.4,9.5,0,14.2-.6,4-.4,8-.2,12-.2,2.4,0,3,.7,3,3.2,0,3.7.1,7.4,0,11,0,2.5-1,3.6-3.5,3.7-1.8.1-3.7,0-5.5.1-1.4,0-2.8.3-4.1.7-1.4.4-2.3,1.8-2.2,2.9.1,1.1,1.2,1.9,3,2,1,0,1.9-.1,2.9-.1,2.2,0,3.6,1.1,3.7,3.3.1,2.9,0,5.8-.2,8.8,0,1.2-.9,1.9-2.2,2-1.1,0-2.2,0-3.2,0-.9,0-1.7,0-2.6,0-1.4.2-2.4,1.4-2.3,2.7,0,1.3.9,2,2.1,2.1,2.1.2,4.3.4,6.5.5,1.7,0,3.5,0,5.2,0,1.3,0,2,.6,2,2,0,4.4,0,8.9.1,13.3,0,1.5-.8,2.2-2.2,2.3-2.8.1-5.6.2-8.4.2-6.1,0-12.1-.3-18.2-.2-3.9,0-5.4-.9-5.5-4.9-.2-5.2,0-10.4,0-15.6h-.3Z"/>
    <path class="st0" d="M243.8,39.4c0,6.7,0,13.5,0,20.2,0,3.4-.3,6.7-.5,10.1-.2,2.8-.7,3.4-3.2,3.8-2.3.3-4.7.4-7.1.4-2.1,0-3.7-1.2-4.9-2.9-2.3-3.4-4.8-6.7-6.7-10.3-2.7-4.9-5-10-7.5-14.9-.4-.9-.9-1.8-1.5-2.6-.3-.3-1.1-.6-1.4-.4-.5.2-1,.8-1.2,1.4-.2.5.1,1.1.1,1.6,0,1.1.2,2.2.2,3.4-.2,6.8-.4,13.7-.6,20.5,0,3-.6,3.8-3.5,4.3-3,.6-6,.9-9,1.2-3.3.4-6.3-2.1-6.2-6.1.2-9.9.3-19.8.5-29.7,0-1.4,0-2.9,0-4.3,0-5.6-.3-11.2-.1-16.9,0-3.4,1.4-4.9,4.7-5.3,3-.4,6-.4,9.1-.3,2.3,0,4.1,1.3,5.3,3.4,3.2,5.2,6.4,10.4,9.5,15.7,2.3,3.8,4.5,7.7,6.8,11.5.3.5,1.2,1.1,1.4,1,.6-.3,1.2-1,1.3-1.6.1-1.1,0-2.3-.3-3.3-1-2.8-1.1-5.7-1-8.6.2-4.8.1-9.7.2-14.5,0-3.1,1-4.4,3.8-4.3,3.3.1,6.7.6,9.9,1.3,2.5.5,2.8,1.2,2.8,3.8,0,3.8-.2,7.6-.3,11.4,0,3.7,0,7.4,0,11.1h-.4,0Z"/>
    <path class="st0" d="M309.8,14.2c2.5,0,5,0,7.5,0,3.4,0,6.2,2.1,7.2,5.5,2.2,7.5,4.4,14.9,6.3,22.5,2.2,8.4,4.1,16.8,6.1,25.2.3,1.3.6,2.5.6,3.8,0,2.2-1.3,3.4-3.4,3.5-3.2.1-6.5.2-9.7.3-.8,0-1.5,0-2.3-.1-1.5-.3-2.5-1.1-2.8-2.7-.5-2.8-1.2-5.5-1.8-8.2-.6-2.9-1.6-3.8-4.7-3.9-3,0-6.1,0-9.1,0-2,0-2.4.4-2.9,2.3-.7,2.7-1.3,5.5-2,8.2-1,3.4-1.8,3.9-5.4,3.7-2.8-.2-5.6-.4-8.4-.3-4.5.2-5.2-1.8-4.5-5.4.8-4.1,1.7-8.3,2.7-12.4,3-12.4,6.1-24.8,9.2-37.1.8-3.3,1.7-4.1,5.1-4.4,4.1-.3,8.2-.5,12.3-.8v.3s0,0,0,0ZM307.8,46.6h0c.8,0,1.5,0,2.3,0,3.1,0,3.8-1,3.3-4-.6-3.1-1.2-6.1-1.8-9.2-.5-2.3-1.2-3.1-3-3.2-2-.1-3.6.9-4.1,2.9-.8,3.1-1.6,6.3-2.1,9.4-.5,3.3,0,3.8,3.3,3.9.8,0,1.5,0,2.3,0h0Z"/>
    <path class="st0" d="M342.9,61.9c-.1-14.9-.3-29.8-.4-44.7,0-2.6.8-3.7,3.2-4.2,3.8-.8,7.7-1.1,11.6-.7,2.7.3,5.4,0,8.1-.2,5.3-.3,10.6-.7,15.8.3,4,.8,7,3,8.8,6.8,3.4,7,3.4,14.2,1.2,21.5-.8,2.7-2.4,5.1-4.8,6.7-2.5,1.7-2.4,1.9-1.1,4.6,3,6.2,5.9,12.4,8.8,18.6.3.7.6,1.5.7,2.2.2,1.4-.5,2.2-1.8,2.3-4.6,0-9.3,0-13.9,0-1.4,0-2.2-.6-2.8-1.9-2-4.6-4.1-9.3-6.1-13.9-.7-1.5-1.2-3.2-2-4.6-.5-.9-1.5-1.7-2.4-2-1.7-.6-3,.4-3.1,2.3-.2,2.6-.2,5.2-.3,7.8,0,2.4,0,4.8-.1,7.2-.2,3.2-1.2,4.3-4.2,4.4-3.9.1-7.8,0-11.7,0-2.4,0-3.2-.9-3.2-3.6,0-3,0-5.9,0-8.9,0,0-.2,0-.3,0ZM367.8,26.3v.3c-1.2,0-2.4,0-3.6,0-.6,0-1.3.2-1.8.6-2.2,1.9-1,9.5,1.6,10.6.2,0,.4.2.6.2,2.3,0,4.5.4,6.7,0,3.6-.5,5.9-2.5,5-7.4-.3-1.9-1.1-3.2-2.9-3.5-1.9-.3-3.8-.6-5.7-.8Z"/>
    <path class="st0" d="M412.7,60.6c0-4.9,0-9.7,0-14.6,0-3.6-.2-7.1-.3-10.7,0-1.5-.2-3,.6-4.4.7-1.3.1-2.3-1.5-2.5-1.5-.1-3,0-4.5.3-2.4.5-4.8,1.2-7.3,1.7-2.3.5-2.7,0-2.6-2.3,0-1.2,0-2.4.3-3.6.9-3.2,1.4-6.3,1.2-9.6,0-1.4.8-2,2-2.1,2-.2,4.1-.4,6.1-.2,3.2.3,6.4.4,9.7-.1,8.5-1.2,17-1.8,25.5-1,2.7.3,3.8.9,4.2,3.6.6,3.7,1,7.5,0,11.3-.5,1.9-1.4,2.7-3.5,2.6-3.1-.2-6.2-.5-9.3-.8-2.5-.3-3,.2-2.8,2.7.2,4.4.3,8.9.3,13.3,0,8,0,16,0,24,0,.9,0,1.7-.1,2.6-.4,3.1-1.4,3.8-4.5,3.6-3.3-.3-6.7-.5-10-.6-2.4-.1-2.6-.1-2.9-2.4-.3-2.2-.3-4.5-.4-6.8,0-1.3,0-2.6,0-3.9h0,0Z"/>
    <path class="st0" d="M470,43.8c0,6.4,0,12.7,0,19.1,0,2.9-.2,5.8-.5,8.7-.2,2.3-.6,2.8-3.1,2.8-4.2,0-8.4-.3-12.6-.6-.5,0-1.3-.8-1.4-1.4-.4-1.7-.6-3.4-.7-5.1-.1-11.9-.2-23.8-.2-35.7,0-3.5-.1-6.9,0-10.4,0-1.8.4-3.6.9-5.4.3-1.3,1.3-2.2,2.8-2.3,2.9-.2,5.8-.5,8.7-.7.6,0,1.3,0,1.9,0,3,.2,3.8,1,3.8,4,0,9,0,17.9,0,26.9h.3Z"/>
    <path class="st0" d="M502.2,77.2c-8.7,0-15.2-1.6-20.5-5.9-1.9-1.5-3.2-3.6-4.7-5.5-1-1.3-.7-2.7.7-3.7,2.8-1.9,5.6-3.8,8.5-5.7,1-.7,1.9-.5,2.8.3,1.7,1.5,3.5,2.8,5.4,4.1,2.6,1.8,5.7,1.9,8.8,1.8,4-.2,5.9-3.6,4.8-6.3-.6-1.4-1.7-2.8-2.9-3.8-4.5-4-10.2-6.5-15.6-9.3-4.9-2.5-8.5-6.1-11.5-10.1-1.9-2.5-1.9-5.7-1.4-8.6,1.1-6.1,5-10.4,11.2-13,4.9-2.1,10.2-2.9,15.6-2,2.6.4,5.1.8,7.6,1.6,2.2.7,4.4,1.6,6.3,2.8,4.8,3,4.8,4.1.8,7.7-2.1,1.9-4.1,3.8-6.2,5.7-1.8,1.6-3.2,1.7-5.3.4-1.4-.8-2.7-1.7-4.2-2.2-2.1-.7-4.2.2-5.2,1.8-1,1.4-.7,3.1,1.2,4.5,3.7,2.5,7.5,4.8,11.3,7.1,4.4,2.7,8.9,5.2,12.4,8.9,4.9,5.2,6.2,11.1,4.2,17.5-.6,2-2.3,3.9-4,5.5-3.3,3.2-7.5,5.1-12.4,5.8-3,.5-6.1.6-7.7.8h0Z"/>
    <path class="st0" d="M541.1,60.6c0-4.9,0-9.7,0-14.6,0-3.6-.2-7.1-.3-10.7,0-1.5-.2-3,.6-4.4.7-1.3.1-2.3-1.5-2.5-1.5-.1-3,0-4.5.3-2.4.5-4.8,1.2-7.3,1.7-2.3.5-2.7,0-2.6-2.3,0-1.2,0-2.4.3-3.6.9-3.2,1.4-6.3,1.2-9.6,0-1.4.8-2,2-2.1,2-.2,4.1-.4,6.1-.2,3.2.3,6.4.4,9.7-.1,8.5-1.2,17-1.8,25.5-1,2.7.3,3.8.9,4.2,3.6.6,3.7,1,7.5,0,11.3-.5,1.9-1.4,2.7-3.5,2.6-3.1-.2-6.2-.5-9.3-.8-2.5-.3-3,.2-2.8,2.7.2,4.4.3,8.9.3,13.3,0,8,0,16,0,24,0,.9,0,1.7-.1,2.6-.4,3.1-1.4,3.8-4.5,3.6-3.3-.3-6.7-.5-10-.6-2.4-.1-2.6-.1-2.9-2.4-.3-2.2-.3-4.5-.4-6.8,0-1.3,0-2.6,0-3.9h0,0Z"/>
    <path class="st0" d="M603.6,77.2c-8.7,0-15.2-1.6-20.5-5.9-1.9-1.5-3.2-3.6-4.7-5.5-1-1.3-.7-2.7.7-3.7,2.8-1.9,5.6-3.8,8.5-5.7,1-.7,1.9-.5,2.8.3,1.7,1.5,3.5,2.8,5.4,4.1,2.6,1.8,5.7,1.9,8.8,1.8,4-.2,5.9-3.6,4.8-6.3-.6-1.4-1.7-2.8-2.9-3.8-4.5-4-10.2-6.5-15.6-9.3-4.9-2.5-8.5-6.1-11.5-10.1-1.9-2.5-1.9-5.7-1.4-8.6,1.1-6.1,5-10.4,11.2-13,4.9-2.1,10.2-2.9,15.6-2,2.6.4,5.1.8,7.6,1.6,2.2.7,4.4,1.6,6.3,2.8,4.8,3,4.8,4.1.8,7.7-2.1,1.9-4.1,3.8-6.2,5.7-1.8,1.6-3.2,1.7-5.3.4-1.4-.8-2.7-1.7-4.2-2.2-2.1-.7-4.2.2-5.2,1.8-1,1.4-.7,3.1,1.2,4.5,3.7,2.5,7.5,4.8,11.3,7.1,4.4,2.7,8.9,5.2,12.4,8.9,4.9,5.2,6.2,11.1,4.2,17.5-.6,2-2.3,3.9-4,5.5-3.3,3.2-7.5,5.1-12.4,5.8-3,.5-6.1.6-7.7.8h0Z"/>
    <path class="st0" d="M668.3,74.1c-2,0-2.6-.8-2.9-2.9,0-.4,0-.9,0-1.4-.2-12.2-.4-24.4-.6-36.5,0-5.3-.1-10.6-.2-15.9,0-2.5.8-3.7,3.2-4.2,3.9-.8,7.9-1.1,11.9-.7,2.6.3,5.2,0,7.8-.2,4.7-.2,9.5-.8,14.2.3,3.2.7,5.7,2.4,7.2,5.3,3.8,7.7,4.7,15.7,1.2,23.8-1.2,2.8-3.4,5-6.3,5.9-4.1,1.4-8.2,2.9-12.6,3.2-.8,0-1.5.2-2.2.3-3.4.9-4,1.7-4.2,5.3-.1,4.3-.3,8.5-.4,12.8-.1,3.9-.9,4.7-4.7,4.8-.9,0-1.7,0-2.6,0-.9,0-1.7,0-2.6,0-2.1,0-4.1,0-6.2,0ZM689,25.1h0c-.8,0-1.5,0-2.3,0-2.3.2-2.9.7-3.1,3-.1,1.7,0,3.4.1,5,.2,2.3,1.6,3.6,3.8,3.9,2.9.4,5.5-.7,8-2.1.6-.3,1.1-1.1,1.2-1.8,1-4.4-1.5-7.8-5.9-8-.6,0-1.3,0-1.9,0h0Z"/>
    <path class="st0" d="M718.2,61.9c-.1-14.9-.3-29.8-.4-44.7,0-2.6.8-3.7,3.2-4.2,3.8-.8,7.7-1.1,11.6-.7,2.7.3,5.4,0,8.1-.2,5.3-.3,10.6-.7,15.8.3,4,.8,7,3,8.8,6.8,3.4,7,3.4,14.2,1.2,21.5-.8,2.7-2.4,5.1-4.8,6.7-2.5,1.7-2.4,1.9-1.1,4.6,3,6.2,5.9,12.4,8.8,18.6.3.7.6,1.5.7,2.2.2,1.4-.5,2.2-1.8,2.3-4.6,0-9.3,0-13.9,0-1.4,0-2.2-.6-2.8-1.9-2-4.6-4.1-9.3-6.1-13.9-.7-1.5-1.2-3.2-2-4.6-.5-.9-1.5-1.7-2.4-2-1.7-.6-3,.4-3.1,2.3-.2,2.6-.2,5.2-.3,7.8,0,2.4,0,4.8-.1,7.2-.2,3.2-1.2,4.3-4.2,4.4-3.9.1-7.8,0-11.7,0-2.4,0-3.2-.9-3.2-3.6,0-3,0-5.9,0-8.9,0,0-.2,0-.3,0ZM743.1,26.3v.3c-1.2,0-2.4,0-3.6,0-.6,0-1.3.2-1.8.6-2.2,1.9-1,9.5,1.6,10.6.2,0,.4.2.6.2,2.3,0,4.5.4,6.7,0,3.6-.5,5.9-2.5,5-7.4-.3-1.9-1.1-3.2-2.9-3.5-1.9-.3-3.8-.6-5.7-.8Z"/>
    <path class="st0" d="M809.5,77.8c-12,0-19.9-3.7-26-10.7-10.6-12.2-12.5-25.8-5.4-40.2,7.7-15.5,24.7-19.8,38.4-14.3,10.1,4.1,16.5,11.4,19.9,21.4,3.2,9.5,2.6,18.8-2.2,27.6-5.7,10.5-14.8,15.9-24.6,16.2h0ZM792.9,43.1c0,2.9.8,6,2.1,8.5,4.5,8.3,15.7,9.9,22,2.9,6-6.6,6.2-15.6.4-22.7-2-2.4-4.6-3.9-7.7-4.3-2-.3-4.4-.7-6.1,0-6.9,2.9-10.6,8.1-10.7,15.6h0Z"/>
    <path class="st0" d="M867.6,77.2c-8.7,0-15.2-1.6-20.5-5.9-1.9-1.5-3.2-3.6-4.7-5.5-1-1.3-.7-2.7.7-3.7,2.8-1.9,5.6-3.8,8.5-5.7,1-.7,1.9-.5,2.8.3,1.7,1.5,3.5,2.8,5.4,4.1,2.6,1.8,5.7,1.9,8.8,1.8,4-.2,5.9-3.6,4.8-6.3-.6-1.4-1.7-2.8-2.9-3.8-4.5-4-10.2-6.5-15.6-9.3-4.9-2.5-8.5-6.1-11.5-10.1-1.9-2.5-1.9-5.7-1.4-8.6,1.1-6.1,5-10.4,11.2-13,4.9-2.1,10.2-2.9,15.6-2,2.6.4,5.1.8,7.6,1.6,2.2.7,4.4,1.6,6.3,2.8,4.8,3,4.8,4.1.8,7.7-2.1,1.9-4.1,3.8-6.2,5.7-1.8,1.6-3.2,1.7-5.3.4-1.4-.8-2.7-1.7-4.2-2.2-2.1-.7-4.2.2-5.2,1.8-1,1.4-.7,3.1,1.2,4.5,3.7,2.5,7.5,4.8,11.3,7.1,4.4,2.7,8.9,5.2,12.4,8.9,4.9,5.2,6.2,11.1,4.2,17.5-.6,2-2.3,3.9-4,5.5-3.3,3.2-7.5,5.1-12.4,5.8-3,.5-6.1.6-7.7.8h0Z"/>
    <path class="st0" d="M901.5,74.1c-2,0-2.6-.8-2.9-2.9,0-.4,0-.9,0-1.4-.2-12.2-.4-24.4-.6-36.5,0-5.3-.1-10.6-.2-15.9,0-2.5.8-3.7,3.2-4.2,3.9-.8,7.9-1.1,11.9-.7,2.6.3,5.2,0,7.8-.2,4.7-.2,9.5-.8,14.2.3,3.2.7,5.7,2.4,7.2,5.3,3.8,7.7,4.7,15.7,1.2,23.8-1.2,2.8-3.4,5-6.3,5.9-4.1,1.4-8.2,2.9-12.6,3.2-.8,0-1.5.2-2.2.3-3.4.9-4,1.7-4.2,5.3-.1,4.3-.3,8.5-.4,12.8-.1,3.9-.9,4.7-4.7,4.8-.9,0-1.7,0-2.6,0-.9,0-1.7,0-2.6,0-2.1,0-4.1,0-6.2,0ZM922.2,25.1h0c-.8,0-1.5,0-2.3,0-2.3.2-2.9.7-3.1,3-.1,1.7,0,3.4.1,5,.2,2.3,1.6,3.6,3.8,3.9,2.9.4,5.5-.7,8-2.1.6-.3,1.1-1.1,1.2-1.8,1-4.4-1.5-7.8-5.9-8-.6,0-1.3,0-1.9,0h0Z"/>
    <path class="st0" d="M950.6,53c.4-8.1.8-16.2,1.2-24.3.1-3.1,0-6.3.3-9.4.1-1.3.7-2.7,1.3-3.9.6-1.1,1.7-1.6,3-1.5,4.8.4,9.5,0,14.2-.6,4-.4,8-.2,12-.2,2.4,0,3,.7,3,3.2,0,3.7.1,7.4,0,11,0,2.5-1,3.6-3.5,3.7-1.8.1-3.7,0-5.5.1-1.4,0-2.8.3-4.1.7-1.4.4-2.3,1.8-2.2,2.9.1,1.1,1.2,1.9,3,2,1,0,1.9-.1,2.9-.1,2.2,0,3.6,1.1,3.7,3.3.1,2.9,0,5.8-.2,8.8,0,1.2-.9,1.9-2.2,2-1.1,0-2.2,0-3.2,0-.9,0-1.7,0-2.6,0-1.4.2-2.4,1.4-2.3,2.7,0,1.3.9,2,2.1,2.1,2.1.2,4.3.4,6.5.5,1.7,0,3.5,0,5.2,0,1.3,0,2,.6,2,2,0,4.4,0,8.9.1,13.3,0,1.5-.8,2.2-2.2,2.3-2.8.1-5.6.2-8.4.2-6.1,0-12.1-.3-18.2-.2-3.9,0-5.4-.9-5.5-4.9-.2-5.2,0-10.4,0-15.6h-.3Z"/>
    <path class="st0" d="M993.2,61.9c-.1-14.9-.3-29.8-.4-44.7,0-2.6.8-3.7,3.2-4.2,3.8-.8,7.7-1.1,11.6-.7,2.7.3,5.4,0,8.1-.2,5.3-.3,10.6-.7,15.8.3,4,.8,7,3,8.8,6.8,3.4,7,3.4,14.2,1.2,21.5-.8,2.7-2.4,5.1-4.8,6.7-2.5,1.7-2.4,1.9-1.1,4.6,3,6.2,5.9,12.4,8.8,18.6.3.7.6,1.5.7,2.2.2,1.4-.5,2.2-1.8,2.3-4.6,0-9.3,0-13.9,0-1.4,0-2.2-.6-2.8-1.9-2-4.6-4.1-9.3-6.1-13.9-.7-1.5-1.2-3.2-2-4.6-.5-.9-1.5-1.7-2.4-2-1.7-.6-3,.4-3.1,2.3-.2,2.6-.2,5.2-.3,7.8,0,2.4,0,4.8-.1,7.2-.2,3.2-1.2,4.3-4.2,4.4-3.9.1-7.8,0-11.7,0-2.4,0-3.2-.9-3.2-3.6,0-3,0-5.9,0-8.9,0,0-.2,0-.3,0ZM1018.1,26.3v.3c-1.2,0-2.4,0-3.6,0-.6,0-1.3.2-1.8.6-2.2,1.9-1,9.5,1.6,10.6.2,0,.4.2.6.2,2.3,0,4.5.4,6.7,0,3.6-.5,5.9-2.5,5-7.4-.3-1.9-1.1-3.2-2.9-3.5-1.9-.3-3.8-.6-5.7-.8Z"/>
    <path class="st0" d="M1057.6,57.6c5.4.8,8.8,5.4,7.3,10.5-1,3.5-2,7-4.7,9.8-1.3,1.4-2.2,3.1-3.5,4.6-.6.7-1.4,1.3-2.2,1.6-2.7,1-4.6-.8-4-3.6.2-1.1.7-2.2,1.1-3.3.7-2,.8-3.8-.5-5.7-.7-.9-1-2.2-1-3.4,0-1.9,0-3.9.4-5.8.2-.8,1.1-1.5,1.8-2.1.6-.6,1.4-1,2.2-1.3,1.1-.5,2.2-.9,3.3-1.3h0Z"/>
    <path class="st0" d="M213.8,152.2c0,1.8,0,3.7,0,5.5,0,3.9-.4,4.5-4.4,4.7-5.6.4-11-.3-16.3-2.2-10.9-3.9-18.8-14.9-19.2-26.5-.5-13.5,5.2-23.8,16.1-31.3,1.7-1.2,4-1.6,6-2.4,5-2.1,10.2-1.6,15.4-1.6,1.9,0,2.5.7,2.5,2.6,0,4,0,8-.1,12,0,2.1-.6,2.6-2.6,2.9-1.2.2-2.4.2-3.6.3-8.5.4-15.2,9.5-13.2,17.7,1.1,4.4,4.2,6.8,8.1,8.1,2.3.8,4.9.8,7.3,1.1.6,0,1.3,0,1.9,0,1.4,0,2.2.7,2.1,2.2,0,2.3,0,4.5,0,6.8h0Z"/>
    <path class="st0" d="M254.6,126.6c-.1-4.9-.2-9.8-.4-14.7-.2-3.1-.6-6.1-1-9.2-.3-2.2,0-2.7,2.2-2.9,3.8-.3,7.7-1.2,11.6-.3,1.3.3,2.8,0,4.1-.3,1-.2,1.7.1,1.6,1-.5,5.9,1.5,11.5,1.1,17.4-.6,8.4-.4,16.8-1.1,25.2-.4,4-2.2,8-3.4,11.9-.2.8-1,1.4-1.6,2-.8.8-1.9,1.5-2.6,2.4-2.2,3.1-5.3,4.2-8.9,4.5-6.6.6-13.2,1.2-19.5-1.6-3.7-1.6-7.6-2.9-10.2-6.4-2.6-3.4-4.3-7.1-4.6-11.4-.4-5.4-1-10.8-1.2-16.2-.2-3.7,0-7.4,0-11.2-.2-4.6-.7-9.1-1-13.7,0-.6-.2-1.3-.2-1.9,0-2,.1-2.3,2.1-2.3,5.1,0,10.2,0,15.2,0,2.2,0,2.5.2,2.6,2.4.5,8.1.8,16.1,1.1,24.2.2,4.6.2,9.1.4,13.7,0,1.3.3,2.5.6,3.8,1.4,4.8,6,6.7,10.4,4.2,2.1-1.2,3.4-2.8,3.2-5.4-.2-3.8,0-7.7-.1-11.5,0-1.3-.1-2.5-.2-3.8,0,0,0,0-.1,0h0Z"/>
    <path class="st0" d="M281.4,128.8c0-7.7,0-15.3,0-23,0-1,0-2,.4-2.9.2-.6,1-1.3,1.6-1.3,4.3-.3,8.6-1.1,12.9-.2,2.8.6,3,.5,3,3.6,0,11.1,0,22.2,0,33.3,0,1.8.3,3.5.5,5.3.2,1.3.9,2,2.2,2,1.2,0,2.4,0,3.6,0,3.1,0,4,.7,4,3.8,0,3.2,0,6.4,0,9.7,0,1.4-.5,2.3-2.1,2.2-4.5-.2-9.1-.4-13.6-.6-3-.1-6.1-.2-9.1-.2-2.3,0-2.6-.1-2.8-2.5-.3-3.3-.5-6.6-.5-10,0-6.4,0-12.9,0-19.3h0Z"/>
    <path class="st0" d="M321.4,147.5c0-4.9,0-9.7,0-14.6,0-3.6-.2-7.1-.3-10.7,0-1.5-.2-3,.6-4.4.7-1.3.1-2.3-1.5-2.5-1.5-.1-3,0-4.5.3-2.4.5-4.8,1.2-7.3,1.7-2.3.5-2.7,0-2.6-2.3,0-1.2,0-2.4.3-3.6.9-3.2,1.4-6.3,1.2-9.6,0-1.4.8-2,2-2.1,2-.2,4.1-.4,6.1-.2,3.2.3,6.4.4,9.7-.1,8.5-1.2,17-1.8,25.5-1,2.7.3,3.8.9,4.2,3.6.6,3.7,1,7.5,0,11.3-.5,1.9-1.4,2.7-3.5,2.6-3.1-.2-6.2-.5-9.3-.8-2.5-.3-3,.2-2.8,2.7.2,4.4.3,8.9.3,13.3,0,8,0,16,0,24,0,.9,0,1.7-.1,2.6-.4,3.1-1.4,3.8-4.5,3.6-3.3-.3-6.7-.5-10-.6-2.4-.1-2.6-.1-2.9-2.4-.3-2.2-.3-4.5-.4-6.8,0-1.3,0-2.6,0-3.9h0,0Z"/>
    <path class="st0" d="M394.1,126.6c-.1-4.9-.2-9.8-.4-14.7-.2-3.1-.6-6.1-1-9.2-.3-2.2,0-2.7,2.2-2.9,3.8-.3,7.7-1.2,11.6-.3,1.3.3,2.8,0,4.1-.3,1-.2,1.7.1,1.6,1-.5,5.9,1.5,11.5,1.1,17.4-.6,8.4-.4,16.8-1.1,25.2-.4,4-2.2,8-3.4,11.9-.2.8-1,1.4-1.6,2-.8.8-1.9,1.5-2.6,2.4-2.2,3.1-5.3,4.2-8.9,4.5-6.6.6-13.2,1.2-19.5-1.6-3.7-1.6-7.6-2.9-10.2-6.4-2.6-3.4-4.3-7.1-4.6-11.4-.4-5.4-1-10.8-1.2-16.2-.2-3.7,0-7.4,0-11.2-.2-4.6-.7-9.1-1-13.7,0-.6-.2-1.3-.2-1.9,0-2,.1-2.3,2.1-2.3,5.1,0,10.2,0,15.2,0,2.2,0,2.5.2,2.6,2.4.5,8.1.8,16.1,1.1,24.2.2,4.6.2,9.1.4,13.7,0,1.3.3,2.5.6,3.8,1.4,4.8,6,6.7,10.4,4.2,2.1-1.2,3.4-2.8,3.2-5.4-.2-3.8,0-7.7-.1-11.5,0-1.3-.1-2.5-.2-3.8,0,0,0,0-.1,0h0Z"/>
    <path class="st0" d="M421.2,148.8c-.1-14.9-.3-29.8-.4-44.7,0-2.6.8-3.7,3.2-4.2,3.8-.8,7.7-1.1,11.6-.7,2.7.3,5.4,0,8.1-.2,5.3-.3,10.6-.7,15.8.3,4,.8,7,3,8.8,6.8,3.4,7,3.4,14.2,1.2,21.5-.8,2.7-2.4,5.1-4.8,6.7-2.5,1.7-2.4,1.9-1.1,4.6,3,6.2,5.9,12.4,8.8,18.6.3.7.6,1.5.7,2.2.2,1.4-.5,2.2-1.8,2.3-4.6,0-9.3,0-13.9,0-1.4,0-2.2-.6-2.8-1.9-2-4.6-4.1-9.3-6.1-13.9-.7-1.5-1.2-3.2-2-4.6-.5-.9-1.5-1.7-2.4-2-1.7-.6-3,.4-3.1,2.3-.2,2.6-.2,5.2-.3,7.8,0,2.4,0,4.8-.1,7.2-.2,3.2-1.2,4.3-4.2,4.4-3.9.1-7.8,0-11.7,0-2.4,0-3.2-.9-3.2-3.6,0-3,0-5.9,0-8.9,0,0-.2,0-.3,0ZM446.1,113.3v.3c-1.2,0-2.4,0-3.6,0-.6,0-1.3.2-1.8.6-2.2,1.9-1,9.5,1.6,10.6.2,0,.4.2.6.2,2.3,0,4.5.4,6.7,0,3.6-.5,5.9-2.5,5-7.4-.3-1.9-1.1-3.2-2.9-3.5-1.9-.3-3.8-.6-5.7-.8Z"/>
    <path class="st0" d="M478.6,140c.4-8.1.8-16.2,1.2-24.3.1-3.1,0-6.3.3-9.4.1-1.3.7-2.7,1.3-3.9.6-1.1,1.7-1.6,3-1.5,4.8.4,9.5,0,14.2-.6,4-.4,8-.2,12-.2,2.4,0,3,.7,3,3.2,0,3.7.1,7.4,0,11,0,2.5-1,3.6-3.5,3.7-1.8.1-3.7,0-5.5.1-1.4,0-2.8.3-4.1.7-1.4.4-2.3,1.8-2.2,2.9.1,1.1,1.2,1.9,3,2,1,0,1.9-.1,2.9-.1,2.2,0,3.6,1.1,3.7,3.3.1,2.9,0,5.8-.2,8.8,0,1.2-.9,1.9-2.2,2-1.1,0-2.2,0-3.2,0-.9,0-1.7,0-2.6,0-1.4.2-2.4,1.4-2.3,2.7,0,1.3.9,2,2.1,2.1,2.1.2,4.3.4,6.5.5,1.7,0,3.5,0,5.2,0,1.3,0,2,.6,2,2,0,4.4,0,8.9.1,13.3,0,1.5-.8,2.2-2.2,2.3-2.8.1-5.6.2-8.4.2-6.1,0-12.1-.3-18.2-.2-3.9,0-5.4-.9-5.5-4.9-.2-5.2,0-10.4,0-15.6h-.3Z"/>
    <path class="st0" d="M563.7,147.5c0-4.9,0-9.7,0-14.6,0-3.6-.2-7.1-.3-10.7,0-1.5-.2-3,.6-4.4.7-1.3.1-2.3-1.5-2.5-1.5-.1-3,0-4.5.3-2.4.5-4.8,1.2-7.3,1.7-2.3.5-2.7,0-2.6-2.3,0-1.2,0-2.4.3-3.6.9-3.2,1.4-6.3,1.2-9.6,0-1.4.8-2,2-2.1,2-.2,4.1-.4,6.1-.2,3.2.3,6.4.4,9.7-.1,8.5-1.2,17-1.8,25.5-1,2.7.3,3.8.9,4.2,3.6.6,3.7,1,7.5,0,11.3-.5,1.9-1.4,2.7-3.5,2.6-3.1-.2-6.2-.5-9.3-.8-2.5-.3-3,.2-2.8,2.7.2,4.4.3,8.9.3,13.3,0,8,0,16,0,24,0,.9,0,1.7-.1,2.6-.4,3.1-1.4,3.8-4.5,3.6-3.3-.3-6.7-.5-10-.6-2.4-.1-2.6-.1-2.9-2.4-.3-2.2-.3-4.5-.4-6.8,0-1.3,0-2.6,0-3.9h0,0Z"/>
    <path class="st0" d="M602.4,129.3c0-8.4,0-16.7,0-25.1,0-.7,0-1.3,0-2,.2-1.4,1-2.4,2.4-2,3.9.9,7.7-.3,11.6-.2.4,0,.9,0,1.3,0,2.4.1,3.3.9,3.5,3.4.2,3.7.4,7.5.6,11.2,0,1.1,0,2.2.2,3.3.3,2,1.3,2.8,3.3,2.9,1.3,0,2.6.2,3.9.1,2.6-.1,3.2-.7,3.2-3.4,0-4.2,0-8.4.2-12.5.1-3.7,1.3-4.8,5-4.7,2.5,0,5,.1,7.5.2.8,0,1.6.1,2.2.4,2.9,1.3,3.1,1.3,3.2,4.2.3,9.6.6,19.1.9,28.7.1,3.5.4,7,.4,10.5,0,4.2-.2,8.4-.4,12.5,0,2.2-.8,3.3-2.9,3.7-2.2.4-4.5,1-6.7.9-2.1,0-4.3-.5-6.3-1.1-1.3-.4-1.4-1.9-1.4-3.1-.2-3.6-.5-7.2-.6-10.9,0-2.1,0-4.2,0-6.3,0-2.8-.9-3.5-3.6-3.3-1.6.1-3.2.4-4.8.8-.6.2-1.4.8-1.6,1.4-.4,1.1-.6,2.4-.6,3.5,0,3.8.3,7.7.3,11.5,0,1.7-.2,3.5-.5,5.2-.2,1-1,1.5-2.2,1.4-3-.4-6-.8-9-1-1.9-.1-3.8,0-5.8.3-1.7.2-2.2,0-2.4-1.7-.3-3.8-.5-7.7-.5-11.5,0-5.8,0-11.7,0-17.5h-.3,0Z"/>
    <path class="st0" d="M660.2,148.8c-.1-14.9-.3-29.8-.4-44.7,0-2.6.8-3.7,3.2-4.2,3.8-.8,7.7-1.1,11.6-.7,2.7.3,5.4,0,8.1-.2,5.3-.3,10.6-.7,15.8.3,4,.8,7,3,8.8,6.8,3.4,7,3.4,14.2,1.2,21.5-.8,2.7-2.4,5.1-4.8,6.7-2.5,1.7-2.4,1.9-1.1,4.6,3,6.2,5.9,12.4,8.8,18.6.3.7.6,1.5.7,2.2.2,1.4-.5,2.2-1.8,2.3-4.6,0-9.3,0-13.9,0-1.4,0-2.2-.6-2.8-1.9-2-4.6-4.1-9.3-6.1-13.9-.7-1.5-1.2-3.2-2-4.6-.5-.9-1.5-1.7-2.4-2-1.7-.6-3,.4-3.1,2.3-.2,2.6-.2,5.2-.3,7.8,0,2.4,0,4.8-.1,7.2-.2,3.2-1.2,4.3-4.2,4.4-3.9.1-7.8,0-11.7,0-2.4,0-3.2-.9-3.2-3.6,0-3,0-5.9,0-8.9,0,0-.2,0-.3,0ZM685.1,113.3v.3c-1.2,0-2.4,0-3.6,0-.6,0-1.3.2-1.8.6-2.2,1.9-1,9.5,1.6,10.6.2,0,.4.2.6.2,2.3,0,4.5.4,6.7,0,3.6-.5,5.9-2.5,5-7.4-.3-1.9-1.1-3.2-2.9-3.5-1.9-.3-3.8-.6-5.7-.8Z"/>
    <path class="st0" d="M736.7,130.7c0,6.4,0,12.7,0,19.1,0,2.9-.2,5.8-.5,8.7-.2,2.3-.6,2.8-3.1,2.8-4.2,0-8.4-.3-12.6-.6-.5,0-1.3-.8-1.4-1.4-.4-1.7-.6-3.4-.7-5.1-.1-11.9-.2-23.8-.2-35.7,0-3.5-.1-6.9,0-10.4,0-1.8.4-3.6.9-5.4.3-1.3,1.3-2.2,2.8-2.3,2.9-.2,5.8-.5,8.7-.7.6,0,1.3,0,1.9,0,3,.2,3.8,1,3.8,4,0,9,0,17.9,0,26.9h.3Z"/>
    <path class="st0" d="M779.9,161.7c-2.7-.3-5.3-.6-7.8-.9-1.3-.1-2.6-.2-3.9,0-1.3.2-2.3-.2-3.1-1.3-.5-.8-1.1-1.6-1.5-2.5-3.7-8.2-7.6-16.4-11-24.8-3.9-9.6-7.4-19.4-11-29.1-.9-2.5-.8-2.5,1.8-3.2,2.6-.7,5.2-1.2,8-.6,2.5.5,5.2.6,7.7.8,1.5,0,2.4.8,2.8,2.2.2.6.4,1.3.5,1.9,1.5,8.2,4.8,15.8,8.4,23.3,1.5,3.2,2.5,6.6,3.1,10.1.2,1.1.2,2.4,1.6,2.5,1.4,0,1.6-1.3,1.9-2.3.7-2.2,1.2-4.5,1.8-6.7,2.4-9.2,4.8-18.3,7.3-27.5.8-3.1,1-2.8,4.1-2.5,3.2.3,6.4.1,9.7,0,1.3,0,2.6-.5,3.8-.6,2.6-.1,3.3.9,2.5,3.4-1.9,5.6-3.9,11.2-5.9,16.9-4.1,11.6-8.2,23.3-12.4,34.9-1.8,5-3.3,6-8.3,6h0Z"/>
    <path class="st0" d="M810.8,140c.4-8.1.8-16.2,1.2-24.3.1-3.1,0-6.3.3-9.4.1-1.3.7-2.7,1.3-3.9.6-1.1,1.7-1.6,3-1.5,4.8.4,9.5,0,14.2-.6,4-.4,8-.2,12-.2,2.4,0,3,.7,3,3.2,0,3.7.1,7.4,0,11,0,2.5-1,3.6-3.5,3.7-1.8.1-3.7,0-5.5.1-1.4,0-2.8.3-4.1.7-1.4.4-2.3,1.8-2.2,2.9.1,1.1,1.2,1.9,3,2,1,0,1.9-.1,2.9-.1,2.2,0,3.6,1.1,3.7,3.3.1,2.9,0,5.8-.2,8.8,0,1.2-.9,1.9-2.2,2-1.1,0-2.2,0-3.2,0-.9,0-1.7,0-2.6,0-1.4.2-2.4,1.4-2.3,2.7,0,1.3.9,2,2.1,2.1,2.1.2,4.3.4,6.5.5,1.7,0,3.5,0,5.2,0,1.3,0,2,.6,2,2,0,4.4,0,8.9.1,13.3,0,1.5-.8,2.2-2.2,2.3-2.8.1-5.6.2-8.4.2-6.1,0-12.1-.3-18.2-.2-3.9,0-5.4-.9-5.5-4.9-.2-5.2,0-10.4,0-15.6h-.3Z"/>
    <path class="st0" d="M876.8,164.1c-8.7,0-15.2-1.6-20.5-5.9-1.9-1.5-3.2-3.6-4.7-5.5-1-1.3-.7-2.7.7-3.7,2.8-1.9,5.6-3.8,8.5-5.7,1-.7,1.9-.5,2.8.3,1.7,1.5,3.5,2.8,5.4,4.1,2.6,1.8,5.7,1.9,8.8,1.8,4-.2,5.9-3.6,4.8-6.3-.6-1.4-1.7-2.8-2.9-3.8-4.5-4-10.2-6.5-15.6-9.3-4.9-2.5-8.5-6.1-11.5-10.1-1.9-2.5-1.9-5.7-1.4-8.6,1.1-6.1,5-10.4,11.2-13,4.9-2.1,10.2-2.9,15.6-2,2.6.4,5.1.8,7.6,1.6,2.2.7,4.4,1.6,6.3,2.8,4.8,3,4.8,4.1.8,7.7-2.1,1.9-4.1,3.8-6.2,5.7-1.8,1.6-3.2,1.7-5.3.4-1.4-.8-2.7-1.7-4.2-2.2-2.1-.7-4.2.2-5.2,1.8-1,1.4-.7,3.1,1.2,4.5,3.7,2.5,7.5,4.8,11.3,7.1,4.4,2.7,8.9,5.2,12.4,8.9,4.9,5.2,6.2,11.1,4.2,17.5-.6,2-2.3,3.9-4,5.5-3.3,3.2-7.5,5.1-12.4,5.8-3,.5-6.1.6-7.7.8h0Z"/>
  </g>
</svg>