<?xml version="1.0" encoding="UTF-8"?>
<svg id="Layer_1" xmlns="http://www.w3.org/2000/svg" version="1.1" viewBox="0 0 1080 250">
  <!-- Generator: Adobe Illustrator 29.4.0, SVG Export Plug-In . SVG Version: 2.1.0 Build 152)  -->
  <defs>
    <style>
      .st0 {
        fill: #fef4da;
      }
    </style>
  </defs>
  <path class="st0" d="M29.4,3.1l14.6,67.9c4.1-2.4,4.6-10,5.7-14.5,4.3-17.5,6.5-35.7,10.7-53.2h25.7c0,0,15.5,72.6,15.5,72.6L118.7,3.1h22.7l-23.7,105.2h-31.5c0-.1-13.8-64.8-13.8-64.8-3.3-1.2-3.1,5.7-3.5,7.8-3.7,18.3-7.5,36.8-9.4,55.4l-30.1,1.5L5,3.1h24.4Z"/>
  <path class="st0" d="M279.4,139h22.7v101.1c0,.6,2.9,1.8-.8,4h-30l-30.8-71.2v71.2c-4.4-.8-23.1,2.1-23.9-2.4l-.4-102.8h30l29.2,64.7c1.2,2.8,4.1,0,4.1-.8v-63.9Z"/>
  <path class="st0" d="M1040.1,139c5.3.6,16.4,3.7,20.8,6.7,14.3,9.6,15.2,41.4.3,51.5l-12.1,7.3,26,38h-28.4l-25.2-38.8c-1.3-.9-4.8,1.6-4.8,2.4v36.4l-24.4,1.6v-101.1c0-.5-2.2-2.3-1.6-4,15.9,1.2,34-1.6,49.5,0ZM1016.5,187.5c42,7.3,41.9-33.2,0-25.9v25.9Z"/>
  <path class="st0" d="M600.1,139c12.6,1.8,25.9,14.7,28,27.1,3.4,19.7-3.8,33-22.3,40.1,0,2.2,22.3,29.4,24.3,35.6,1.6,4.9-3.8.8-4,.8h-24.4c-6.7-6.6-15.1-29-21.1-33.9s-4.3-1.9-7.3-1.6v37.2c-8.3,1.3-16.5-4.2-24.4,0v-101.1c0-.6-2.9-1.8.8-4,15.7,1.6,35.2-2.1,50.3,0ZM573.3,189.1c10.7.5,30.9,1.3,31-13.7.1-17.3-19-13.6-31-13.8v27.5Z"/>
  <path class="st0" d="M173.9,3.1v40.4h35.7V3.1h26v105.1h-26v-42.1h-35.7v42.1c-8.3.8-16.4-4.2-24.4,0V3.1h24.4Z"/>
  <path class="st0" d="M683.4,137.8c38.2-2.2,53,26.1,50.7,60.3-4.2,64-97.6,63.9-97.6-6.5,0-30.7,15.1-51.9,46.9-53.8ZM676.7,162c-19.4,4.4-25.9,54.8,3,59.4,39.3,6.3,39.3-56.6,12.9-59.8-3.9-.5-12.2-.5-15.9.4Z"/>
  <path class="st0" d="M13.1,242.5l-1.6-103.5h47.9c5.3,0,21.2,9.4,25.2,13.8,18.5,20.3,18.1,68.5-7.2,83.3-3,1.7-13.7,6.4-16.3,6.4H13.1ZM37.5,221.5c20.5.1,34.1-1.9,35.8-25,2-27.7-7.4-37.9-35.8-34.8v59.8Z"/>
  <path class="st0" d="M550.6,108.2h-28.4l-23.8-38.5-6.2-.3v38.8h-22.7V3.1h49.5c1.7,0,14.1,6.5,16.2,8.1,13.2,10,15,28.9,7.6,43.2-4.2,8.1-11.3,9.6-18.2,14.2l25.9,39.6ZM492.1,26.6v24.3c0,3.8,20.4,1.3,23.2.5,9.6-2.8,11.1-21.7,1.2-24.8-3.3-1.1-16.9-1.7-21.1-1.7s-2.1.1-3.3,1.8Z"/>
  <path class="st0" d="M150.8,137.8c41.4-3.9,60.8,30.8,53.5,67.9-6.1,30.9-34.9,44.8-64.6,36-43.2-12.7-44.3-98.7,11-103.9ZM152.4,160.4c-28.5,3.5-28.7,54.4-1.3,60.3,41.8,9,41.5-65.3,1.3-60.3Z"/>
  <path class="st0" d="M456.4,108.2h-24.4l-3.3-21h-36.4c0-.1-6.6,21-6.6,21h-25.2L392.4,3l37.2,1.7,26.7,103.6ZM423.9,69.4c-2.1-6.2-8.9-43.6-13.8-43.6l-13.8,43.6h27.6Z"/>
  <path class="st0" d="M821.7,169.7h-23.5c-.4,0-1.3,1.7-2.4,1.6-1-13.8-14.5-15.7-25.6-11-1.6,1.6-2.4,6.2-2.1,8.4,2.1,14.6,49.6,12.3,53.5,37.4,7.8,49.6-81.2,53-81.1,3.9h26c-1.3,20.2,39.8,16.5,29.3-.9-7-11.6-48.8-6.9-52-37.1-4.9-45.3,75.2-47.1,77.9-2.4Z"/>
  <path class="st0" d="M751.9,33.8h-24.4c-1,0-.2-11.6-12.3-12.9-12.3-1.3-20.6,8.2-10.4,16.9,15.1,12.8,53.3,9.2,49.9,40-4.6,42-83.2,42.3-80.8-3.6h23.5c4.3,8.5,3.4,12.3,14.5,13,15.9,1.1,25.3-10.8,10.7-18.8-21.5-11.8-51.4-8.2-45.1-44.8,5.9-34.1,77.5-29,74.3,10.1Z"/>
  <path class="st0" d="M868.8,74.3c2.3,27.8,46.1,5.1,23.1-6-18.5-9-48.9-5.7-47.1-38,2.3-41.2,73-37.4,75.9,1.9l-23.6,1.2c-1.9-.4-2.9-6.2-5.4-8.6-7.8-7.2-28.2-2.8-22,10.6,6.3,13.7,51.6,5.3,52.8,36.4,2,48.6-77.4,48.6-81.3,2.5h27.6Z"/>
  <path class="st0" d="M487.2,208.5v35.6c-7.8-3.4-16.4-1.3-24.4,0v-101.1c0-.4-1.9-1.3-.9-2.4.8-1.2,2-1.4,3.4-1.6,10.8-1.6,43.6-.5,53.7,3.2,22.6,8.2,25.6,46.3,6.4,59.9-1.9,1.4-13.3,6.5-14.6,6.5h-23.5ZM487.2,189.1c37.7,7.1,37.7-34.6,0-27.5v27.5Z"/>
  <path class="st0" d="M857.4,208.5v35.6l-24.4-1.6v-103.5h44.7c7.6,0,20.9,8.9,24.9,15.6,19.2,32.3-12.4,60.6-45.2,54ZM857.4,187.5c11.8.2,27.7,2.3,27.8-13.7,0-13.9-13.6-13.1-24.4-13.1-1.9,0-2.1.1-3.3,1.8v25.1Z"/>
  <path class="st0" d="M979.2,139c-1.9,7.3-3.1,15.4,0,22.6h-37.3v21h35.7v17.8h-35.7v22.6h35.7v19.4h-58.5v-103.5h60.1Z"/>
  <path class="st0" d="M270.5,3.1l18.7,35.6,20.3-35.6h25.2c-1,4.7-3.9,9.8-6.2,14-3.2,5.7-24.6,40.9-24.6,43.4v47.7h-24.4v-42.9L243.7,3.1h26.8Z"/>
  <polygon class="st0" points="834.7 24.1 808.7 24.1 808.7 108.2 784.4 108.2 784.4 24.1 758.4 24.1 758.4 1.5 833.7 1.6 835.6 4.8 834.7 24.1"/>
  <polygon class="st0" points="626.9 3.1 626.9 24.1 602.5 24.1 602.5 108.2 576.5 108.2 576.5 26.6 574.1 24.7 553.8 25.7 553.8 3.1 626.9 3.1"/>
  <path class="st0" d="M423.9,161.6h-27.6v82.5h-22.7v-82.5h-27.6v-22.6h75.5c5.6,5.8.5,15.5,2.4,22.6Z"/>
  <rect class="st0" x="638.2" y="3.1" width="26.1" height="105.1"/>
  <path class="st0" d="M337.9,139c.8,8.1-3.9,38.9-12.2,40.5-4.5.8-10.6-.6-15.4,0l8.1-40.4h19.5Z"/>
</svg>