<?xml version="1.0" encoding="UTF-8"?>
<svg id="Layer_1" xmlns="http://www.w3.org/2000/svg" version="1.1" viewBox="0 0 1080 200">
  <!-- Generator: Adobe Illustrator 29.4.0, SVG Export Plug-In . SVG Version: 2.1.0 Build 152)  -->
  <defs>
    <style>
      .st0 {
        fill: #ffef09;
      }

      .st0, .st1 {
        stroke: #000;
        stroke-linejoin: round;
        stroke-width: 4.6px;
      }
    </style>
  </defs>
  <g>
    <path class="st1" d="M93.7,60.4c-1.5,0-3.1,0-4.6,0-1.5,0-2-.6-2.2-2.2,0-.3,0-.7,0-1-.1-9.1-.3-18.3-.4-27.4,0-4,0-7.9-.1-11.9,0-1.9.6-2.8,2.4-3.1,3-.6,5.9-.8,8.9-.5,1.9.2,3.9,0,5.8-.1,3.6-.2,7.1-.6,10.7.2,2.4.6,4.3,1.8,5.4,4,2.9,5.8,3.5,11.8.9,17.8-.9,2.1-2.6,3.7-4.8,4.5-3.1,1-6.2,2.2-9.4,2.4-.6,0-1.1.1-1.7.3-2.6.6-3,1.3-3.1,4-.1,3.2-.2,6.4-.3,9.6-.1,2.9-.7,3.5-3.5,3.6-.6,0-1.3,0-2,0-.6,0-1.3,0-1.9,0h0ZM104.6,23.6h0c-.6,0-1.1,0-1.7,0-1.7.1-2.2.5-2.3,2.3,0,1.2,0,2.5.1,3.8.2,1.7,1.2,2.7,2.8,2.9,2.2.3,4.1-.5,6-1.6.4-.3.8-.9.9-1.4.8-3.3-1.1-5.8-4.4-6-.5,0-1,0-1.5,0h0Z"/>
    <path class="st1" d="M126.5,51.2c0-11.2-.2-22.4-.3-33.5,0-2,.6-2.8,2.4-3.2,2.9-.6,5.8-.8,8.7-.5,2,.2,4,0,6.1-.1,4-.2,7.9-.6,11.9.2,3,.6,5.3,2.3,6.6,5.1,2.5,5.2,2.5,10.7.9,16.2-.6,2.1-1.8,3.8-3.6,5-1.9,1.3-1.8,1.4-.8,3.5,2.2,4.6,4.4,9.3,6.6,14,.2.5.5,1.1.6,1.7.1,1-.4,1.7-1.4,1.7-3.5,0-7,0-10.4,0-1,0-1.7-.5-2.1-1.4-1.5-3.5-3.1-7-4.6-10.4-.5-1.2-.9-2.4-1.5-3.5-.4-.7-1.1-1.2-1.8-1.5-1.3-.4-2.3.3-2.4,1.7-.1,2-.2,3.9-.2,5.9,0,1.8,0,3.6,0,5.4-.1,2.4-.9,3.2-3.2,3.3-2.9,0-5.8,0-8.8,0-1.8,0-2.4-.7-2.4-2.7,0-2.2,0-4.4,0-6.7,0,0-.1,0-.2,0ZM145.2,24.5v.2c-.9,0-1.8,0-2.7,0-.5,0-1,.1-1.3.4-1.6,1.4-.7,7.1,1.2,7.9.1,0,.3.1.5.1,1.7,0,3.4.3,5.1,0,2.7-.4,4.4-1.9,3.8-5.6-.2-1.5-.8-2.4-2.2-2.6-1.4-.2-2.9-.4-4.3-.6Z"/>
    <path class="st1" d="M195,63.1c-9,0-14.9-2.7-19.5-8-7.9-9.2-9.4-19.4-4-30.1,5.8-11.6,18.5-14.9,28.8-10.8,7.6,3.1,12.4,8.5,14.9,16.1,2.4,7.2,1.9,14.1-1.7,20.7-4.3,7.9-11.1,11.9-18.5,12.2h0ZM184.1,43.5c3.4,6.2,11.8,7.4,16.5,2.2,4.5-5,4.7-11.7.3-17-1.5-1.8-3.4-2.9-5.8-3.2-1.5-.2-3.3-.5-4.6,0-5.2,2.2-8,6.1-8,11.7,0,2.2.6,4.5,1.6,6.4Z"/>
    <path class="st1" d="M238.6,62.7c-6.5,0-11.4-1.2-15.4-4.5-1.4-1.1-2.4-2.7-3.5-4.1-.8-1-.6-2,.5-2.7,2.1-1.5,4.2-2.9,6.4-4.3.8-.5,1.4-.4,2.1.3,1.3,1.1,2.6,2.1,4,3.1,1.9,1.4,4.2,1.4,6.6,1.3,3-.1,4.4-2.7,3.6-4.7-.4-1.1-1.3-2.1-2.2-2.9-3.4-3-7.6-4.9-11.7-7-3.7-1.9-6.4-4.6-8.6-7.6-1.4-1.9-1.4-4.3-1-6.5.8-4.5,3.8-7.8,8.4-9.8,3.7-1.6,7.6-2.1,11.7-1.5,1.9.3,3.9.6,5.7,1.2,1.7.5,3.3,1.2,4.7,2.1,3.6,2.2,3.6,3.1.6,5.8-1.6,1.4-3.1,2.8-4.7,4.3-1.4,1.2-2.4,1.2-4,.3-1-.6-2-1.3-3.2-1.7-1.5-.5-3.1.2-3.9,1.3-.7,1.1-.6,2.3.9,3.3,2.7,1.9,5.6,3.6,8.5,5.3,3.3,2,6.7,3.9,9.3,6.7,3.7,3.9,4.6,8.3,3.1,13.1-.5,1.5-1.8,2.9-3,4.1-2.5,2.4-5.7,3.8-9.3,4.4-2.3.3-4.6.5-5.7.6h0Z"/>
    <path class="st1" d="M268.6,60.4c-1.5,0-3.1,0-4.6,0-1.5,0-2-.6-2.2-2.2,0-.3,0-.7,0-1-.1-9.1-.3-18.3-.4-27.4,0-4,0-7.9-.1-11.9,0-1.9.6-2.8,2.4-3.1,3-.6,5.9-.8,8.9-.5,1.9.2,3.9,0,5.8-.1,3.6-.2,7.1-.6,10.7.2,2.4.6,4.3,1.8,5.4,4,2.9,5.8,3.5,11.8.9,17.8-.9,2.1-2.6,3.7-4.8,4.5-3.1,1-6.2,2.2-9.4,2.4-.6,0-1.1.1-1.7.3-2.6.6-3,1.3-3.1,4-.1,3.2-.2,6.4-.3,9.6-.1,2.9-.7,3.5-3.5,3.6-.6,0-1.3,0-2,0-.6,0-1.3,0-1.9,0h0ZM279.5,23.6h0c-.6,0-1.1,0-1.7,0-1.7.1-2.2.5-2.3,2.3,0,1.2,0,2.5.1,3.8.2,1.7,1.2,2.7,2.8,2.9,2.2.3,4.1-.5,6-1.6.4-.3.8-.9.9-1.4.8-3.3-1.1-5.8-4.4-6-.5,0-1,0-1.5,0h0Z"/>
    <path class="st1" d="M301.7,26.3c.1-2.3,0-4.7.2-7,0-1,.5-2,1-2.9.4-.8,1.2-1.2,2.3-1.1,3.6.3,7.1,0,10.7-.4,3-.3,6-.2,9-.1,1.8,0,2.2.5,2.2,2.4,0,2.8,0,5.5,0,8.3,0,1.9-.8,2.7-2.6,2.8-1.4,0-2.8,0-4.1,0-1,0-2.1.2-3.1.5-1,.3-1.7,1.4-1.6,2.2,0,.9.9,1.4,2.2,1.5.7,0,1.5-.1,2.2,0,1.7,0,2.7.8,2.8,2.4,0,2.2,0,4.4-.1,6.6,0,.9-.7,1.4-1.6,1.5-.8,0-1.6,0-2.4,0-.6,0-1.3,0-1.9,0-1,.2-1.8,1.1-1.8,2,0,1,.7,1.5,1.6,1.6,1.6.2,3.2.3,4.8.4,1.3,0,2.6,0,3.9,0,1,0,1.5.5,1.5,1.5,0,3.3,0,6.7,0,10,0,1.1-.6,1.7-1.6,1.7-2.1,0-4.2.2-6.3.1-4.5,0-9.1-.2-13.6-.2-2.9,0-4.1-.7-4.1-3.7-.1-3.9,0-7.8,0-11.7h-.2c.3-6.1.6-12.2.9-18.2Z"/>
    <path class="st1" d="M332.8,51.2c0-11.2-.2-22.4-.3-33.5,0-2,.6-2.8,2.4-3.2,2.9-.6,5.8-.8,8.7-.5,2,.2,4,0,6.1-.1,4-.2,7.9-.6,11.9.2,3,.6,5.3,2.3,6.6,5.1,2.5,5.2,2.5,10.7.9,16.2-.6,2.1-1.8,3.8-3.6,5-1.9,1.3-1.8,1.4-.8,3.5,2.2,4.6,4.4,9.3,6.6,14,.2.5.5,1.1.6,1.7.1,1-.4,1.7-1.4,1.7-3.5,0-7,0-10.4,0-1,0-1.7-.5-2.1-1.4-1.5-3.5-3.1-7-4.6-10.4-.5-1.2-.9-2.4-1.5-3.5-.4-.7-1.1-1.2-1.8-1.5-1.3-.4-2.3.3-2.4,1.7-.1,2-.2,3.9-.2,5.9,0,1.8,0,3.6,0,5.4-.1,2.4-.9,3.2-3.2,3.3-2.9,0-5.8,0-8.8,0-1.8,0-2.4-.7-2.4-2.7,0-2.2,0-4.4,0-6.7,0,0-.1,0-.2,0ZM351.4,24.5v.2c-.9,0-1.8,0-2.7,0-.5,0-1,.1-1.3.4-1.6,1.4-.7,7.1,1.2,7.9.1,0,.3.1.5.1,1.7,0,3.4.3,5.1,0,2.7-.4,4.4-1.9,3.8-5.6-.2-1.5-.8-2.4-2.2-2.6-1.4-.2-2.9-.4-4.3-.6Z"/>
    <path class="st1" d="M447.6,60.6c-2.9-.3-5.8-.7-8.8-1-1.4-.1-2.9-.3-4.3-.1-1.3.2-1.9-.3-2.5-1.4-2.1-3.5-4.3-7.1-6.6-10.5-1.4-2.1-2.3-2-4-.2-2.8,3-4.9,6.5-6.8,10.1-.8,1.5-1.9,2.3-3.5,2.7-2.2.5-4.4.8-6.7.3-1.4-.3-2.9,0-4.4.2-.9,0-1.8.2-2.7.1-.5,0-1.1-.4-1.3-.8-.2-.2.1-.9.4-1.3,3.6-4,7.2-7.9,10.7-12,2.2-2.5,4.2-5.1,6.3-7.7.6-.8,1-1.7,1.2-2.6.3-1.2.2-2.4-.7-3.4-2.8-3.6-5.4-7.3-8.6-10.6-1.7-1.7-3.1-3.7-4.6-5.6-.7-.8-.6-1.6.4-1.9,1-.3,2.2-.5,3.3-.5,2.7,0,5.5,0,8.2-.1,2.3-.2,4.6.8,5.6,3.4.8,2,2.2,3.6,3.5,5.3,1.5,1.8,2.3,1.9,3.9,0,2.1-2.4,4.2-5,6.2-7.5.7-.8,1.5-1.2,2.5-1.2,4.4,0,8.8.1,13.1.2.4,0,.8,0,1.2.2.6.3,1.5.6,1.7,1.2.3.9-.8,1-1.3,1.5-1.4,1.3-2.8,2.7-4.1,4.1-1.9,2.1-3.8,4.2-5.7,6.3-1.8,2-3.4,4.1-5.2,6.1-1.3,1.5-1.1,3-.3,4.5.5,1,1.2,2,2.1,2.7,3.6,3,6.3,6.8,9.3,10.2,2,2.3,4.1,4.6,6.2,6.9,1,1,.9,1.6-.5,2-1,.3-2.1.3-3.3.5h0Z"/>
    <path class="st1" d="M476.5,63.1c-9,0-14.9-2.7-19.5-8-7.9-9.2-9.4-19.4-4-30.1,5.8-11.6,18.5-14.9,28.8-10.8,7.6,3.1,12.4,8.5,14.9,16.1,2.4,7.2,1.9,14.1-1.7,20.7-4.3,7.9-11.1,11.9-18.5,12.2h0ZM465.6,43.5c3.4,6.2,11.8,7.4,16.5,2.2,4.5-5,4.7-11.7.3-17-1.5-1.8-3.4-2.9-5.8-3.2-1.5-.2-3.3-.5-4.6,0-5.2,2.2-8,6.1-8,11.7,0,2.2.6,4.5,1.6,6.4Z"/>
    <path class="st1" d="M539.8,37.6c0,4.8,0,9.6,0,14.3,0,2.2-.2,4.4-.3,6.6-.1,1.7-.5,2.1-2.3,2.1-3.1,0-6.3-.2-9.4-.4-.4,0-1-.6-1.1-1-.3-1.3-.5-2.6-.5-3.8,0-8.9-.1-17.8-.2-26.8,0-2.6-.1-5.2,0-7.8,0-1.4.3-2.7.7-4,.3-1,1-1.7,2.1-1.7,2.2-.2,4.3-.3,6.5-.5.5,0,1,0,1.5,0,2.2.1,2.8.7,2.8,3,0,6.7,0,13.5,0,20.2h.3,0Z"/>
    <path class="st1" d="M548.5,58.2c-1.4-1.1-2.4-2.7-3.5-4.1-.8-1-.6-2,.5-2.7,2.1-1.5,4.2-2.9,6.4-4.3.8-.5,1.4-.4,2.1.3,1.3,1.1,2.6,2.1,4,3.1,1.9,1.4,4.2,1.4,6.6,1.3,3-.1,4.4-2.7,3.6-4.7-.4-1.1-1.3-2.1-2.2-2.9-3.4-3-7.6-4.9-11.7-7-3.7-1.9-6.4-4.6-8.6-7.6-1.4-1.9-1.4-4.3-1-6.5.8-4.5,3.8-7.8,8.4-9.8,3.7-1.6,7.6-2.1,11.7-1.5,1.9.3,3.9.6,5.7,1.2,1.7.5,3.3,1.2,4.7,2.1,3.6,2.2,3.6,3.1.6,5.8-1.6,1.4-3.1,2.8-4.7,4.3-1.4,1.2-2.4,1.2-4,.3-1-.6-2-1.3-3.2-1.7-1.5-.5-3.1.2-3.9,1.3-.7,1.1-.6,2.3.9,3.3,2.7,1.9,5.6,3.6,8.5,5.3,3.3,2,6.7,3.9,9.3,6.7,3.7,3.9,4.6,8.3,3.1,13.1-.5,1.5-1.8,2.9-3,4.1-2.5,2.4-5.7,3.8-9.3,4.4-2.3.3-4.6.5-5.7.6-6.5,0-11.4-1.2-15.4-4.5Z"/>
    <path class="st1" d="M629.7,15.4c1.9,0,3.7,0,5.6,0,2.5,0,4.7,1.6,5.4,4.1,1.7,5.6,3.3,11.2,4.7,16.9,1.6,6.3,3.1,12.6,4.6,18.9.2.9.5,1.9.5,2.9,0,1.6-1,2.5-2.6,2.6-2.4,0-4.9.2-7.3.2-.6,0-1.2,0-1.7,0-1.1-.2-1.9-.8-2.1-2-.4-2.1-.9-4.1-1.3-6.2-.5-2.2-1.2-2.8-3.5-2.9-2.3,0-4.5,0-6.8,0-1.5,0-1.8.3-2.2,1.7-.5,2-.9,4.1-1.5,6.1-.7,2.6-1.4,2.9-4,2.8-2.1-.1-4.2-.3-6.3-.2-3.4.1-3.9-1.3-3.4-4,.6-3.1,1.2-6.2,2-9.3,2.3-9.3,4.6-18.6,6.9-27.9.6-2.5,1.3-3.1,3.8-3.3,3.1-.3,6.2-.4,9.2-.6v.2s0,0,0,0ZM628.2,39.7h0c.6,0,1.1,0,1.7,0,2.3,0,2.9-.7,2.4-3-.4-2.3-.9-4.6-1.4-6.9-.4-1.8-.9-2.3-2.3-2.4-1.5,0-2.7.7-3.1,2.2-.6,2.3-1.2,4.7-1.6,7.1-.4,2.5,0,2.8,2.5,2.9.6,0,1.1,0,1.7,0h0Z"/>
    <path class="st1" d="M680.1,60.4c-1.5,0-2-.6-2.2-2.2,0-.3,0-.7,0-1-.1-9.1-.3-18.3-.4-27.4,0-4,0-7.9-.1-11.9,0-1.9.6-2.8,2.4-3.1,3-.6,5.9-.8,8.9-.5,1.9.2,3.9,0,5.8-.1,3.6-.2,7.1-.6,10.7.2,2.4.6,4.3,1.8,5.4,4,2.9,5.8,3.5,11.8.9,17.8-.9,2.1-2.6,3.7-4.8,4.5-3.1,1-6.1,2.2-9.4,2.4-.6,0-1.1.1-1.7.3-2.6.6-3,1.3-3.1,4-.1,3.2-.2,6.4-.3,9.6-.1,2.9-.7,3.5-3.5,3.6-.6,0-1.3,0-1.9,0s-1.3,0-1.9,0c-1.5,0-3.1,0-4.6,0ZM695.6,23.6h0c-.6,0-1.1,0-1.7,0-1.7.1-2.2.5-2.3,2.3,0,1.2,0,2.5.1,3.8.2,1.7,1.2,2.7,2.8,2.9,2.2.3,4.1-.5,6-1.6.4-.3.8-.9.9-1.4.8-3.3-1.1-5.8-4.4-6-.5,0-1,0-1.5,0h0Z"/>
    <path class="st1" d="M717.4,36.2c0-5.7,0-11.5,0-17.3,0-.7,0-1.5.3-2.2.2-.4.8-.9,1.2-1,3.2-.2,6.4-.8,9.7-.1,2.1.4,2.2.4,2.2,2.7,0,8.3,0,16.7,0,25,0,1.3.2,2.7.4,4,.1.9.7,1.5,1.6,1.5.9,0,1.8,0,2.7,0,2.3,0,3,.5,3,2.8s0,4.8,0,7.2c0,1.1-.4,1.7-1.6,1.7-3.4-.2-6.8-.3-10.2-.4-2.3,0-4.5-.1-6.8-.1-1.7,0-2,0-2.1-1.9-.2-2.5-.4-5-.4-7.5,0-4.8,0-9.7,0-14.5h0Z"/>
    <path class="st1" d="M762.1,15.4c1.9,0,3.7,0,5.6,0,2.5,0,4.7,1.6,5.4,4.1,1.7,5.6,3.3,11.2,4.7,16.9,1.6,6.3,3.1,12.6,4.6,18.9.2.9.5,1.9.5,2.9,0,1.6-1,2.5-2.6,2.6-2.4,0-4.9.2-7.3.2-.6,0-1.2,0-1.7,0-1.1-.2-1.9-.8-2.1-2-.4-2.1-.9-4.1-1.3-6.2-.5-2.2-1.2-2.8-3.5-2.9-2.3,0-4.5,0-6.8,0-1.5,0-1.8.3-2.2,1.7-.5,2-.9,4.1-1.5,6.1-.7,2.6-1.4,2.9-4,2.8-2.1-.1-4.2-.3-6.3-.2-3.4.1-3.9-1.3-3.4-4,.6-3.1,1.2-6.2,2-9.3,2.3-9.3,4.6-18.6,6.9-27.9.6-2.5,1.3-3.1,3.8-3.3,3.1-.3,6.2-.4,9.2-.6v.2s0,0,0,0ZM760.6,39.7h0c.6,0,1.1,0,1.7,0,2.3,0,2.9-.7,2.4-3-.4-2.3-.9-4.6-1.4-6.9-.4-1.8-.9-2.3-2.3-2.4-1.5,0-2.7.7-3.1,2.2-.6,2.3-1.2,4.7-1.6,7.1-.4,2.5,0,2.8,2.5,2.9.6,0,1.1,0,1.7,0h0Z"/>
    <path class="st1" d="M791.6,39.3c0-2.7-.1-5.3-.2-8,0-1.1-.1-2.2.4-3.3.5-1,0-1.7-1.1-1.9-1.1,0-2.3,0-3.4.2-1.8.3-3.6.9-5.4,1.3-1.7.3-2,0-2-1.7,0-.9,0-1.8.2-2.7.7-2.4,1-4.7.9-7.2,0-1,.6-1.5,1.5-1.6,1.5-.1,3.1-.3,4.6-.2,2.4.2,4.8.3,7.3,0,6.3-.9,12.7-1.4,19.2-.7,2,.2,2.8.7,3.2,2.7.5,2.8.7,5.6,0,8.5-.3,1.5-1,2-2.6,1.9-2.3-.1-4.7-.3-7-.6-1.9-.2-2.2.2-2.1,2,.2,3.3.2,6.6.2,10,0,6,0,12,0,18,0,.6,0,1.3,0,1.9-.3,2.4-1,2.9-3.4,2.7-2.5-.2-5-.4-7.5-.5-1.8,0-2,0-2.2-1.8-.2-1.7-.2-3.4-.3-5.1,0-1,0-1.9,0-2.9h0c0-3.6,0-7.3,0-10.9Z"/>
    <path class="st1" d="M820.7,40.7c0-4.5-.1-9.1,0-13.6.1-3.1.6-6.3,1.2-9.4.5-2.7,2-3.5,4.6-2.8,2.5.7,5,.2,7.5,0,3.7-.2,7.4-.3,11.2-.4,1.6,0,2.1.5,2.1,2,0,2.9.1,5.8,0,8.8,0,1.9-.8,2.6-2.7,2.7-1.5,0-2.9,0-4.4,0-1,0-2.1.2-3.1.6-1.1.3-1.4,1.2-1.2,2.3.2,1.1.9,1.2,1.8,1.2.8,0,1.6,0,2.4,0,1.9,0,3,.9,3,2.7,0,2.1-.2,4.2-.3,6.3,0,1-.7,1.4-1.6,1.5-1.1,0-2.3,0-3.4,0-2.5.1-3.1.8-3.1,3.3,0,3.6,0,7.1-.1,10.7,0,2.6-.4,2.9-3,3-2.6,0-5.2,0-7.8.1-1.4,0-2.3-.7-2.8-1.9-.3-.8-.4-1.6-.4-2.4,0-3.7,0-7.5.1-11.2,0-1.2,0-2.4,0-3.6h0Z"/>
    <path class="st1" d="M857,55.1c-7.9-9.2-9.4-19.4-4-30.1,5.8-11.6,18.5-14.9,28.8-10.8,7.6,3.1,12.4,8.5,14.9,16.1,2.4,7.2,1.9,14.1-1.7,20.7-4.3,7.9-11.1,11.9-18.5,12.2-9,0-14.9-2.7-19.5-8ZM865.6,43.5c3.4,6.2,11.8,7.4,16.5,2.2,4.5-5,4.7-11.7.3-17-1.5-1.8-3.4-2.9-5.8-3.2-1.5-.2-3.3-.5-4.6,0-5.2,2.2-8,6.1-8,11.7,0,2.2.6,4.5,1.6,6.4Z"/>
    <path class="st1" d="M903,51.2c0-11.2-.2-22.4-.3-33.5,0-2,.6-2.8,2.4-3.2,2.9-.6,5.8-.8,8.7-.5,2,.2,4,0,6.1-.1,4-.2,7.9-.6,11.9.2,3,.6,5.3,2.3,6.6,5.1,2.5,5.2,2.5,10.7.9,16.2-.6,2.1-1.8,3.8-3.6,5-1.9,1.3-1.8,1.4-.8,3.5,2.2,4.6,4.4,9.3,6.6,14,.2.5.5,1.1.6,1.7.1,1-.4,1.7-1.4,1.7-3.5,0-7,0-10.4,0-1,0-1.7-.5-2.1-1.4-1.5-3.5-3.1-7-4.6-10.4-.5-1.2-.9-2.4-1.5-3.5-.4-.7-1.1-1.2-1.8-1.5-1.3-.4-2.3.3-2.4,1.7-.1,2-.2,3.9-.2,5.9,0,1.8,0,3.6,0,5.4-.1,2.4-.9,3.2-3.2,3.3-2.9,0-5.8,0-8.8,0-1.8,0-2.4-.7-2.4-2.7,0-2.2,0-4.4,0-6.7,0,0-.1,0-.2,0ZM921.6,24.5v.2c-.9,0-1.8,0-2.7,0-.5,0-1,.1-1.3.4-1.6,1.4-.7,7.1,1.2,7.9.1,0,.3.1.5.1,1.7,0,3.4.3,5.1,0,2.7-.4,4.4-1.9,3.8-5.6-.2-1.5-.8-2.4-2.2-2.6-1.4-.2-2.9-.4-4.3-.6Z"/>
    <path class="st1" d="M996.6,60.2c-1.8-.1-3.6-.3-5.3-.4-2.3-.2-2.3-.2-2.7-2.4-.8-4.2-1.5-8.5-2.2-12.7-.4-2.4-.7-4.9-1-7.3,0-.3,0-.5,0-.8-.1-.7-.3-1.5-1.1-1.4-.4,0-.8.8-.9,1.3-.2,3.4-1.8,6.3-3.1,9.3-.7,1.6-1.6,2.4-3.4,2.3-1.9-.1-3.7,0-5.6.1-1.7.1-2.8-.6-3.4-2.3-1.1-3-2.3-6-3.4-9-.2-.5-.2-1-.5-1.4-.3-.4-.7-.8-1.1-1.1-.2.4-.6.8-.6,1.2.2,3.9-.8,7.6-1.5,11.3s-1.5,7.4-2.4,11.1c-.6,2.2-.7,2.2-2.8,2.2-3.2,0-6.5,0-9.7,0-1.1,0-1.5-.6-1.4-1.5.1-1.9.3-3.9.6-5.8,1.2-7.5,2.5-15,3.7-22.5.8-4.5,1.7-9,2.4-13.5.2-1.5,1-2,2.1-2.3.5-.1,1-.2,1.4-.3,3.3-.1,6.6-.2,10-.4,1.4,0,2.1.6,2.6,1.8.9,2.6,1.8,5.2,2.7,7.9.9,2.8,1.7,5.6,2.5,8.5.3,1,.5,2.3,1.6,2.1.6,0,1.3-1.2,1.5-2,1.5-4.5,3-9,4.4-13.4.3-1,.7-2.1,1-3.1.5-1.5,1.5-2.2,2.9-2.2.9,0,1.8.2,2.7.2,1.2,0,2.4,0,3.6.2,1.3.1,2.6.3,3.8.7.6.2,1.1,1.1,1.2,1.7.6,3.1,1.1,6.1,1.6,9.2.2,1.2.4,2.3.6,3.5,1.7,8.6,3.4,17.2,5.2,25.8.1.7.3,1.5.4,2.3.3,2.1-.5,3.2-2.6,3.2-1.3,0-2.6-.2-3.9-.3h0c0,.1,0,.1,0,.1Z"/>
    <path class="st1" d="M77.8,118.9c0,1.4,0,2.8,0,4.1,0,2.9-.3,3.3-3.3,3.5-4.2.3-8.3-.3-12.2-1.7-8.2-2.9-14.1-11.2-14.4-19.9-.3-10.1,3.9-17.9,12.1-23.5,1.3-.9,3-1.2,4.5-1.8,3.7-1.6,7.7-1.2,11.5-1.2,1.4,0,1.9.5,1.9,2,0,3,0,6,0,9,0,1.6-.4,2-2,2.2-.9.1-1.8.2-2.7.2-6.4.3-11.4,7.1-9.9,13.3.8,3.3,3.1,5.1,6.1,6.1,1.7.6,3.7.6,5.5.8.5,0,1,0,1.5,0,1.1,0,1.6.5,1.6,1.7,0,1.7,0,3.4,0,5.1h0Z"/>
    <path class="st1" d="M83.2,116.4c0-11.2-.2-22.4-.3-33.5,0-2,.6-2.8,2.4-3.2,2.9-.6,5.8-.8,8.7-.5,2,.2,4,0,6.1-.1,4-.2,7.9-.6,11.9.2,3,.6,5.3,2.3,6.6,5.1,2.5,5.2,2.5,10.7.9,16.2-.6,2.1-1.8,3.8-3.6,5-1.9,1.3-1.8,1.4-.8,3.5,2.2,4.6,4.4,9.3,6.6,14,.2.5.5,1.1.6,1.7.1,1-.4,1.7-1.4,1.7-3.5,0-7,0-10.4,0-1,0-1.7-.5-2.1-1.4-1.5-3.5-3.1-7-4.6-10.4-.5-1.2-.9-2.4-1.5-3.5-.4-.7-1.1-1.2-1.8-1.5-1.3-.4-2.3.3-2.4,1.7-.1,2-.2,3.9-.2,5.9,0,1.8,0,3.6,0,5.4-.1,2.4-.9,3.2-3.2,3.3-2.9,0-5.8,0-8.8,0-1.8,0-2.4-.7-2.4-2.7,0-2.2,0-4.4,0-6.7,0,0-.1,0-.2,0ZM101.9,89.7v.2c-.9,0-1.8,0-2.7,0-.5,0-1,.1-1.3.4-1.6,1.4-.7,7.1,1.2,7.9.1,0,.3.1.5.1,1.7,0,3.4.3,5.1,0,2.7-.4,4.4-1.9,3.8-5.6-.2-1.5-.8-2.4-2.2-2.6-1.4-.2-2.9-.4-4.3-.6Z"/>
    <path class="st1" d="M127.2,91.5c.1-2.3,0-4.7.2-7,0-1,.5-2,1-2.9.4-.8,1.2-1.2,2.3-1.1,3.6.3,7.1,0,10.7-.4,3-.3,6-.2,9-.1,1.8,0,2.2.5,2.2,2.4,0,2.8,0,5.5,0,8.3,0,1.9-.8,2.7-2.6,2.8-1.4,0-2.8,0-4.1,0-1,0-2.1.2-3.1.5-1,.3-1.7,1.4-1.6,2.2,0,.9.9,1.4,2.2,1.5.7,0,1.5-.1,2.2,0,1.7,0,2.7.8,2.8,2.4,0,2.2,0,4.4-.1,6.6,0,.9-.7,1.4-1.6,1.5-.8,0-1.6,0-2.4,0-.6,0-1.3,0-1.9,0-1,.2-1.8,1.1-1.8,2,0,1,.7,1.5,1.6,1.6,1.6.2,3.2.3,4.8.4,1.3,0,2.6,0,3.9,0,1,0,1.5.5,1.5,1.5,0,3.3,0,6.7,0,10,0,1.1-.6,1.7-1.6,1.7-2.1,0-4.2.2-6.3.1-4.5,0-9.1-.2-13.6-.2-2.9,0-4.1-.7-4.1-3.7-.1-3.9,0-7.8,0-11.7h-.2c.3-6.1.6-12.2.9-18.2Z"/>
    <path class="st1" d="M177.8,80.6c1.9,0,3.7,0,5.6,0,2.5,0,4.7,1.6,5.4,4.1,1.7,5.6,3.3,11.2,4.7,16.9,1.6,6.3,3.1,12.6,4.6,18.9.2.9.5,1.9.5,2.9,0,1.6-1,2.5-2.6,2.6-2.4,0-4.9.2-7.3.2-.6,0-1.2,0-1.7,0-1.1-.2-1.9-.8-2.1-2-.4-2.1-.9-4.1-1.3-6.2-.5-2.2-1.2-2.8-3.5-2.9-2.3,0-4.5,0-6.8,0-1.5,0-1.8.3-2.2,1.7-.5,2-.9,4.1-1.5,6.1-.7,2.6-1.4,2.9-4,2.8-2.1-.1-4.2-.3-6.3-.2-3.4.1-3.9-1.3-3.4-4,.6-3.1,1.2-6.2,2-9.3,2.3-9.3,4.6-18.6,6.9-27.9.6-2.5,1.3-3.1,3.8-3.3,3.1-.3,6.2-.4,9.2-.6v.2s0,0,0,0ZM176.3,104.9h0c.6,0,1.1,0,1.7,0,2.3,0,2.9-.7,2.4-3-.4-2.3-.9-4.6-1.4-6.9-.4-1.8-.9-2.3-2.3-2.4-1.5,0-2.7.7-3.1,2.2-.6,2.3-1.2,4.7-1.6,7.1-.4,2.5,0,2.8,2.5,2.9.6,0,1.1,0,1.7,0h0Z"/>
    <path class="st1" d="M207.4,104.5c0-2.7-.1-5.3-.2-8,0-1.1-.1-2.2.4-3.3.5-1,0-1.7-1.1-1.9-1.1,0-2.3,0-3.4.2-1.8.3-3.6.9-5.4,1.3-1.7.3-2,0-2-1.7,0-.9,0-1.8.2-2.7.7-2.4,1-4.7.9-7.2,0-1,.6-1.5,1.5-1.6,1.5-.1,3.1-.3,4.6-.2,2.4.2,4.8.3,7.2,0,6.3-.9,12.7-1.4,19.2-.7,2,.2,2.8.7,3.2,2.7.5,2.8.7,5.6,0,8.5-.3,1.5-1,2-2.6,1.9-2.3-.1-4.7-.3-7-.6-1.9-.2-2.2.2-2.1,2,.2,3.3.2,6.6.2,10,0,6,0,12,0,18,0,.6,0,1.3,0,1.9-.3,2.4-1,2.9-3.4,2.7-2.5-.2-5-.4-7.5-.5-1.8,0-2,0-2.2-1.8-.2-1.7-.2-3.4-.3-5.1,0-1,0-1.9,0-2.9h0c0-3.6,0-7.3,0-10.9Z"/>
    <path class="st1" d="M236.9,91.5c.1-2.3,0-4.7.2-7,0-1,.5-2,1-2.9.4-.8,1.2-1.2,2.3-1.1,3.6.3,7.1,0,10.7-.4,3-.3,6-.2,9-.1,1.8,0,2.2.5,2.2,2.4,0,2.8,0,5.5,0,8.3,0,1.9-.8,2.7-2.6,2.8-1.4,0-2.8,0-4.1,0-1,0-2.1.2-3.1.5-1,.3-1.7,1.4-1.6,2.2,0,.9.9,1.4,2.2,1.5.7,0,1.5-.1,2.2,0,1.7,0,2.7.8,2.8,2.4,0,2.2,0,4.4-.1,6.6,0,.9-.7,1.4-1.6,1.5-.8,0-1.6,0-2.4,0-.6,0-1.3,0-1.9,0-1,.2-1.8,1.1-1.8,2,0,1,.7,1.5,1.6,1.6,1.6.2,3.2.3,4.8.4,1.3,0,2.6,0,3.9,0,1,0,1.5.5,1.5,1.5,0,3.3,0,6.7,0,10,0,1.1-.6,1.7-1.6,1.7-2.1,0-4.2.2-6.3.1-4.5,0-9.1-.2-13.6-.2-2.9,0-4.1-.7-4.1-3.7-.1-3.9,0-7.8,0-11.7h-.2c.3-6.1.6-12.2.9-18.2Z"/>
    <path class="st1" d="M267.6,103.8c.3-5.6.6-12.7,1-19.7,0-.6,0-1.3.2-1.9,0-.9.4-1.4,1.5-1.5,2.5-.2,5-.8,7.4-.9,3.6-.2,7.3,0,11-.1,4.8-.2,8.2,2,10.7,5.9,2.6,4.1,3.9,8.7,4.3,13.5.4,4.8.1,9.5-1.5,14.2-1,2.9-2.2,5.8-4.4,8.1-2.4,2.5-5.1,4.2-8.7,4.1-5.8-.2-11.5-.3-17.3-.5-.2,0-.3,0-.5,0-4.5-.7-3.7-.7-3.8-4,0-5.2,0-10.4,0-17h0ZM280.7,104.6c0,2.1-.2,4.2-.3,6.3,0,.6,0,1.3.2,1.9,0,1,.8,1.6,1.7,1.9,2,.7,5.3-.6,6.3-2.5,3.2-6.2,3.2-12.4.5-18.7-.9-2.2-2.6-3.2-5-3.2-2.1,0-2.6.4-2.8,2.4-.3,4-.5,7.9-.8,11.9h.2Z"/>
    <path class="st1" d="M340.9,104.5c0-2.7-.1-5.3-.2-8,0-1.1-.1-2.2.4-3.3.5-1,0-1.7-1.1-1.9-1.1,0-2.3,0-3.4.2-1.8.3-3.6.9-5.4,1.3-1.7.3-2,0-2-1.7,0-.9,0-1.8.2-2.7.7-2.4,1-4.7.9-7.2,0-1,.6-1.5,1.5-1.6,1.5-.1,3.1-.3,4.6-.2,2.4.2,4.8.3,7.2,0,6.3-.9,12.7-1.4,19.2-.7,2,.2,2.8.7,3.2,2.7.5,2.8.7,5.6,0,8.5-.3,1.5-1,2-2.6,1.9-2.3-.1-4.7-.3-7-.6-1.9-.2-2.2.2-2.1,2,.2,3.3.2,6.6.2,10,0,6,0,12,0,18,0,.6,0,1.3,0,1.9-.3,2.4-1,2.9-3.4,2.7-2.5-.2-5-.4-7.5-.5-1.8,0-2,0-2.2-1.8-.2-1.7-.2-3.4-.3-5.1,0-1,0-1.9,0-2.9h0c0-3.6,0-7.3,0-10.9Z"/>
    <path class="st1" d="M394.2,128.3c-9,0-14.9-2.7-19.5-8-7.9-9.2-9.4-19.4-4-30.1,5.8-11.6,18.5-14.9,28.8-10.8,7.6,3.1,12.4,8.5,14.9,16.1,2.4,7.2,1.9,14.1-1.7,20.7-4.3,7.9-11.1,11.9-18.5,12.2h0ZM383.3,108.7c3.4,6.2,11.8,7.4,16.5,2.2,4.5-5,4.7-11.7.3-17-1.5-1.8-3.4-2.9-5.8-3.2-1.5-.2-3.3-.5-4.6,0-5.2,2.2-8,6.1-8,11.7,0,2.2.6,4.5,1.6,6.4Z"/>
    <path class="st1" d="M450.9,125.6c-1.5,0-3.1,0-4.6,0-1.5,0-2-.6-2.2-2.2,0-.3,0-.7,0-1-.1-9.1-.3-18.3-.4-27.4,0-4,0-7.9-.1-11.9,0-1.9.6-2.8,2.4-3.1,3-.6,5.9-.8,8.9-.5,1.9.2,3.9,0,5.8-.1,3.6-.2,7.1-.6,10.7.2,2.4.6,4.3,1.8,5.4,4,2.9,5.8,3.5,11.8.9,17.8-.9,2.1-2.6,3.7-4.8,4.5-3.1,1-6.2,2.2-9.4,2.4-.6,0-1.1.1-1.7.3-2.6.6-3,1.3-3.1,4-.1,3.2-.2,6.4-.3,9.6-.1,2.9-.7,3.5-3.5,3.6-.6,0-1.3,0-2,0-.6,0-1.3,0-1.9,0h0ZM461.8,88.8h0c-.6,0-1.1,0-1.7,0-1.7.1-2.2.5-2.3,2.3,0,1.2,0,2.5.1,3.8.2,1.7,1.2,2.7,2.8,2.9,2.2.3,4.1-.5,6-1.6.4-.3.8-.9.9-1.4.8-3.3-1.1-5.8-4.4-6-.5,0-1,0-1.5,0h0Z"/>
    <path class="st1" d="M509,99.7c0-3.7-.1-7.3-.3-11-.1-2.3-.5-4.6-.7-6.9-.2-1.7,0-2.1,1.7-2.2,2.9-.3,5.7-.9,8.7-.2,1,.2,2.1,0,3.1-.2.7-.1,1.3,0,1.2.8-.4,4.4,1.1,8.7.8,13.1-.4,6.3-.3,12.6-.8,18.9-.3,3-1.6,6-2.6,8.9-.2.6-.7,1-1.2,1.5-.6.6-1.4,1.1-1.9,1.8-1.6,2.3-4,3.1-6.7,3.4-4.9.4-9.9.9-14.6-1.2-2.8-1.2-5.7-2.2-7.7-4.8-2-2.6-3.2-5.3-3.4-8.5-.3-4.1-.7-8.1-.9-12.2-.1-2.8,0-5.6,0-8.4-.2-3.4-.5-6.8-.8-10.2,0-.5-.1-1-.1-1.4,0-1.5,0-1.7,1.6-1.7,3.8,0,7.6,0,11.4,0,1.6,0,1.8.2,1.9,1.8.3,6.1.6,12.1.9,18.2.1,3.4.2,6.9.3,10.3,0,.9.2,1.9.5,2.8,1,3.6,4.5,5,7.8,3.1,1.6-.9,2.5-2.1,2.4-4.1-.2-2.9,0-5.7,0-8.6,0-1,0-1.9-.1-2.9,0,0,0,0,0,0h0Z"/>
    <path class="st1" d="M537.9,104.5c0-2.7-.1-5.3-.2-8,0-1.1-.1-2.2.4-3.3.5-1,0-1.7-1.1-1.9-1.1,0-2.3,0-3.4.2-1.8.3-3.6.9-5.4,1.3-1.7.3-2,0-2-1.7,0-.9,0-1.8.2-2.7.7-2.4,1-4.7.9-7.2,0-1,.6-1.5,1.5-1.6,1.5-.1,3.1-.3,4.6-.2,2.4.2,4.8.3,7.2,0,6.3-.9,12.7-1.4,19.2-.7,2,.2,2.8.7,3.2,2.7.5,2.8.7,5.6,0,8.5-.3,1.5-1,2-2.6,1.9-2.3-.1-4.7-.3-7-.6-1.9-.2-2.2.2-2.1,2,.2,3.3.2,6.6.2,10,0,6,0,12,0,18,0,.6,0,1.3,0,1.9-.3,2.4-1,2.9-3.4,2.7-2.5-.2-5-.4-7.5-.5-1.8,0-2,0-2.2-1.8-.2-1.7-.2-3.4-.3-5.1,0-1,0-1.9,0-2.9h0c0-3.6,0-7.3,0-10.9Z"/>
    <path class="st1" d="M610,80.6c1.9,0,3.7,0,5.6,0,2.5,0,4.7,1.6,5.4,4.1,1.7,5.6,3.3,11.2,4.7,16.9,1.6,6.3,3.1,12.6,4.5,18.9.2.9.5,1.9.5,2.9,0,1.6-1,2.5-2.6,2.6-2.4,0-4.9.2-7.3.2-.6,0-1.2,0-1.7,0-1.1-.2-1.9-.8-2.1-2-.4-2.1-.9-4.1-1.3-6.2-.5-2.2-1.2-2.8-3.5-2.9-2.3,0-4.5,0-6.8,0-1.5,0-1.8.3-2.2,1.7-.5,2-.9,4.1-1.5,6.1-.7,2.6-1.4,2.9-4,2.8-2.1-.1-4.2-.3-6.3-.2-3.4.1-3.9-1.3-3.4-4,.6-3.1,1.2-6.2,2-9.3,2.3-9.3,4.6-18.6,6.9-27.9.6-2.5,1.3-3.1,3.8-3.3,3.1-.3,6.2-.4,9.2-.6v.2s0,0,0,0ZM608.5,104.9h0c.6,0,1.1,0,1.7,0,2.3,0,2.9-.7,2.4-3-.4-2.3-.9-4.6-1.4-6.9-.4-1.8-.9-2.3-2.3-2.4-1.5,0-2.7.7-3.1,2.2-.6,2.3-1.2,4.7-1.6,7.1-.4,2.5,0,2.8,2.5,2.9.6,0,1.1,0,1.7,0h0Z"/>
    <path class="st1" d="M634.8,116.4c0-11.2-.2-22.4-.3-33.5,0-2,.6-2.8,2.4-3.2,2.9-.6,5.8-.8,8.7-.5,2,.2,4,0,6.1-.1,4-.2,7.9-.6,11.9.2,3,.6,5.3,2.3,6.6,5.1,2.5,5.2,2.5,10.7.9,16.2-.6,2.1-1.8,3.8-3.6,5-1.9,1.3-1.8,1.4-.8,3.5,2.2,4.6,4.4,9.3,6.6,14,.2.5.5,1.1.6,1.7.1,1-.4,1.7-1.4,1.7-3.5,0-7,0-10.5,0-1,0-1.7-.5-2.1-1.4-1.5-3.5-3.1-7-4.6-10.4-.5-1.2-.9-2.4-1.5-3.5-.4-.7-1.1-1.2-1.8-1.5-1.3-.4-2.3.3-2.4,1.7-.1,2-.2,3.9-.2,5.9,0,1.8,0,3.6,0,5.4-.1,2.4-.9,3.2-3.2,3.3-2.9,0-5.8,0-8.8,0-1.8,0-2.4-.7-2.4-2.7,0-2.2,0-4.4,0-6.7,0,0-.1,0-.2,0ZM653.5,89.7v.2c-.9,0-1.8,0-2.7,0-.5,0-1,.1-1.3.4-1.6,1.4-.7,7.1,1.2,7.9.1,0,.3.1.5.1,1.7,0,3.4.3,5.1,0,2.7-.4,4.4-1.9,3.8-5.6-.2-1.5-.8-2.4-2.2-2.6-1.4-.2-2.9-.4-4.3-.6Z"/>
    <path class="st1" d="M687.2,104.5c0-2.7-.1-5.3-.2-8,0-1.1-.1-2.2.4-3.3.5-1,0-1.7-1.1-1.9-1.1,0-2.3,0-3.4.2-1.8.3-3.6.9-5.4,1.3-1.7.3-2,0-2-1.7,0-.9,0-1.8.2-2.7.7-2.4,1-4.7.9-7.2,0-1,.6-1.5,1.5-1.6,1.5-.1,3.1-.3,4.6-.2,2.4.2,4.8.3,7.2,0,6.3-.9,12.7-1.4,19.2-.7,2,.2,2.8.7,3.2,2.7.5,2.8.7,5.6,0,8.5-.3,1.5-1,2-2.6,1.9-2.3-.1-4.7-.3-7-.6-1.9-.2-2.2.2-2.1,2,.2,3.3.2,6.6.2,10,0,6,0,12,0,18,0,.6,0,1.3,0,1.9-.3,2.4-1,2.9-3.4,2.7-2.5-.2-5-.4-7.5-.5-1.8,0-2,0-2.2-1.8-.2-1.7-.2-3.4-.3-5.1,0-1,0-1.9,0-2.9h0c0-3.6,0-7.3,0-10.9Z"/>
    <path class="st1" d="M730.1,102.8c0,4.8,0,9.6,0,14.3,0,2.2-.2,4.4-.3,6.6-.1,1.7-.5,2.1-2.3,2.1-3.1,0-6.3-.2-9.4-.4-.4,0-1-.6-1.1-1-.3-1.3-.5-2.6-.5-3.8,0-8.9-.1-17.8-.2-26.8,0-2.6-.1-5.2,0-7.8,0-1.4.3-2.7.7-4,.3-1,1-1.7,2.1-1.7,2.2-.2,4.3-.3,6.5-.5.5,0,1,0,1.5,0,2.2.1,2.8.7,2.8,3,0,6.7,0,13.5,0,20.2h.3Z"/>
    <path class="st1" d="M754.3,127.9c-6.5,0-11.4-1.2-15.4-4.5-1.4-1.1-2.4-2.7-3.5-4.1-.8-1-.6-2,.5-2.7,2.1-1.5,4.2-2.9,6.4-4.3.8-.5,1.4-.4,2.1.3,1.3,1.1,2.6,2.1,4,3.1,1.9,1.4,4.2,1.4,6.6,1.3,3-.1,4.4-2.7,3.6-4.7-.4-1.1-1.3-2.1-2.2-2.9-3.4-3-7.6-4.9-11.7-7-3.7-1.9-6.4-4.6-8.6-7.6-1.4-1.9-1.4-4.3-1-6.5.8-4.5,3.8-7.8,8.4-9.8,3.7-1.6,7.6-2.1,11.7-1.5,1.9.3,3.9.6,5.7,1.2,1.7.5,3.3,1.2,4.7,2.1,3.6,2.2,3.6,3.1.6,5.8-1.6,1.4-3.1,2.8-4.7,4.3-1.4,1.2-2.4,1.2-4,.3-1-.6-2-1.3-3.2-1.7-1.5-.5-3.1.2-3.9,1.3-.7,1.1-.6,2.3.9,3.3,2.7,1.9,5.6,3.6,8.5,5.3,3.3,2,6.7,3.9,9.3,6.7,3.7,3.9,4.6,8.3,3.1,13.1-.5,1.5-1.8,2.9-3,4.1-2.5,2.4-5.7,3.8-9.3,4.4-2.3.3-4.6.5-5.7.6h0Z"/>
    <path class="st1" d="M783.5,104.5c0-2.7-.1-5.3-.2-8,0-1.1-.1-2.2.4-3.3.5-1,0-1.7-1.1-1.9-1.1,0-2.3,0-3.4.2-1.8.3-3.6.9-5.4,1.3-1.7.3-2,0-2-1.7,0-.9,0-1.8.2-2.7.7-2.4,1-4.7.9-7.2,0-1,.6-1.5,1.5-1.6,1.5-.1,3.1-.3,4.6-.2,2.4.2,4.8.3,7.3,0,6.3-.9,12.7-1.4,19.2-.7,2,.2,2.8.7,3.2,2.7.5,2.8.7,5.6,0,8.5-.3,1.5-1,2-2.6,1.9-2.3-.1-4.7-.3-7-.6-1.9-.2-2.2.2-2.1,2,.2,3.3.2,6.6.2,10,0,6,0,12,0,18,0,.6,0,1.3,0,1.9-.3,2.4-1,2.9-3.4,2.7-2.5-.2-5-.4-7.5-.5-1.8,0-2,0-2.2-1.8-.2-1.7-.2-3.4-.3-5.1,0-1,0-1.9,0-2.9h0c0-3.6,0-7.3,0-10.9Z"/>
    <path class="st1" d="M830.3,127.9c-6.5,0-11.4-1.2-15.4-4.5-1.4-1.1-2.4-2.7-3.5-4.1-.8-1-.6-2,.5-2.7,2.1-1.5,4.2-2.9,6.4-4.3.8-.5,1.4-.4,2.1.3,1.3,1.1,2.6,2.1,4,3.1,1.9,1.4,4.2,1.4,6.6,1.3,3-.1,4.4-2.7,3.6-4.7-.4-1.1-1.3-2.1-2.2-2.9-3.4-3-7.6-4.9-11.7-7-3.7-1.9-6.4-4.6-8.6-7.6-1.4-1.9-1.4-4.3-1-6.5.8-4.5,3.8-7.8,8.4-9.8,3.7-1.6,7.6-2.1,11.7-1.5,1.9.3,3.9.6,5.7,1.2,1.7.5,3.3,1.2,4.7,2.1,3.6,2.2,3.6,3.1.6,5.8-1.6,1.4-3.1,2.8-4.7,4.3-1.4,1.2-2.4,1.2-4,.3-1-.6-2-1.3-3.2-1.7-1.5-.5-3.1.2-3.9,1.3-.7,1.1-.6,2.3.9,3.3,2.7,1.9,5.6,3.6,8.5,5.3,3.3,2,6.7,3.9,9.3,6.7,3.7,3.9,4.6,8.3,3.1,13.1-.5,1.5-1.8,2.9-3,4.1-2.5,2.4-5.7,3.8-9.3,4.4-2.3.3-4.6.5-5.7.6h0Z"/>
    <path class="st1" d="M893,125.3c-4.5,0-8.9,0-13.4,0-2,0-2.2-.1-2.6-2.1-.1-.6-.3-1.3-.3-1.9-.5-8.8-.8-17.5-.3-26.3.2-3.7.1-7.5.1-11.2,0-2.6,0-2.7,2.5-3.1,5.9-.9,11.8-1.2,17.7-1.1,2.3,0,4.5.2,6.8.5,3,.4,5.5,1.8,7.4,4.2,2,2.5,2,5.4,1.9,8.3-.1,2.6-1.1,4.9-2.8,6.9-.8.9-.6,1.3.4,1.8,3.9,1.9,5.9,5.2,6.7,9.3,1.3,6.4-3.5,14.2-11.3,14.3-4.3,0-8.6.2-12.9.4,0,0,0,0,0,0h0ZM894.5,88.6c-.9,0-1.8,0-2.7,0-1.4,0-2.1.8-2.5,1.9-.6,1.6-.4,3.2.3,4.7.2.5,1,.9,1.5.9,2.2,0,4.4,0,6.5-.5,3.2-.7,4-3.4,1.8-5.9-.5-.6-1.5-1-2.3-1.2-.8-.2-1.8,0-2.7,0h0ZM890.3,112.9c.2,1.6.8,2.1,2.5,2,1.6,0,3.2-.3,4.8-.5,3.4-.3,5.1-3.2,3.3-6.2-1.3-2.1-3-3.9-6.7-3.2-4.2.7-4.2.6-4.1,5.3,0,.5,0,1.6.2,2.6Z"/>
    <path class="st1" d="M941.5,80.6c1.9,0,3.7,0,5.6,0,2.5,0,4.7,1.6,5.4,4.1,1.7,5.6,3.3,11.2,4.7,16.9,1.6,6.3,3.1,12.6,4.6,18.9.2.9.5,1.9.5,2.9,0,1.6-1,2.5-2.6,2.6-2.4,0-4.9.2-7.3.2-.6,0-1.2,0-1.7,0-1.1-.2-1.9-.8-2.1-2-.4-2.1-.9-4.1-1.3-6.2-.5-2.2-1.2-2.8-3.5-2.9-2.3,0-4.5,0-6.8,0-1.5,0-1.8.3-2.2,1.7-.5,2-.9,4.1-1.5,6.1-.7,2.6-1.3,2.9-4,2.8-2.1-.1-4.2-.3-6.3-.2-3.4.1-3.9-1.3-3.3-4,.6-3.1,1.2-6.2,2-9.3,2.3-9.3,4.6-18.6,6.9-27.9.6-2.5,1.3-3.1,3.8-3.3,3.1-.3,6.2-.4,9.2-.6v.2s0,0,0,0ZM940.1,105c.6,0,1.1,0,1.7,0,2.3,0,2.9-.7,2.4-3-.4-2.3-.9-4.6-1.4-6.9-.4-1.8-.9-2.3-2.3-2.4-1.5,0-2.7.7-3.1,2.2-.6,2.3-1.2,4.7-1.6,7.1-.4,2.5,0,2.8,2.5,2.9.6,0,1.1,0,1.7,0h0Z"/>
    <path class="st1" d="M993.9,118.9c0,1.4,0,2.8,0,4.1,0,2.9-.3,3.3-3.3,3.5-4.2.3-8.3-.3-12.2-1.7-8.2-2.9-14.1-11.2-14.4-19.9-.3-10.1,3.9-17.9,12.1-23.5,1.3-.9,3-1.2,4.5-1.8,3.7-1.6,7.7-1.2,11.5-1.2,1.4,0,1.9.5,1.9,2,0,3,0,6,0,9,0,1.6-.4,2-2,2.2-.9.1-1.8.2-2.7.2-6.4.3-11.4,7.1-9.9,13.3.8,3.3,3.1,5.1,6.1,6.1,1.7.6,3.7.6,5.5.8.5,0,1,0,1.5,0,1.1,0,1.6.5,1.6,1.7,0,1.7,0,3.4,0,5.1h0Z"/>
    <path class="st1" d="M1032.2,125.7c-1.6,0-3.3,0-4.9,0-1.5,0-2.5-.7-3.2-2.3-1.8-4.4-3.8-8.6-5.8-13-.2-.4-.3-.8-.5-1.1-1-1.6-2.4-1.7-3.5-.1-.9,1.3-1.5,2.8-1.5,4.4,0,1.6,0,3.2,0,4.8,0,1,0,2-.2,3-.4,3.7-1.3,4.3-4.9,3.9-2.1-.2-4.2-.3-6.3-.5-1.6-.1-1.9-.3-2-1.8-.2-2.2-.3-4.5-.3-6.7,0-4.2.2-8.5.2-12.7,0-6.7,0-13.4,0-20,0-2.7,1-3.8,3.7-3.8,2.4,0,4.9,0,7.3.2,1.9.1,2.4.7,2.4,2.6,0,3.3-.2,6.5-.2,9.8,0,.7,0,1.5.2,2.2,0,.5,0,1.3.7,1.3.5,0,1.1-.3,1.5-.7,1.7-2,3.4-4.1,5-6.1,1.9-2.4,3.9-4.7,5.7-7.2,1.1-1.5,2.5-2,4.2-2,1.9,0,3.9,0,5.8,0,.7,0,1.5.1,2.2.2.7,0,1.6.2,1.7,1.1,0,.7-.3,1.4-.7,2-.7,1-1.6,1.8-2.5,2.7-3,3.2-6,6.4-9,9.5-.4.5-.8,1-1.2,1.6-.7,1.1-.7,2.1,0,3.2,2,3,4,6.1,6,9.1,2.5,4,5.1,8,7.6,12,.2.3.4.7.6,1.1.6,1.5.4,2.3-1.1,2.6-2.3.4-4.6.6-7,.8v-.2s0,0,0,0Z"/>
    <path class="st1" d="M37.4,145.8c1.9,0,3.7,0,5.6,0,2.5,0,4.7,1.6,5.4,4.1,1.7,5.6,3.3,11.2,4.7,16.9,1.6,6.3,3.1,12.6,4.6,18.9.2.9.5,1.9.5,2.9,0,1.6-1,2.5-2.6,2.6-2.4,0-4.9.2-7.3.2-.6,0-1.2,0-1.7,0-1.1-.2-1.9-.8-2.1-2-.4-2.1-.9-4.1-1.3-6.2-.5-2.2-1.2-2.8-3.5-2.9-2.3,0-4.5,0-6.8,0-1.5,0-1.8.3-2.2,1.7-.5,2-.9,4.1-1.5,6.1-.7,2.6-1.4,2.9-4,2.8-2.1-.1-4.2-.3-6.3-.2-3.4.1-3.9-1.3-3.4-4,.6-3.1,1.2-6.2,2-9.3,2.3-9.3,4.6-18.6,6.9-27.9.6-2.5,1.3-3.1,3.8-3.3,3.1-.3,6.2-.4,9.2-.6v.2s0,0,0,0ZM36,170.1h0c.6,0,1.1,0,1.7,0,2.3,0,2.9-.7,2.4-3-.4-2.3-.9-4.6-1.4-6.9-.4-1.8-.9-2.3-2.3-2.4-1.5,0-2.7.7-3.1,2.2-.6,2.3-1.2,4.7-1.6,7.1-.4,2.5,0,2.8,2.5,2.9.6,0,1.1,0,1.7,0h0Z"/>
    <path class="st1" d="M67,169.7c0-2.7-.1-5.3-.2-8,0-1.1-.1-2.2.4-3.3.5-1,0-1.7-1.1-1.9-1.1,0-2.3,0-3.4.2-1.8.3-3.6.9-5.4,1.3-1.7.3-2,0-2-1.7,0-.9,0-1.8.2-2.7.7-2.4,1-4.7.9-7.2,0-1,.6-1.5,1.5-1.6,1.5-.1,3.1-.3,4.6-.2,2.4.2,4.8.3,7.2,0,6.3-.9,12.7-1.4,19.2-.7,2,.2,2.8.7,3.2,2.7.5,2.8.7,5.6,0,8.5-.3,1.5-1,2-2.6,1.9-2.3-.1-4.7-.3-7-.6-1.9-.2-2.2.2-2.1,2,.2,3.3.2,6.6.2,10,0,6,0,12,0,18,0,.6,0,1.3,0,1.9-.3,2.4-1,2.9-3.4,2.7-2.5-.2-5-.4-7.5-.5-1.8,0-2,0-2.2-1.8-.2-1.7-.2-3.4-.3-5.1,0-1,0-1.9,0-2.9h0c0-3.6,0-7.3,0-10.9Z"/>
    <path class="st1" d="M128.1,169.7c0-2.7-.1-5.3-.2-8,0-1.1-.1-2.2.4-3.3.5-1,0-1.7-1.1-1.9-1.1,0-2.3,0-3.4.2-1.8.3-3.6.9-5.4,1.3-1.7.3-2,0-2-1.7,0-.9,0-1.8.2-2.7.7-2.4,1-4.7.9-7.2,0-1,.6-1.5,1.5-1.6,1.5-.1,3.1-.3,4.6-.2,2.4.2,4.8.3,7.2,0,6.3-.9,12.7-1.4,19.2-.7,2,.2,2.8.7,3.2,2.7.5,2.8.7,5.6,0,8.5-.3,1.5-1,2-2.6,1.9-2.3-.1-4.7-.3-7-.6-1.9-.2-2.2.2-2.1,2,.2,3.3.2,6.6.2,10,0,6,0,12,0,18,0,.6,0,1.3,0,1.9-.3,2.4-1,2.9-3.4,2.7-2.5-.2-5-.4-7.5-.5-1.8,0-2,0-2.2-1.8-.2-1.7-.2-3.4-.3-5.1,0-1,0-1.9,0-2.9h0c0-3.6,0-7.3,0-10.9Z"/>
    <path class="st1" d="M157.2,167c0-6.3,0-12.5,0-18.8,0-.5,0-1,0-1.5.2-1,.8-1.8,1.8-1.5,2.9.7,5.8-.2,8.7-.2.3,0,.6,0,1,0,1.8.1,2.5.7,2.6,2.5.2,2.8.3,5.6.4,8.4,0,.8,0,1.7.1,2.5.2,1.5,1,2.1,2.5,2.2,1,0,1.9.1,2.9,0,1.9,0,2.4-.6,2.4-2.6,0-3.1,0-6.3.1-9.4,0-2.8,1-3.6,3.8-3.6,1.9,0,3.7,0,5.6.2.6,0,1.2,0,1.7.3,2.2,1,2.3,1,2.4,3.2.2,7.2.4,14.4.6,21.5,0,2.6.3,5.3.3,7.9,0,3.1-.2,6.3-.3,9.4,0,1.7-.6,2.4-2.2,2.7-1.7.3-3.4.7-5,.7-1.6,0-3.2-.4-4.7-.8-1-.3-1-1.4-1.1-2.3-.2-2.7-.4-5.4-.5-8.2,0-1.6,0-3.1,0-4.7,0-2.1-.6-2.7-2.7-2.5-1.2.1-2.4.3-3.6.6-.5.1-1,.6-1.2,1-.3.8-.5,1.8-.5,2.7,0,2.9.2,5.8.2,8.6,0,1.3-.1,2.6-.4,3.9-.1.8-.7,1.2-1.6,1-2.2-.3-4.5-.6-6.7-.7-1.4,0-2.9,0-4.3.2-1.3.2-1.7,0-1.8-1.3-.2-2.9-.4-5.8-.4-8.6,0-4.4,0-8.8,0-13.1h-.2,0Z"/>
    <path class="st1" d="M200.8,156.7c.1-2.3,0-4.7.2-7,0-1,.5-2,1-2.9.4-.8,1.2-1.2,2.3-1.1,3.6.3,7.1,0,10.7-.4,3-.3,6-.2,9-.1,1.8,0,2.2.5,2.2,2.4,0,2.8,0,5.5,0,8.3,0,1.9-.8,2.7-2.6,2.8-1.4,0-2.8,0-4.1,0-1,0-2.1.2-3.1.5-1,.3-1.7,1.4-1.6,2.2,0,.9.9,1.4,2.2,1.5.7,0,1.5-.1,2.2,0,1.7,0,2.7.8,2.8,2.4,0,2.2,0,4.4-.1,6.6,0,.9-.7,1.4-1.6,1.5-.8,0-1.6,0-2.4,0-.6,0-1.3,0-1.9,0-1,.2-1.8,1.1-1.8,2,0,1,.7,1.5,1.6,1.6,1.6.2,3.2.3,4.8.4,1.3,0,2.6,0,3.9,0,1,0,1.5.5,1.5,1.5,0,3.3,0,6.7,0,10,0,1.1-.6,1.7-1.6,1.7-2.1,0-4.2.2-6.3.1-4.5,0-9.1-.2-13.6-.2-2.9,0-4.1-.7-4.1-3.7-.1-3.9,0-7.8,0-11.7h-.2c.3-6.1.6-12.2.9-18.2Z"/>
    <path class="st1" d="M283,184.1c0,1.4,0,2.8,0,4.1,0,2.9-.3,3.3-3.3,3.5-4.2.3-8.3-.3-12.2-1.7-8.2-2.9-14.1-11.2-14.4-19.9-.3-10.1,3.9-17.9,12.1-23.5,1.3-.9,3-1.2,4.5-1.8,3.7-1.6,7.7-1.2,11.5-1.2,1.4,0,1.9.5,1.9,2,0,3,0,6,0,9,0,1.6-.4,2-2,2.2-.9.1-1.8.2-2.7.2-6.4.3-11.4,7.1-9.9,13.3.8,3.3,3.1,5.1,6.1,6.1,1.7.6,3.7.6,5.5.8.5,0,1,0,1.5,0,1.1,0,1.6.5,1.6,1.7,0,1.7,0,3.4,0,5.1h0Z"/>
    <path class="st1" d="M288.7,156.7c.1-2.3,0-4.7.2-7,0-1,.5-2,1-2.9.4-.8,1.2-1.2,2.3-1.1,3.6.3,7.1,0,10.7-.4,3-.3,6-.2,9-.1,1.8,0,2.2.5,2.2,2.4,0,2.8,0,5.5,0,8.3,0,1.9-.8,2.7-2.6,2.8-1.4,0-2.8,0-4.1,0-1,0-2.1.2-3.1.5-1,.3-1.7,1.4-1.6,2.2,0,.9.9,1.4,2.2,1.5.7,0,1.5-.1,2.2,0,1.7,0,2.7.8,2.8,2.4,0,2.2,0,4.4-.1,6.6,0,.9-.7,1.4-1.6,1.5-.8,0-1.6,0-2.4,0-.6,0-1.3,0-1.9,0-1,.2-1.8,1.1-1.8,2,0,1,.7,1.5,1.6,1.6,1.6.2,3.2.3,4.8.4,1.3,0,2.6,0,3.9,0,1,0,1.5.5,1.5,1.5,0,3.3,0,6.7,0,10,0,1.1-.6,1.7-1.6,1.7-2.1,0-4.2.2-6.3.1-4.5,0-9.1-.2-13.6-.2-2.9,0-4.1-.7-4.1-3.7-.1-3.9,0-7.8,0-11.7h-.2c.3-6.1.6-12.2.9-18.2Z"/>
    <path class="st1" d="M359.3,179.9c0,2.5-.2,5-.4,7.6-.2,2.1-.5,2.5-2.4,2.8-1.8.3-3.6.3-5.3.3-1.6,0-2.8-.9-3.7-2.2-1.7-2.5-3.6-5-5.1-7.7-2-3.6-3.7-7.5-5.6-11.2-.3-.7-.7-1.4-1.1-1.9-.2-.3-.8-.4-1.1-.3-.4.2-.7.6-.9,1-.1.3,0,.8.1,1.2,0,.8.2,1.7.1,2.5-.1,5.1-.3,10.2-.5,15.4,0,2.2-.4,2.8-2.6,3.2-2.2.4-4.5.7-6.8.9-2.4.3-4.7-1.6-4.7-4.5.1-7.4.3-14.8.4-22.2,0-1.1,0-2.2,0-3.3,0-4.2-.2-8.4,0-12.6,0-2.5,1.1-3.7,3.5-4,2.2-.3,4.5-.3,6.8-.2,1.7,0,3.1,1,4,2.5,2.4,3.9,4.8,7.8,7.1,11.8,1.7,2.9,3.4,5.8,5.1,8.6.2.4.9.8,1.1.7.4-.2.9-.8,1-1.2,0-.8,0-1.7-.2-2.5-.7-2.1-.9-4.2-.8-6.5.1-3.6.1-7.3.2-10.9,0-2.3.7-3.3,2.8-3.2,2.5,0,5,.5,7.4,1,1.9.4,2.1.9,2.1,2.8,0,2.9-.2,5.7-.2,8.6,0,2.8,0,5.6,0,8.3h-.3c0,5.1,0,10.1,0,15.2Z"/>
    <path class="st1" d="M374.7,169.7c0-2.7-.1-5.3-.2-8,0-1.1-.1-2.2.4-3.3.5-1,0-1.7-1.1-1.9-1.1,0-2.3,0-3.4.2-1.8.3-3.6.9-5.4,1.3-1.7.3-2,0-2-1.7,0-.9,0-1.8.2-2.7.7-2.4,1-4.7.9-7.2,0-1,.6-1.5,1.5-1.6,1.5-.1,3.1-.3,4.6-.2,2.4.2,4.8.3,7.2,0,6.3-.9,12.7-1.4,19.2-.7,2,.2,2.8.7,3.2,2.7.5,2.8.7,5.6,0,8.5-.3,1.5-1,2-2.6,1.9-2.3-.1-4.7-.3-7-.6-1.9-.2-2.2.2-2.1,2,.2,3.3.2,6.6.2,10,0,6,0,12,0,18,0,.6,0,1.3,0,1.9-.3,2.4-1,2.9-3.4,2.7-2.5-.2-5-.4-7.5-.5-1.8,0-2,0-2.2-1.8-.2-1.7-.2-3.4-.3-5.1,0-1,0-1.9,0-2.9h0c0-3.6,0-7.3,0-10.9Z"/>
    <path class="st1" d="M404.3,156.7c.1-2.3,0-4.7.2-7,0-1,.5-2,1-2.9.4-.8,1.2-1.2,2.3-1.1,3.6.3,7.1,0,10.7-.4,3-.3,6-.2,9-.1,1.8,0,2.2.5,2.2,2.4,0,2.8,0,5.5,0,8.3,0,1.9-.8,2.7-2.6,2.8-1.4,0-2.8,0-4.1,0-1,0-2.1.2-3.1.5-1,.3-1.7,1.4-1.6,2.2,0,.9.9,1.4,2.2,1.5.7,0,1.5-.1,2.2,0,1.7,0,2.7.8,2.8,2.4,0,2.2,0,4.4-.1,6.6,0,.9-.7,1.4-1.6,1.5-.8,0-1.6,0-2.4,0-.6,0-1.3,0-1.9,0-1,.2-1.8,1.1-1.8,2,0,1,.7,1.5,1.6,1.6,1.6.2,3.2.3,4.8.4,1.3,0,2.6,0,3.9,0,1,0,1.5.5,1.5,1.5,0,3.3,0,6.7,0,10,0,1.1-.6,1.7-1.6,1.7-2.1,0-4.2.2-6.3.1-4.5,0-9.1-.2-13.6-.2-2.9,0-4.1-.7-4.1-3.7-.1-3.9,0-7.8,0-11.7h-.2c.3-6.1.6-12.2.9-18.2Z"/>
    <path class="st1" d="M435.3,181.6c0-11.2-.2-22.4-.3-33.5,0-2,.6-2.8,2.4-3.2,2.9-.6,5.8-.8,8.7-.5,2,.2,4,0,6.1-.1,4-.2,7.9-.6,11.9.2,3,.6,5.3,2.3,6.6,5.1,2.5,5.2,2.5,10.7.9,16.2-.6,2.1-1.8,3.8-3.6,5-1.9,1.3-1.8,1.4-.8,3.5,2.2,4.6,4.4,9.3,6.6,14,.2.5.5,1.1.6,1.7.1,1-.4,1.7-1.4,1.7-3.5,0-7,0-10.4,0-1,0-1.7-.5-2.1-1.4-1.5-3.5-3.1-7-4.6-10.4-.5-1.2-.9-2.4-1.5-3.5-.4-.7-1.1-1.2-1.8-1.5-1.3-.4-2.3.3-2.4,1.7-.1,2-.2,3.9-.2,5.9,0,1.8,0,3.6,0,5.4-.1,2.4-.9,3.2-3.2,3.3-2.9,0-5.8,0-8.8,0-1.8,0-2.4-.7-2.4-2.7,0-2.2,0-4.4,0-6.7,0,0-.1,0-.2,0ZM454,154.9v.2c-.9,0-1.8,0-2.7,0-.5,0-1,.1-1.3.4-1.6,1.4-.7,7.1,1.2,7.9.1,0,.3.1.5.1,1.7,0,3.4.3,5.1,0,2.7-.4,4.4-1.9,3.8-5.6-.2-1.5-.8-2.4-2.2-2.6-1.4-.2-2.9-.4-4.3-.6Z"/>
    <path class="st1" d="M527,193.5c-9,0-14.9-2.7-19.5-8-7.9-9.2-9.4-19.4-4-30.1,5.8-11.6,18.5-14.9,28.8-10.8,7.6,3.1,12.4,8.5,14.9,16.1,2.4,7.2,1.9,14.1-1.7,20.7-4.3,7.9-11.1,11.9-18.5,12.2h0ZM516.1,173.9c3.4,6.2,11.8,7.4,16.5,2.2,4.5-5,4.7-11.7.3-17-1.5-1.8-3.4-2.9-5.8-3.2-1.5-.2-3.3-.5-4.6,0-5.2,2.2-8,6.1-8,11.7,0,2.2.6,4.5,1.6,6.4Z"/>
    <path class="st1" d="M553.2,171.1c0-4.5-.1-9.1,0-13.6.1-3.1.6-6.3,1.2-9.4.5-2.7,2-3.5,4.6-2.8,2.5.7,5,.2,7.5,0,3.7-.2,7.4-.3,11.2-.4,1.6,0,2.1.5,2.1,2,0,2.9.1,5.8,0,8.8,0,1.9-.8,2.6-2.7,2.7-1.5,0-2.9,0-4.4,0-1,0-2.1.2-3.1.6-1.1.3-1.4,1.2-1.2,2.3.2,1.1.9,1.2,1.8,1.2.8,0,1.6,0,2.4,0,1.9,0,3,.9,3,2.7,0,2.1-.2,4.2-.3,6.3,0,1-.7,1.4-1.6,1.5-1.1,0-2.3,0-3.4,0-2.5.1-3.1.8-3.1,3.3,0,3.6,0,7.1-.1,10.7,0,2.6-.4,2.9-3,3-2.6,0-5.2,0-7.8.1-1.4,0-2.3-.7-2.8-1.9-.3-.8-.4-1.6-.4-2.4,0-3.7,0-7.5.1-11.2,0-1.2,0-2.4,0-3.6h0Z"/>
    <path class="st1" d="M616.1,169.7c0-2.7-.1-5.3-.2-8,0-1.1-.1-2.2.4-3.3.5-1,0-1.7-1.1-1.9-1.1,0-2.3,0-3.4.2-1.8.3-3.6.9-5.4,1.3-1.7.3-2,0-2-1.7,0-.9,0-1.8.2-2.7.7-2.4,1-4.7.9-7.2,0-1,.6-1.5,1.5-1.6,1.5-.1,3.1-.3,4.6-.2,2.4.2,4.8.3,7.2,0,6.3-.9,12.7-1.4,19.2-.7,2,.2,2.8.7,3.2,2.7.5,2.8.7,5.6,0,8.5-.3,1.5-1,2-2.6,1.9-2.3-.1-4.7-.3-7-.6-1.9-.2-2.2.2-2.1,2,.2,3.3.2,6.6.2,10,0,6,0,12,0,18,0,.6,0,1.3,0,1.9-.3,2.4-1,2.9-3.4,2.7-2.5-.2-5-.4-7.5-.5-1.8,0-2,0-2.2-1.8-.2-1.7-.2-3.4-.3-5.1,0-1,0-1.9,0-2.9h0c0-3.6,0-7.3,0-10.9Z"/>
    <path class="st1" d="M645.2,148.2c0-.5,0-1,0-1.5.2-1,.8-1.8,1.8-1.5,2.9.7,5.8-.2,8.7-.2.3,0,.6,0,1,0,1.8.1,2.5.7,2.6,2.5.2,2.8.3,5.6.4,8.4,0,.8,0,1.7.1,2.5.2,1.5,1,2.1,2.5,2.2,1,0,1.9.1,2.9,0,1.9,0,2.4-.6,2.4-2.6,0-3.1,0-6.3.1-9.4,0-2.8,1-3.6,3.8-3.6,1.9,0,3.7,0,5.6.2.6,0,1.2,0,1.7.3,2.2,1,2.3,1,2.4,3.2.2,7.2.4,14.4.6,21.5,0,2.6.3,5.3.3,7.9,0,3.1-.2,6.3-.3,9.4,0,1.7-.6,2.4-2.2,2.7-1.7.3-3.4.7-5,.7-1.6,0-3.2-.4-4.7-.8-1-.3-1-1.4-1.1-2.3-.2-2.7-.4-5.4-.5-8.2,0-1.6,0-3.1,0-4.7,0-2.1-.6-2.7-2.7-2.5-1.2.1-2.4.3-3.6.6-.5.1-1,.6-1.2,1-.3.8-.5,1.8-.5,2.7,0,2.9.2,5.8.2,8.6,0,1.3-.2,2.6-.4,3.9-.2.8-.7,1.2-1.6,1-2.2-.3-4.5-.6-6.7-.7-1.4,0-2.9,0-4.3.2-1.3.2-1.7,0-1.8-1.3-.2-2.9-.4-5.8-.4-8.6,0-4.4,0-8.8,0-13.1h-.2c0-6.3,0-12.5,0-18.8Z"/>
    <path class="st1" d="M688.8,156.7c.1-2.3,0-4.7.2-7,0-1,.5-2,1-2.9.4-.8,1.2-1.2,2.3-1.1,3.6.3,7.1,0,10.7-.4,3-.3,6-.2,9-.1,1.8,0,2.2.5,2.2,2.4,0,2.8,0,5.5,0,8.3,0,1.9-.8,2.7-2.6,2.8-1.4,0-2.8,0-4.1,0-1,0-2.1.2-3.1.5-1,.3-1.7,1.4-1.6,2.2,0,.9.9,1.4,2.2,1.5.7,0,1.5-.1,2.2,0,1.7,0,2.7.8,2.8,2.4,0,2.2,0,4.4-.1,6.6,0,.9-.7,1.4-1.6,1.5-.8,0-1.6,0-2.4,0-.6,0-1.3,0-1.9,0-1,.2-1.8,1.1-1.8,2,0,1,.7,1.5,1.5,1.6,1.6.2,3.2.3,4.8.4,1.3,0,2.6,0,3.9,0,1,0,1.5.5,1.5,1.5,0,3.3,0,6.7,0,10,0,1.1-.6,1.7-1.6,1.7-2.1,0-4.2.2-6.3.1-4.5,0-9.1-.2-13.6-.2-2.9,0-4.1-.7-4.1-3.7-.1-3.9,0-7.8,0-11.7h-.2c.3-6.1.6-12.2.9-18.2Z"/>
    <path class="st1" d="M756.6,168c0,4.8,0,9.6,0,14.3,0,2.2-.2,4.4-.3,6.6-.1,1.7-.5,2.1-2.3,2.1-3.1,0-6.3-.2-9.4-.4-.4,0-1-.6-1.1-1-.3-1.3-.5-2.6-.5-3.8,0-8.9-.1-17.8-.2-26.8,0-2.6-.1-5.2,0-7.8,0-1.4.3-2.7.7-4,.3-1,1-1.7,2.1-1.7,2.2-.2,4.3-.3,6.5-.5.5,0,1,0,1.5,0,2.2.1,2.8.7,2.8,3,0,6.7,0,13.5,0,20.2h.3Z"/>
    <path class="st1" d="M802.7,179.9c0,2.5-.2,5-.4,7.6-.2,2.1-.5,2.5-2.4,2.8-1.8.3-3.6.3-5.3.3-1.6,0-2.8-.9-3.7-2.2-1.7-2.5-3.6-5-5.1-7.7-2-3.6-3.7-7.5-5.6-11.2-.3-.7-.7-1.4-1.1-1.9-.2-.3-.8-.4-1.1-.3-.4.2-.7.6-.9,1-.1.3,0,.8.1,1.2,0,.8.2,1.7.1,2.5-.1,5.1-.3,10.2-.5,15.4,0,2.2-.4,2.8-2.6,3.2-2.2.4-4.5.7-6.8.9-2.4.3-4.7-1.6-4.7-4.5.1-7.4.3-14.8.4-22.2,0-1.1,0-2.2,0-3.3,0-4.2-.2-8.4,0-12.6,0-2.5,1.1-3.7,3.5-4,2.2-.3,4.5-.3,6.8-.2,1.7,0,3.1,1,4,2.5,2.4,3.9,4.8,7.8,7.1,11.8,1.7,2.9,3.4,5.8,5.1,8.6.2.4.9.8,1.1.7.4-.2.9-.8,1-1.2,0-.8,0-1.7-.2-2.5-.7-2.1-.9-4.2-.8-6.5.1-3.6.1-7.3.2-10.9,0-2.3.7-3.3,2.8-3.2,2.5,0,5,.5,7.4,1,1.9.4,2.1.9,2.1,2.8,0,2.9-.2,5.7-.2,8.6,0,2.8,0,5.6,0,8.3h-.3c0,5.1,0,10.1,0,15.2Z"/>
    <path class="st1" d="M809.2,169c.3-5.6.6-12.7,1-19.7,0-.6,0-1.3.2-1.9,0-.9.4-1.4,1.5-1.5,2.5-.2,5-.8,7.4-.9,3.6-.2,7.3,0,11-.1,4.8-.2,8.2,2,10.7,5.9,2.6,4.1,3.9,8.7,4.3,13.5.4,4.8.1,9.5-1.5,14.2-1,2.9-2.2,5.8-4.4,8.1-2.4,2.5-5.1,4.2-8.7,4.1-5.8-.2-11.5-.3-17.3-.5-.2,0-.3,0-.5,0-4.5-.7-3.7-.7-3.8-4,0-5.2,0-10.4,0-17h0ZM822.3,169.8c0,2.1-.2,4.2-.3,6.3,0,.6,0,1.3.2,1.9,0,1,.8,1.6,1.7,1.9,2,.7,5.3-.6,6.3-2.5,3.2-6.2,3.2-12.4.5-18.7-.9-2.2-2.6-3.2-5-3.2-2.1,0-2.6.4-2.8,2.4-.3,4-.5,7.9-.8,11.9h.2Z"/>
    <path class="st1" d="M875.6,153.9c-.1-2.3-.5-4.6-.7-6.9-.2-1.7,0-2.1,1.7-2.2,2.9-.3,5.7-.9,8.7-.2,1,.2,2.1,0,3.1-.2.7-.1,1.3,0,1.2.8-.4,4.4,1.1,8.7.8,13.1-.4,6.3-.3,12.6-.8,18.9-.3,3-1.6,6-2.6,8.9-.2.6-.7,1-1.2,1.5-.6.6-1.4,1.1-1.9,1.8-1.6,2.3-4,3.1-6.7,3.4-4.9.4-9.9.9-14.6-1.2-2.8-1.2-5.7-2.2-7.7-4.8-2-2.6-3.2-5.3-3.4-8.5-.3-4.1-.7-8.1-.9-12.2-.1-2.8,0-5.6,0-8.4-.2-3.4-.5-6.8-.8-10.2,0-.5-.1-1-.1-1.4,0-1.5,0-1.7,1.6-1.7,3.8,0,7.6,0,11.4,0,1.6,0,1.8.2,1.9,1.8.3,6.1.6,12.1.9,18.2.1,3.4.2,6.9.3,10.3,0,.9.2,1.9.5,2.8,1,3.6,4.5,5,7.8,3.1,1.6-.9,2.5-2.1,2.4-4.1-.2-2.9,0-5.7,0-8.6,0-1,0-1.9-.1-2.9,0,0,0,0,0,0,0-3.7-.1-7.3-.3-11Z"/>
    <path class="st1" d="M898.4,188.6c-1.4-1.1-2.4-2.7-3.5-4.1-.8-1-.6-2,.5-2.7,2.1-1.5,4.2-2.9,6.4-4.3.8-.5,1.4-.4,2.1.3,1.3,1.1,2.6,2.1,4,3.1,1.9,1.4,4.2,1.4,6.6,1.3,3-.1,4.4-2.7,3.6-4.7-.4-1.1-1.3-2.1-2.2-2.9-3.4-3-7.6-4.9-11.7-7-3.7-1.9-6.4-4.6-8.6-7.6-1.4-1.9-1.4-4.3-1-6.5.8-4.5,3.8-7.8,8.4-9.8,3.7-1.6,7.6-2.1,11.7-1.5,1.9.3,3.9.6,5.7,1.2,1.7.5,3.3,1.2,4.7,2.1,3.6,2.2,3.6,3.1.6,5.8-1.6,1.4-3.1,2.8-4.7,4.3-1.4,1.2-2.4,1.2-4,.3-1-.6-2-1.3-3.2-1.7-1.5-.5-3.1.2-3.9,1.3-.7,1.1-.6,2.3.9,3.3,2.7,1.9,5.6,3.6,8.5,5.3,3.3,2,6.7,3.9,9.3,6.7,3.7,3.9,4.6,8.3,3.1,13.1-.5,1.5-1.8,2.9-3,4.1-2.5,2.4-5.7,3.8-9.3,4.4-2.3.3-4.6.5-5.7.6-6.5,0-11.4-1.2-15.4-4.5Z"/>
    <path class="st1" d="M942.9,169.7c0-2.7-.1-5.3-.2-8,0-1.1-.1-2.2.4-3.3.5-1,0-1.7-1.1-1.9-1.1,0-2.3,0-3.4.2-1.8.3-3.6.9-5.4,1.3-1.7.3-2,0-2-1.7,0-.9,0-1.8.2-2.7.7-2.4,1-4.7.9-7.2,0-1,.6-1.5,1.5-1.6,1.5-.1,3.1-.3,4.6-.2,2.4.2,4.8.3,7.2,0,6.3-.9,12.7-1.4,19.2-.7,2,.2,2.8.7,3.2,2.7.5,2.8.7,5.6,0,8.5-.3,1.5-1,2-2.6,1.9-2.3-.1-4.7-.3-7-.6-1.9-.2-2.2.2-2.1,2,.2,3.3.2,6.6.2,10,0,6,0,12,0,18,0,.6,0,1.3,0,1.9-.3,2.4-1,2.9-3.4,2.7-2.5-.2-5-.4-7.5-.5-1.8,0-2,0-2.2-1.8-.2-1.7-.2-3.4-.3-5.1,0-1,0-1.9,0-2.9h0c0-3.6,0-7.3,0-10.9Z"/>
    <path class="st1" d="M972.3,181.6c0-11.2-.2-22.4-.3-33.5,0-2,.6-2.8,2.4-3.2,2.9-.6,5.8-.8,8.7-.5,2,.2,4,0,6.1-.1,4-.2,7.9-.6,11.9.2,3,.6,5.3,2.3,6.6,5.1,2.5,5.2,2.5,10.7.9,16.2-.6,2.1-1.8,3.8-3.6,5-1.9,1.3-1.8,1.4-.8,3.5,2.2,4.6,4.4,9.3,6.6,14,.2.5.5,1.1.6,1.7.1,1-.4,1.7-1.4,1.7-3.5,0-7,0-10.4,0-1,0-1.7-.5-2.1-1.4-1.5-3.5-3.1-7-4.6-10.4-.5-1.2-.9-2.4-1.5-3.5-.4-.7-1.1-1.2-1.8-1.5-1.3-.4-2.3.3-2.4,1.7-.1,2-.2,3.9-.2,5.9,0,1.8,0,3.6,0,5.4-.1,2.4-.9,3.2-3.2,3.3-2.9,0-5.8,0-8.8,0-1.8,0-2.4-.7-2.4-2.7,0-2.2,0-4.4,0-6.7,0,0-.1,0-.2,0ZM991,154.9v.2c-.9,0-1.8,0-2.7,0-.5,0-1,.1-1.3.4-1.6,1.4-.7,7.1,1.2,7.9.2,0,.3.1.5.1,1.7,0,3.4.3,5.1,0,2.7-.4,4.4-1.9,3.8-5.6-.2-1.5-.8-2.4-2.2-2.6-1.4-.2-2.9-.4-4.3-.6Z"/>
    <path class="st1" d="M1038.8,191.2c-2.5-.2-4.6-.2-6.7-.5-2-.2-2.4-.7-2.6-2.9-.2-3-.4-6.1-.6-9.1-.2-3.5-.5-6.9-2.3-10-.6-.9-1-1.9-1.7-2.8-4.6-6.5-9.2-12.9-13.8-19.4-.3-.4-.6-1.1-.4-1.3.3-.4.9-.7,1.4-.7,2.2,0,4.4.1,6.6.1,2.3,0,4.5,0,6.8-.3,5.2-.6,4.9-.1,6.5,3.6,1.5,3.7,2.8,7.4,4.2,11.1,0,0,0,.2,0,.2.5.5.8,1.4,1.4,1.5.9.2,1.3-.8,1.6-1.6.7-2.1,1.2-4.2,2-6.3.9-2.4,2-4.8,3.1-7.2.2-.4.9-.7,1.3-.8,3.2-.3,6.5-.6,9.7-.7,1.9,0,3.9.1,5.8.3,1,0,1.2.9.9,1.7-.4,1.2-.8,2.4-1.5,3.5-2.1,3.5-4.4,7-6.6,10.4-1.5,2.3-3.1,4.6-4.7,6.8-4.1,5.5-5.1,11.8-4,18.5.2,1,.4,2,.5,3,.2,1.5-.2,2.3-1.7,2.5-1.8.3-3.7.3-5.2.3Z"/>
    <path class="st1" d="M1071,186.9c0,2.2-1.3,3.9-3.5,4.1-4,.5-6.1-.6-6.9-3.9-.6-2.4.9-4.6,3.3-5,1-.2,2-.4,3-.3,2.3.2,4,2.4,4,5.1h0Z"/>
  </g>
  <g>
    <path class="st0" d="M87.4,54.1c-1.5,0-3.1,0-4.6,0-1.5,0-2-.6-2.2-2.2,0-.3,0-.7,0-1-.1-9.1-.3-18.3-.4-27.4,0-4,0-7.9-.1-11.9,0-1.9.6-2.8,2.4-3.1,3-.6,5.9-.8,8.9-.5,1.9.2,3.9,0,5.8-.1,3.6-.2,7.1-.6,10.7.2,2.4.6,4.3,1.8,5.4,4,2.9,5.8,3.5,11.8.9,17.8-.9,2.1-2.6,3.7-4.8,4.5-3.1,1-6.2,2.2-9.4,2.4-.6,0-1.1.1-1.7.3-2.6.6-3,1.3-3.1,4-.1,3.2-.2,6.4-.3,9.6-.1,2.9-.7,3.5-3.5,3.6-.6,0-1.3,0-2,0-.6,0-1.3,0-1.9,0h0ZM98.3,17.4h0c-.6,0-1.1,0-1.7,0-1.7.1-2.2.5-2.3,2.3,0,1.2,0,2.5.1,3.8.2,1.7,1.2,2.7,2.8,2.9,2.2.3,4.1-.5,6-1.6.4-.3.8-.9.9-1.4.8-3.3-1.1-5.8-4.4-6-.5,0-1,0-1.5,0h0Z"/>
    <path class="st0" d="M120.2,45c0-11.2-.2-22.4-.3-33.5,0-2,.6-2.8,2.4-3.2,2.9-.6,5.8-.8,8.7-.5,2,.2,4,0,6.1-.1,4-.2,7.9-.6,11.9.2,3,.6,5.3,2.3,6.6,5.1,2.5,5.2,2.5,10.7.9,16.2-.6,2.1-1.8,3.8-3.6,5-1.9,1.3-1.8,1.4-.8,3.5,2.2,4.6,4.4,9.3,6.6,14,.2.5.5,1.1.6,1.7.1,1-.4,1.7-1.4,1.7-3.5,0-7,0-10.4,0-1,0-1.7-.5-2.1-1.4-1.5-3.5-3.1-7-4.6-10.4-.5-1.2-.9-2.4-1.5-3.5-.4-.7-1.1-1.2-1.8-1.5-1.3-.4-2.3.3-2.4,1.7-.1,2-.2,3.9-.2,5.9,0,1.8,0,3.6,0,5.4-.1,2.4-.9,3.2-3.2,3.3-2.9,0-5.8,0-8.8,0-1.8,0-2.4-.7-2.4-2.7,0-2.2,0-4.4,0-6.7,0,0-.1,0-.2,0ZM138.9,18.3v.2c-.9,0-1.8,0-2.7,0-.5,0-1,.1-1.3.4-1.6,1.4-.7,7.1,1.2,7.9.1,0,.3.1.5.1,1.7,0,3.4.3,5.1,0,2.7-.4,4.4-1.9,3.8-5.6-.2-1.5-.8-2.4-2.2-2.6-1.4-.2-2.9-.4-4.3-.6Z"/>
    <path class="st0" d="M188.7,56.8c-9,0-14.9-2.7-19.5-8-7.9-9.2-9.4-19.4-4-30.1,5.8-11.6,18.5-14.9,28.8-10.8,7.6,3.1,12.4,8.5,14.9,16.1,2.4,7.2,1.9,14.1-1.7,20.7-4.3,7.9-11.1,11.9-18.5,12.2h0ZM177.8,37.2c3.4,6.2,11.8,7.4,16.5,2.2,4.5-5,4.7-11.7.3-17-1.5-1.8-3.4-2.9-5.8-3.2-1.5-.2-3.3-.5-4.6,0-5.2,2.2-8,6.1-8,11.7,0,2.2.6,4.5,1.6,6.4Z"/>
    <path class="st0" d="M232.3,56.4c-6.5,0-11.4-1.2-15.4-4.5-1.4-1.1-2.4-2.7-3.5-4.1-.8-1-.6-2,.5-2.7,2.1-1.5,4.2-2.9,6.4-4.3.8-.5,1.4-.4,2.1.3,1.3,1.1,2.6,2.1,4,3.1,1.9,1.4,4.2,1.4,6.6,1.3,3-.1,4.4-2.7,3.6-4.7-.4-1.1-1.3-2.1-2.2-2.9-3.4-3-7.6-4.9-11.7-7-3.7-1.9-6.4-4.6-8.6-7.6-1.4-1.9-1.4-4.3-1-6.5.8-4.5,3.8-7.8,8.4-9.8,3.7-1.6,7.6-2.1,11.7-1.5,1.9.3,3.9.6,5.7,1.2,1.7.5,3.3,1.2,4.7,2.1,3.6,2.2,3.6,3.1.6,5.8-1.6,1.4-3.1,2.8-4.7,4.3-1.4,1.2-2.4,1.2-4,.3-1-.6-2-1.3-3.2-1.7-1.5-.5-3.1.2-3.9,1.3-.7,1.1-.6,2.3.9,3.3,2.7,1.9,5.6,3.6,8.5,5.3,3.3,2,6.7,3.9,9.3,6.7,3.7,3.9,4.6,8.3,3.1,13.1-.5,1.5-1.8,2.9-3,4.1-2.5,2.4-5.7,3.8-9.3,4.4-2.3.3-4.6.5-5.7.6h0Z"/>
    <path class="st0" d="M262.3,54.1c-1.5,0-3.1,0-4.6,0-1.5,0-2-.6-2.2-2.2,0-.3,0-.7,0-1-.1-9.1-.3-18.3-.4-27.4,0-4,0-7.9-.1-11.9,0-1.9.6-2.8,2.4-3.1,3-.6,5.9-.8,8.9-.5,1.9.2,3.9,0,5.8-.1,3.6-.2,7.1-.6,10.7.2,2.4.6,4.3,1.8,5.4,4,2.9,5.8,3.5,11.8.9,17.8-.9,2.1-2.6,3.7-4.8,4.5-3.1,1-6.2,2.2-9.4,2.4-.6,0-1.1.1-1.7.3-2.6.6-3,1.3-3.1,4-.1,3.2-.2,6.4-.3,9.6-.1,2.9-.7,3.5-3.5,3.6-.6,0-1.3,0-2,0-.6,0-1.3,0-1.9,0h0ZM273.2,17.4h0c-.6,0-1.1,0-1.7,0-1.7.1-2.2.5-2.3,2.3,0,1.2,0,2.5.1,3.8.2,1.7,1.2,2.7,2.8,2.9,2.2.3,4.1-.5,6-1.6.4-.3.8-.9.9-1.4.8-3.3-1.1-5.8-4.4-6-.5,0-1,0-1.5,0h0Z"/>
    <path class="st0" d="M295.4,20.1c.1-2.3,0-4.7.2-7,0-1,.5-2,1-2.9.4-.8,1.2-1.2,2.3-1.1,3.6.3,7.1,0,10.7-.4,3-.3,6-.2,9-.1,1.8,0,2.2.5,2.2,2.4,0,2.8,0,5.5,0,8.3,0,1.9-.8,2.7-2.6,2.8-1.4,0-2.8,0-4.1,0-1,0-2.1.2-3.1.5-1,.3-1.7,1.4-1.6,2.2,0,.9.9,1.4,2.2,1.5.7,0,1.5-.1,2.2,0,1.7,0,2.7.8,2.8,2.4,0,2.2,0,4.4-.1,6.6,0,.9-.7,1.4-1.6,1.5-.8,0-1.6,0-2.4,0-.6,0-1.3,0-1.9,0-1,.2-1.8,1.1-1.8,2,0,1,.7,1.5,1.6,1.6,1.6.2,3.2.3,4.8.4,1.3,0,2.6,0,3.9,0,1,0,1.5.5,1.5,1.5,0,3.3,0,6.7,0,10,0,1.1-.6,1.7-1.6,1.7-2.1,0-4.2.2-6.3.1-4.5,0-9.1-.2-13.6-.2-2.9,0-4.1-.7-4.1-3.7-.1-3.9,0-7.8,0-11.7h-.2c.3-6.1.6-12.2.9-18.2Z"/>
    <path class="st0" d="M326.5,45c0-11.2-.2-22.4-.3-33.5,0-2,.6-2.8,2.4-3.2,2.9-.6,5.8-.8,8.7-.5,2,.2,4,0,6.1-.1,4-.2,7.9-.6,11.9.2,3,.6,5.3,2.3,6.6,5.1,2.5,5.2,2.5,10.7.9,16.2-.6,2.1-1.8,3.8-3.6,5-1.9,1.3-1.8,1.4-.8,3.5,2.2,4.6,4.4,9.3,6.6,14,.2.5.5,1.1.6,1.7.1,1-.4,1.7-1.4,1.7-3.5,0-7,0-10.4,0-1,0-1.7-.5-2.1-1.4-1.5-3.5-3.1-7-4.6-10.4-.5-1.2-.9-2.4-1.5-3.5-.4-.7-1.1-1.2-1.8-1.5-1.3-.4-2.3.3-2.4,1.7-.1,2-.2,3.9-.2,5.9,0,1.8,0,3.6,0,5.4-.1,2.4-.9,3.2-3.2,3.3-2.9,0-5.8,0-8.8,0-1.8,0-2.4-.7-2.4-2.7,0-2.2,0-4.4,0-6.7,0,0-.1,0-.2,0ZM345.2,18.3v.2c-.9,0-1.8,0-2.7,0-.5,0-1,.1-1.3.4-1.6,1.4-.7,7.1,1.2,7.9.1,0,.3.1.5.1,1.7,0,3.4.3,5.1,0,2.7-.4,4.4-1.9,3.8-5.6-.2-1.5-.8-2.4-2.2-2.6-1.4-.2-2.9-.4-4.3-.6Z"/>
    <path class="st0" d="M441.4,54.3c-2.9-.3-5.8-.7-8.8-1-1.4-.1-2.9-.3-4.3-.1-1.3.2-1.9-.3-2.5-1.4-2.1-3.5-4.3-7.1-6.6-10.5-1.4-2.1-2.3-2-4-.2-2.8,3-4.9,6.5-6.8,10.1-.8,1.5-1.9,2.3-3.5,2.7-2.2.5-4.4.8-6.7.3-1.4-.3-2.9,0-4.4.2-.9,0-1.8.2-2.7.1-.5,0-1.1-.4-1.3-.8-.2-.2.1-.9.4-1.3,3.6-4,7.2-7.9,10.7-12,2.2-2.5,4.2-5.1,6.3-7.7.6-.8,1-1.7,1.2-2.6.3-1.2.2-2.4-.7-3.4-2.8-3.6-5.4-7.3-8.6-10.6-1.7-1.7-3.1-3.7-4.6-5.6-.7-.8-.6-1.6.4-1.9,1-.3,2.2-.5,3.3-.5,2.7,0,5.5,0,8.2-.1,2.3-.2,4.6.8,5.6,3.4.8,2,2.2,3.6,3.5,5.3,1.5,1.8,2.3,1.9,3.9,0,2.1-2.4,4.2-5,6.2-7.5.7-.8,1.5-1.2,2.5-1.2,4.4,0,8.8.1,13.1.2.4,0,.8,0,1.2.2.6.3,1.5.6,1.7,1.2.3.9-.8,1-1.3,1.5-1.4,1.3-2.8,2.7-4.1,4.1-1.9,2.1-3.8,4.2-5.7,6.3-1.8,2-3.4,4.1-5.2,6.1-1.3,1.5-1.1,3-.3,4.5.5,1,1.2,2,2.1,2.7,3.6,3,6.3,6.8,9.3,10.2,2,2.3,4.1,4.6,6.2,6.9,1,1,.9,1.6-.5,2-1,.3-2.1.3-3.3.5h0Z"/>
    <path class="st0" d="M470.2,56.8c-9,0-14.9-2.7-19.5-8-7.9-9.2-9.4-19.4-4-30.1,5.8-11.6,18.5-14.9,28.8-10.8,7.6,3.1,12.4,8.5,14.9,16.1,2.4,7.2,1.9,14.1-1.7,20.7-4.3,7.9-11.1,11.9-18.5,12.2h0ZM459.3,37.2c3.4,6.2,11.8,7.4,16.5,2.2,4.5-5,4.7-11.7.3-17-1.5-1.8-3.4-2.9-5.8-3.2-1.5-.2-3.3-.5-4.6,0-5.2,2.2-8,6.1-8,11.7,0,2.2.6,4.5,1.6,6.4Z"/>
    <path class="st0" d="M533.5,31.4c0,4.8,0,9.6,0,14.3,0,2.2-.2,4.4-.3,6.6-.1,1.7-.5,2.1-2.3,2.1-3.1,0-6.3-.2-9.4-.4-.4,0-1-.6-1.1-1-.3-1.3-.5-2.6-.5-3.8,0-8.9-.1-17.8-.2-26.8,0-2.6-.1-5.2,0-7.8,0-1.4.3-2.7.7-4,.3-1,1-1.7,2.1-1.7,2.2-.2,4.3-.3,6.5-.5.5,0,1,0,1.5,0,2.2.1,2.8.7,2.8,3,0,6.7,0,13.5,0,20.2h.3,0Z"/>
    <path class="st0" d="M542.3,51.9c-1.4-1.1-2.4-2.7-3.5-4.1-.8-1-.6-2,.5-2.7,2.1-1.5,4.2-2.9,6.4-4.3.8-.5,1.4-.4,2.1.3,1.3,1.1,2.6,2.1,4,3.1,1.9,1.4,4.2,1.4,6.6,1.3,3-.1,4.4-2.7,3.6-4.7-.4-1.1-1.3-2.1-2.2-2.9-3.4-3-7.6-4.9-11.7-7-3.7-1.9-6.4-4.6-8.6-7.6-1.4-1.9-1.4-4.3-1-6.5.8-4.5,3.8-7.8,8.4-9.8,3.7-1.6,7.6-2.1,11.7-1.5,1.9.3,3.9.6,5.7,1.2,1.7.5,3.3,1.2,4.7,2.1,3.6,2.2,3.6,3.1.6,5.8-1.6,1.4-3.1,2.8-4.7,4.3-1.4,1.2-2.4,1.2-4,.3-1-.6-2-1.3-3.2-1.7-1.5-.5-3.1.2-3.9,1.3-.7,1.1-.6,2.3.9,3.3,2.7,1.9,5.6,3.6,8.5,5.3,3.3,2,6.7,3.9,9.3,6.7,3.7,3.9,4.6,8.3,3.1,13.1-.5,1.5-1.8,2.9-3,4.1-2.5,2.4-5.7,3.8-9.3,4.4-2.3.3-4.6.5-5.7.6-6.5,0-11.4-1.2-15.4-4.5Z"/>
    <path class="st0" d="M623.4,9.1c1.9,0,3.7,0,5.6,0,2.5,0,4.7,1.6,5.4,4.1,1.7,5.6,3.3,11.2,4.7,16.9,1.6,6.3,3.1,12.6,4.6,18.9.2.9.5,1.9.5,2.9,0,1.6-1,2.5-2.6,2.6-2.4,0-4.9.2-7.3.2-.6,0-1.2,0-1.7,0-1.1-.2-1.9-.8-2.1-2-.4-2.1-.9-4.1-1.3-6.2-.5-2.2-1.2-2.8-3.5-2.9-2.3,0-4.5,0-6.8,0-1.5,0-1.8.3-2.2,1.7-.5,2-.9,4.1-1.5,6.1-.7,2.6-1.4,2.9-4,2.8-2.1-.1-4.2-.3-6.3-.2-3.4.1-3.9-1.3-3.4-4,.6-3.1,1.2-6.2,2-9.3,2.3-9.3,4.6-18.6,6.9-27.9.6-2.5,1.3-3.1,3.8-3.3,3.1-.3,6.2-.4,9.2-.6v.2s0,0,0,0ZM621.9,33.4h0c.6,0,1.1,0,1.7,0,2.3,0,2.9-.7,2.4-3-.4-2.3-.9-4.6-1.4-6.9-.4-1.8-.9-2.3-2.3-2.4-1.5,0-2.7.7-3.1,2.2-.6,2.3-1.2,4.7-1.6,7.1-.4,2.5,0,2.8,2.5,2.9.6,0,1.1,0,1.7,0h0Z"/>
    <path class="st0" d="M673.9,54.1c-1.5,0-2-.6-2.2-2.2,0-.3,0-.7,0-1-.1-9.1-.3-18.3-.4-27.4,0-4,0-7.9-.1-11.9,0-1.9.6-2.8,2.4-3.1,3-.6,5.9-.8,8.9-.5,1.9.2,3.9,0,5.8-.1,3.6-.2,7.1-.6,10.7.2,2.4.6,4.3,1.8,5.4,4,2.9,5.8,3.5,11.8.9,17.8-.9,2.1-2.6,3.7-4.8,4.5-3.1,1-6.1,2.2-9.4,2.4-.6,0-1.1.1-1.7.3-2.6.6-3,1.3-3.1,4-.1,3.2-.2,6.4-.3,9.6-.1,2.9-.7,3.5-3.5,3.6-.6,0-1.3,0-1.9,0s-1.3,0-1.9,0c-1.5,0-3.1,0-4.6,0ZM689.3,17.4h0c-.6,0-1.1,0-1.7,0-1.7.1-2.2.5-2.3,2.3,0,1.2,0,2.5.1,3.8.2,1.7,1.2,2.7,2.8,2.9,2.2.3,4.1-.5,6-1.6.4-.3.8-.9.9-1.4.8-3.3-1.1-5.8-4.4-6-.5,0-1,0-1.5,0h0Z"/>
    <path class="st0" d="M711.1,29.9c0-5.7,0-11.5,0-17.3,0-.7,0-1.5.3-2.2.2-.4.8-.9,1.2-1,3.2-.2,6.4-.8,9.7-.1,2.1.4,2.2.4,2.2,2.7,0,8.3,0,16.7,0,25,0,1.3.2,2.7.4,4,.1.9.7,1.5,1.6,1.5.9,0,1.8,0,2.7,0,2.3,0,3,.5,3,2.8s0,4.8,0,7.2c0,1.1-.4,1.7-1.6,1.7-3.4-.2-6.8-.3-10.2-.4-2.3,0-4.5-.1-6.8-.1-1.7,0-2,0-2.1-1.9-.2-2.5-.4-5-.4-7.5,0-4.8,0-9.7,0-14.5h0Z"/>
    <path class="st0" d="M755.8,9.1c1.9,0,3.7,0,5.6,0,2.5,0,4.7,1.6,5.4,4.1,1.7,5.6,3.3,11.2,4.7,16.9,1.6,6.3,3.1,12.6,4.6,18.9.2.9.5,1.9.5,2.9,0,1.6-1,2.5-2.6,2.6-2.4,0-4.9.2-7.3.2-.6,0-1.2,0-1.7,0-1.1-.2-1.9-.8-2.1-2-.4-2.1-.9-4.1-1.3-6.2-.5-2.2-1.2-2.8-3.5-2.9-2.3,0-4.5,0-6.8,0-1.5,0-1.8.3-2.2,1.7-.5,2-.9,4.1-1.5,6.1-.7,2.6-1.4,2.9-4,2.8-2.1-.1-4.2-.3-6.3-.2-3.4.1-3.9-1.3-3.4-4,.6-3.1,1.2-6.2,2-9.3,2.3-9.3,4.6-18.6,6.9-27.9.6-2.5,1.3-3.1,3.8-3.3,3.1-.3,6.2-.4,9.2-.6v.2s0,0,0,0ZM754.3,33.4h0c.6,0,1.1,0,1.7,0,2.3,0,2.9-.7,2.4-3-.4-2.3-.9-4.6-1.4-6.9-.4-1.8-.9-2.3-2.3-2.4-1.5,0-2.7.7-3.1,2.2-.6,2.3-1.2,4.7-1.6,7.1-.4,2.5,0,2.8,2.5,2.9.6,0,1.1,0,1.7,0h0Z"/>
    <path class="st0" d="M785.3,33.1c0-2.7-.1-5.3-.2-8,0-1.1-.1-2.2.4-3.3.5-1,0-1.7-1.1-1.9-1.1,0-2.3,0-3.4.2-1.8.3-3.6.9-5.4,1.3-1.7.3-2,0-2-1.7,0-.9,0-1.8.2-2.7.7-2.4,1-4.7.9-7.2,0-1,.6-1.5,1.5-1.6,1.5-.1,3.1-.3,4.6-.2,2.4.2,4.8.3,7.3,0,6.3-.9,12.7-1.4,19.2-.7,2,.2,2.8.7,3.2,2.7.5,2.8.7,5.6,0,8.5-.3,1.5-1,2-2.6,1.9-2.3-.1-4.7-.3-7-.6-1.9-.2-2.2.2-2.1,2,.2,3.3.2,6.6.2,10,0,6,0,12,0,18,0,.6,0,1.3,0,1.9-.3,2.4-1,2.9-3.4,2.7-2.5-.2-5-.4-7.5-.5-1.8,0-2,0-2.2-1.8-.2-1.7-.2-3.4-.3-5.1,0-1,0-1.9,0-2.9h0c0-3.6,0-7.3,0-10.9Z"/>
    <path class="st0" d="M814.4,34.4c0-4.5-.1-9.1,0-13.6.1-3.1.6-6.3,1.2-9.4.5-2.7,2-3.5,4.6-2.8,2.5.7,5,.2,7.5,0,3.7-.2,7.4-.3,11.2-.4,1.6,0,2.1.5,2.1,2,0,2.9.1,5.8,0,8.8,0,1.9-.8,2.6-2.7,2.7-1.5,0-2.9,0-4.4,0-1,0-2.1.2-3.1.6-1.1.3-1.4,1.2-1.2,2.3.2,1.1.9,1.2,1.8,1.2.8,0,1.6,0,2.4,0,1.9,0,3,.9,3,2.7,0,2.1-.2,4.2-.3,6.3,0,1-.7,1.4-1.6,1.5-1.1,0-2.3,0-3.4,0-2.5.1-3.1.8-3.1,3.3,0,3.6,0,7.1-.1,10.7,0,2.6-.4,2.9-3,3-2.6,0-5.2,0-7.8.1-1.4,0-2.3-.7-2.8-1.9-.3-.8-.4-1.6-.4-2.4,0-3.7,0-7.5.1-11.2,0-1.2,0-2.4,0-3.6h0Z"/>
    <path class="st0" d="M850.7,48.8c-7.9-9.2-9.4-19.4-4-30.1,5.8-11.6,18.5-14.9,28.8-10.8,7.6,3.1,12.4,8.5,14.9,16.1,2.4,7.2,1.9,14.1-1.7,20.7-4.3,7.9-11.1,11.9-18.5,12.2-9,0-14.9-2.7-19.5-8ZM859.3,37.2c3.4,6.2,11.8,7.4,16.5,2.2,4.5-5,4.7-11.7.3-17-1.5-1.8-3.4-2.9-5.8-3.2-1.5-.2-3.3-.5-4.6,0-5.2,2.2-8,6.1-8,11.7,0,2.2.6,4.5,1.6,6.4Z"/>
    <path class="st0" d="M896.7,45c0-11.2-.2-22.4-.3-33.5,0-2,.6-2.8,2.4-3.2,2.9-.6,5.8-.8,8.7-.5,2,.2,4,0,6.1-.1,4-.2,7.9-.6,11.9.2,3,.6,5.3,2.3,6.6,5.1,2.5,5.2,2.5,10.7.9,16.2-.6,2.1-1.8,3.8-3.6,5-1.9,1.3-1.8,1.4-.8,3.5,2.2,4.6,4.4,9.3,6.6,14,.2.5.5,1.1.6,1.7.1,1-.4,1.7-1.4,1.7-3.5,0-7,0-10.4,0-1,0-1.7-.5-2.1-1.4-1.5-3.5-3.1-7-4.6-10.4-.5-1.2-.9-2.4-1.5-3.5-.4-.7-1.1-1.2-1.8-1.5-1.3-.4-2.3.3-2.4,1.7-.1,2-.2,3.9-.2,5.9,0,1.8,0,3.6,0,5.4-.1,2.4-.9,3.2-3.2,3.3-2.9,0-5.8,0-8.8,0-1.8,0-2.4-.7-2.4-2.7,0-2.2,0-4.4,0-6.7,0,0-.1,0-.2,0ZM915.3,18.3v.2c-.9,0-1.8,0-2.7,0-.5,0-1,.1-1.3.4-1.6,1.4-.7,7.1,1.2,7.9.1,0,.3.1.5.1,1.7,0,3.4.3,5.1,0,2.7-.4,4.4-1.9,3.8-5.6-.2-1.5-.8-2.4-2.2-2.6-1.4-.2-2.9-.4-4.3-.6Z"/>
    <path class="st0" d="M990.3,53.9c-1.8-.1-3.6-.3-5.3-.4-2.3-.2-2.3-.2-2.7-2.4-.8-4.2-1.5-8.5-2.2-12.7-.4-2.4-.7-4.9-1-7.3,0-.3,0-.5,0-.8-.1-.7-.3-1.5-1.1-1.4-.4,0-.8.8-.9,1.3-.2,3.4-1.8,6.3-3.1,9.3-.7,1.6-1.6,2.4-3.4,2.3-1.9-.1-3.7,0-5.6.1-1.7.1-2.8-.6-3.4-2.3-1.1-3-2.3-6-3.4-9-.2-.5-.2-1-.5-1.4-.3-.4-.7-.8-1.1-1.1-.2.4-.6.8-.6,1.2.2,3.9-.8,7.6-1.5,11.3s-1.5,7.4-2.4,11.1c-.6,2.2-.7,2.2-2.8,2.2-3.2,0-6.5,0-9.7,0-1.1,0-1.5-.6-1.4-1.5.1-1.9.3-3.9.6-5.8,1.2-7.5,2.5-15,3.7-22.5.8-4.5,1.7-9,2.4-13.5.2-1.5,1-2,2.1-2.3.5-.1,1-.2,1.4-.3,3.3-.1,6.6-.2,10-.4,1.4,0,2.1.6,2.6,1.8.9,2.6,1.8,5.2,2.7,7.9.9,2.8,1.7,5.6,2.5,8.5.3,1,.5,2.3,1.6,2.1.6,0,1.3-1.2,1.5-2,1.5-4.5,3-9,4.4-13.4.3-1,.7-2.1,1-3.1.5-1.5,1.5-2.2,2.9-2.2.9,0,1.8.2,2.7.2,1.2,0,2.4,0,3.6.2,1.3.1,2.6.3,3.8.7.6.2,1.1,1.1,1.2,1.7.6,3.1,1.1,6.1,1.6,9.2.2,1.2.4,2.3.6,3.5,1.7,8.6,3.4,17.2,5.2,25.8.1.7.3,1.5.4,2.3.3,2.1-.5,3.2-2.6,3.2-1.3,0-2.6-.2-3.9-.3h0c0,.1,0,.1,0,.1Z"/>
    <path class="st0" d="M71.5,112.7c0,1.4,0,2.8,0,4.1,0,2.9-.3,3.3-3.3,3.5-4.2.3-8.3-.3-12.2-1.7-8.2-2.9-14.1-11.2-14.4-19.9-.3-10.1,3.9-17.9,12.1-23.5,1.3-.9,3-1.2,4.5-1.8,3.7-1.6,7.7-1.2,11.5-1.2,1.4,0,1.9.5,1.9,2,0,3,0,6,0,9,0,1.6-.4,2-2,2.2-.9.1-1.8.2-2.7.2-6.4.3-11.4,7.1-9.9,13.3.8,3.3,3.1,5.1,6.1,6.1,1.7.6,3.7.6,5.5.8.5,0,1,0,1.5,0,1.1,0,1.6.5,1.6,1.7,0,1.7,0,3.4,0,5.1h0Z"/>
    <path class="st0" d="M77,110.1c0-11.2-.2-22.4-.3-33.5,0-2,.6-2.8,2.4-3.2,2.9-.6,5.8-.8,8.7-.5,2,.2,4,0,6.1-.1,4-.2,7.9-.6,11.9.2,3,.6,5.3,2.3,6.6,5.1,2.5,5.2,2.5,10.7.9,16.2-.6,2.1-1.8,3.8-3.6,5-1.9,1.3-1.8,1.4-.8,3.5,2.2,4.6,4.4,9.3,6.6,14,.2.5.5,1.1.6,1.7.1,1-.4,1.7-1.4,1.7-3.5,0-7,0-10.4,0-1,0-1.7-.5-2.1-1.4-1.5-3.5-3.1-7-4.6-10.4-.5-1.2-.9-2.4-1.5-3.5-.4-.7-1.1-1.2-1.8-1.5-1.3-.4-2.3.3-2.4,1.7-.1,2-.2,3.9-.2,5.9,0,1.8,0,3.6,0,5.4-.1,2.4-.9,3.2-3.2,3.3-2.9,0-5.8,0-8.8,0-1.8,0-2.4-.7-2.4-2.7,0-2.2,0-4.4,0-6.7,0,0-.1,0-.2,0ZM95.6,83.5v.2c-.9,0-1.8,0-2.7,0-.5,0-1,.1-1.3.4-1.6,1.4-.7,7.1,1.2,7.9.1,0,.3.1.5.1,1.7,0,3.4.3,5.1,0,2.7-.4,4.4-1.9,3.8-5.6-.2-1.5-.8-2.4-2.2-2.6-1.4-.2-2.9-.4-4.3-.6Z"/>
    <path class="st0" d="M120.9,85.3c.1-2.3,0-4.7.2-7,0-1,.5-2,1-2.9.4-.8,1.2-1.2,2.3-1.1,3.6.3,7.1,0,10.7-.4,3-.3,6-.2,9-.1,1.8,0,2.2.5,2.2,2.4,0,2.8,0,5.5,0,8.3,0,1.9-.8,2.7-2.6,2.8-1.4,0-2.8,0-4.1,0-1,0-2.1.2-3.1.5-1,.3-1.7,1.4-1.6,2.2,0,.9.9,1.4,2.2,1.5.7,0,1.5-.1,2.2,0,1.7,0,2.7.8,2.8,2.4,0,2.2,0,4.4-.1,6.6,0,.9-.7,1.4-1.6,1.5-.8,0-1.6,0-2.4,0-.6,0-1.3,0-1.9,0-1,.2-1.8,1.1-1.8,2,0,1,.7,1.5,1.6,1.6,1.6.2,3.2.3,4.8.4,1.3,0,2.6,0,3.9,0,1,0,1.5.5,1.5,1.5,0,3.3,0,6.7,0,10,0,1.1-.6,1.7-1.6,1.7-2.1,0-4.2.2-6.3.1-4.5,0-9.1-.2-13.6-.2-2.9,0-4.1-.7-4.1-3.7-.1-3.9,0-7.8,0-11.7h-.2c.3-6.1.6-12.2.9-18.2Z"/>
    <path class="st0" d="M171.5,74.3c1.9,0,3.7,0,5.6,0,2.5,0,4.7,1.6,5.4,4.1,1.7,5.6,3.3,11.2,4.7,16.9,1.6,6.3,3.1,12.6,4.6,18.9.2.9.5,1.9.5,2.9,0,1.6-1,2.5-2.6,2.6-2.4,0-4.9.2-7.3.2-.6,0-1.2,0-1.7,0-1.1-.2-1.9-.8-2.1-2-.4-2.1-.9-4.1-1.3-6.2-.5-2.2-1.2-2.8-3.5-2.9-2.3,0-4.5,0-6.8,0-1.5,0-1.8.3-2.2,1.7-.5,2-.9,4.1-1.5,6.1-.7,2.6-1.4,2.9-4,2.8-2.1-.1-4.2-.3-6.3-.2-3.4.1-3.9-1.3-3.4-4,.6-3.1,1.2-6.2,2-9.3,2.3-9.3,4.6-18.6,6.9-27.9.6-2.5,1.3-3.1,3.8-3.3,3.1-.3,6.2-.4,9.2-.6v.2s0,0,0,0ZM170.1,98.6h0c.6,0,1.1,0,1.7,0,2.3,0,2.9-.7,2.4-3-.4-2.3-.9-4.6-1.4-6.9-.4-1.8-.9-2.3-2.3-2.4-1.5,0-2.7.7-3.1,2.2-.6,2.3-1.2,4.7-1.6,7.1-.4,2.5,0,2.8,2.5,2.9.6,0,1.1,0,1.7,0h0Z"/>
    <path class="st0" d="M201.1,98.3c0-2.7-.1-5.3-.2-8,0-1.1-.1-2.2.4-3.3.5-1,0-1.7-1.1-1.9-1.1,0-2.3,0-3.4.2-1.8.3-3.6.9-5.4,1.3-1.7.3-2,0-2-1.7,0-.9,0-1.8.2-2.7.7-2.4,1-4.7.9-7.2,0-1,.6-1.5,1.5-1.6,1.5-.1,3.1-.3,4.6-.2,2.4.2,4.8.3,7.2,0,6.3-.9,12.7-1.4,19.2-.7,2,.2,2.8.7,3.2,2.7.5,2.8.7,5.6,0,8.5-.3,1.5-1,2-2.6,1.9-2.3-.1-4.7-.3-7-.6-1.9-.2-2.2.2-2.1,2,.2,3.3.2,6.6.2,10,0,6,0,12,0,18,0,.6,0,1.3,0,1.9-.3,2.4-1,2.9-3.4,2.7-2.5-.2-5-.4-7.5-.5-1.8,0-2,0-2.2-1.8-.2-1.7-.2-3.4-.3-5.1,0-1,0-1.9,0-2.9h0c0-3.6,0-7.3,0-10.9Z"/>
    <path class="st0" d="M230.7,85.3c.1-2.3,0-4.7.2-7,0-1,.5-2,1-2.9.4-.8,1.2-1.2,2.3-1.1,3.6.3,7.1,0,10.7-.4,3-.3,6-.2,9-.1,1.8,0,2.2.5,2.2,2.4,0,2.8,0,5.5,0,8.3,0,1.9-.8,2.7-2.6,2.8-1.4,0-2.8,0-4.1,0-1,0-2.1.2-3.1.5-1,.3-1.7,1.4-1.6,2.2,0,.9.9,1.4,2.2,1.5.7,0,1.5-.1,2.2,0,1.7,0,2.7.8,2.8,2.4,0,2.2,0,4.4-.1,6.6,0,.9-.7,1.4-1.6,1.5-.8,0-1.6,0-2.4,0-.6,0-1.3,0-1.9,0-1,.2-1.8,1.1-1.8,2,0,1,.7,1.5,1.6,1.6,1.6.2,3.2.3,4.8.4,1.3,0,2.6,0,3.9,0,1,0,1.5.5,1.5,1.5,0,3.3,0,6.7,0,10,0,1.1-.6,1.7-1.6,1.7-2.1,0-4.2.2-6.3.1-4.5,0-9.1-.2-13.6-.2-2.9,0-4.1-.7-4.1-3.7-.1-3.9,0-7.8,0-11.7h-.2c.3-6.1.6-12.2.9-18.2Z"/>
    <path class="st0" d="M261.3,97.6c.3-5.6.6-12.7,1-19.7,0-.6,0-1.3.2-1.9,0-.9.4-1.4,1.5-1.5,2.5-.2,5-.8,7.4-.9,3.6-.2,7.3,0,11-.1,4.8-.2,8.2,2,10.7,5.9,2.6,4.1,3.9,8.7,4.3,13.5.4,4.8.1,9.5-1.5,14.2-1,2.9-2.2,5.8-4.4,8.1-2.4,2.5-5.1,4.2-8.7,4.1-5.8-.2-11.5-.3-17.3-.5-.2,0-.3,0-.5,0-4.5-.7-3.7-.7-3.8-4,0-5.2,0-10.4,0-17h0ZM274.4,98.3c0,2.1-.2,4.2-.3,6.3,0,.6,0,1.3.2,1.9,0,1,.8,1.6,1.7,1.9,2,.7,5.3-.6,6.3-2.5,3.2-6.2,3.2-12.4.5-18.7-.9-2.2-2.6-3.2-5-3.2-2.1,0-2.6.4-2.8,2.4-.3,4-.5,7.9-.8,11.9h.2Z"/>
    <path class="st0" d="M334.6,98.3c0-2.7-.1-5.3-.2-8,0-1.1-.1-2.2.4-3.3.5-1,0-1.7-1.1-1.9-1.1,0-2.3,0-3.4.2-1.8.3-3.6.9-5.4,1.3-1.7.3-2,0-2-1.7,0-.9,0-1.8.2-2.7.7-2.4,1-4.7.9-7.2,0-1,.6-1.5,1.5-1.6,1.5-.1,3.1-.3,4.6-.2,2.4.2,4.8.3,7.2,0,6.3-.9,12.7-1.4,19.2-.7,2,.2,2.8.7,3.2,2.7.5,2.8.7,5.6,0,8.5-.3,1.5-1,2-2.6,1.9-2.3-.1-4.7-.3-7-.6-1.9-.2-2.2.2-2.1,2,.2,3.3.2,6.6.2,10,0,6,0,12,0,18,0,.6,0,1.3,0,1.9-.3,2.4-1,2.9-3.4,2.7-2.5-.2-5-.4-7.5-.5-1.8,0-2,0-2.2-1.8-.2-1.7-.2-3.4-.3-5.1,0-1,0-1.9,0-2.9h0c0-3.6,0-7.3,0-10.9Z"/>
    <path class="st0" d="M387.9,122c-9,0-14.9-2.7-19.5-8-7.9-9.2-9.4-19.4-4-30.1,5.8-11.6,18.5-14.9,28.8-10.8,7.6,3.1,12.4,8.5,14.9,16.1,2.4,7.2,1.9,14.1-1.7,20.7-4.3,7.9-11.1,11.9-18.5,12.2h0ZM377,102.4c3.4,6.2,11.8,7.4,16.5,2.2,4.5-5,4.7-11.7.3-17-1.5-1.8-3.4-2.9-5.8-3.2-1.5-.2-3.3-.5-4.6,0-5.2,2.2-8,6.1-8,11.7,0,2.2.6,4.5,1.6,6.4Z"/>
    <path class="st0" d="M444.7,119.3c-1.5,0-3.1,0-4.6,0-1.5,0-2-.6-2.2-2.2,0-.3,0-.7,0-1-.1-9.1-.3-18.3-.4-27.4,0-4,0-7.9-.1-11.9,0-1.9.6-2.8,2.4-3.1,3-.6,5.9-.8,8.9-.5,1.9.2,3.9,0,5.8-.1,3.6-.2,7.1-.6,10.7.2,2.4.6,4.3,1.8,5.4,4,2.9,5.8,3.5,11.8.9,17.8-.9,2.1-2.6,3.7-4.8,4.5-3.1,1-6.2,2.2-9.4,2.4-.6,0-1.1.1-1.7.3-2.6.6-3,1.3-3.1,4-.1,3.2-.2,6.4-.3,9.6-.1,2.9-.7,3.5-3.5,3.6-.6,0-1.3,0-2,0-.6,0-1.3,0-1.9,0h0ZM455.5,82.6h0c-.6,0-1.1,0-1.7,0-1.7.1-2.2.5-2.3,2.3,0,1.2,0,2.5.1,3.8.2,1.7,1.2,2.7,2.8,2.9,2.2.3,4.1-.5,6-1.6.4-.3.8-.9.9-1.4.8-3.3-1.1-5.8-4.4-6-.5,0-1,0-1.5,0h0Z"/>
    <path class="st0" d="M502.7,93.4c0-3.7-.1-7.3-.3-11-.1-2.3-.5-4.6-.7-6.9-.2-1.7,0-2.1,1.7-2.2,2.9-.3,5.7-.9,8.7-.2,1,.2,2.1,0,3.1-.2.7-.1,1.3,0,1.2.8-.4,4.4,1.1,8.7.8,13.1-.4,6.3-.3,12.6-.8,18.9-.3,3-1.6,6-2.6,8.9-.2.6-.7,1-1.2,1.5-.6.6-1.4,1.1-1.9,1.8-1.6,2.3-4,3.1-6.7,3.4-4.9.4-9.9.9-14.6-1.2-2.8-1.2-5.7-2.2-7.7-4.8-2-2.6-3.2-5.3-3.4-8.5-.3-4.1-.7-8.1-.9-12.2-.1-2.8,0-5.6,0-8.4-.2-3.4-.5-6.8-.8-10.2,0-.5-.1-1-.1-1.4,0-1.5,0-1.7,1.6-1.7,3.8,0,7.6,0,11.4,0,1.6,0,1.8.2,1.9,1.8.3,6.1.6,12.1.9,18.2.1,3.4.2,6.9.3,10.3,0,.9.2,1.9.5,2.8,1,3.6,4.5,5,7.8,3.1,1.6-.9,2.5-2.1,2.4-4.1-.2-2.9,0-5.7,0-8.6,0-1,0-1.9-.1-2.9,0,0,0,0,0,0h0Z"/>
    <path class="st0" d="M531.6,98.3c0-2.7-.1-5.3-.2-8,0-1.1-.1-2.2.4-3.3.5-1,0-1.7-1.1-1.9-1.1,0-2.3,0-3.4.2-1.8.3-3.6.9-5.4,1.3-1.7.3-2,0-2-1.7,0-.9,0-1.8.2-2.7.7-2.4,1-4.7.9-7.2,0-1,.6-1.5,1.5-1.6,1.5-.1,3.1-.3,4.6-.2,2.4.2,4.8.3,7.2,0,6.3-.9,12.7-1.4,19.2-.7,2,.2,2.8.7,3.2,2.7.5,2.8.7,5.6,0,8.5-.3,1.5-1,2-2.6,1.9-2.3-.1-4.7-.3-7-.6-1.9-.2-2.2.2-2.1,2,.2,3.3.2,6.6.2,10,0,6,0,12,0,18,0,.6,0,1.3,0,1.9-.3,2.4-1,2.9-3.4,2.7-2.5-.2-5-.4-7.5-.5-1.8,0-2,0-2.2-1.8-.2-1.7-.2-3.4-.3-5.1,0-1,0-1.9,0-2.9h0c0-3.6,0-7.3,0-10.9Z"/>
    <path class="st0" d="M603.7,74.3c1.9,0,3.7,0,5.6,0,2.5,0,4.7,1.6,5.4,4.1,1.7,5.6,3.3,11.2,4.7,16.9,1.6,6.3,3.1,12.6,4.5,18.9.2.9.5,1.9.5,2.9,0,1.6-1,2.5-2.6,2.6-2.4,0-4.9.2-7.3.2-.6,0-1.2,0-1.7,0-1.1-.2-1.9-.8-2.1-2-.4-2.1-.9-4.1-1.3-6.2-.5-2.2-1.2-2.8-3.5-2.9-2.3,0-4.5,0-6.8,0-1.5,0-1.8.3-2.2,1.7-.5,2-.9,4.1-1.5,6.1-.7,2.6-1.4,2.9-4,2.8-2.1-.1-4.2-.3-6.3-.2-3.4.1-3.9-1.3-3.4-4,.6-3.1,1.2-6.2,2-9.3,2.3-9.3,4.6-18.6,6.9-27.9.6-2.5,1.3-3.1,3.8-3.3,3.1-.3,6.2-.4,9.2-.6v.2s0,0,0,0ZM602.3,98.6h0c.6,0,1.1,0,1.7,0,2.3,0,2.9-.7,2.4-3-.4-2.3-.9-4.6-1.4-6.9-.4-1.8-.9-2.3-2.3-2.4-1.5,0-2.7.7-3.1,2.2-.6,2.3-1.2,4.7-1.6,7.1-.4,2.5,0,2.8,2.5,2.9.6,0,1.1,0,1.7,0h0Z"/>
    <path class="st0" d="M628.6,110.1c0-11.2-.2-22.4-.3-33.5,0-2,.6-2.8,2.4-3.2,2.9-.6,5.8-.8,8.7-.5,2,.2,4,0,6.1-.1,4-.2,7.9-.6,11.9.2,3,.6,5.3,2.3,6.6,5.1,2.5,5.2,2.5,10.7.9,16.2-.6,2.1-1.8,3.8-3.6,5-1.9,1.3-1.8,1.4-.8,3.5,2.2,4.6,4.4,9.3,6.6,14,.2.5.5,1.1.6,1.7.1,1-.4,1.7-1.4,1.7-3.5,0-7,0-10.5,0-1,0-1.7-.5-2.1-1.4-1.5-3.5-3.1-7-4.6-10.4-.5-1.2-.9-2.4-1.5-3.5-.4-.7-1.1-1.2-1.8-1.5-1.3-.4-2.3.3-2.4,1.7-.1,2-.2,3.9-.2,5.9,0,1.8,0,3.6,0,5.4-.1,2.4-.9,3.2-3.2,3.3-2.9,0-5.8,0-8.8,0-1.8,0-2.4-.7-2.4-2.7,0-2.2,0-4.4,0-6.7,0,0-.1,0-.2,0ZM647.2,83.5v.2c-.9,0-1.8,0-2.7,0-.5,0-1,.1-1.3.4-1.6,1.4-.7,7.1,1.2,7.9.1,0,.3.1.5.1,1.7,0,3.4.3,5.1,0,2.7-.4,4.4-1.9,3.8-5.6-.2-1.5-.8-2.4-2.2-2.6-1.4-.2-2.9-.4-4.3-.6Z"/>
    <path class="st0" d="M680.9,98.3c0-2.7-.1-5.3-.2-8,0-1.1-.1-2.2.4-3.3.5-1,0-1.7-1.1-1.9-1.1,0-2.3,0-3.4.2-1.8.3-3.6.9-5.4,1.3-1.7.3-2,0-2-1.7,0-.9,0-1.8.2-2.7.7-2.4,1-4.7.9-7.2,0-1,.6-1.5,1.5-1.6,1.5-.1,3.1-.3,4.6-.2,2.4.2,4.8.3,7.2,0,6.3-.9,12.7-1.4,19.2-.7,2,.2,2.8.7,3.2,2.7.5,2.8.7,5.6,0,8.5-.3,1.5-1,2-2.6,1.9-2.3-.1-4.7-.3-7-.6-1.9-.2-2.2.2-2.1,2,.2,3.3.2,6.6.2,10,0,6,0,12,0,18,0,.6,0,1.3,0,1.9-.3,2.4-1,2.9-3.4,2.7-2.5-.2-5-.4-7.5-.5-1.8,0-2,0-2.2-1.8-.2-1.7-.2-3.4-.3-5.1,0-1,0-1.9,0-2.9h0c0-3.6,0-7.3,0-10.9Z"/>
    <path class="st0" d="M723.9,96.5c0,4.8,0,9.6,0,14.3,0,2.2-.2,4.4-.3,6.6-.1,1.7-.5,2.1-2.3,2.1-3.1,0-6.3-.2-9.4-.4-.4,0-1-.6-1.1-1-.3-1.3-.5-2.6-.5-3.8,0-8.9-.1-17.8-.2-26.8,0-2.6-.1-5.2,0-7.8,0-1.4.3-2.7.7-4,.3-1,1-1.7,2.1-1.7,2.2-.2,4.3-.3,6.5-.5.5,0,1,0,1.5,0,2.2.1,2.8.7,2.8,3,0,6.7,0,13.5,0,20.2h.3Z"/>
    <path class="st0" d="M748,121.6c-6.5,0-11.4-1.2-15.4-4.5-1.4-1.1-2.4-2.7-3.5-4.1-.8-1-.6-2,.5-2.7,2.1-1.5,4.2-2.9,6.4-4.3.8-.5,1.4-.4,2.1.3,1.3,1.1,2.6,2.1,4,3.1,1.9,1.4,4.2,1.4,6.6,1.3,3-.1,4.4-2.7,3.6-4.7-.4-1.1-1.3-2.1-2.2-2.9-3.4-3-7.6-4.9-11.7-7-3.7-1.9-6.4-4.6-8.6-7.6-1.4-1.9-1.4-4.3-1-6.5.8-4.5,3.8-7.8,8.4-9.8,3.7-1.6,7.6-2.1,11.7-1.5,1.9.3,3.9.6,5.7,1.2,1.7.5,3.3,1.2,4.7,2.1,3.6,2.2,3.6,3.1.6,5.8-1.6,1.4-3.1,2.8-4.7,4.3-1.4,1.2-2.4,1.2-4,.3-1-.6-2-1.3-3.2-1.7-1.5-.5-3.1.2-3.9,1.3-.7,1.1-.6,2.3.9,3.3,2.7,1.9,5.6,3.6,8.5,5.3,3.3,2,6.7,3.9,9.3,6.7,3.7,3.9,4.6,8.3,3.1,13.1-.5,1.5-1.8,2.9-3,4.1-2.5,2.4-5.7,3.8-9.3,4.4-2.3.3-4.6.5-5.7.6h0Z"/>
    <path class="st0" d="M777.2,98.3c0-2.7-.1-5.3-.2-8,0-1.1-.1-2.2.4-3.3.5-1,0-1.7-1.1-1.9-1.1,0-2.3,0-3.4.2-1.8.3-3.6.9-5.4,1.3-1.7.3-2,0-2-1.7,0-.9,0-1.8.2-2.7.7-2.4,1-4.7.9-7.2,0-1,.6-1.5,1.5-1.6,1.5-.1,3.1-.3,4.6-.2,2.4.2,4.8.3,7.3,0,6.3-.9,12.7-1.4,19.2-.7,2,.2,2.8.7,3.2,2.7.5,2.8.7,5.6,0,8.5-.3,1.5-1,2-2.6,1.9-2.3-.1-4.7-.3-7-.6-1.9-.2-2.2.2-2.1,2,.2,3.3.2,6.6.2,10,0,6,0,12,0,18,0,.6,0,1.3,0,1.9-.3,2.4-1,2.9-3.4,2.7-2.5-.2-5-.4-7.5-.5-1.8,0-2,0-2.2-1.8-.2-1.7-.2-3.4-.3-5.1,0-1,0-1.9,0-2.9h0c0-3.6,0-7.3,0-10.9Z"/>
    <path class="st0" d="M824.1,121.6c-6.5,0-11.4-1.2-15.4-4.5-1.4-1.1-2.4-2.7-3.5-4.1-.8-1-.6-2,.5-2.7,2.1-1.5,4.2-2.9,6.4-4.3.8-.5,1.4-.4,2.1.3,1.3,1.1,2.6,2.1,4,3.1,1.9,1.4,4.2,1.4,6.6,1.3,3-.1,4.4-2.7,3.6-4.7-.4-1.1-1.3-2.1-2.2-2.9-3.4-3-7.6-4.9-11.7-7-3.7-1.9-6.4-4.6-8.6-7.6-1.4-1.9-1.4-4.3-1-6.5.8-4.5,3.8-7.8,8.4-9.8,3.7-1.6,7.6-2.1,11.7-1.5,1.9.3,3.9.6,5.7,1.2,1.7.5,3.3,1.2,4.7,2.1,3.6,2.2,3.6,3.1.6,5.8-1.6,1.4-3.1,2.8-4.7,4.3-1.4,1.2-2.4,1.2-4,.3-1-.6-2-1.3-3.2-1.7-1.5-.5-3.1.2-3.9,1.3-.7,1.1-.6,2.3.9,3.3,2.7,1.9,5.6,3.6,8.5,5.3,3.3,2,6.7,3.9,9.3,6.7,3.7,3.9,4.6,8.3,3.1,13.1-.5,1.5-1.8,2.9-3,4.1-2.5,2.4-5.7,3.8-9.3,4.4-2.3.3-4.6.5-5.7.6h0Z"/>
    <path class="st0" d="M886.7,119c-4.5,0-8.9,0-13.4,0-2,0-2.2-.1-2.6-2.1-.1-.6-.3-1.3-.3-1.9-.5-8.8-.8-17.5-.3-26.3.2-3.7.1-7.5.1-11.2,0-2.6,0-2.7,2.5-3.1,5.9-.9,11.8-1.2,17.7-1.1,2.3,0,4.5.2,6.8.5,3,.4,5.5,1.8,7.4,4.2,2,2.5,2,5.4,1.9,8.3-.1,2.6-1.1,4.9-2.8,6.9-.8.9-.6,1.3.4,1.8,3.9,1.9,5.9,5.2,6.7,9.3,1.3,6.4-3.5,14.2-11.3,14.3-4.3,0-8.6.2-12.9.4,0,0,0,0,0,0h0ZM888.2,82.3c-.9,0-1.8,0-2.7,0-1.4,0-2.1.8-2.5,1.9-.6,1.6-.4,3.2.3,4.7.2.5,1,.9,1.5.9,2.2,0,4.4,0,6.5-.5,3.2-.7,4-3.4,1.8-5.9-.5-.6-1.5-1-2.3-1.2-.8-.2-1.8,0-2.7,0h0ZM884,106.6c.2,1.6.8,2.1,2.5,2,1.6,0,3.2-.3,4.8-.5,3.4-.3,5.1-3.2,3.3-6.2-1.3-2.1-3-3.9-6.7-3.2-4.2.7-4.2.6-4.1,5.3,0,.5,0,1.6.2,2.6Z"/>
    <path class="st0" d="M935.2,74.3c1.9,0,3.7,0,5.6,0,2.5,0,4.7,1.6,5.4,4.1,1.7,5.6,3.3,11.2,4.7,16.9,1.6,6.3,3.1,12.6,4.6,18.9.2.9.5,1.9.5,2.9,0,1.6-1,2.5-2.6,2.6-2.4,0-4.9.2-7.3.2-.6,0-1.2,0-1.7,0-1.1-.2-1.9-.8-2.1-2-.4-2.1-.9-4.1-1.3-6.2-.5-2.2-1.2-2.8-3.5-2.9-2.3,0-4.5,0-6.8,0-1.5,0-1.8.3-2.2,1.7-.5,2-.9,4.1-1.5,6.1-.7,2.6-1.3,2.9-4,2.8-2.1-.1-4.2-.3-6.3-.2-3.4.1-3.9-1.3-3.3-4,.6-3.1,1.2-6.2,2-9.3,2.3-9.3,4.6-18.6,6.9-27.9.6-2.5,1.3-3.1,3.8-3.3,3.1-.3,6.2-.4,9.2-.6v.2s0,0,0,0ZM933.8,98.7c.6,0,1.1,0,1.7,0,2.3,0,2.9-.7,2.4-3-.4-2.3-.9-4.6-1.4-6.9-.4-1.8-.9-2.3-2.3-2.4-1.5,0-2.7.7-3.1,2.2-.6,2.3-1.2,4.7-1.6,7.1-.4,2.5,0,2.8,2.5,2.9.6,0,1.1,0,1.7,0h0Z"/>
    <path class="st0" d="M987.7,112.7c0,1.4,0,2.8,0,4.1,0,2.9-.3,3.3-3.3,3.5-4.2.3-8.3-.3-12.2-1.7-8.2-2.9-14.1-11.2-14.4-19.9-.3-10.1,3.9-17.9,12.1-23.5,1.3-.9,3-1.2,4.5-1.8,3.7-1.6,7.7-1.2,11.5-1.2,1.4,0,1.9.5,1.9,2,0,3,0,6,0,9,0,1.6-.4,2-2,2.2-.9.1-1.8.2-2.7.2-6.4.3-11.4,7.1-9.9,13.3.8,3.3,3.1,5.1,6.1,6.1,1.7.6,3.7.6,5.5.8.5,0,1,0,1.5,0,1.1,0,1.6.5,1.6,1.7,0,1.7,0,3.4,0,5.1h0Z"/>
    <path class="st0" d="M1026,119.4c-1.6,0-3.3,0-4.9,0-1.5,0-2.5-.7-3.2-2.3-1.8-4.4-3.8-8.6-5.8-13-.2-.4-.3-.8-.5-1.1-1-1.6-2.4-1.7-3.5-.1-.9,1.3-1.5,2.8-1.5,4.4,0,1.6,0,3.2,0,4.8,0,1,0,2-.2,3-.4,3.7-1.3,4.3-4.9,3.9-2.1-.2-4.2-.3-6.3-.5-1.6-.1-1.9-.3-2-1.8-.2-2.2-.3-4.5-.3-6.7,0-4.2.2-8.5.2-12.7,0-6.7,0-13.4,0-20,0-2.7,1-3.8,3.7-3.8,2.4,0,4.9,0,7.3.2,1.9.1,2.4.7,2.4,2.6,0,3.3-.2,6.5-.2,9.8,0,.7,0,1.5.2,2.2,0,.5,0,1.3.7,1.3.5,0,1.1-.3,1.5-.7,1.7-2,3.4-4.1,5-6.1,1.9-2.4,3.9-4.7,5.7-7.2,1.1-1.5,2.5-2,4.2-2,1.9,0,3.9,0,5.8,0,.7,0,1.5.1,2.2.2.7,0,1.6.2,1.7,1.1,0,.7-.3,1.4-.7,2-.7,1-1.6,1.8-2.5,2.7-3,3.2-6,6.4-9,9.5-.4.5-.8,1-1.2,1.6-.7,1.1-.7,2.1,0,3.2,2,3,4,6.1,6,9.1,2.5,4,5.1,8,7.6,12,.2.3.4.7.6,1.1.6,1.5.4,2.3-1.1,2.6-2.3.4-4.6.6-7,.8v-.2s0,0,0,0Z"/>
    <path class="st0" d="M31.1,139.5c1.9,0,3.7,0,5.6,0,2.5,0,4.7,1.6,5.4,4.1,1.7,5.6,3.3,11.2,4.7,16.9,1.6,6.3,3.1,12.6,4.6,18.9.2.9.5,1.9.5,2.9,0,1.6-1,2.5-2.6,2.6-2.4,0-4.9.2-7.3.2-.6,0-1.2,0-1.7,0-1.1-.2-1.9-.8-2.1-2-.4-2.1-.9-4.1-1.3-6.2-.5-2.2-1.2-2.8-3.5-2.9-2.3,0-4.5,0-6.8,0-1.5,0-1.8.3-2.2,1.7-.5,2-.9,4.1-1.5,6.1-.7,2.6-1.4,2.9-4,2.8-2.1-.1-4.2-.3-6.3-.2-3.4.1-3.9-1.3-3.4-4,.6-3.1,1.2-6.2,2-9.3,2.3-9.3,4.6-18.6,6.9-27.9.6-2.5,1.3-3.1,3.8-3.3,3.1-.3,6.2-.4,9.2-.6v.2s0,0,0,0ZM29.7,163.8h0c.6,0,1.1,0,1.7,0,2.3,0,2.9-.7,2.4-3-.4-2.3-.9-4.6-1.4-6.9-.4-1.8-.9-2.3-2.3-2.4-1.5,0-2.7.7-3.1,2.2-.6,2.3-1.2,4.7-1.6,7.1-.4,2.5,0,2.8,2.5,2.9.6,0,1.1,0,1.7,0h0Z"/>
    <path class="st0" d="M60.7,163.4c0-2.7-.1-5.3-.2-8,0-1.1-.1-2.2.4-3.3.5-1,0-1.7-1.1-1.9-1.1,0-2.3,0-3.4.2-1.8.3-3.6.9-5.4,1.3-1.7.3-2,0-2-1.7,0-.9,0-1.8.2-2.7.7-2.4,1-4.7.9-7.2,0-1,.6-1.5,1.5-1.6,1.5-.1,3.1-.3,4.6-.2,2.4.2,4.8.3,7.2,0,6.3-.9,12.7-1.4,19.2-.7,2,.2,2.8.7,3.2,2.7.5,2.8.7,5.6,0,8.5-.3,1.5-1,2-2.6,1.9-2.3-.1-4.7-.3-7-.6-1.9-.2-2.2.2-2.1,2,.2,3.3.2,6.6.2,10,0,6,0,12,0,18,0,.6,0,1.3,0,1.9-.3,2.4-1,2.9-3.4,2.7-2.5-.2-5-.4-7.5-.5-1.8,0-2,0-2.2-1.8-.2-1.7-.2-3.4-.3-5.1,0-1,0-1.9,0-2.9h0c0-3.6,0-7.3,0-10.9Z"/>
    <path class="st0" d="M121.8,163.4c0-2.7-.1-5.3-.2-8,0-1.1-.1-2.2.4-3.3.5-1,0-1.7-1.1-1.9-1.1,0-2.3,0-3.4.2-1.8.3-3.6.9-5.4,1.3-1.7.3-2,0-2-1.7,0-.9,0-1.8.2-2.7.7-2.4,1-4.7.9-7.2,0-1,.6-1.5,1.5-1.6,1.5-.1,3.1-.3,4.6-.2,2.4.2,4.8.3,7.2,0,6.3-.9,12.7-1.4,19.2-.7,2,.2,2.8.7,3.2,2.7.5,2.8.7,5.6,0,8.5-.3,1.5-1,2-2.6,1.9-2.3-.1-4.7-.3-7-.6-1.9-.2-2.2.2-2.1,2,.2,3.3.2,6.6.2,10,0,6,0,12,0,18,0,.6,0,1.3,0,1.9-.3,2.4-1,2.9-3.4,2.7-2.5-.2-5-.4-7.5-.5-1.8,0-2,0-2.2-1.8-.2-1.7-.2-3.4-.3-5.1,0-1,0-1.9,0-2.9h0c0-3.6,0-7.3,0-10.9Z"/>
    <path class="st0" d="M150.9,160.7c0-6.3,0-12.5,0-18.8,0-.5,0-1,0-1.5.2-1,.8-1.8,1.8-1.5,2.9.7,5.8-.2,8.7-.2.3,0,.6,0,1,0,1.8.1,2.5.7,2.6,2.5.2,2.8.3,5.6.4,8.4,0,.8,0,1.7.1,2.5.2,1.5,1,2.1,2.5,2.2,1,0,1.9.1,2.9,0,1.9,0,2.4-.6,2.4-2.6,0-3.1,0-6.3.1-9.4,0-2.8,1-3.6,3.8-3.6,1.9,0,3.7,0,5.6.2.6,0,1.2,0,1.7.3,2.2,1,2.3,1,2.4,3.2.2,7.2.4,14.4.6,21.5,0,2.6.3,5.3.3,7.9,0,3.1-.2,6.3-.3,9.4,0,1.7-.6,2.4-2.2,2.7-1.7.3-3.4.7-5,.7-1.6,0-3.2-.4-4.7-.8-1-.3-1-1.4-1.1-2.3-.2-2.7-.4-5.4-.5-8.2,0-1.6,0-3.1,0-4.7,0-2.1-.6-2.7-2.7-2.5-1.2.1-2.4.3-3.6.6-.5.1-1,.6-1.2,1-.3.8-.5,1.8-.5,2.7,0,2.9.2,5.8.2,8.6,0,1.3-.1,2.6-.4,3.9-.1.8-.7,1.2-1.6,1-2.2-.3-4.5-.6-6.7-.7-1.4,0-2.9,0-4.3.2-1.3.2-1.7,0-1.8-1.3-.2-2.9-.4-5.8-.4-8.6,0-4.4,0-8.8,0-13.1h-.2,0Z"/>
    <path class="st0" d="M194.5,150.4c.1-2.3,0-4.7.2-7,0-1,.5-2,1-2.9.4-.8,1.2-1.2,2.3-1.1,3.6.3,7.1,0,10.7-.4,3-.3,6-.2,9-.1,1.8,0,2.2.5,2.2,2.4,0,2.8,0,5.5,0,8.3,0,1.9-.8,2.7-2.6,2.8-1.4,0-2.8,0-4.1,0-1,0-2.1.2-3.1.5-1,.3-1.7,1.4-1.6,2.2,0,.9.9,1.4,2.2,1.5.7,0,1.5-.1,2.2,0,1.7,0,2.7.8,2.8,2.4,0,2.2,0,4.4-.1,6.6,0,.9-.7,1.4-1.6,1.5-.8,0-1.6,0-2.4,0-.6,0-1.3,0-1.9,0-1,.2-1.8,1.1-1.8,2,0,1,.7,1.5,1.6,1.6,1.6.2,3.2.3,4.8.4,1.3,0,2.6,0,3.9,0,1,0,1.5.5,1.5,1.5,0,3.3,0,6.7,0,10,0,1.1-.6,1.7-1.6,1.7-2.1,0-4.2.2-6.3.1-4.5,0-9.1-.2-13.6-.2-2.9,0-4.1-.7-4.1-3.7-.1-3.9,0-7.8,0-11.7h-.2c.3-6.1.6-12.2.9-18.2Z"/>
    <path class="st0" d="M276.7,177.9c0,1.4,0,2.8,0,4.1,0,2.9-.3,3.3-3.3,3.5-4.2.3-8.3-.3-12.2-1.7-8.2-2.9-14.1-11.2-14.4-19.9-.3-10.1,3.9-17.9,12.1-23.5,1.3-.9,3-1.2,4.5-1.8,3.7-1.6,7.7-1.2,11.5-1.2,1.4,0,1.9.5,1.9,2,0,3,0,6,0,9,0,1.6-.4,2-2,2.2-.9.1-1.8.2-2.7.2-6.4.3-11.4,7.1-9.9,13.3.8,3.3,3.1,5.1,6.1,6.1,1.7.6,3.7.6,5.5.8.5,0,1,0,1.5,0,1.1,0,1.6.5,1.6,1.7,0,1.7,0,3.4,0,5.1h0Z"/>
    <path class="st0" d="M282.4,150.4c.1-2.3,0-4.7.2-7,0-1,.5-2,1-2.9.4-.8,1.2-1.2,2.3-1.1,3.6.3,7.1,0,10.7-.4,3-.3,6-.2,9-.1,1.8,0,2.2.5,2.2,2.4,0,2.8,0,5.5,0,8.3,0,1.9-.8,2.7-2.6,2.8-1.4,0-2.8,0-4.1,0-1,0-2.1.2-3.1.5-1,.3-1.7,1.4-1.6,2.2,0,.9.9,1.4,2.2,1.5.7,0,1.5-.1,2.2,0,1.7,0,2.7.8,2.8,2.4,0,2.2,0,4.4-.1,6.6,0,.9-.7,1.4-1.6,1.5-.8,0-1.6,0-2.4,0-.6,0-1.3,0-1.9,0-1,.2-1.8,1.1-1.8,2,0,1,.7,1.5,1.6,1.6,1.6.2,3.2.3,4.8.4,1.3,0,2.6,0,3.9,0,1,0,1.5.5,1.5,1.5,0,3.3,0,6.7,0,10,0,1.1-.6,1.7-1.6,1.7-2.1,0-4.2.2-6.3.1-4.5,0-9.1-.2-13.6-.2-2.9,0-4.1-.7-4.1-3.7-.1-3.9,0-7.8,0-11.7h-.2c.3-6.1.6-12.2.9-18.2Z"/>
    <path class="st0" d="M353,173.6c0,2.5-.2,5-.4,7.6-.2,2.1-.5,2.5-2.4,2.8-1.8.3-3.6.3-5.3.3-1.6,0-2.8-.9-3.7-2.2-1.7-2.5-3.6-5-5.1-7.7-2-3.6-3.7-7.5-5.6-11.2-.3-.7-.7-1.4-1.1-1.9-.2-.3-.8-.4-1.1-.3-.4.2-.7.6-.9,1-.1.3,0,.8.1,1.2,0,.8.2,1.7.1,2.5-.1,5.1-.3,10.2-.5,15.4,0,2.2-.4,2.8-2.6,3.2-2.2.4-4.5.7-6.8.9-2.4.3-4.7-1.6-4.7-4.5.1-7.4.3-14.8.4-22.2,0-1.1,0-2.2,0-3.3,0-4.2-.2-8.4,0-12.6,0-2.5,1.1-3.7,3.5-4,2.2-.3,4.5-.3,6.8-.2,1.7,0,3.1,1,4,2.5,2.4,3.9,4.8,7.8,7.1,11.8,1.7,2.9,3.4,5.8,5.1,8.6.2.4.9.8,1.1.7.4-.2.9-.8,1-1.2,0-.8,0-1.7-.2-2.5-.7-2.1-.9-4.2-.8-6.5.1-3.6.1-7.3.2-10.9,0-2.3.7-3.3,2.8-3.2,2.5,0,5,.5,7.4,1,1.9.4,2.1.9,2.1,2.8,0,2.9-.2,5.7-.2,8.6,0,2.8,0,5.6,0,8.3h-.3c0,5.1,0,10.1,0,15.2Z"/>
    <path class="st0" d="M368.4,163.4c0-2.7-.1-5.3-.2-8,0-1.1-.1-2.2.4-3.3.5-1,0-1.7-1.1-1.9-1.1,0-2.3,0-3.4.2-1.8.3-3.6.9-5.4,1.3-1.7.3-2,0-2-1.7,0-.9,0-1.8.2-2.7.7-2.4,1-4.7.9-7.2,0-1,.6-1.5,1.5-1.6,1.5-.1,3.1-.3,4.6-.2,2.4.2,4.8.3,7.2,0,6.3-.9,12.7-1.4,19.2-.7,2,.2,2.8.7,3.2,2.7.5,2.8.7,5.6,0,8.5-.3,1.5-1,2-2.6,1.9-2.3-.1-4.7-.3-7-.6-1.9-.2-2.2.2-2.1,2,.2,3.3.2,6.6.2,10,0,6,0,12,0,18,0,.6,0,1.3,0,1.9-.3,2.4-1,2.9-3.4,2.7-2.5-.2-5-.4-7.5-.5-1.8,0-2,0-2.2-1.8-.2-1.7-.2-3.4-.3-5.1,0-1,0-1.9,0-2.9h0c0-3.6,0-7.3,0-10.9Z"/>
    <path class="st0" d="M398,150.4c.1-2.3,0-4.7.2-7,0-1,.5-2,1-2.9.4-.8,1.2-1.2,2.3-1.1,3.6.3,7.1,0,10.7-.4,3-.3,6-.2,9-.1,1.8,0,2.2.5,2.2,2.4,0,2.8,0,5.5,0,8.3,0,1.9-.8,2.7-2.6,2.8-1.4,0-2.8,0-4.1,0-1,0-2.1.2-3.1.5-1,.3-1.7,1.4-1.6,2.2,0,.9.9,1.4,2.2,1.5.7,0,1.5-.1,2.2,0,1.7,0,2.7.8,2.8,2.4,0,2.2,0,4.4-.1,6.6,0,.9-.7,1.4-1.6,1.5-.8,0-1.6,0-2.4,0-.6,0-1.3,0-1.9,0-1,.2-1.8,1.1-1.8,2,0,1,.7,1.5,1.6,1.6,1.6.2,3.2.3,4.8.4,1.3,0,2.6,0,3.9,0,1,0,1.5.5,1.5,1.5,0,3.3,0,6.7,0,10,0,1.1-.6,1.7-1.6,1.7-2.1,0-4.2.2-6.3.1-4.5,0-9.1-.2-13.6-.2-2.9,0-4.1-.7-4.1-3.7-.1-3.9,0-7.8,0-11.7h-.2c.3-6.1.6-12.2.9-18.2Z"/>
    <path class="st0" d="M429.1,175.3c0-11.2-.2-22.4-.3-33.5,0-2,.6-2.8,2.4-3.2,2.9-.6,5.8-.8,8.7-.5,2,.2,4,0,6.1-.1,4-.2,7.9-.6,11.9.2,3,.6,5.3,2.3,6.6,5.1,2.5,5.2,2.5,10.7.9,16.2-.6,2.1-1.8,3.8-3.6,5-1.9,1.3-1.8,1.4-.8,3.5,2.2,4.6,4.4,9.3,6.6,14,.2.5.5,1.1.6,1.7.1,1-.4,1.7-1.4,1.7-3.5,0-7,0-10.4,0-1,0-1.7-.5-2.1-1.4-1.5-3.5-3.1-7-4.6-10.4-.5-1.2-.9-2.4-1.5-3.5-.4-.7-1.1-1.2-1.8-1.5-1.3-.4-2.3.3-2.4,1.7-.1,2-.2,3.9-.2,5.9,0,1.8,0,3.6,0,5.4-.1,2.4-.9,3.2-3.2,3.3-2.9,0-5.8,0-8.8,0-1.8,0-2.4-.7-2.4-2.7,0-2.2,0-4.4,0-6.7,0,0-.1,0-.2,0ZM447.7,148.6v.2c-.9,0-1.8,0-2.7,0-.5,0-1,.1-1.3.4-1.6,1.4-.7,7.1,1.2,7.9.1,0,.3.1.5.1,1.7,0,3.4.3,5.1,0,2.7-.4,4.4-1.9,3.8-5.6-.2-1.5-.8-2.4-2.2-2.6-1.4-.2-2.9-.4-4.3-.6Z"/>
    <path class="st0" d="M520.8,187.2c-9,0-14.9-2.7-19.5-8-7.9-9.2-9.4-19.4-4-30.1,5.8-11.6,18.5-14.9,28.8-10.8,7.6,3.1,12.4,8.5,14.9,16.1,2.4,7.2,1.9,14.1-1.7,20.7-4.3,7.9-11.1,11.9-18.5,12.2h0ZM509.8,167.6c3.4,6.2,11.8,7.4,16.5,2.2,4.5-5,4.7-11.7.3-17-1.5-1.8-3.4-2.9-5.8-3.2-1.5-.2-3.3-.5-4.6,0-5.2,2.2-8,6.1-8,11.7,0,2.2.6,4.5,1.6,6.4Z"/>
    <path class="st0" d="M547,164.8c0-4.5-.1-9.1,0-13.6.1-3.1.6-6.3,1.2-9.4.5-2.7,2-3.5,4.6-2.8,2.5.7,5,.2,7.5,0,3.7-.2,7.4-.3,11.2-.4,1.6,0,2.1.5,2.1,2,0,2.9.1,5.8,0,8.8,0,1.9-.8,2.6-2.7,2.7-1.5,0-2.9,0-4.4,0-1,0-2.1.2-3.1.6-1.1.3-1.4,1.2-1.2,2.3.2,1.1.9,1.2,1.8,1.2.8,0,1.6,0,2.4,0,1.9,0,3,.9,3,2.7,0,2.1-.2,4.2-.3,6.3,0,1-.7,1.4-1.6,1.5-1.1,0-2.3,0-3.4,0-2.5.1-3.1.8-3.1,3.3,0,3.6,0,7.1-.1,10.7,0,2.6-.4,2.9-3,3-2.6,0-5.2,0-7.8.1-1.4,0-2.3-.7-2.8-1.9-.3-.8-.4-1.6-.4-2.4,0-3.7,0-7.5.1-11.2,0-1.2,0-2.4,0-3.6h0Z"/>
    <path class="st0" d="M609.8,163.4c0-2.7-.1-5.3-.2-8,0-1.1-.1-2.2.4-3.3.5-1,0-1.7-1.1-1.9-1.1,0-2.3,0-3.4.2-1.8.3-3.6.9-5.4,1.3-1.7.3-2,0-2-1.7,0-.9,0-1.8.2-2.7.7-2.4,1-4.7.9-7.2,0-1,.6-1.5,1.5-1.6,1.5-.1,3.1-.3,4.6-.2,2.4.2,4.8.3,7.2,0,6.3-.9,12.7-1.4,19.2-.7,2,.2,2.8.7,3.2,2.7.5,2.8.7,5.6,0,8.5-.3,1.5-1,2-2.6,1.9-2.3-.1-4.7-.3-7-.6-1.9-.2-2.2.2-2.1,2,.2,3.3.2,6.6.2,10,0,6,0,12,0,18,0,.6,0,1.3,0,1.9-.3,2.4-1,2.9-3.4,2.7-2.5-.2-5-.4-7.5-.5-1.8,0-2,0-2.2-1.8-.2-1.7-.2-3.4-.3-5.1,0-1,0-1.9,0-2.9h0c0-3.6,0-7.3,0-10.9Z"/>
    <path class="st0" d="M638.9,141.9c0-.5,0-1,0-1.5.2-1,.8-1.8,1.8-1.5,2.9.7,5.8-.2,8.7-.2.3,0,.6,0,1,0,1.8.1,2.5.7,2.6,2.5.2,2.8.3,5.6.4,8.4,0,.8,0,1.7.1,2.5.2,1.5,1,2.1,2.5,2.2,1,0,1.9.1,2.9,0,1.9,0,2.4-.6,2.4-2.6,0-3.1,0-6.3.1-9.4,0-2.8,1-3.6,3.8-3.6,1.9,0,3.7,0,5.6.2.6,0,1.2,0,1.7.3,2.2,1,2.3,1,2.4,3.2.2,7.2.4,14.4.6,21.5,0,2.6.3,5.3.3,7.9,0,3.1-.2,6.3-.3,9.4,0,1.7-.6,2.4-2.2,2.7-1.7.3-3.4.7-5,.7-1.6,0-3.2-.4-4.7-.8-1-.3-1-1.4-1.1-2.3-.2-2.7-.4-5.4-.5-8.2,0-1.6,0-3.1,0-4.7,0-2.1-.6-2.7-2.7-2.5-1.2.1-2.4.3-3.6.6-.5.1-1,.6-1.2,1-.3.8-.5,1.8-.5,2.7,0,2.9.2,5.8.2,8.6,0,1.3-.2,2.6-.4,3.9-.2.8-.7,1.2-1.6,1-2.2-.3-4.5-.6-6.7-.7-1.4,0-2.9,0-4.3.2-1.3.2-1.7,0-1.8-1.3-.2-2.9-.4-5.8-.4-8.6,0-4.4,0-8.8,0-13.1h-.2c0-6.3,0-12.5,0-18.8Z"/>
    <path class="st0" d="M682.5,150.4c.1-2.3,0-4.7.2-7,0-1,.5-2,1-2.9.4-.8,1.2-1.2,2.3-1.1,3.6.3,7.1,0,10.7-.4,3-.3,6-.2,9-.1,1.8,0,2.2.5,2.2,2.4,0,2.8,0,5.5,0,8.3,0,1.9-.8,2.7-2.6,2.8-1.4,0-2.8,0-4.1,0-1,0-2.1.2-3.1.5-1,.3-1.7,1.4-1.6,2.2,0,.9.9,1.4,2.2,1.5.7,0,1.5-.1,2.2,0,1.7,0,2.7.8,2.8,2.4,0,2.2,0,4.4-.1,6.6,0,.9-.7,1.4-1.6,1.5-.8,0-1.6,0-2.4,0-.6,0-1.3,0-1.9,0-1,.2-1.8,1.1-1.8,2,0,1,.7,1.5,1.5,1.6,1.6.2,3.2.3,4.8.4,1.3,0,2.6,0,3.9,0,1,0,1.5.5,1.5,1.5,0,3.3,0,6.7,0,10,0,1.1-.6,1.7-1.6,1.7-2.1,0-4.2.2-6.3.1-4.5,0-9.1-.2-13.6-.2-2.9,0-4.1-.7-4.1-3.7-.1-3.9,0-7.8,0-11.7h-.2c.3-6.1.6-12.2.9-18.2Z"/>
    <path class="st0" d="M750.4,161.7c0,4.8,0,9.6,0,14.3,0,2.2-.2,4.4-.3,6.6-.1,1.7-.5,2.1-2.3,2.1-3.1,0-6.3-.2-9.4-.4-.4,0-1-.6-1.1-1-.3-1.3-.5-2.6-.5-3.8,0-8.9-.1-17.8-.2-26.8,0-2.6-.1-5.2,0-7.8,0-1.4.3-2.7.7-4,.3-1,1-1.7,2.1-1.7,2.2-.2,4.3-.3,6.5-.5.5,0,1,0,1.5,0,2.2.1,2.8.7,2.8,3,0,6.7,0,13.5,0,20.2h.3Z"/>
    <path class="st0" d="M796.4,173.6c0,2.5-.2,5-.4,7.6-.2,2.1-.5,2.5-2.4,2.8-1.8.3-3.6.3-5.3.3-1.6,0-2.8-.9-3.7-2.2-1.7-2.5-3.6-5-5.1-7.7-2-3.6-3.7-7.5-5.6-11.2-.3-.7-.7-1.4-1.1-1.9-.2-.3-.8-.4-1.1-.3-.4.2-.7.6-.9,1-.1.3,0,.8.1,1.2,0,.8.2,1.7.1,2.5-.1,5.1-.3,10.2-.5,15.4,0,2.2-.4,2.8-2.6,3.2-2.2.4-4.5.7-6.8.9-2.4.3-4.7-1.6-4.7-4.5.1-7.4.3-14.8.4-22.2,0-1.1,0-2.2,0-3.3,0-4.2-.2-8.4,0-12.6,0-2.5,1.1-3.7,3.5-4,2.2-.3,4.5-.3,6.8-.2,1.7,0,3.1,1,4,2.5,2.4,3.9,4.8,7.8,7.1,11.8,1.7,2.9,3.4,5.8,5.1,8.6.2.4.9.8,1.1.7.4-.2.9-.8,1-1.2,0-.8,0-1.7-.2-2.5-.7-2.1-.9-4.2-.8-6.5.1-3.6.1-7.3.2-10.9,0-2.3.7-3.3,2.8-3.2,2.5,0,5,.5,7.4,1,1.9.4,2.1.9,2.1,2.8,0,2.9-.2,5.7-.2,8.6,0,2.8,0,5.6,0,8.3h-.3c0,5.1,0,10.1,0,15.2Z"/>
    <path class="st0" d="M802.9,162.7c.3-5.6.6-12.7,1-19.7,0-.6,0-1.3.2-1.9,0-.9.4-1.4,1.5-1.5,2.5-.2,5-.8,7.4-.9,3.6-.2,7.3,0,11-.1,4.8-.2,8.2,2,10.7,5.9,2.6,4.1,3.9,8.7,4.3,13.5.4,4.8.1,9.5-1.5,14.2-1,2.9-2.2,5.8-4.4,8.1-2.4,2.5-5.1,4.2-8.7,4.1-5.8-.2-11.5-.3-17.3-.5-.2,0-.3,0-.5,0-4.5-.7-3.7-.7-3.8-4,0-5.2,0-10.4,0-17h0ZM816,163.5c0,2.1-.2,4.2-.3,6.3,0,.6,0,1.3.2,1.9,0,1,.8,1.6,1.7,1.9,2,.7,5.3-.6,6.3-2.5,3.2-6.2,3.2-12.4.5-18.7-.9-2.2-2.6-3.2-5-3.2-2.1,0-2.6.4-2.8,2.4-.3,4-.5,7.9-.8,11.9h.2Z"/>
    <path class="st0" d="M869.3,147.6c-.1-2.3-.5-4.6-.7-6.9-.2-1.7,0-2.1,1.7-2.2,2.9-.3,5.7-.9,8.7-.2,1,.2,2.1,0,3.1-.2.7-.1,1.3,0,1.2.8-.4,4.4,1.1,8.7.8,13.1-.4,6.3-.3,12.6-.8,18.9-.3,3-1.6,6-2.6,8.9-.2.6-.7,1-1.2,1.5-.6.6-1.4,1.1-1.9,1.8-1.6,2.3-4,3.1-6.7,3.4-4.9.4-9.9.9-14.6-1.2-2.8-1.2-5.7-2.2-7.7-4.8-2-2.6-3.2-5.3-3.4-8.5-.3-4.1-.7-8.1-.9-12.2-.1-2.8,0-5.6,0-8.4-.2-3.4-.5-6.8-.8-10.2,0-.5-.1-1-.1-1.4,0-1.5,0-1.7,1.6-1.7,3.8,0,7.6,0,11.4,0,1.6,0,1.8.2,1.9,1.8.3,6.1.6,12.1.9,18.2.1,3.4.2,6.9.3,10.3,0,.9.2,1.9.5,2.8,1,3.6,4.5,5,7.8,3.1,1.6-.9,2.5-2.1,2.4-4.1-.2-2.9,0-5.7,0-8.6,0-1,0-1.9-.1-2.9,0,0,0,0,0,0,0-3.7-.1-7.3-.3-11Z"/>
    <path class="st0" d="M892.1,182.3c-1.4-1.1-2.4-2.7-3.5-4.1-.8-1-.6-2,.5-2.7,2.1-1.5,4.2-2.9,6.4-4.3.8-.5,1.4-.4,2.1.3,1.3,1.1,2.6,2.1,4,3.1,1.9,1.4,4.2,1.4,6.6,1.3,3-.1,4.4-2.7,3.6-4.7-.4-1.1-1.3-2.1-2.2-2.9-3.4-3-7.6-4.9-11.7-7-3.7-1.9-6.4-4.6-8.6-7.6-1.4-1.9-1.4-4.3-1-6.5.8-4.5,3.8-7.8,8.4-9.8,3.7-1.6,7.6-2.1,11.7-1.5,1.9.3,3.9.6,5.7,1.2,1.7.5,3.3,1.2,4.7,2.1,3.6,2.2,3.6,3.1.6,5.8-1.6,1.4-3.1,2.8-4.7,4.3-1.4,1.2-2.4,1.2-4,.3-1-.6-2-1.3-3.2-1.7-1.5-.5-3.1.2-3.9,1.3-.7,1.1-.6,2.3.9,3.3,2.7,1.9,5.6,3.6,8.5,5.3,3.3,2,6.7,3.9,9.3,6.7,3.7,3.9,4.6,8.3,3.1,13.1-.5,1.5-1.8,2.9-3,4.1-2.5,2.4-5.7,3.8-9.3,4.4-2.3.3-4.6.5-5.7.6-6.5,0-11.4-1.2-15.4-4.5Z"/>
    <path class="st0" d="M936.7,163.4c0-2.7-.1-5.3-.2-8,0-1.1-.1-2.2.4-3.3.5-1,0-1.7-1.1-1.9-1.1,0-2.3,0-3.4.2-1.8.3-3.6.9-5.4,1.3-1.7.3-2,0-2-1.7,0-.9,0-1.8.2-2.7.7-2.4,1-4.7.9-7.2,0-1,.6-1.5,1.5-1.6,1.5-.1,3.1-.3,4.6-.2,2.4.2,4.8.3,7.2,0,6.3-.9,12.7-1.4,19.2-.7,2,.2,2.8.7,3.2,2.7.5,2.8.7,5.6,0,8.5-.3,1.5-1,2-2.6,1.9-2.3-.1-4.7-.3-7-.6-1.9-.2-2.2.2-2.1,2,.2,3.3.2,6.6.2,10,0,6,0,12,0,18,0,.6,0,1.3,0,1.9-.3,2.4-1,2.9-3.4,2.7-2.5-.2-5-.4-7.5-.5-1.8,0-2,0-2.2-1.8-.2-1.7-.2-3.4-.3-5.1,0-1,0-1.9,0-2.9h0c0-3.6,0-7.3,0-10.9Z"/>
    <path class="st0" d="M966,175.3c0-11.2-.2-22.4-.3-33.5,0-2,.6-2.8,2.4-3.2,2.9-.6,5.8-.8,8.7-.5,2,.2,4,0,6.1-.1,4-.2,7.9-.6,11.9.2,3,.6,5.3,2.3,6.6,5.1,2.5,5.2,2.5,10.7.9,16.2-.6,2.1-1.8,3.8-3.6,5-1.9,1.3-1.8,1.4-.8,3.5,2.2,4.6,4.4,9.3,6.6,14,.2.5.5,1.1.6,1.7.1,1-.4,1.7-1.4,1.7-3.5,0-7,0-10.4,0-1,0-1.7-.5-2.1-1.4-1.5-3.5-3.1-7-4.6-10.4-.5-1.2-.9-2.4-1.5-3.5-.4-.7-1.1-1.2-1.8-1.5-1.3-.4-2.3.3-2.4,1.7-.1,2-.2,3.9-.2,5.9,0,1.8,0,3.6,0,5.4-.1,2.4-.9,3.2-3.2,3.3-2.9,0-5.8,0-8.8,0-1.8,0-2.4-.7-2.4-2.7,0-2.2,0-4.4,0-6.7,0,0-.1,0-.2,0ZM984.7,148.6v.2c-.9,0-1.8,0-2.7,0-.5,0-1,.1-1.3.4-1.6,1.4-.7,7.1,1.2,7.9.2,0,.3.1.5.1,1.7,0,3.4.3,5.1,0,2.7-.4,4.4-1.9,3.8-5.6-.2-1.5-.8-2.4-2.2-2.6-1.4-.2-2.9-.4-4.3-.6Z"/>
    <path class="st0" d="M1032.5,185c-2.5-.2-4.6-.2-6.7-.5-2-.2-2.4-.7-2.6-2.9-.2-3-.4-6.1-.6-9.1-.2-3.5-.5-6.9-2.3-10-.6-.9-1-1.9-1.7-2.8-4.6-6.5-9.2-12.9-13.8-19.4-.3-.4-.6-1.1-.4-1.3.3-.4.9-.7,1.4-.7,2.2,0,4.4.1,6.6.1,2.3,0,4.5,0,6.8-.3,5.2-.6,4.9-.1,6.5,3.6,1.5,3.7,2.8,7.4,4.2,11.1,0,0,0,.2,0,.2.5.5.8,1.4,1.4,1.5.9.2,1.3-.8,1.6-1.6.7-2.1,1.2-4.2,2-6.3.9-2.4,2-4.8,3.1-7.2.2-.4.9-.7,1.3-.8,3.2-.3,6.5-.6,9.7-.7,1.9,0,3.9.1,5.8.3,1,0,1.2.9.9,1.7-.4,1.2-.8,2.4-1.5,3.5-2.1,3.5-4.4,7-6.6,10.4-1.5,2.3-3.1,4.6-4.7,6.8-4.1,5.5-5.1,11.8-4,18.5.2,1,.4,2,.5,3,.2,1.5-.2,2.3-1.7,2.5-1.8.3-3.7.3-5.2.3Z"/>
    <path class="st0" d="M1064.7,180.6c0,2.2-1.3,3.9-3.5,4.1-4,.5-6.1-.6-6.9-3.9-.6-2.4.9-4.6,3.3-5,1-.2,2-.4,3-.3,2.3.2,4,2.4,4,5.1h0Z"/>
  </g>
</svg>