<?xml version="1.0" encoding="UTF-8"?>
<svg id="Layer_1" xmlns="http://www.w3.org/2000/svg" version="1.1" viewBox="0 0 1080 200">
  <!-- Generator: Adobe Illustrator 29.4.0, SVG Export Plug-In . SVG Version: 2.1.0 Build 152)  -->
  <defs>
    <style>
      .st0 {
        fill: #ffef09;
        stroke: #000;
        stroke-linejoin: round;
        stroke-width: 3.3px;
      }
    </style>
  </defs>
  <path class="st0" d="M79.7,28.4c0,3.5,0,6.9,0,10.4,0,1.6-.1,3.2-.2,4.8-.1,1.3-.3,1.5-1.7,1.5-2.3,0-4.6-.2-6.9-.3-.3,0-.7-.5-.8-.8-.2-.9-.4-1.9-.4-2.8,0-6.5,0-13-.1-19.4,0-1.9,0-3.8,0-5.7,0-1,.2-2,.5-2.9.2-.7.7-1.2,1.5-1.3,1.6-.1,3.2-.2,4.7-.4.4,0,.7,0,1.1,0,1.6,0,2.1.5,2.1,2.2,0,4.9,0,9.8,0,14.7h.2Z"/>
  <path class="st0" d="M113.1,26c0,3.7,0,7.3,0,11,0,1.8-.2,3.7-.3,5.5-.1,1.5-.4,1.8-1.8,2.1-1.3.2-2.6.2-3.9.2-1.1,0-2-.6-2.7-1.6-1.3-1.8-2.6-3.7-3.7-5.6-1.5-2.6-2.7-5.4-4.1-8.1-.2-.5-.5-1-.8-1.4-.1-.2-.6-.3-.8-.2-.3.1-.5.4-.6.7,0,.3,0,.6,0,.9,0,.6.1,1.2,0,1.8,0,3.7-.2,7.4-.3,11.2,0,1.6-.3,2.1-1.9,2.4-1.6.3-3.3.5-4.9.7-1.8.2-3.4-1.1-3.4-3.3.1-5.4.2-10.8.3-16.2,0-.8,0-1.6,0-2.4,0-3.1-.1-6.1,0-9.2,0-1.9.8-2.7,2.5-2.9,1.6-.2,3.3-.2,4.9-.2,1.2,0,2.2.7,2.9,1.8,1.7,2.8,3.5,5.7,5.2,8.5,1.2,2.1,2.4,4.2,3.7,6.2.2.3.6.6.8.5.3-.2.7-.5.7-.9,0-.6,0-1.2-.2-1.8-.5-1.5-.6-3.1-.6-4.7,0-2.6,0-5.3.1-7.9,0-1.7.5-2.4,2.1-2.3,1.8,0,3.6.3,5.4.7,1.3.3,1.5.7,1.5,2,0,2.1-.1,4.2-.1,6.2,0,2,0,4,0,6.1h-.2Z"/>
  <path class="st0" d="M149.2,12.3c1.4,0,2.7,0,4.1,0,1.8,0,3.4,1.1,3.9,3,1.2,4.1,2.4,8.1,3.4,12.2,1.2,4.6,2.2,9.2,3.3,13.7.2.7.3,1.4.3,2.1,0,1.2-.7,1.8-1.9,1.9-1.8,0-3.5.1-5.3.2-.4,0-.8,0-1.2,0-.8-.2-1.4-.6-1.5-1.5-.3-1.5-.6-3-1-4.5-.4-1.6-.9-2.1-2.5-2.1-1.7,0-3.3,0-5,0-1.1,0-1.3.2-1.6,1.3-.4,1.5-.7,3-1.1,4.5-.5,1.9-1,2.1-2.9,2-1.5,0-3.1-.2-4.6-.1-2.4,0-2.8-1-2.4-2.9.4-2.3.9-4.5,1.4-6.7,1.7-6.8,3.3-13.5,5-20.2.4-1.8.9-2.2,2.8-2.4,2.2-.2,4.5-.3,6.7-.4v.2s0,0,0,0ZM148.1,29.9h0c.4,0,.8,0,1.2,0,1.7,0,2.1-.5,1.8-2.2-.3-1.7-.6-3.3-1-5-.3-1.3-.7-1.7-1.6-1.7-1.1,0-1.9.5-2.2,1.6-.4,1.7-.9,3.4-1.2,5.1-.3,1.8,0,2.1,1.8,2.1.4,0,.8,0,1.2,0h0Z"/>
  <path class="st0" d="M196.8,46.6c-4.7,0-8.3-.9-11.2-3.2-1-.8-1.8-2-2.5-3-.5-.7-.4-1.4.4-2,1.5-1.1,3.1-2.1,4.6-3.1.5-.4,1-.3,1.5.2.9.8,1.9,1.5,2.9,2.2,1.4,1,3.1,1,4.8,1,2.2,0,3.2-2,2.6-3.4-.3-.8-.9-1.5-1.6-2.1-2.5-2.2-5.5-3.6-8.5-5.1-2.7-1.4-4.6-3.3-6.3-5.5-1-1.4-1-3.1-.7-4.7.6-3.3,2.7-5.7,6.1-7.1,2.7-1.1,5.5-1.6,8.5-1.1,1.4.2,2.8.5,4.1.9,1.2.4,2.4.9,3.4,1.5,2.6,1.6,2.6,2.2.4,4.2-1.1,1-2.2,2.1-3.4,3.1-1,.9-1.8.9-2.9.2-.7-.4-1.5-.9-2.3-1.2-1.1-.4-2.3.1-2.8,1-.5.8-.4,1.7.7,2.4,2,1.4,4.1,2.6,6.2,3.9,2.4,1.5,4.9,2.8,6.8,4.8,2.7,2.8,3.4,6.1,2.3,9.5-.3,1.1-1.3,2.1-2.2,3-1.8,1.7-4.1,2.8-6.7,3.2-1.7.2-3.3.4-4.2.4h0Z"/>
  <path class="st0" d="M230.2,45.3c-1.8-.1-3.4-.2-4.9-.3-1.5-.2-1.8-.5-1.9-2.1-.2-2.2-.3-4.4-.5-6.6-.2-2.5-.4-5-1.7-7.3-.4-.7-.7-1.4-1.2-2-3.3-4.7-6.7-9.4-10-14.1-.2-.3-.4-.8-.3-1,.2-.3.6-.5,1-.5,1.6,0,3.2,0,4.8,0,1.6,0,3.3,0,4.9-.2,3.8-.5,3.6,0,4.7,2.6,1.1,2.7,2.1,5.4,3.1,8.1,0,0,0,.1,0,.2.3.4.6,1,1,1.1.7.2,1-.6,1.2-1.2.5-1.5.9-3.1,1.5-4.6.7-1.8,1.4-3.5,2.2-5.2.1-.3.6-.5,1-.6,2.3-.2,4.7-.4,7-.5,1.4,0,2.8,0,4.2.2.7,0,.9.6.6,1.2-.3.9-.6,1.8-1.1,2.5-1.6,2.5-3.2,5.1-4.8,7.5-1.1,1.7-2.3,3.3-3.4,4.9-2.9,4-3.7,8.5-2.9,13.4.1.7.3,1.5.4,2.2.2,1.1-.1,1.7-1.2,1.8-1.3.2-2.7.2-3.7.2Z"/>
  <path class="st0" d="M262.1,46.6c-4.7,0-8.3-.9-11.2-3.2-1-.8-1.8-2-2.5-3-.5-.7-.4-1.4.4-2,1.5-1.1,3.1-2.1,4.6-3.1.5-.4,1-.3,1.5.2.9.8,1.9,1.5,2.9,2.2,1.4,1,3.1,1,4.8,1,2.2,0,3.2-2,2.6-3.4-.3-.8-.9-1.5-1.6-2.1-2.5-2.2-5.5-3.6-8.5-5.1-2.7-1.4-4.6-3.3-6.3-5.5-1-1.4-1-3.1-.7-4.7.6-3.3,2.7-5.7,6.1-7.1,2.7-1.1,5.5-1.6,8.5-1.1,1.4.2,2.8.5,4.1.9,1.2.4,2.4.9,3.4,1.5,2.6,1.6,2.6,2.2.4,4.2-1.1,1-2.2,2.1-3.4,3.1-1,.9-1.8.9-2.9.2-.7-.4-1.5-.9-2.3-1.2-1.1-.4-2.3.1-2.8,1-.5.8-.4,1.7.7,2.4,2,1.4,4.1,2.6,6.2,3.9,2.4,1.5,4.9,2.8,6.8,4.8,2.7,2.8,3.4,6.1,2.3,9.5-.3,1.1-1.3,2.1-2.2,3-1.8,1.7-4.1,2.8-6.7,3.2-1.7.2-3.3.4-4.2.4h0Z"/>
  <path class="st0" d="M283.3,37.6c0-2.6,0-5.3,0-7.9,0-1.9,0-3.9-.1-5.8,0-.8,0-1.6.3-2.4.4-.7,0-1.3-.8-1.3-.8,0-1.6,0-2.4.1-1.3.2-2.6.7-4,.9-1.2.2-1.4,0-1.4-1.3,0-.6,0-1.3.1-1.9.5-1.7.7-3.4.6-5.2,0-.7.4-1.1,1.1-1.2,1.1-.1,2.2-.2,3.3-.1,1.8.2,3.5.2,5.3,0,4.6-.7,9.2-1,13.9-.5,1.5.1,2.1.5,2.3,2,.3,2,.5,4.1,0,6.1-.3,1.1-.8,1.5-1.9,1.4-1.7,0-3.4-.3-5.1-.5-1.4-.2-1.6.1-1.5,1.5.1,2.4.1,4.8.1,7.2,0,4.4,0,8.7,0,13.1,0,.5,0,.9,0,1.4-.2,1.7-.7,2.1-2.5,1.9-1.8-.1-3.6-.3-5.5-.3-1.3,0-1.4,0-1.6-1.3-.2-1.2-.2-2.5-.2-3.7,0-.7,0-1.4,0-2.1h0,0Z"/>
  <path class="st0" d="M304.1,33.5c.2-4.4.5-8.8.7-13.2,0-1.7,0-3.4.2-5.1,0-.7.4-1.5.7-2.1.3-.6.9-.9,1.6-.8,2.6.2,5.2,0,7.8-.3,2.2-.2,4.4-.1,6.5-.1,1.3,0,1.6.4,1.6,1.7,0,2,0,4,0,6,0,1.3-.6,1.9-1.9,2-1,0-2,0-3,0-.8,0-1.5.2-2.3.4-.7.2-1.2,1-1.2,1.6,0,.6.7,1,1.6,1.1.5,0,1.1,0,1.6,0,1.2,0,2,.6,2,1.8,0,1.6,0,3.2,0,4.8,0,.7-.5,1.1-1.2,1.1-.6,0-1.2,0-1.8,0-.5,0-.9,0-1.4,0-.8.1-1.3.8-1.3,1.5,0,.7.5,1.1,1.1,1.1,1.2.1,2.3.2,3.5.3.9,0,1.9,0,2.8,0,.7,0,1.1.3,1.1,1.1,0,2.4,0,4.8,0,7.3,0,.8-.4,1.2-1.2,1.2-1.5,0-3.1.1-4.6.1-3.3,0-6.6-.2-9.9-.1-2.1,0-2.9-.5-3-2.7,0-2.8,0-5.7,0-8.5h-.2Z"/>
  <path class="st0" d="M363.6,44.8c-1.3,0-2.6-.2-3.9-.3-1.6-.1-1.7-.1-1.9-1.7-.5-3.1-1.1-6.2-1.6-9.3-.3-1.8-.5-3.5-.7-5.3,0-.2,0-.4,0-.6-.1-.5-.2-1.1-.8-1-.3,0-.6.6-.6,1-.2,2.5-1.3,4.6-2.3,6.7-.5,1.1-1.2,1.7-2.5,1.6-1.3,0-2.7,0-4.1,0-1.3,0-2-.5-2.5-1.6-.8-2.2-1.6-4.3-2.5-6.5-.1-.3-.2-.7-.3-1-.2-.3-.5-.6-.8-.8-.2.3-.5.6-.4.9.1,2.8-.6,5.5-1.1,8.2-.5,2.7-1.1,5.4-1.7,8.1-.4,1.6-.5,1.6-2,1.6-2.3,0-4.7,0-7,0-.8,0-1.1-.4-1.1-1.1.1-1.4.2-2.8.4-4.2.9-5.4,1.8-10.9,2.7-16.3.6-3.3,1.2-6.5,1.7-9.8.2-1.1.7-1.5,1.6-1.7.3,0,.7-.2,1-.2,2.4,0,4.8-.1,7.2-.3,1,0,1.6.4,1.9,1.3.7,1.9,1.3,3.8,1.9,5.7.6,2,1.2,4.1,1.8,6.2.2.7.3,1.6,1.2,1.6.4,0,.9-.9,1.1-1.5,1.1-3.2,2.1-6.5,3.2-9.8.2-.8.5-1.5.7-2.3.3-1.1,1.1-1.6,2.1-1.6.6,0,1.3.1,1.9.2.9,0,1.8,0,2.6.1.9.1,1.9.2,2.7.5.4.1.8.8.9,1.2.5,2.2.8,4.5,1.2,6.7.1.8.3,1.7.4,2.5,1.2,6.2,2.5,12.5,3.7,18.7.1.5.2,1.1.3,1.6.2,1.5-.4,2.3-1.9,2.3-.9,0-1.9-.1-2.8-.2,0,0,0,0,0,0h0Z"/>
  <path class="st0" d="M394.7,37.6c0-2.6,0-5.3,0-7.9,0-1.9,0-3.9-.1-5.8,0-.8,0-1.6.3-2.4.4-.7,0-1.3-.8-1.3-.8,0-1.6,0-2.4.1-1.3.2-2.6.7-4,.9-1.2.2-1.4,0-1.4-1.3,0-.6,0-1.3.1-1.9.5-1.7.7-3.4.6-5.2,0-.7.4-1.1,1.1-1.2,1.1-.1,2.2-.2,3.3-.1,1.8.2,3.5.2,5.3,0,4.6-.7,9.2-1,13.9-.5,1.5.1,2.1.5,2.3,2,.3,2,.5,4.1,0,6.1-.3,1.1-.8,1.5-1.9,1.4-1.7,0-3.4-.3-5.1-.5-1.4-.2-1.6.1-1.5,1.5.1,2.4.1,4.8.1,7.2,0,4.4,0,8.7,0,13.1,0,.5,0,.9,0,1.4-.2,1.7-.7,2.1-2.5,1.9-1.8-.1-3.6-.3-5.5-.3-1.3,0-1.4,0-1.6-1.3-.2-1.2-.2-2.5-.2-3.7,0-.7,0-1.4,0-2.1h0Z"/>
  <path class="st0" d="M415.8,27.7c0-4.6,0-9.1,0-13.7,0-.4,0-.7,0-1.1.1-.8.5-1.3,1.3-1.1,2.1.5,4.2-.2,6.3-.1.2,0,.5,0,.7,0,1.3,0,1.8.5,1.9,1.8.1,2,.2,4.1.3,6.1,0,.6,0,1.2,0,1.8.2,1.1.7,1.5,1.8,1.6.7,0,1.4,0,2.1,0,1.4,0,1.7-.4,1.8-1.9,0-2.3,0-4.6.1-6.8,0-2,.7-2.6,2.7-2.6,1.4,0,2.7,0,4.1.1.4,0,.8,0,1.2.2,1.6.7,1.7.7,1.7,2.3.2,5.2.3,10.4.5,15.6,0,1.9.2,3.8.2,5.7,0,2.3-.1,4.6-.2,6.8,0,1.2-.4,1.8-1.6,2-1.2.2-2.4.5-3.7.5-1.1,0-2.3-.3-3.4-.6-.7-.2-.7-1-.8-1.7-.1-2-.3-3.9-.3-5.9,0-1.1,0-2.3,0-3.4,0-1.5-.5-1.9-1.9-1.8-.9,0-1.8.2-2.6.4-.3,0-.8.4-.9.8-.2.6-.3,1.3-.3,1.9,0,2.1.2,4.2.2,6.3,0,.9-.1,1.9-.3,2.8-.1.6-.5.8-1.2.7-1.6-.2-3.3-.4-4.9-.5-1,0-2.1,0-3.1.2-.9.1-1.2,0-1.3-.9-.2-2.1-.3-4.2-.3-6.3,0-3.2,0-6.4,0-9.5h-.2Z"/>
  <path class="st0" d="M461.5,12.3c1.4,0,2.7,0,4.1,0,1.8,0,3.4,1.1,3.9,3,1.2,4.1,2.4,8.1,3.4,12.2,1.2,4.6,2.2,9.2,3.3,13.7.2.7.3,1.4.3,2.1,0,1.2-.7,1.8-1.9,1.9-1.8,0-3.5.1-5.3.2-.4,0-.8,0-1.2,0-.8-.2-1.4-.6-1.5-1.5-.3-1.5-.6-3-1-4.5-.4-1.6-.9-2.1-2.5-2.1-1.7,0-3.3,0-5,0-1.1,0-1.3.2-1.6,1.3-.4,1.5-.7,3-1.1,4.5-.5,1.9-1,2.1-2.9,2-1.5,0-3.1-.2-4.6-.1-2.4,0-2.8-1-2.4-2.9.4-2.3.9-4.5,1.4-6.7,1.7-6.8,3.3-13.5,5-20.2.4-1.8.9-2.2,2.8-2.4,2.2-.2,4.5-.3,6.7-.4v.2s0,0,0,0ZM460.4,29.9h0c.4,0,.8,0,1.2,0,1.7,0,2.1-.5,1.8-2.2-.3-1.7-.6-3.3-1-5-.3-1.3-.7-1.7-1.6-1.7-1.1,0-1.9.5-2.2,1.6-.4,1.7-.9,3.4-1.2,5.1-.3,1.8,0,2.1,1.8,2.1.4,0,.8,0,1.2,0h0Z"/>
  <path class="st0" d="M483,37.6c0-2.6,0-5.3,0-7.9,0-1.9,0-3.9-.1-5.8,0-.8,0-1.6.3-2.4.4-.7,0-1.3-.8-1.3-.8,0-1.6,0-2.4.1-1.3.2-2.6.7-4,.9-1.2.2-1.4,0-1.4-1.3,0-.6,0-1.3.1-1.9.5-1.7.7-3.4.6-5.2,0-.7.4-1.1,1.1-1.2,1.1-.1,2.2-.2,3.3-.1,1.8.2,3.5.2,5.3,0,4.6-.7,9.2-1,13.9-.5,1.5.1,2.1.5,2.3,2,.3,2,.5,4.1,0,6.1-.3,1.1-.8,1.5-1.9,1.4-1.7,0-3.4-.3-5.1-.5-1.4-.2-1.6.1-1.5,1.5.1,2.4.1,4.8.1,7.2,0,4.4,0,8.7,0,13.1,0,.5,0,.9,0,1.4-.2,1.7-.7,2.1-2.5,1.9-1.8-.1-3.6-.3-5.5-.3-1.3,0-1.4,0-1.6-1.3-.2-1.2-.2-2.5-.2-3.7,0-.7,0-1.4,0-2.1h0,0Z"/>
  <path class="st0" d="M509.9,10.5c-.6,2.5-1.3,4.9-3.1,6.8-.4.4-1,.7-1.6.3-.6-.4-.6-1-.3-1.7.7-1.4.7-1.4-.5-2.4-1.2-.9-2-3.5-1.6-4.9.4-1.5,1.9-2.4,3.5-2.1.4,0,.8.2,1.1.3,1.7.6,2.6,1.8,2.5,3.6h0Z"/>
  <path class="st0" d="M526.2,46.6c-4.7,0-8.3-.9-11.2-3.2-1-.8-1.8-2-2.5-3-.5-.7-.4-1.4.4-2,1.5-1.1,3.1-2.1,4.6-3.1.5-.4,1-.3,1.5.2.9.8,1.9,1.5,2.9,2.2,1.4,1,3.1,1,4.8,1,2.2,0,3.2-2,2.6-3.4-.3-.8-.9-1.5-1.6-2.1-2.5-2.2-5.5-3.6-8.5-5.1-2.7-1.4-4.6-3.3-6.3-5.5-1-1.4-1-3.1-.7-4.7.6-3.3,2.7-5.7,6.1-7.1,2.7-1.1,5.5-1.6,8.5-1.1,1.4.2,2.8.5,4.1.9,1.2.4,2.4.9,3.4,1.5,2.6,1.6,2.6,2.2.4,4.2-1.1,1-2.2,2.1-3.4,3.1-1,.9-1.8.9-2.9.2-.7-.4-1.5-.9-2.3-1.2-1.1-.4-2.3.1-2.8,1-.5.8-.4,1.7.7,2.4,2,1.4,4.1,2.6,6.2,3.9,2.4,1.5,4.9,2.8,6.8,4.8,2.7,2.8,3.4,6.1,2.3,9.5-.3,1.1-1.3,2.1-2.2,3-1.8,1.7-4.1,2.8-6.7,3.2-1.7.2-3.3.4-4.2.4h0Z"/>
  <path class="st0" d="M559.6,27.4c0-4.2,0-8.4,0-12.5,0-.5,0-1.1.2-1.6.1-.3.6-.7.9-.7,2.3-.2,4.7-.6,7-.1,1.5.3,1.6.3,1.6,2,0,6.1,0,12.1,0,18.2,0,1,.1,1.9.3,2.9,0,.7.5,1.1,1.2,1.1.6,0,1.3,0,1.9,0,1.7,0,2.2.4,2.2,2,0,1.8,0,3.5,0,5.3,0,.8-.3,1.3-1.1,1.2-2.5-.1-4.9-.2-7.4-.3-1.6,0-3.3-.1-5-.1-1.3,0-1.4,0-1.5-1.4-.1-1.8-.3-3.6-.3-5.4,0-3.5,0-7,0-10.5h0Z"/>
  <path class="st0" d="M581.2,41.1c-5.8-6.7-6.8-14.1-2.9-21.9,4.2-8.4,13.5-10.8,20.9-7.8,5.5,2.2,9,6.2,10.8,11.7,1.8,5.2,1.4,10.2-1.2,15-3.1,5.7-8.1,8.7-13.4,8.8-6.5,0-10.9-2-14.2-5.8ZM586.2,28.1c0,1.6.4,3.3,1.2,4.6,2.5,4.5,8.6,5.4,12,1.6,3.3-3.6,3.4-8.5.2-12.4-1.1-1.3-2.5-2.1-4.2-2.4-1.1-.1-2.4-.4-3.3,0-3.8,1.6-5.8,4.4-5.8,8.5h0Z"/>
  <path class="st0" d="M643.3,26c0,3.7,0,7.3,0,11,0,1.8-.2,3.7-.3,5.5-.1,1.5-.4,1.8-1.8,2.1-1.3.2-2.6.2-3.9.2-1.1,0-2-.6-2.7-1.6-1.3-1.8-2.6-3.7-3.7-5.6-1.5-2.6-2.7-5.4-4.1-8.1-.2-.5-.5-1-.8-1.4-.1-.2-.6-.3-.8-.2-.3.1-.5.4-.6.7,0,.3,0,.6,0,.9,0,.6.1,1.2,0,1.8,0,3.7-.2,7.4-.3,11.2,0,1.6-.3,2.1-1.9,2.4-1.6.3-3.3.5-4.9.7-1.8.2-3.4-1.1-3.4-3.3.1-5.4.2-10.8.3-16.2,0-.8,0-1.6,0-2.4,0-3.1-.1-6.1,0-9.2,0-1.9.8-2.7,2.5-2.9,1.6-.2,3.3-.2,4.9-.2,1.2,0,2.2.7,2.9,1.8,1.7,2.8,3.5,5.7,5.2,8.5,1.2,2.1,2.4,4.2,3.7,6.2.2.3.6.6.8.5.3-.2.7-.5.7-.9,0-.6,0-1.2-.2-1.8-.5-1.5-.6-3.1-.6-4.7,0-2.6,0-5.3.1-7.9,0-1.7.5-2.4,2.1-2.3,1.8,0,3.6.3,5.4.7,1.3.3,1.5.7,1.5,2,0,2.1-.1,4.2-.1,6.2,0,2,0,4,0,6.1h-.2Z"/>
  <path class="st0" d="M673.4,25.5c1.5,0,3.1,0,4.6,0,2.5.1,3,.6,3.2,3.2.1,2.1-.1,4.2-.7,6.3-.8,2.6-2.1,5-4,7-2.3,2.4-5.2,3.5-8.4,3.8-3.6.3-7.2,0-10.6-1.2-4.3-1.4-7.2-4.4-9-8.5-2.6-6-2-11.7,1.4-17.2,1.5-2.5,3.6-4.4,5.9-5.9.9-.6,2-.7,2.9-1.1,2.9-1.3,6-1,9.1-.9,2.1,0,2.6.6,2.6,2.7s-.2,2.8-.4,4.2c0,.8-.6,1-1.3,1.1-2.2,0-4.3.5-6.4,1.3-3.6,1.6-6.1,5.1-5.3,8.8,1.5,7.4,8.4,9.2,12.8,6.9.8-.4,1.5-1.1,2.1-1.8.6-.9.3-1.6-.9-1.7-1.2,0-2.4,0-3.5,0-1.7,0-2-.3-2.1-2.1,0-1.1,0-2.1,0-3.2,0-.8.5-1.3,1.3-1.4,2.2-.2,4.3-.3,6.5-.4,0,0,0,.1,0,.2Z"/>
  <path class="st0" d="M703,44.9c-1.1,0-1.4-.4-1.6-1.6,0-.2,0-.5,0-.7-.1-6.6-.2-13.3-.3-19.9,0-2.9,0-5.8,0-8.7,0-1.4.5-2,1.8-2.3,2.1-.5,4.3-.6,6.5-.4,1.4.2,2.8,0,4.2,0,2.6-.1,5.2-.5,7.7.1,1.7.4,3.1,1.3,3.9,2.9,2.1,4.2,2.6,8.5.6,12.9-.7,1.5-1.9,2.7-3.5,3.2-2.2.8-4.5,1.6-6.9,1.8-.4,0-.8,0-1.2.2-1.9.5-2.2.9-2.3,2.9,0,2.3-.2,4.7-.2,7,0,2.1-.5,2.5-2.6,2.6-.5,0-.9,0-1.4,0-.5,0-.9,0-1.4,0-1.1,0-2.2,0-3.4,0ZM714.2,18.3h0c-.4,0-.8,0-1.2,0-1.2,0-1.6.4-1.7,1.6,0,.9,0,1.8,0,2.7.1,1.2.9,1.9,2,2.1,1.6.2,3-.4,4.3-1.1.3-.2.6-.6.7-1,.6-2.4-.8-4.2-3.2-4.4-.4,0-.7,0-1.1,0h0Z"/>
  <path class="st0" d="M730.2,38.3c0-8.1-.1-16.2-.2-24.4,0-1.4.4-2,1.8-2.3,2.1-.4,4.2-.6,6.3-.4,1.5.1,2.9,0,4.4,0,2.9-.2,5.8-.4,8.6.2,2.2.4,3.8,1.7,4.8,3.7,1.8,3.8,1.8,7.8.6,11.7-.4,1.5-1.3,2.8-2.6,3.7-1.4.9-1.3,1-.6,2.5,1.6,3.4,3.2,6.8,4.8,10.2.2.4.3.8.4,1.2,0,.7-.3,1.2-1,1.2-2.5,0-5.1,0-7.6,0-.7,0-1.2-.3-1.5-1-1.1-2.5-2.2-5-3.3-7.6-.4-.8-.6-1.8-1.1-2.5-.3-.5-.8-.9-1.3-1.1-.9-.3-1.6.2-1.7,1.3-.1,1.4-.1,2.8-.1,4.3,0,1.3,0,2.6,0,3.9,0,1.7-.6,2.3-2.3,2.4-2.1,0-4.2,0-6.4,0-1.3,0-1.7-.5-1.8-2,0-1.6,0-3.2,0-4.8,0,0-.1,0-.2,0ZM743.8,18.9v.2c-.7,0-1.3,0-2,0-.3,0-.7,0-1,.3-1.2,1-.5,5.2.9,5.8.1,0,.2,0,.3,0,1.2,0,2.5.2,3.7,0,2-.3,3.2-1.3,2.7-4-.2-1.1-.6-1.7-1.6-1.9-1-.2-2.1-.3-3.1-.5Z"/>
  <path class="st0" d="M765.8,41.1c-5.8-6.7-6.8-14.1-2.9-21.9,4.2-8.4,13.5-10.8,20.9-7.8,5.5,2.2,9,6.2,10.8,11.7,1.8,5.2,1.4,10.2-1.2,15-3.1,5.7-8.1,8.7-13.4,8.8-6.5,0-10.9-2-14.2-5.8ZM770.9,28.1c0,1.6.4,3.3,1.2,4.6,2.5,4.5,8.6,5.4,12,1.6,3.3-3.6,3.4-8.5.2-12.4-1.1-1.3-2.5-2.1-4.2-2.4-1.1-.1-2.4-.4-3.3,0-3.8,1.6-5.8,4.4-5.8,8.5h0Z"/>
  <path class="st0" d="M799,30.7c0-3.3-.1-6.6,0-9.9,0-2.3.4-4.6.9-6.8.4-2,1.5-2.5,3.4-2,1.8.5,3.6.1,5.4,0,2.7-.1,5.4-.2,8.1-.3,1.1,0,1.5.4,1.5,1.5,0,2.1,0,4.2,0,6.4,0,1.3-.6,1.9-2,1.9-1.1,0-2.1,0-3.2,0-.8,0-1.5.2-2.2.4-.8.3-1,.9-.9,1.7.1.8.7.9,1.3.9.6,0,1.2,0,1.8,0,1.4,0,2.2.7,2.2,2,0,1.5-.1,3.1-.2,4.6,0,.7-.5,1-1.2,1.1-.8,0-1.7,0-2.5,0-1.8,0-2.2.6-2.3,2.4,0,2.6,0,5.2,0,7.8,0,1.9-.3,2.1-2.2,2.2-1.9,0-3.8,0-5.7,0-1,0-1.7-.5-2-1.4-.2-.5-.3-1.1-.3-1.7,0-2.7,0-5.4,0-8.1,0-.9,0-1.8,0-2.6h0Z"/>
  <path class="st0" d="M831.4,28.4c0,3.5,0,6.9,0,10.4,0,1.6-.1,3.2-.2,4.8-.1,1.3-.3,1.5-1.7,1.5-2.3,0-4.6-.2-6.9-.3-.3,0-.7-.5-.8-.8-.2-.9-.4-1.9-.4-2.8,0-6.5,0-13-.1-19.4,0-1.9,0-3.8,0-5.7,0-1,.2-2,.5-2.9.2-.7.7-1.2,1.5-1.3,1.6-.1,3.2-.2,4.7-.4.4,0,.7,0,1.1,0,1.6,0,2.1.5,2.1,2.2,0,4.9,0,9.8,0,14.7h.2,0Z"/>
  <path class="st0" d="M842.5,37.6c0-2.6,0-5.3,0-7.9,0-1.9,0-3.9-.1-5.8,0-.8,0-1.6.3-2.4.4-.7,0-1.3-.8-1.3-.8,0-1.6,0-2.4.1-1.3.2-2.6.7-4,.9-1.2.2-1.4,0-1.4-1.3,0-.6,0-1.3.1-1.9.5-1.7.7-3.4.6-5.2,0-.7.4-1.1,1.1-1.2,1.1-.1,2.2-.2,3.3-.1,1.8.2,3.5.2,5.3,0,4.6-.7,9.2-1,13.9-.5,1.5.1,2.1.5,2.3,2,.3,2,.5,4.1,0,6.1-.3,1.1-.8,1.5-1.9,1.4-1.7,0-3.4-.3-5.1-.5-1.4-.2-1.6.1-1.5,1.5.1,2.4.1,4.8.1,7.2,0,4.4,0,8.7,0,13.1,0,.5,0,.9,0,1.4-.2,1.7-.7,2.1-2.5,1.9-1.8-.1-3.6-.3-5.5-.3-1.3,0-1.4,0-1.6-1.3-.2-1.2-.2-2.5-.2-3.7,0-.7,0-1.4,0-2.1h0Z"/>
  <path class="st0" d="M863.3,33.5c.2-4.4.5-8.8.7-13.2,0-1.7,0-3.4.2-5.1,0-.7.4-1.5.7-2.1.3-.6.9-.9,1.6-.8,2.6.2,5.2,0,7.8-.3,2.2-.2,4.4-.1,6.5-.1,1.3,0,1.6.4,1.6,1.7,0,2,0,4,0,6,0,1.3-.6,1.9-1.9,2-1,0-2,0-3,0-.8,0-1.5.2-2.3.4-.7.2-1.3,1-1.2,1.6,0,.6.7,1,1.6,1.1.5,0,1.1,0,1.6,0,1.2,0,2,.6,2,1.8,0,1.6,0,3.2,0,4.8,0,.7-.5,1.1-1.2,1.1-.6,0-1.2,0-1.8,0-.5,0-1,0-1.4,0-.8.1-1.3.8-1.3,1.5,0,.7.5,1.1,1.1,1.1,1.2.1,2.3.2,3.5.3.9,0,1.9,0,2.8,0,.7,0,1.1.3,1.1,1.1,0,2.4,0,4.8,0,7.3,0,.8-.4,1.2-1.2,1.2-1.5,0-3.1.1-4.6.1-3.3,0-6.6-.2-9.9-.1-2.1,0-2.9-.5-3-2.7,0-2.8,0-5.7,0-8.5h-.2Z"/>
  <path class="st0" d="M886.3,29.2c.2-4.1.5-9.2.7-14.3,0-.5,0-.9.1-1.4,0-.7.3-1,1.1-1.1,1.8-.2,3.6-.6,5.4-.6,2.6-.1,5.3,0,8,0,3.5-.1,6,1.4,7.8,4.3,1.9,3,2.8,6.3,3.1,9.8.3,3.5,0,6.9-1.1,10.3-.7,2.1-1.6,4.2-3.2,5.8-1.7,1.8-3.7,3-6.4,2.9-4.2-.1-8.4-.2-12.5-.4-.1,0-.2,0-.4,0-3.3-.5-2.7-.5-2.7-2.9,0-3.8,0-7.5,0-12.3h0ZM895.6,29.7h.1c0,1.5-.1,3.1-.2,4.6,0,.5,0,.9.1,1.4,0,.8.6,1.1,1.2,1.4,1.5.5,3.9-.5,4.6-1.8,2.3-4.5,2.3-9,.4-13.6-.7-1.6-1.9-2.3-3.6-2.3-1.5,0-1.9.3-2,1.8-.2,2.9-.4,5.8-.6,8.6h0Z"/>
  <path class="st0" d="M937.1,41.1c-5.8-6.7-6.8-14.1-2.9-21.9,4.2-8.4,13.5-10.8,20.9-7.8,5.5,2.2,9,6.2,10.8,11.7,1.8,5.2,1.4,10.2-1.2,15-3.1,5.7-8.1,8.7-13.4,8.8-6.5,0-10.9-2-14.2-5.8ZM942.1,28.1c0,1.6.4,3.3,1.2,4.6,2.5,4.5,8.6,5.4,12,1.6,3.3-3.6,3.4-8.5.2-12.4-1.1-1.3-2.5-2.1-4.2-2.4-1.1-.1-2.4-.4-3.3,0-3.8,1.6-5.8,4.4-5.8,8.5h0Z"/>
  <path class="st0" d="M970.3,30.7c0-3.3-.1-6.6,0-9.9,0-2.3.4-4.6.9-6.8.4-2,1.5-2.5,3.4-2,1.8.5,3.6.1,5.4,0,2.7-.1,5.4-.2,8.1-.3,1.1,0,1.5.4,1.5,1.5,0,2.1,0,4.2,0,6.4,0,1.3-.6,1.9-2,1.9-1.1,0-2.1,0-3.2,0-.8,0-1.5.2-2.2.4-.8.3-1,.9-.9,1.7.1.8.7.9,1.3.9.6,0,1.2,0,1.8,0,1.4,0,2.2.7,2.2,2,0,1.5-.1,3.1-.2,4.6,0,.7-.5,1-1.2,1.1-.8,0-1.7,0-2.5,0-1.8,0-2.2.6-2.3,2.4,0,2.6,0,5.2,0,7.8,0,1.9-.3,2.1-2.2,2.2-1.9,0-3.8,0-5.7,0-1,0-1.7-.5-2-1.4-.2-.5-.3-1.1-.3-1.7,0-2.7,0-5.4,0-8.1,0-.9,0-1.8,0-2.6h0Z"/>
  <path class="st0" d="M992.6,30.7c0-3.3-.1-6.6,0-9.9,0-2.3.4-4.6.9-6.8.4-2,1.5-2.5,3.4-2,1.8.5,3.6.1,5.4,0,2.7-.1,5.4-.2,8.1-.3,1.1,0,1.5.4,1.5,1.5,0,2.1,0,4.2,0,6.4,0,1.3-.6,1.9-2,1.9-1.1,0-2.1,0-3.2,0-.8,0-1.5.2-2.2.4-.8.3-1,.9-.9,1.7.1.8.7.9,1.3.9.6,0,1.2,0,1.8,0,1.4,0,2.2.7,2.2,2,0,1.5-.1,3.1-.2,4.6,0,.7-.5,1-1.2,1.1-.8,0-1.7,0-2.5,0-1.8,0-2.2.6-2.3,2.4,0,2.6,0,5.2,0,7.8,0,1.9-.3,2.1-2.2,2.2-1.9,0-3.8,0-5.7,0-1,0-1.7-.5-2-1.4-.2-.5-.3-1.1-.3-1.7,0-2.7,0-5.4,0-8.1,0-.9,0-1.8,0-2.6h0Z"/>
  <path class="st0" d="M243.4,94.3c-6.5,0-10.9-2-14.2-5.8-5.8-6.7-6.8-14.1-2.9-21.9,4.2-8.4,13.5-10.8,20.9-7.8,5.5,2.2,9,6.2,10.8,11.7,1.8,5.2,1.4,10.2-1.2,15-3.1,5.7-8.1,8.7-13.4,8.8h0ZM234.3,75.4c0,1.6.4,3.3,1.2,4.6,2.5,4.5,8.6,5.4,12,1.6,3.3-3.6,3.4-8.5.2-12.4-1.1-1.3-2.5-2.1-4.2-2.4-1.1-.1-2.4-.4-3.3,0-3.8,1.6-5.8,4.4-5.8,8.5h0Z"/>
  <path class="st0" d="M280.9,73.5c0-2.7,0-5.3-.2-8,0-1.7-.3-3.3-.5-5-.1-1.2,0-1.5,1.2-1.6,2.1-.2,4.2-.7,6.3-.2.7.2,1.5,0,2.2-.2.5,0,.9,0,.9.5-.3,3.2.8,6.3.6,9.5-.3,4.6-.2,9.2-.6,13.7-.2,2.2-1.2,4.3-1.9,6.5-.1.4-.5.7-.9,1.1-.4.5-1,.8-1.4,1.3-1.2,1.7-2.9,2.3-4.8,2.4-3.6.3-7.2.6-10.6-.9-2-.9-4.1-1.6-5.6-3.5-1.4-1.9-2.3-3.9-2.5-6.2-.2-2.9-.5-5.9-.7-8.8-.1-2,0-4.1,0-6.1-.1-2.5-.4-5-.6-7.4,0-.3,0-.7-.1-1,0-1.1,0-1.3,1.1-1.3,2.8,0,5.5,0,8.3,0,1.2,0,1.3.1,1.4,1.3.2,4.4.4,8.8.6,13.2.1,2.5.1,5,.2,7.5,0,.7.2,1.4.3,2,.7,2.6,3.3,3.6,5.7,2.3,1.1-.6,1.8-1.5,1.7-3-.1-2.1,0-4.2,0-6.3,0-.7,0-1.4-.1-2.1,0,0,0,0,0,0h0Z"/>
  <path class="st0" d="M295.7,85.6c0-8.1-.1-16.2-.2-24.4,0-1.4.4-2,1.8-2.3,2.1-.4,4.2-.6,6.3-.4,1.5.1,2.9,0,4.4,0,2.9-.2,5.8-.4,8.6.2,2.2.4,3.8,1.7,4.8,3.7,1.8,3.8,1.8,7.8.6,11.7-.4,1.5-1.3,2.8-2.6,3.7-1.4.9-1.3,1-.6,2.5,1.6,3.4,3.2,6.8,4.8,10.2.2.4.3.8.4,1.2,0,.7-.3,1.2-1,1.2-2.5,0-5.1,0-7.6,0-.7,0-1.2-.3-1.5-1-1.1-2.5-2.2-5-3.3-7.6-.4-.8-.6-1.8-1.1-2.5-.3-.5-.8-.9-1.3-1.1-.9-.3-1.6.2-1.7,1.3-.1,1.4-.1,2.8-.1,4.3,0,1.3,0,2.6,0,3.9,0,1.7-.6,2.3-2.3,2.4-2.1,0-4.2,0-6.4,0-1.3,0-1.7-.5-1.8-2,0-1.6,0-3.2,0-4.8,0,0-.1,0-.2,0ZM309.3,66.3v.2c-.7,0-1.3,0-2,0-.3,0-.7,0-1,.3-1.2,1-.5,5.2.9,5.8.1,0,.2,0,.3,0,1.2,0,2.5.2,3.7,0,2-.3,3.2-1.3,2.7-4-.2-1.1-.6-1.7-1.6-1.9-1-.2-2.1-.3-3.1-.5Z"/>
  <path class="st0" d="M350.6,84.9c0-2.6,0-5.3,0-7.9,0-1.9,0-3.9-.1-5.8,0-.8,0-1.6.3-2.4.4-.7,0-1.3-.8-1.3-.8,0-1.6,0-2.4.1-1.3.2-2.6.7-4,.9-1.2.2-1.4,0-1.4-1.3,0-.6,0-1.3.1-1.9.5-1.7.7-3.4.6-5.2,0-.7.4-1.1,1.1-1.2,1.1-.1,2.2-.2,3.3-.1,1.8.2,3.5.2,5.3,0,4.6-.7,9.2-1,13.9-.5,1.5.1,2.1.5,2.3,2,.3,2,.5,4.1,0,6.1-.3,1.1-.8,1.5-1.9,1.4-1.7,0-3.4-.3-5.1-.5-1.4-.2-1.6.1-1.5,1.5.1,2.4.1,4.8.1,7.2,0,4.4,0,8.7,0,13.1,0,.5,0,.9,0,1.4-.2,1.7-.7,2.1-2.5,1.9-1.8-.1-3.6-.3-5.5-.3-1.3,0-1.4,0-1.6-1.3-.2-1.2-.2-2.5-.2-3.7,0-.7,0-1.4,0-2.1h0Z"/>
  <path class="st0" d="M383.2,59.6c1.4,0,2.7,0,4.1,0,1.8,0,3.4,1.1,3.9,3,1.2,4.1,2.4,8.1,3.4,12.2,1.2,4.6,2.2,9.2,3.3,13.7.2.7.3,1.4.3,2.1,0,1.2-.7,1.8-1.9,1.9-1.8,0-3.5.1-5.3.2-.4,0-.8,0-1.2,0-.8-.2-1.4-.6-1.5-1.5-.3-1.5-.6-3-1-4.5-.4-1.6-.9-2.1-2.5-2.1-1.7,0-3.3,0-5,0-1.1,0-1.3.2-1.6,1.3-.4,1.5-.7,3-1.1,4.5-.5,1.9-1,2.1-2.9,2-1.5,0-3.1-.2-4.6-.1-2.4,0-2.8-1-2.4-2.9.4-2.3.9-4.5,1.4-6.7,1.7-6.8,3.3-13.5,5-20.2.4-1.8.9-2.2,2.8-2.4,2.2-.2,4.5-.3,6.7-.4v.2s0,0,0,0ZM382.1,77.3h0c.4,0,.8,0,1.2,0,1.7,0,2.1-.5,1.8-2.2-.3-1.7-.6-3.3-1-5-.3-1.3-.7-1.7-1.6-1.7-1.1,0-1.9.5-2.2,1.6-.4,1.7-.9,3.4-1.2,5.1-.3,1.8,0,2.1,1.8,2.1.4,0,.8,0,1.2,0h0Z"/>
  <path class="st0" d="M401.1,74.7c0-4.2,0-8.4,0-12.5,0-.5,0-1.1.2-1.6.1-.3.6-.7.9-.7,2.3-.2,4.7-.6,7-.1,1.5.3,1.6.3,1.6,2,0,6.1,0,12.1,0,18.2,0,1,.1,1.9.3,2.9,0,.7.5,1.1,1.2,1.1.6,0,1.3,0,1.9,0,1.7,0,2.2.4,2.2,2,0,1.8,0,3.5,0,5.3,0,.8-.3,1.3-1.1,1.2-2.5-.1-4.9-.2-7.4-.3-1.6,0-3.3-.1-4.9-.1-1.3,0-1.4,0-1.5-1.4-.1-1.8-.3-3.6-.3-5.4,0-3.5,0-7,0-10.5h0Z"/>
  <path class="st0" d="M418.8,80.8c.2-4.4.5-8.8.7-13.2,0-1.7,0-3.4.2-5.1,0-.7.4-1.5.7-2.1.3-.6.9-.9,1.6-.8,2.6.2,5.2,0,7.8-.3,2.2-.2,4.4-.1,6.5-.1,1.3,0,1.6.4,1.6,1.7,0,2,0,4,0,6,0,1.3-.6,1.9-1.9,2-1,0-2,0-3,0-.8,0-1.5.2-2.3.4-.7.2-1.2,1-1.2,1.6,0,.6.7,1,1.6,1.1.5,0,1.1,0,1.6,0,1.2,0,2,.6,2,1.8,0,1.6,0,3.2,0,4.8,0,.7-.5,1.1-1.2,1.1-.6,0-1.2,0-1.8,0-.5,0-.9,0-1.4,0-.8.1-1.3.8-1.3,1.5,0,.7.5,1.1,1.1,1.1,1.2.1,2.3.2,3.5.3.9,0,1.9,0,2.8,0,.7,0,1.1.3,1.1,1.1,0,2.4,0,4.8,0,7.3,0,.8-.4,1.2-1.2,1.2-1.5,0-3.1.1-4.6.1-3.3,0-6.6-.2-9.9-.1-2.1,0-2.9-.5-3-2.7,0-2.8,0-5.7,0-8.5h-.2Z"/>
  <path class="st0" d="M470.7,73.4c0,3.7,0,7.3,0,11,0,1.8-.2,3.7-.3,5.5-.1,1.5-.4,1.8-1.8,2.1-1.3.2-2.6.2-3.9.2-1.1,0-2-.6-2.7-1.6-1.3-1.8-2.6-3.7-3.7-5.6-1.5-2.6-2.7-5.4-4.1-8.1-.2-.5-.5-1-.8-1.4-.1-.2-.6-.3-.8-.2-.3.1-.5.4-.6.7,0,.3,0,.6,0,.9,0,.6.1,1.2,0,1.8,0,3.7-.2,7.4-.3,11.2,0,1.6-.3,2.1-1.9,2.4-1.6.3-3.3.5-4.9.7-1.8.2-3.4-1.1-3.4-3.3.1-5.4.2-10.8.3-16.2,0-.8,0-1.6,0-2.4,0-3.1-.1-6.1,0-9.2,0-1.9.8-2.7,2.5-2.9,1.6-.2,3.3-.2,4.9-.2,1.2,0,2.2.7,2.9,1.8,1.7,2.8,3.5,5.7,5.2,8.5,1.2,2.1,2.4,4.2,3.7,6.2.2.3.6.6.8.5.3-.2.7-.5.7-.9,0-.6,0-1.2-.2-1.8-.5-1.5-.6-3.1-.6-4.7,0-2.6,0-5.3.1-7.9,0-1.7.5-2.4,2.1-2.3,1.8,0,3.6.3,5.4.7,1.3.3,1.5.7,1.5,2,0,2.1-.1,4.2-.1,6.2,0,2,0,4,0,6.1h-.2Z"/>
  <path class="st0" d="M482,84.9c0-2.6,0-5.3,0-7.9,0-1.9,0-3.9-.1-5.8,0-.8,0-1.6.3-2.4.4-.7,0-1.3-.8-1.3-.8,0-1.6,0-2.4.1-1.3.2-2.6.7-4,.9-1.2.2-1.4,0-1.4-1.3,0-.6,0-1.3.1-1.9.5-1.7.7-3.4.6-5.2,0-.7.4-1.1,1.1-1.2,1.1-.1,2.2-.2,3.3-.1,1.8.2,3.5.2,5.3,0,4.6-.7,9.2-1,13.9-.5,1.5.1,2.1.5,2.3,2,.3,2,.5,4.1,0,6.1-.3,1.1-.8,1.5-1.9,1.4-1.7,0-3.4-.3-5.1-.5-1.4-.2-1.6.1-1.5,1.5.1,2.4.1,4.8.1,7.2,0,4.4,0,8.7,0,13.1,0,.5,0,.9,0,1.4-.2,1.7-.7,2.1-2.5,1.9-1.8-.1-3.6-.3-5.5-.3-1.3,0-1.4,0-1.6-1.3-.2-1.2-.2-2.5-.2-3.7,0-.7,0-1.4,0-2.1h0Z"/>
  <path class="st0" d="M556,58.5c1.2,0,2.5,0,3.7,0,.9,0,1.2.2,1.1,1.2,0,1.5-.3,3.1-.5,4.6-1,6.3-2,12.6-3.1,18.9-.4,2.2-.8,4.5-1.2,6.7-.2,1-.6,1.6-1.6,1.7-.5,0-1,.3-1.6.3-2.2,0-4.5,0-6.7.2-1,0-1.6-.4-1.9-1.3-.7-2-1.4-4-2-6.1-.7-2-1.2-4.1-1.9-6.1-.1-.4-.5-.9-.8-1-.6-.2-.9.4-1.1,1-.7,2-1.3,3.9-2,5.9-.7,2-1.3,4.1-2,6.1-.5,1.5-1.1,1.9-2.6,1.9-.8,0-1.5-.1-2.3-.2-.5,0-1-.2-1.4,0-1,.3-2,0-2.9-.3-.7-.3-1.1-.6-1.2-1.4-.3-1.5-.7-3-.9-4.5-.5-3.3-1-6.5-1.5-9.8-.6-3.1-1.3-6.1-1.9-9.1-.4-1.9-.9-3.8-1.2-5.8-.4-2.1.2-2.7,2.3-2.6,2.2.1,4.5.3,6.7.3.9,0,1.3.5,1.4,1.3.7,3.9,1.4,7.8,2,11.8.1.8,0,1.7,0,2.6,0,.7,0,1.7.7,1.9.9.2.9-.9,1.2-1.5.8-2,1.6-4.1,2.4-6.1.4-1,1.1-1.5,2.2-1.4,1.4,0,2.8,0,4.2,0,1.3-.1,2,.5,2.4,1.6.8,2.1,1.5,4.1,2.3,6.2.2.6.4,1.1.7,1.7,0,.2.4.4.6.3.2,0,.4-.4.6-.6,0,0,0-.2,0-.4-.4-2.8.5-5.5.9-8.2.3-2.1.8-4.2,1.3-6.3,0-.4.2-.8.3-1.2.4-1.3,1.3-2,2.6-2,.9,0,1.9,0,2.8,0h0s0,0,0,0Z"/>
  <path class="st0" d="M564.1,75c0-4.6,0-9.1,0-13.7,0-.4,0-.7,0-1.1.1-.8.5-1.3,1.3-1.1,2.1.5,4.2-.2,6.3-.1.2,0,.5,0,.7,0,1.3,0,1.8.5,1.9,1.8.1,2,.2,4.1.3,6.1,0,.6,0,1.2,0,1.8.2,1.1.7,1.5,1.8,1.6.7,0,1.4,0,2.1,0,1.4,0,1.7-.4,1.8-1.9,0-2.3,0-4.6.1-6.8,0-2,.7-2.6,2.7-2.6,1.4,0,2.7,0,4.1.1.4,0,.8,0,1.2.2,1.6.7,1.7.7,1.7,2.3.2,5.2.3,10.4.5,15.6,0,1.9.2,3.8.2,5.7,0,2.3-.1,4.6-.2,6.8,0,1.2-.4,1.8-1.6,2-1.2.2-2.4.5-3.7.5-1.1,0-2.3-.3-3.4-.6-.7-.2-.7-1-.8-1.7-.1-2-.3-3.9-.3-5.9,0-1.1,0-2.3,0-3.4,0-1.5-.5-1.9-1.9-1.8-.9,0-1.8.2-2.6.4-.3,0-.8.4-.9.8-.2.6-.3,1.3-.3,1.9,0,2.1.2,4.2.2,6.3,0,.9-.1,1.9-.3,2.8-.1.6-.5.8-1.2.7-1.6-.2-3.3-.4-4.9-.5-1,0-2.1,0-3.1.2-.9.1-1.2,0-1.3-.9-.2-2.1-.3-4.2-.3-6.3,0-3.2,0-6.4,0-9.5h-.2,0Z"/>
  <path class="st0" d="M605.4,75.8c0,3.5,0,6.9,0,10.4,0,1.6-.1,3.2-.2,4.8-.1,1.3-.3,1.5-1.7,1.5-2.3,0-4.6-.2-6.9-.3-.3,0-.7-.5-.8-.8-.2-.9-.4-1.9-.4-2.8,0-6.5,0-13-.1-19.4,0-1.9,0-3.8,0-5.7,0-1,.2-2,.5-2.9.2-.7.7-1.2,1.5-1.3,1.6-.1,3.2-.2,4.7-.4.4,0,.7,0,1.1,0,1.6,0,2.1.5,2.1,2.2,0,4.9,0,9.8,0,14.7h.2,0Z"/>
  <path class="st0" d="M610.1,74.7c0-4.2,0-8.4,0-12.5,0-.5,0-1.1.2-1.6.1-.3.6-.7.9-.7,2.3-.2,4.7-.6,7-.1,1.5.3,1.6.3,1.6,2,0,6.1,0,12.1,0,18.2,0,1,.1,1.9.3,2.9,0,.7.5,1.1,1.2,1.1.6,0,1.3,0,1.9,0,1.7,0,2.2.4,2.2,2,0,1.8,0,3.5,0,5.3,0,.8-.3,1.3-1.1,1.2-2.5-.1-4.9-.2-7.4-.3-1.6,0-3.3-.1-5-.1-1.3,0-1.4,0-1.5-1.4-.1-1.8-.3-3.6-.3-5.4,0-3.5,0-7,0-10.5h0Z"/>
  <path class="st0" d="M627.8,80.8c.2-4.4.5-8.8.7-13.2,0-1.7,0-3.4.2-5.1,0-.7.4-1.5.7-2.1.3-.6.9-.9,1.6-.8,2.6.2,5.2,0,7.8-.3,2.2-.2,4.4-.1,6.5-.1,1.3,0,1.6.4,1.6,1.7,0,2,0,4,0,6,0,1.3-.6,1.9-1.9,2-1,0-2,0-3,0-.8,0-1.5.2-2.3.4-.7.2-1.3,1-1.2,1.6,0,.6.7,1,1.6,1.1.5,0,1.1,0,1.6,0,1.2,0,2,.6,2,1.8,0,1.6,0,3.2,0,4.8,0,.7-.5,1.1-1.2,1.1-.6,0-1.2,0-1.8,0-.5,0-1,0-1.4,0-.8.1-1.3.8-1.3,1.5,0,.7.5,1.1,1.1,1.1,1.2.1,2.3.2,3.5.3.9,0,1.9,0,2.8,0,.7,0,1.1.3,1.1,1.1,0,2.4,0,4.8,0,7.3,0,.8-.4,1.2-1.2,1.2-1.5,0-3.1.1-4.6.1-3.3,0-6.6-.2-9.9-.1-2.1,0-2.9-.5-3-2.7,0-2.8,0-5.7,0-8.5h-.2Z"/>
  <path class="st0" d="M691.7,92.4c-1.2,0-2.4,0-3.5,0-1.1,0-1.8-.5-2.3-1.6-1.3-3.2-2.8-6.3-4.2-9.4-.1-.3-.2-.6-.4-.8-.7-1.2-1.7-1.2-2.5,0-.7,1-1.1,2-1.1,3.2,0,1.2,0,2.3,0,3.5,0,.7,0,1.5-.1,2.2-.3,2.7-.9,3.1-3.6,2.8-1.5-.2-3.1-.2-4.6-.4-1.2,0-1.4-.2-1.5-1.3-.1-1.6-.2-3.3-.2-4.9,0-3.1.1-6.2.2-9.2,0-4.9,0-9.7,0-14.6,0-2,.8-2.8,2.7-2.8,1.8,0,3.5,0,5.3.2,1.4,0,1.8.5,1.8,1.9,0,2.4-.1,4.7-.2,7.1,0,.5,0,1.1.1,1.6,0,.4,0,1,.5,1,.4,0,.8-.2,1.1-.5,1.2-1.5,2.4-3,3.6-4.5,1.4-1.7,2.8-3.4,4.1-5.2.8-1.1,1.8-1.5,3.1-1.4,1.4,0,2.8,0,4.2,0,.5,0,1.1,0,1.6.1.5,0,1.2.1,1.2.8,0,.5-.2,1-.5,1.4-.5.7-1.2,1.3-1.8,2-2.2,2.3-4.3,4.6-6.5,6.9-.3.3-.6.7-.9,1.1-.5.8-.5,1.5,0,2.4,1.5,2.2,2.9,4.4,4.3,6.6,1.8,2.9,3.7,5.8,5.5,8.7.2.3.3.5.4.8.5,1.1.3,1.7-.8,1.9-1.7.3-3.4.4-5.1.6v-.2s0,0,0,0Z"/>
  <path class="st0" d="M700.2,80.8c.2-4.4.5-8.8.7-13.2,0-1.7,0-3.4.2-5.1,0-.7.4-1.5.7-2.1.3-.6.9-.9,1.6-.8,2.6.2,5.2,0,7.8-.3,2.2-.2,4.4-.1,6.5-.1,1.3,0,1.6.4,1.6,1.7,0,2,0,4,0,6,0,1.3-.6,1.9-1.9,2-1,0-2,0-3,0-.8,0-1.5.2-2.3.4-.7.2-1.3,1-1.2,1.6,0,.6.7,1,1.6,1.1.5,0,1.1,0,1.6,0,1.2,0,2,.6,2,1.8,0,1.6,0,3.2,0,4.8,0,.7-.5,1.1-1.2,1.1-.6,0-1.2,0-1.8,0-.5,0-1,0-1.4,0-.8.1-1.3.8-1.3,1.5,0,.7.5,1.1,1.1,1.1,1.2.1,2.3.2,3.5.3.9,0,1.9,0,2.8,0,.7,0,1.1.3,1.1,1.1,0,2.4,0,4.8,0,7.3,0,.8-.4,1.2-1.2,1.2-1.5,0-3.1.1-4.6.1-3.3,0-6.6-.2-9.9-.1-2.1,0-2.9-.5-3-2.7,0-2.8,0-5.7,0-8.5h-.2Z"/>
  <path class="st0" d="M722.9,80.8c.2-4.4.5-8.8.7-13.2,0-1.7,0-3.4.2-5.1,0-.7.4-1.5.7-2.1.3-.6.9-.9,1.6-.8,2.6.2,5.2,0,7.8-.3,2.2-.2,4.4-.1,6.5-.1,1.3,0,1.6.4,1.6,1.7,0,2,0,4,0,6,0,1.3-.6,1.9-1.9,2-1,0-2,0-3,0-.8,0-1.5.2-2.3.4-.7.2-1.3,1-1.2,1.6,0,.6.7,1,1.6,1.1.5,0,1.1,0,1.6,0,1.2,0,2,.6,2,1.8,0,1.6,0,3.2,0,4.8,0,.7-.5,1.1-1.2,1.1-.6,0-1.2,0-1.8,0-.5,0-1,0-1.4,0-.8.1-1.3.8-1.3,1.5,0,.7.5,1.1,1.1,1.1,1.2.1,2.3.2,3.5.3.9,0,1.9,0,2.8,0,.7,0,1.1.3,1.1,1.1,0,2.4,0,4.8,0,7.3,0,.8-.4,1.2-1.2,1.2-1.5,0-3.1.1-4.6.1-3.3,0-6.6-.2-9.9-.1-2.1,0-2.9-.5-3-2.7,0-2.8,0-5.7,0-8.5h-.2Z"/>
  <path class="st0" d="M747.9,92.3c-1.1,0-1.4-.4-1.6-1.6,0-.2,0-.5,0-.7-.1-6.6-.2-13.3-.3-19.9,0-2.9,0-5.8,0-8.7,0-1.4.5-2,1.8-2.3,2.1-.5,4.3-.6,6.5-.4,1.4.2,2.8,0,4.2,0,2.6-.1,5.2-.5,7.7.1,1.7.4,3.1,1.3,3.9,2.9,2.1,4.2,2.6,8.5.6,12.9-.7,1.5-1.9,2.7-3.5,3.2-2.2.8-4.5,1.6-6.9,1.8-.4,0-.8,0-1.2.2-1.9.5-2.2.9-2.3,2.9,0,2.3-.2,4.6-.2,7,0,2.1-.5,2.5-2.6,2.6-.5,0-.9,0-1.4,0-.5,0-.9,0-1.4,0-1.1,0-2.2,0-3.4,0ZM759.1,65.6h0c-.4,0-.8,0-1.2,0-1.2,0-1.6.4-1.7,1.6,0,.9,0,1.8,0,2.7.1,1.2.9,1.9,2,2.1,1.6.2,3-.4,4.3-1.1.3-.2.6-.6.7-1,.6-2.4-.8-4.2-3.2-4.4-.4,0-.7,0-1.1,0h0Z"/>
  <path class="st0" d="M785,75.8c0,3.5,0,6.9,0,10.4,0,1.6-.1,3.2-.2,4.8-.1,1.3-.3,1.5-1.7,1.5-2.3,0-4.6-.2-6.9-.3-.3,0-.7-.5-.8-.8-.2-.9-.4-1.9-.4-2.8,0-6.5,0-13-.1-19.4,0-1.9,0-3.8,0-5.7,0-1,.2-2,.5-2.9.2-.7.7-1.2,1.5-1.3,1.6-.1,3.2-.2,4.7-.4.4,0,.7,0,1.1,0,1.6,0,2.1.5,2.1,2.2,0,4.9,0,9.8,0,14.7h.2,0Z"/>
  <path class="st0" d="M818.5,73.4c0,3.7,0,7.3,0,11,0,1.8-.2,3.7-.3,5.5-.1,1.5-.4,1.8-1.8,2.1-1.3.2-2.6.2-3.9.2-1.1,0-2-.6-2.7-1.6-1.3-1.8-2.6-3.7-3.7-5.6-1.5-2.6-2.7-5.4-4.1-8.1-.2-.5-.5-1-.8-1.4-.1-.2-.6-.3-.8-.2-.3.1-.5.4-.6.7,0,.3,0,.6,0,.9,0,.6.1,1.2,0,1.8,0,3.7-.2,7.4-.3,11.2,0,1.6-.3,2.1-1.9,2.4-1.6.3-3.3.5-4.9.7-1.8.2-3.4-1.1-3.4-3.3.1-5.4.2-10.8.3-16.2,0-.8,0-1.6,0-2.4,0-3.1-.1-6.1,0-9.2,0-1.9.8-2.7,2.5-2.9,1.6-.2,3.3-.2,4.9-.2,1.2,0,2.2.7,2.9,1.8,1.7,2.8,3.5,5.7,5.2,8.5,1.2,2.1,2.4,4.2,3.7,6.2.2.3.6.6.8.5.3-.2.7-.5.7-.9,0-.6,0-1.2-.2-1.8-.5-1.5-.6-3.1-.6-4.7,0-2.6,0-5.3.1-7.9,0-1.7.5-2.4,2.1-2.3,1.8,0,3.6.3,5.4.7,1.3.3,1.5.7,1.5,2,0,2.1-.1,4.2-.1,6.2,0,2,0,4,0,6.1h-.2Z"/>
  <path class="st0" d="M848.6,72.8c1.5,0,3.1,0,4.6,0,2.5.1,3,.6,3.2,3.2.1,2.1-.1,4.2-.7,6.3-.8,2.6-2.1,5-4,7-2.3,2.4-5.2,3.5-8.4,3.8-3.6.3-7.2,0-10.6-1.2-4.3-1.4-7.2-4.4-9-8.5-2.6-6-2-11.7,1.4-17.2,1.5-2.5,3.6-4.4,5.9-5.9.9-.6,2-.7,2.9-1.1,2.9-1.3,6-1,9.1-.9,2.1,0,2.6.6,2.6,2.7s-.2,2.8-.4,4.2c0,.8-.6,1-1.3,1.1-2.2,0-4.3.5-6.4,1.3-3.6,1.6-6.1,5.1-5.3,8.8,1.5,7.4,8.4,9.2,12.8,6.9.8-.4,1.5-1.1,2.1-1.8.6-.9.3-1.6-.9-1.7-1.2,0-2.4,0-3.5,0-1.7,0-2-.3-2.1-2.1,0-1.1,0-2.1,0-3.2,0-.8.5-1.3,1.3-1.4,2.2-.2,4.3-.3,6.5-.4,0,0,0,.1,0,.2Z"/>
  <path class="st0" d="M28.4,120.9c0-2.7,0-5.3-.2-8,0-1.7-.3-3.3-.5-5-.1-1.2,0-1.5,1.2-1.6,2.1-.2,4.2-.7,6.3-.2.7.2,1.5,0,2.2-.2.5,0,.9,0,.9.5-.3,3.2.8,6.3.6,9.5-.3,4.6-.2,9.2-.6,13.7-.2,2.2-1.2,4.3-1.9,6.5-.1.4-.5.7-.9,1.1-.4.5-1,.8-1.4,1.3-1.2,1.7-2.9,2.3-4.8,2.4-3.6.3-7.2.6-10.6-.9-2-.9-4.1-1.6-5.6-3.5-1.4-1.9-2.3-3.9-2.5-6.2-.2-2.9-.5-5.9-.7-8.8-.1-2,0-4.1,0-6.1-.1-2.5-.4-5-.6-7.4,0-.3,0-.7-.1-1,0-1.1,0-1.3,1.1-1.3,2.8,0,5.5,0,8.3,0,1.2,0,1.3.1,1.4,1.3.2,4.4.4,8.8.6,13.2.1,2.5.1,5,.2,7.5,0,.7.2,1.4.3,2,.7,2.6,3.3,3.6,5.7,2.3,1.1-.6,1.8-1.5,1.7-3-.1-2.1,0-4.2,0-6.3,0-.7,0-1.4-.1-2.1,0,0,0,0,0,0h0Z"/>
  <path class="st0" d="M55.9,141.3c-4.7,0-8.3-.9-11.2-3.2-1-.8-1.8-2-2.5-3-.5-.7-.4-1.4.4-2,1.5-1.1,3.1-2.1,4.6-3.1.5-.4,1-.3,1.5.2.9.8,1.9,1.5,2.9,2.2,1.4,1,3.1,1,4.8,1,2.2,0,3.2-2,2.6-3.4-.3-.8-.9-1.5-1.6-2.1-2.5-2.2-5.5-3.6-8.5-5.1-2.7-1.4-4.6-3.3-6.3-5.5-1-1.4-1-3.1-.7-4.7.6-3.3,2.7-5.7,6.1-7.1,2.7-1.1,5.5-1.6,8.5-1.1,1.4.2,2.8.5,4.1.9,1.2.4,2.4.9,3.4,1.5,2.6,1.6,2.6,2.2.4,4.2-1.1,1-2.2,2.1-3.4,3.1-1,.9-1.8.9-2.9.2-.7-.4-1.5-.9-2.3-1.2-1.1-.4-2.3.1-2.8,1-.5.8-.4,1.7.7,2.4,2,1.4,4.1,2.6,6.2,3.9,2.4,1.5,4.9,2.8,6.8,4.8,2.7,2.8,3.4,6.1,2.3,9.5-.3,1.1-1.3,2.1-2.2,3-1.8,1.7-4.1,2.8-6.7,3.2-1.7.2-3.3.3-4.2.4h0Z"/>
  <path class="st0" d="M107.8,120.9c0-2.7,0-5.3-.2-8,0-1.7-.3-3.3-.5-5-.1-1.2,0-1.5,1.2-1.6,2.1-.2,4.2-.7,6.3-.2.7.2,1.5,0,2.2-.2.5,0,.9,0,.9.5-.3,3.2.8,6.3.6,9.5-.3,4.6-.2,9.2-.6,13.7-.2,2.2-1.2,4.3-1.9,6.5-.1.4-.5.7-.9,1.1-.4.5-1,.8-1.4,1.3-1.2,1.7-2.9,2.3-4.8,2.4-3.6.3-7.2.6-10.6-.9-2-.9-4.1-1.6-5.6-3.5-1.4-1.9-2.3-3.9-2.5-6.2-.2-2.9-.5-5.9-.7-8.8-.1-2,0-4.1,0-6.1-.1-2.5-.4-5-.6-7.4,0-.3,0-.7-.1-1,0-1.1,0-1.3,1.1-1.3,2.8,0,5.5,0,8.3,0,1.2,0,1.3.1,1.4,1.3.2,4.4.4,8.8.6,13.2.1,2.5.1,5,.2,7.5,0,.7.2,1.4.3,2,.7,2.6,3.3,3.6,5.7,2.3,1.1-.6,1.8-1.5,1.7-3-.1-2.1,0-4.2,0-6.3,0-.7,0-1.4-.1-2.1,0,0,0,0,0,0h0Z"/>
  <path class="st0" d="M151.2,131.7c0,1.8-.2,3.7-.3,5.5-.1,1.5-.4,1.8-1.8,2.1-1.3.2-2.6.2-3.9.2-1.1,0-2-.6-2.7-1.6-1.3-1.8-2.6-3.7-3.7-5.6-1.5-2.6-2.7-5.4-4.1-8.1-.2-.5-.5-1-.8-1.4-.1-.2-.6-.3-.8-.2-.3.1-.5.4-.6.8,0,.3,0,.6,0,.9,0,.6.1,1.2,0,1.8,0,3.7-.2,7.4-.3,11.2,0,1.6-.3,2.1-1.9,2.4-1.6.3-3.3.5-4.9.7-1.8.2-3.4-1.1-3.4-3.3.1-5.4.2-10.8.3-16.2,0-.8,0-1.6,0-2.4,0-3.1-.1-6.1,0-9.2,0-1.9.8-2.7,2.5-2.9,1.6-.2,3.3-.2,4.9-.2,1.2,0,2.2.7,2.9,1.8,1.7,2.8,3.5,5.7,5.2,8.5,1.2,2.1,2.4,4.2,3.7,6.3.2.3.6.6.8.5.3-.2.7-.5.7-.9,0-.6,0-1.2-.2-1.8-.5-1.5-.6-3.1-.6-4.7,0-2.6,0-5.3.1-7.9,0-1.7.5-2.4,2.1-2.3,1.8,0,3.6.3,5.4.7,1.3.3,1.5.7,1.5,2,0,2.1-.1,4.2-.1,6.2,0,2,0,4,0,6.1h-.2c0,3.7,0,7.3,0,11Z"/>
  <path class="st0" d="M156,123.9c.2-4.1.5-9.2.7-14.3,0-.5,0-.9.1-1.4,0-.7.3-1,1.1-1.1,1.8-.2,3.6-.6,5.4-.6,2.6-.1,5.3,0,8,0,3.5-.1,6,1.4,7.8,4.3,1.9,3,2.8,6.3,3.1,9.8.3,3.5,0,6.9-1.1,10.3-.7,2.1-1.6,4.2-3.2,5.8-1.7,1.8-3.7,3-6.4,2.9-4.2-.1-8.4-.2-12.5-.4-.1,0-.2,0-.4,0-3.3-.5-2.7-.5-2.7-2.9,0-3.8,0-7.5,0-12.3h0ZM165.3,124.4h.1c0,1.5-.1,3.1-.2,4.6,0,.5,0,.9.1,1.4,0,.8.6,1.1,1.2,1.4,1.5.5,3.9-.5,4.6-1.8,2.3-4.5,2.3-9,.4-13.6-.7-1.6-1.9-2.3-3.6-2.3-1.5,0-1.9.3-2,1.8-.2,2.9-.4,5.8-.6,8.6h0Z"/>
  <path class="st0" d="M185.6,128.2c.2-4.4.5-8.8.7-13.2,0-1.7,0-3.4.2-5.1,0-.7.4-1.5.7-2.1.3-.6.9-.9,1.6-.8,2.6.2,5.2,0,7.8-.3,2.2-.2,4.4-.1,6.5-.1,1.3,0,1.6.4,1.6,1.7,0,2,0,4,0,6,0,1.3-.6,1.9-1.9,2-1,0-2,0-3,0-.8,0-1.5.2-2.3.4-.7.2-1.2,1-1.2,1.6,0,.6.7,1,1.6,1.1.5,0,1.1,0,1.6,0,1.2,0,2,.6,2,1.8,0,1.6,0,3.2,0,4.8,0,.7-.5,1.1-1.2,1.1-.6,0-1.2,0-1.8,0-.5,0-1,0-1.4,0-.8.1-1.3.8-1.3,1.5,0,.7.5,1.1,1.1,1.1,1.2.1,2.3.2,3.5.3.9,0,1.9,0,2.8,0,.7,0,1.1.3,1.1,1.1,0,2.4,0,4.8,0,7.3,0,.8-.4,1.2-1.2,1.2-1.5,0-3.1.1-4.6.1-3.3,0-6.6-.2-9.9-.1-2.1,0-2.9-.5-3-2.7,0-2.8,0-5.7,0-8.5h-.2Z"/>
  <path class="st0" d="M208.8,133c0-8.1-.1-16.2-.2-24.4,0-1.4.4-2,1.8-2.3,2.1-.4,4.2-.6,6.3-.4,1.5.1,2.9,0,4.4,0,2.9-.2,5.8-.4,8.6.2,2.2.4,3.8,1.7,4.8,3.7,1.8,3.8,1.8,7.8.6,11.7-.4,1.5-1.3,2.8-2.6,3.7-1.4.9-1.3,1-.6,2.5,1.6,3.4,3.2,6.8,4.8,10.2.2.4.3.8.4,1.2,0,.7-.3,1.2-1,1.2-2.5,0-5.1,0-7.6,0-.7,0-1.2-.3-1.5-1-1.1-2.5-2.2-5-3.3-7.6-.4-.8-.6-1.8-1.1-2.5-.3-.5-.8-.9-1.3-1.1-.9-.3-1.6.2-1.7,1.3-.1,1.4-.1,2.8-.1,4.3,0,1.3,0,2.6,0,3.9,0,1.7-.6,2.3-2.3,2.4-2.1,0-4.2,0-6.4,0-1.3,0-1.7-.5-1.8-2,0-1.6,0-3.2,0-4.8,0,0-.1,0-.2,0ZM222.4,113.6v.2c-.7,0-1.3,0-2,0-.3,0-.7,0-1,.3-1.2,1-.5,5.2.9,5.8.1,0,.2,0,.3,0,1.2,0,2.5.2,3.7,0,2-.3,3.2-1.3,2.7-4-.2-1.1-.6-1.7-1.6-1.9-1-.2-2.1-.3-3.1-.5Z"/>
  <path class="st0" d="M245.7,139.6c-1.1,0-2.2,0-3.4,0-1.1,0-1.4-.4-1.6-1.6,0-.2,0-.5,0-.7-.1-6.6-.2-13.3-.3-19.9,0-2.9,0-5.8,0-8.7,0-1.4.5-2,1.8-2.3,2.1-.5,4.3-.6,6.5-.4,1.4.2,2.8,0,4.2,0,2.6-.1,5.2-.5,7.7.1,1.7.4,3.1,1.3,3.9,2.9,2.1,4.2,2.6,8.5.6,12.9-.7,1.5-1.9,2.7-3.5,3.2-2.2.8-4.5,1.6-6.9,1.8-.4,0-.8,0-1.2.2-1.9.5-2.2.9-2.3,2.9,0,2.3-.2,4.7-.2,7,0,2.1-.5,2.5-2.6,2.6-.5,0-.9,0-1.4,0h-1.4ZM253.6,113h0c-.4,0-.8,0-1.2,0-1.2,0-1.6.4-1.7,1.6,0,.9,0,1.8,0,2.7.1,1.2.9,1.9,2,2.1,1.6.2,3-.4,4.3-1.1.3-.2.6-.6.7-1,.6-2.4-.8-4.2-3.2-4.4-.4,0-.7,0-1.1,0h0Z"/>
  <path class="st0" d="M281.9,107c1.4,0,2.7,0,4.1,0,1.8,0,3.4,1.1,3.9,3,1.2,4.1,2.4,8.1,3.4,12.2,1.2,4.6,2.2,9.2,3.3,13.7.2.7.3,1.4.3,2.1,0,1.2-.7,1.8-1.9,1.9-1.8,0-3.5.1-5.3.2-.4,0-.8,0-1.2,0-.8-.2-1.4-.6-1.5-1.5-.3-1.5-.6-3-1-4.5-.4-1.6-.9-2.1-2.5-2.1-1.7,0-3.3,0-5,0-1.1,0-1.3.2-1.6,1.3-.4,1.5-.7,3-1.1,4.5-.5,1.9-1,2.1-2.9,2-1.5,0-3.1-.2-4.6-.1-2.4,0-2.8-1-2.4-2.9.4-2.3.9-4.5,1.4-6.7,1.7-6.8,3.3-13.5,5-20.2.4-1.8.9-2.2,2.8-2.4,2.2-.2,4.5-.3,6.7-.4v.2s0,0,0,0ZM280.9,124.7c.4,0,.8,0,1.2,0,1.7,0,2.1-.5,1.8-2.2-.3-1.7-.6-3.3-1-5-.3-1.3-.7-1.7-1.6-1.7-1.1,0-1.9.5-2.2,1.6-.4,1.7-.9,3.4-1.2,5.1-.3,1.8,0,2.1,1.8,2.1.4,0,.8,0,1.2,0h0Z"/>
  <path class="st0" d="M309.9,123.1c0,3.5,0,6.9,0,10.4,0,1.6-.1,3.2-.2,4.8-.1,1.3-.3,1.5-1.7,1.5-2.3,0-4.6-.2-6.9-.3-.3,0-.7-.5-.8-.8-.2-.9-.4-1.9-.4-2.8,0-6.5,0-13-.1-19.4,0-1.9,0-3.8,0-5.7,0-1,.2-2,.5-2.9.2-.7.7-1.2,1.5-1.3,1.6-.1,3.2-.2,4.7-.4.4,0,.7,0,1.1,0,1.6,0,2.1.5,2.1,2.2,0,4.9,0,9.8,0,14.7h.2Z"/>
  <path class="st0" d="M314.4,123.9c.2-4.1.5-9.2.7-14.3,0-.5,0-.9.1-1.4,0-.7.3-1,1.1-1.1,1.8-.2,3.6-.6,5.4-.6,2.6-.1,5.3,0,8,0,3.5-.1,6,1.4,7.8,4.3,1.9,3,2.8,6.3,3.1,9.8.3,3.5,0,6.9-1.1,10.3-.7,2.1-1.6,4.2-3.2,5.8-1.7,1.8-3.7,3-6.4,2.9-4.2-.1-8.4-.2-12.5-.4-.1,0-.2,0-.4,0-3.3-.5-2.7-.5-2.7-2.9,0-3.8,0-7.5,0-12.3h0ZM323.7,124.4h.1c0,1.5-.1,3.1-.2,4.6,0,.5,0,.9.1,1.4,0,.8.6,1.1,1.2,1.4,1.5.5,3.9-.5,4.6-1.8,2.3-4.5,2.3-9,.4-13.6-.7-1.6-1.9-2.3-3.6-2.3-1.5,0-1.9.3-2,1.8-.2,2.9-.4,5.8-.6,8.6h0Z"/>
  <path class="st0" d="M375.6,107c1.4,0,2.7,0,4.1,0,1.8,0,3.4,1.1,3.9,3,1.2,4.1,2.4,8.1,3.4,12.2,1.2,4.6,2.2,9.2,3.3,13.7.2.7.3,1.4.3,2.1,0,1.2-.7,1.8-1.9,1.9-1.8,0-3.5.1-5.3.2-.4,0-.8,0-1.2,0-.8-.2-1.4-.6-1.5-1.5-.3-1.5-.6-3-1-4.5-.4-1.6-.9-2.1-2.5-2.1-1.7,0-3.3,0-5,0-1.1,0-1.3.2-1.6,1.3-.4,1.5-.7,3-1.1,4.5-.5,1.9-1,2.1-2.9,2-1.5,0-3.1-.2-4.6-.1-2.4,0-2.8-1-2.4-2.9.4-2.3.9-4.5,1.4-6.7,1.7-6.8,3.3-13.5,5-20.2.4-1.8.9-2.2,2.8-2.4,2.2-.2,4.5-.3,6.7-.4v.2s0,0,0,0ZM374.5,124.7c.4,0,.8,0,1.2,0,1.7,0,2.1-.5,1.8-2.2-.3-1.7-.6-3.3-1-5-.3-1.3-.7-1.7-1.6-1.7-1.1,0-1.9.5-2.2,1.6-.4,1.7-.9,3.4-1.2,5.1-.3,1.8,0,2.1,1.8,2.1.4,0,.8,0,1.2,0h0Z"/>
  <path class="st0" d="M422.3,131.7c0,1.8-.2,3.7-.3,5.5-.1,1.5-.4,1.8-1.8,2.1-1.3.2-2.6.2-3.9.2-1.1,0-2-.6-2.7-1.6-1.3-1.8-2.6-3.7-3.7-5.6-1.5-2.6-2.7-5.4-4.1-8.1-.2-.5-.5-1-.8-1.4-.1-.2-.6-.3-.8-.2-.3.1-.5.4-.6.8,0,.3,0,.6,0,.9,0,.6.1,1.2,0,1.8,0,3.7-.2,7.4-.3,11.2,0,1.6-.3,2.1-1.9,2.4-1.6.3-3.3.5-4.9.7-1.8.2-3.4-1.1-3.4-3.3.1-5.4.2-10.8.3-16.2,0-.8,0-1.6,0-2.4,0-3.1-.1-6.1,0-9.2,0-1.9.8-2.7,2.5-2.9,1.6-.2,3.3-.2,4.9-.2,1.2,0,2.2.7,2.9,1.8,1.7,2.8,3.5,5.7,5.2,8.5,1.2,2.1,2.4,4.2,3.7,6.3.2.3.6.6.8.5.3-.2.7-.5.7-.9,0-.6,0-1.2-.2-1.8-.5-1.5-.6-3.1-.6-4.7,0-2.6,0-5.3.1-7.9,0-1.7.5-2.4,2.1-2.3,1.8,0,3.6.3,5.4.7,1.3.3,1.5.7,1.5,2,0,2.1-.1,4.2-.1,6.2,0,2,0,4,0,6.1h-.2c0,3.7,0,7.3,0,11Z"/>
  <path class="st0" d="M427,123.9c.2-4.1.5-9.2.7-14.3,0-.5,0-.9.1-1.4,0-.7.3-1,1.1-1.1,1.8-.2,3.6-.6,5.4-.6,2.6-.1,5.3,0,8,0,3.5-.1,6,1.4,7.8,4.3,1.9,3,2.8,6.3,3.1,9.8.3,3.5,0,6.9-1.1,10.3-.7,2.1-1.6,4.2-3.2,5.8-1.7,1.8-3.7,3-6.4,2.9-4.2-.1-8.4-.2-12.5-.4-.1,0-.2,0-.4,0-3.3-.5-2.7-.5-2.7-2.9,0-3.8,0-7.5,0-12.3h0ZM436.4,124.4h.1c0,1.5-.1,3.1-.2,4.6,0,.5,0,.9.1,1.4,0,.8.6,1.1,1.2,1.4,1.5.5,3.9-.5,4.6-1.8,2.3-4.5,2.3-9,.4-13.6-.7-1.6-1.9-2.3-3.6-2.3-1.5,0-1.9.3-2,1.8-.2,2.9-.4,5.8-.6,8.6h0Z"/>
  <path class="st0" d="M492.3,120.9c0-2.7,0-5.3-.2-8,0-1.7-.3-3.3-.5-5-.1-1.2,0-1.5,1.2-1.6,2.1-.2,4.2-.7,6.3-.2.7.2,1.5,0,2.2-.2.5,0,.9,0,.9.5-.3,3.2.8,6.3.6,9.5-.3,4.6-.2,9.2-.6,13.7-.2,2.2-1.2,4.3-1.9,6.5-.1.4-.5.7-.9,1.1-.4.5-1,.8-1.4,1.3-1.2,1.7-2.9,2.3-4.8,2.4-3.6.3-7.2.6-10.6-.9-2-.9-4.1-1.6-5.6-3.5-1.4-1.9-2.3-3.9-2.5-6.2-.2-2.9-.5-5.9-.7-8.8-.1-2,0-4.1,0-6.1-.1-2.5-.4-5-.6-7.4,0-.3,0-.7-.1-1,0-1.1,0-1.3,1.1-1.3,2.8,0,5.5,0,8.3,0,1.2,0,1.3.1,1.4,1.3.2,4.4.4,8.8.6,13.2.1,2.5.1,5,.2,7.5,0,.7.2,1.4.3,2,.7,2.6,3.3,3.6,5.7,2.3,1.1-.6,1.8-1.5,1.7-3-.1-2.1,0-4.2,0-6.3,0-.7,0-1.4-.1-2.1,0,0,0,0,0,0h0Z"/>
  <path class="st0" d="M535.8,131.7c0,1.8-.2,3.7-.3,5.5-.1,1.5-.4,1.8-1.8,2.1-1.3.2-2.6.2-3.9.2-1.1,0-2-.6-2.7-1.6-1.3-1.8-2.6-3.7-3.7-5.6-1.5-2.6-2.7-5.4-4.1-8.1-.2-.5-.5-1-.8-1.4-.1-.2-.6-.3-.8-.2-.3.1-.5.4-.6.8,0,.3,0,.6,0,.9,0,.6.1,1.2,0,1.8,0,3.7-.2,7.4-.3,11.2,0,1.6-.3,2.1-1.9,2.4-1.6.3-3.3.5-4.9.7-1.8.2-3.4-1.1-3.4-3.3.1-5.4.2-10.8.3-16.2,0-.8,0-1.6,0-2.4,0-3.1-.1-6.1,0-9.2,0-1.9.8-2.7,2.5-2.9,1.6-.2,3.3-.2,4.9-.2,1.2,0,2.2.7,2.9,1.8,1.7,2.8,3.5,5.7,5.2,8.5,1.2,2.1,2.4,4.2,3.7,6.3.2.3.6.6.8.5.3-.2.7-.5.7-.9,0-.6,0-1.2-.2-1.8-.5-1.5-.6-3.1-.6-4.7,0-2.6,0-5.3.1-7.9,0-1.7.5-2.4,2.1-2.3,1.8,0,3.6.3,5.4.7,1.3.3,1.5.7,1.5,2,0,2.1-.1,4.2-.1,6.2,0,2,0,4,0,6.1h-.2c0,3.7,0,7.3,0,11Z"/>
  <path class="st0" d="M540.5,123.9c.2-4.1.5-9.2.7-14.3,0-.5,0-.9.1-1.4,0-.7.3-1,1.1-1.1,1.8-.2,3.6-.6,5.4-.6,2.6-.1,5.3,0,8,0,3.5-.1,6,1.4,7.8,4.3,1.9,3,2.8,6.3,3.1,9.8.3,3.5,0,6.9-1.1,10.3-.7,2.1-1.6,4.2-3.2,5.8-1.7,1.8-3.7,3-6.4,2.9-4.2-.1-8.4-.2-12.5-.4-.1,0-.2,0-.4,0-3.3-.5-2.7-.5-2.7-2.9,0-3.8,0-7.5,0-12.3h0ZM549.8,124.4h.1c0,1.5-.1,3.1-.2,4.6,0,.5,0,.9.1,1.4,0,.8.6,1.1,1.2,1.4,1.5.5,3.9-.5,4.6-1.8,2.3-4.5,2.3-9,.4-13.6-.7-1.6-1.9-2.3-3.6-2.3-1.5,0-1.9.3-2,1.8-.2,2.9-.4,5.8-.6,8.6h0Z"/>
  <path class="st0" d="M570.2,128.2c.2-4.4.5-8.8.7-13.2,0-1.7,0-3.4.2-5.1,0-.7.4-1.5.7-2.1.3-.6.9-.9,1.6-.8,2.6.2,5.2,0,7.8-.3,2.2-.2,4.4-.1,6.5-.1,1.3,0,1.6.4,1.6,1.7,0,2,0,4,0,6,0,1.3-.6,1.9-1.9,2-1,0-2,0-3,0-.8,0-1.5.2-2.3.4-.7.2-1.3,1-1.2,1.6,0,.6.7,1,1.6,1.1.5,0,1.1,0,1.6,0,1.2,0,2,.6,2,1.8,0,1.6,0,3.2,0,4.8,0,.7-.5,1.1-1.2,1.1-.6,0-1.2,0-1.8,0-.5,0-1,0-1.4,0-.8.1-1.3.8-1.3,1.5,0,.7.5,1.1,1.1,1.1,1.2.1,2.3.2,3.5.3.9,0,1.9,0,2.8,0,.7,0,1.1.3,1.1,1.1,0,2.4,0,4.8,0,7.3,0,.8-.4,1.2-1.2,1.2-1.5,0-3.1.1-4.6.1-3.3,0-6.6-.2-9.9-.1-2.1,0-2.9-.5-3-2.7,0-2.8,0-5.7,0-8.5h-.2Z"/>
  <path class="st0" d="M593.4,133c0-8.1-.1-16.2-.2-24.4,0-1.4.4-2,1.8-2.3,2.1-.4,4.2-.6,6.3-.4,1.5.1,2.9,0,4.4,0,2.9-.2,5.8-.4,8.6.2,2.2.4,3.8,1.7,4.8,3.7,1.8,3.8,1.8,7.8.6,11.7-.4,1.5-1.3,2.8-2.6,3.7-1.4.9-1.3,1-.6,2.5,1.6,3.4,3.2,6.8,4.8,10.2.2.4.3.8.4,1.2,0,.7-.3,1.2-1,1.2-2.5,0-5.1,0-7.6,0-.7,0-1.2-.3-1.5-1-1.1-2.5-2.2-5-3.3-7.6-.4-.8-.6-1.8-1.1-2.5-.3-.5-.8-.9-1.3-1.1-.9-.3-1.6.2-1.7,1.3-.1,1.4-.1,2.8-.1,4.3,0,1.3,0,2.6,0,3.9,0,1.7-.6,2.3-2.3,2.4-2.1,0-4.2,0-6.4,0-1.3,0-1.7-.5-1.8-2,0-1.6,0-3.2,0-4.8,0,0-.1,0-.2,0ZM606.9,113.6v.2c-.7,0-1.3,0-2,0-.3,0-.7,0-1,.3-1.2,1-.5,5.2.9,5.8.1,0,.2,0,.3,0,1.2,0,2.5.2,3.7,0,2-.3,3.2-1.3,2.7-4-.2-1.1-.6-1.7-1.6-1.9-1-.2-2.1-.3-3.1-.5Z"/>
  <path class="st0" d="M643.3,140c-1.5-.2-2.9-.3-4.3-.5-.7,0-1.4,0-2.1,0-.7,0-1.3-.1-1.7-.7-.3-.4-.6-.9-.8-1.4-2-4.5-4.1-8.9-6-13.5-2.1-5.2-4-10.5-6-15.8-.5-1.4-.4-1.4,1-1.7,1.4-.4,2.8-.6,4.3-.3,1.4.3,2.8.3,4.2.4.8,0,1.3.4,1.5,1.2,0,.3.2.7.3,1,.8,4.5,2.6,8.6,4.6,12.7.8,1.8,1.4,3.6,1.7,5.5,0,.6.1,1.3.9,1.4.7,0,.9-.7,1-1.3.4-1.2.7-2.4,1-3.7,1.3-5,2.6-10,4-15,.4-1.7.5-1.5,2.2-1.4,1.7.2,3.5,0,5.3,0,.7,0,1.4-.3,2.1-.3,1.4,0,1.8.5,1.3,1.9-1.1,3.1-2.1,6.1-3.2,9.2-2.2,6.3-4.5,12.7-6.8,19-1,2.7-1.8,3.3-4.5,3.3h0Z"/>
  <path class="st0" d="M676.1,107c1.8,0,3.4,1.1,3.9,3,1.2,4.1,2.4,8.1,3.4,12.2,1.2,4.6,2.2,9.2,3.3,13.7.2.7.3,1.4.3,2.1,0,1.2-.7,1.8-1.9,1.9-1.8,0-3.5.1-5.3.2-.4,0-.8,0-1.2,0-.8-.2-1.4-.6-1.5-1.5-.3-1.5-.6-3-1-4.5-.4-1.6-.9-2.1-2.5-2.1-1.7,0-3.3,0-5,0-1.1,0-1.3.2-1.6,1.3-.4,1.5-.7,3-1.1,4.5-.5,1.9-1,2.1-2.9,2-1.5,0-3.1-.2-4.6-.1-2.4,0-2.8-1-2.4-2.9.4-2.3.9-4.5,1.4-6.7,1.7-6.8,3.3-13.5,5-20.2.4-1.8.9-2.2,2.8-2.4,2.2-.2,4.5-.3,6.7-.4v.2c1.4,0,2.7,0,4.1,0ZM670.9,124.6h0c.4,0,.8,0,1.2,0,1.7,0,2.1-.5,1.8-2.2-.3-1.7-.6-3.3-1-5-.3-1.3-.7-1.7-1.6-1.7-1.1,0-1.9.5-2.2,1.6-.4,1.7-.9,3.4-1.2,5.1-.3,1.8,0,2.1,1.8,2.1.4,0,.8,0,1.2,0h0Z"/>
  <path class="st0" d="M689.9,122.1c0-4.2,0-8.4,0-12.5,0-.5,0-1.1.2-1.6.1-.3.6-.7.9-.7,2.3-.2,4.7-.6,7-.1,1.5.3,1.6.3,1.6,2,0,6.1,0,12.1,0,18.2,0,1,.1,1.9.3,2.9,0,.7.5,1.1,1.2,1.1.6,0,1.3,0,1.9,0,1.7,0,2.2.4,2.2,2,0,1.8,0,3.5,0,5.3,0,.8-.3,1.3-1.1,1.2-2.5-.1-4.9-.2-7.4-.3-1.6,0-3.3-.1-5-.1-1.3,0-1.4,0-1.5-1.4-.1-1.8-.3-3.6-.3-5.4,0-3.5,0-7,0-10.5h0Z"/>
  <path class="st0" d="M726,120.9c0-2.7,0-5.3-.2-8,0-1.7-.3-3.3-.5-5-.1-1.2,0-1.5,1.2-1.6,2.1-.2,4.2-.7,6.3-.2.7.2,1.5,0,2.2-.2.5,0,.9,0,.9.5-.3,3.2.8,6.3.6,9.5-.3,4.6-.2,9.2-.6,13.7-.2,2.2-1.2,4.3-1.9,6.5-.1.4-.5.7-.9,1.1-.4.5-1,.8-1.4,1.3-1.2,1.7-2.9,2.3-4.8,2.4-3.6.3-7.2.6-10.6-.9-2-.9-4.1-1.6-5.6-3.5-1.4-1.9-2.3-3.9-2.5-6.2-.2-2.9-.5-5.9-.7-8.8-.1-2,0-4.1,0-6.1-.1-2.5-.4-5-.6-7.4,0-.3,0-.7-.1-1,0-1.1,0-1.3,1.1-1.3,2.8,0,5.5,0,8.3,0,1.2,0,1.3.1,1.4,1.3.2,4.4.4,8.8.6,13.2.1,2.5.1,5,.2,7.5,0,.7.2,1.4.3,2,.7,2.6,3.3,3.6,5.7,2.3,1.1-.6,1.8-1.5,1.7-3-.1-2.1,0-4.2,0-6.3,0-.7,0-1.4-.1-2.1,0,0,0,0,0,0h0Z"/>
  <path class="st0" d="M740.3,128.2c.2-4.4.5-8.8.7-13.2,0-1.7,0-3.4.2-5.1,0-.7.4-1.5.7-2.1.3-.6.9-.9,1.6-.8,2.6.2,5.2,0,7.8-.3,2.2-.2,4.4-.1,6.5-.1,1.3,0,1.6.4,1.6,1.7,0,2,0,4,0,6,0,1.3-.6,1.9-1.9,2-1,0-2,0-3,0-.8,0-1.5.2-2.3.4-.7.2-1.3,1-1.2,1.6,0,.6.7,1,1.6,1.1.5,0,1.1,0,1.6,0,1.2,0,2,.6,2,1.8,0,1.6,0,3.2,0,4.8,0,.7-.5,1.1-1.2,1.1-.6,0-1.2,0-1.8,0-.5,0-1,0-1.4,0-.8.1-1.3.8-1.3,1.5,0,.7.5,1.1,1.1,1.1,1.2.1,2.3.2,3.5.3.9,0,1.9,0,2.8,0,.7,0,1.1.3,1.1,1.1,0,2.4,0,4.8,0,7.3,0,.8-.4,1.2-1.2,1.2-1.5,0-3.1.1-4.6.1-3.3,0-6.6-.2-9.9-.1-2.1,0-2.9-.5-3-2.7,0-2.8,0-5.7,0-8.5h-.2Z"/>
  <path class="st0" d="M763.2,123.9c.2-4.1.5-9.2.7-14.3,0-.5,0-.9.1-1.4,0-.7.3-1,1.1-1.1,1.8-.2,3.6-.6,5.4-.6,2.6-.1,5.3,0,8,0,3.5-.1,6,1.4,7.8,4.3,1.9,3,2.8,6.3,3.1,9.8.3,3.5,0,6.9-1.1,10.3-.7,2.1-1.6,4.2-3.2,5.8-1.7,1.8-3.7,3-6.4,2.9-4.2-.1-8.4-.2-12.5-.4-.1,0-.2,0-.4,0-3.3-.5-2.7-.5-2.7-2.9,0-3.8,0-7.5,0-12.3h0ZM772.6,124.4h.1c0,1.5-.1,3.1-.2,4.6,0,.5,0,.9.1,1.4,0,.8.6,1.1,1.2,1.4,1.5.5,3.9-.5,4.6-1.8,2.3-4.5,2.3-9,.4-13.6-.7-1.6-1.9-2.3-3.6-2.3-1.5,0-1.9.3-2,1.8-.2,2.9-.4,5.8-.6,8.6h0Z"/>
  <path class="st0" d="M800,136.4c-.6,1.9-1.1,3.8-2.6,5.3-.7.7-1.2,1.7-1.9,2.5-.3.4-.8.7-1.2.9-1.5.5-2.5-.4-2.2-2,.1-.6.4-1.2.6-1.8.4-1.1.5-2.1-.3-3.1-.4-.5-.5-1.2-.6-1.9,0-1,0-2.1.2-3.1,0-.4.6-.8,1-1.2.3-.3.8-.5,1.2-.7.6-.3,1.2-.5,1.8-.7,2.9.4,4.8,3,4,5.7Z"/>
  <path class="st0" d="M857,105.9c1.2,0,2.5,0,3.7,0,.9,0,1.2.2,1.1,1.2,0,1.5-.3,3.1-.5,4.6-1,6.3-2,12.6-3.1,18.9-.4,2.2-.8,4.5-1.2,6.7-.2,1-.6,1.6-1.6,1.7-.5,0-1,.3-1.6.3-2.2,0-4.5,0-6.7.2-1,0-1.6-.4-1.9-1.3-.7-2-1.4-4-2-6.1-.7-2-1.2-4.1-1.9-6.1-.1-.4-.5-.9-.8-1-.6-.2-.9.4-1.1,1-.7,2-1.3,3.9-2,5.9-.7,2-1.3,4.1-2,6.1-.5,1.5-1.1,1.9-2.6,1.9-.8,0-1.5-.1-2.3-.2-.5,0-1-.2-1.4,0-1,.3-2,0-2.9-.3-.7-.3-1.1-.6-1.2-1.4-.3-1.5-.7-3-.9-4.5-.5-3.3-1-6.5-1.5-9.8-.6-3.1-1.3-6.1-1.9-9.1-.4-1.9-.9-3.8-1.2-5.8-.4-2.1.2-2.7,2.3-2.6,2.2.1,4.5.3,6.7.3.9,0,1.3.5,1.4,1.3.7,3.9,1.4,7.8,2,11.8.1.8,0,1.7,0,2.6,0,.7,0,1.7.7,1.9.9.2.9-.9,1.2-1.5.8-2,1.6-4.1,2.4-6.1.4-1,1.1-1.5,2.2-1.4,1.4,0,2.8,0,4.2,0,1.3-.1,2,.5,2.4,1.6.8,2.1,1.5,4.1,2.3,6.2.2.6.4,1.1.7,1.7,0,.2.4.4.6.3.2,0,.4-.4.6-.6,0,0,0-.2,0-.4-.4-2.8.5-5.5.9-8.2.3-2.1.8-4.2,1.3-6.3,0-.4.2-.8.3-1.2.4-1.3,1.3-2,2.6-2,.9,0,1.9,0,2.8,0h0s0,0,0,0Z"/>
  <path class="st0" d="M864.8,128.2c.2-4.4.5-8.8.7-13.2,0-1.7,0-3.4.2-5.1,0-.7.4-1.5.7-2.1.3-.6.9-.9,1.6-.8,2.6.2,5.2,0,7.8-.3,2.2-.2,4.4-.1,6.5-.1,1.3,0,1.6.4,1.6,1.7,0,2,0,4,0,6,0,1.3-.6,1.9-1.9,2-1,0-2,0-3,0-.8,0-1.5.2-2.3.4-.7.2-1.3,1-1.2,1.6,0,.6.7,1,1.6,1.1.5,0,1.1,0,1.6,0,1.2,0,2,.6,2,1.8,0,1.6,0,3.2,0,4.8,0,.7-.5,1.1-1.2,1.1-.6,0-1.2,0-1.8,0-.5,0-1,0-1.4,0-.8.1-1.3.8-1.3,1.5,0,.7.5,1.1,1.1,1.1,1.2.1,2.3.2,3.5.3.9,0,1.9,0,2.8,0,.7,0,1.1.3,1.1,1.1,0,2.4,0,4.8,0,7.3,0,.8-.4,1.2-1.2,1.2-1.5,0-3.1.1-4.6.1-3.3,0-6.6-.2-9.9-.1-2.1,0-2.9-.5-3-2.7,0-2.8,0-5.7,0-8.5h-.2Z"/>
  <path class="st0" d="M916.8,139.4c-3.2,0-6.5,0-9.7,0-1.5,0-1.6-.1-1.9-1.5,0-.5-.2-.9-.2-1.4-.4-6.4-.6-12.7-.2-19.1.2-2.7,0-5.4,0-8.1,0-1.9,0-2,1.8-2.3,4.3-.6,8.5-.9,12.9-.8,1.6,0,3.3.1,4.9.4,2.2.3,4,1.3,5.4,3,1.5,1.8,1.5,3.9,1.4,6,0,1.9-.8,3.6-2,5-.6.7-.4.9.3,1.3,2.8,1.4,4.3,3.8,4.9,6.8.9,4.6-2.5,10.3-8.2,10.4-3.1,0-6.2.2-9.4.3,0,0,0,0,0,0h0ZM915.9,112.8c-1,0-1.6.6-1.9,1.4-.4,1.1-.3,2.3.2,3.4.2.3.7.7,1.1.7,1.6,0,3.2,0,4.7-.3,2.3-.5,2.9-2.5,1.3-4.3-.4-.4-1.1-.7-1.7-.8-.6-.1-1.3,0-1.9,0s-1.3,0-1.9,0ZM914.8,130.4c.2,1.2.6,1.5,1.8,1.4,1.2,0,2.3-.2,3.5-.3,2.5-.2,3.7-2.4,2.4-4.5-.9-1.6-2.2-2.8-4.8-2.4-3.1.5-3.1.5-3,3.9,0,.4,0,1.1.2,1.9Z"/>
  <path class="st0" d="M937.4,128.2c.2-4.4.5-8.8.7-13.2,0-1.7,0-3.4.2-5.1,0-.7.4-1.5.7-2.1.3-.6.9-.9,1.6-.8,2.6.2,5.2,0,7.8-.3,2.2-.2,4.4-.1,6.5-.1,1.3,0,1.6.4,1.6,1.7,0,2,0,4,0,6,0,1.3-.6,1.9-1.9,2-1,0-2,0-3,0-.8,0-1.5.2-2.3.4-.7.2-1.3,1-1.2,1.6,0,.6.7,1,1.6,1.1.5,0,1.1,0,1.6,0,1.2,0,2,.6,2,1.8,0,1.6,0,3.2,0,4.8,0,.7-.5,1.1-1.2,1.1-.6,0-1.2,0-1.8,0-.5,0-1,0-1.4,0-.8.1-1.3.8-1.3,1.5,0,.7.5,1.1,1.1,1.1,1.2.1,2.3.2,3.5.3.9,0,1.9,0,2.8,0,.7,0,1.1.3,1.1,1.1,0,2.4,0,4.8,0,7.3,0,.8-.4,1.2-1.2,1.2-1.5,0-3.1.1-4.6.1-3.3,0-6.6-.2-9.9-.1-2.1,0-2.9-.5-3-2.7,0-2.8,0-5.7,0-8.5h-.2Z"/>
  <path class="st0" d="M960.4,122.1c0-4.2,0-8.4,0-12.5,0-.5,0-1.1.2-1.6.1-.3.6-.7.9-.7,2.3-.2,4.7-.6,7-.1,1.5.3,1.6.3,1.6,2,0,6.1,0,12.1,0,18.2,0,1,.1,1.9.3,2.9,0,.7.5,1.1,1.2,1.1.6,0,1.3,0,1.9,0,1.7,0,2.2.4,2.2,2,0,1.8,0,3.5,0,5.3,0,.8-.3,1.3-1.1,1.2-2.5-.1-4.9-.2-7.4-.3-1.6,0-3.3-.1-5-.1-1.3,0-1.4,0-1.5-1.4-.1-1.8-.3-3.6-.3-5.4,0-3.5,0-7,0-10.5h0Z"/>
  <path class="st0" d="M988.5,123.1c0,3.5,0,6.9,0,10.4,0,1.6-.1,3.2-.2,4.8-.1,1.3-.3,1.5-1.7,1.5-2.3,0-4.6-.2-6.9-.3-.3,0-.7-.5-.8-.8-.2-.9-.4-1.9-.4-2.8,0-6.5,0-13-.1-19.4,0-1.9,0-3.8,0-5.7,0-1,.2-2,.5-2.9.2-.7.7-1.2,1.5-1.3,1.6-.1,3.2-.2,4.7-.4.4,0,.7,0,1.1,0,1.6,0,2.1.5,2.1,2.2,0,4.9,0,9.8,0,14.7h.2,0Z"/>
  <path class="st0" d="M992.9,128.2c.2-4.4.5-8.8.7-13.2,0-1.7,0-3.4.2-5.1,0-.7.4-1.5.7-2.1.3-.6.9-.9,1.6-.8,2.6.2,5.2,0,7.8-.3,2.2-.2,4.4-.1,6.5-.1,1.3,0,1.6.4,1.6,1.7,0,2,0,4,0,6,0,1.3-.6,1.9-1.9,2-1,0-2,0-3,0-.8,0-1.5.2-2.3.4-.7.2-1.3,1-1.2,1.6,0,.6.7,1,1.6,1.1.5,0,1.1,0,1.6,0,1.2,0,2,.6,2,1.8,0,1.6,0,3.2,0,4.8,0,.7-.5,1.1-1.2,1.1-.6,0-1.2,0-1.8,0-.5,0-1,0-1.4,0-.8.1-1.3.8-1.3,1.5,0,.7.5,1.1,1.1,1.1,1.2.1,2.3.2,3.5.3.9,0,1.9,0,2.8,0,.7,0,1.1.3,1.1,1.1,0,2.4,0,4.8,0,7.3,0,.8-.4,1.2-1.2,1.2-1.5,0-3.1.1-4.6.1-3.3,0-6.6-.2-9.9-.1-2.1,0-2.9-.5-3-2.7,0-2.8,0-5.7,0-8.5h-.2Z"/>
  <path class="st0" d="M1034.8,140c-1.5-.2-2.9-.3-4.3-.5-.7,0-1.4,0-2.1,0-.7,0-1.3-.1-1.7-.7-.3-.4-.6-.9-.8-1.4-2-4.5-4.1-8.9-6-13.5-2.1-5.2-4-10.5-6-15.8-.5-1.4-.4-1.4,1-1.7,1.4-.4,2.8-.6,4.3-.3,1.4.3,2.8.3,4.2.4.8,0,1.3.4,1.5,1.2,0,.3.2.7.3,1,.8,4.5,2.6,8.6,4.6,12.7.8,1.8,1.4,3.6,1.7,5.5,0,.6.1,1.3.9,1.4.7,0,.9-.7,1-1.3.4-1.2.7-2.4,1-3.7,1.3-5,2.6-10,4-15,.4-1.7.5-1.5,2.2-1.4,1.7.2,3.5,0,5.3,0,.7,0,1.4-.3,2.1-.3,1.4,0,1.8.5,1.3,1.9-1.1,3.1-2.1,6.1-3.2,9.2-2.2,6.3-4.5,12.7-6.8,19-1,2.7-1.8,3.3-4.5,3.3h0Z"/>
  <path class="st0" d="M1051.7,128.2c.2-4.4.5-8.8.7-13.2,0-1.7,0-3.4.2-5.1,0-.7.4-1.5.7-2.1.3-.6.9-.9,1.6-.8,2.6.2,5.2,0,7.8-.3,2.2-.2,4.4-.1,6.5-.1,1.3,0,1.6.4,1.6,1.7,0,2,0,4,0,6,0,1.3-.6,1.9-1.9,2-1,0-2,0-3,0-.8,0-1.5.2-2.3.4-.7.2-1.3,1-1.2,1.6,0,.6.7,1,1.6,1.1.5,0,1.1,0,1.6,0,1.2,0,2,.6,2,1.8,0,1.6,0,3.2,0,4.8,0,.7-.5,1.1-1.2,1.1-.6,0-1.2,0-1.8,0-.5,0-1,0-1.4,0-.8.1-1.3.8-1.3,1.5,0,.7.5,1.1,1.1,1.1,1.2.1,2.3.2,3.5.3.9,0,1.9,0,2.8,0,.7,0,1.1.3,1.1,1.1,0,2.4,0,4.8,0,7.3,0,.8-.4,1.2-1.2,1.2-1.5,0-3.1.1-4.6.1-3.3,0-6.6-.2-9.9-.1-2.1,0-2.9-.5-3-2.7,0-2.8,0-5.7,0-8.5h-.2Z"/>
  <path class="st0" d="M151.5,170.5c0,3.5,0,6.9,0,10.4,0,1.6-.1,3.2-.2,4.8-.1,1.3-.3,1.5-1.7,1.5-2.3,0-4.6-.2-6.9-.3-.3,0-.7-.5-.8-.8-.2-.9-.4-1.9-.4-2.8,0-6.5,0-13-.1-19.4,0-1.9,0-3.8,0-5.7,0-1,.2-2,.5-2.9.2-.7.7-1.2,1.5-1.3,1.6-.1,3.2-.2,4.7-.4.4,0,.7,0,1.1,0,1.6,0,2.1.5,2.1,2.2,0,4.9,0,9.8,0,14.7h.2,0Z"/>
  <path class="st0" d="M162.6,179.6c0-2.6,0-5.3,0-7.9,0-1.9,0-3.9-.1-5.8,0-.8,0-1.6.3-2.4.4-.7,0-1.3-.8-1.3-.8,0-1.6,0-2.4.1-1.3.2-2.6.7-4,.9-1.2.2-1.4,0-1.4-1.3,0-.6,0-1.3.1-1.9.5-1.7.7-3.4.6-5.2,0-.7.4-1.1,1.1-1.2,1.1-.1,2.2-.2,3.3-.1,1.8.2,3.5.2,5.3,0,4.6-.7,9.2-1,13.9-.5,1.5.1,2.1.5,2.3,2,.3,2,.5,4.1,0,6.1-.3,1.1-.8,1.5-1.9,1.4-1.7,0-3.4-.3-5.1-.5-1.4-.2-1.6.1-1.5,1.5.1,2.4.1,4.8.1,7.2,0,4.4,0,8.7,0,13.1,0,.5,0,.9,0,1.4-.2,1.7-.7,2.1-2.5,1.9-1.8-.1-3.6-.3-5.5-.3-1.3,0-1.4,0-1.6-1.3-.2-1.2-.2-2.5-.2-3.7,0-.7,0-1.4,0-2.1h0,0Z"/>
  <path class="st0" d="M186.4,159.4c-.4.4-1,.7-1.6.3-.6-.4-.6-1-.3-1.7.7-1.4.7-1.4-.5-2.4-1.2-.9-2-3.5-1.6-4.9.4-1.5,1.9-2.4,3.5-2.1.4,0,.8.2,1.1.3,1.7.6,2.6,1.8,2.5,3.6-.6,2.5-1.3,4.9-3.1,6.8Z"/>
  <path class="st0" d="M205.8,188.7c-4.7,0-8.3-.9-11.2-3.2-1-.8-1.8-2-2.5-3-.5-.7-.4-1.4.4-2,1.5-1.1,3.1-2.1,4.6-3.1.5-.4,1-.3,1.5.2.9.8,1.9,1.5,2.9,2.2,1.4,1,3.1,1,4.8,1,2.2,0,3.2-2,2.6-3.4-.3-.8-.9-1.5-1.6-2.1-2.5-2.2-5.5-3.6-8.5-5.1-2.7-1.4-4.6-3.3-6.3-5.5-1-1.4-1-3.1-.7-4.7.6-3.3,2.7-5.7,6.1-7.1,2.7-1.1,5.5-1.6,8.5-1.1,1.4.2,2.8.5,4.1.9,1.2.4,2.4.9,3.4,1.5,2.6,1.6,2.6,2.2.4,4.2-1.1,1-2.2,2.1-3.4,3.1-1,.9-1.8.9-2.9.2-.7-.4-1.5-.9-2.3-1.2-1.1-.4-2.3.1-2.8,1-.5.8-.4,1.7.7,2.4,2,1.4,4.1,2.6,6.2,3.9,2.4,1.5,4.9,2.8,6.8,4.8,2.7,2.8,3.4,6.1,2.3,9.5-.3,1.1-1.3,2.1-2.2,3-1.8,1.7-4.1,2.8-6.7,3.2-1.7.2-3.3.3-4.2.4h0Z"/>
  <path class="st0" d="M245.6,171.7c0-1.9,0-3.9-.1-5.8,0-.8,0-1.6.3-2.4.4-.7,0-1.3-.8-1.3-.8,0-1.6,0-2.4.1-1.3.2-2.6.7-4,.9-1.2.2-1.4,0-1.4-1.3,0-.6,0-1.3.1-1.9.5-1.7.7-3.4.6-5.2,0-.7.4-1.1,1.1-1.2,1.1-.1,2.2-.2,3.3-.1,1.8.2,3.5.2,5.3,0,4.6-.7,9.2-1,13.9-.5,1.5.1,2.1.5,2.3,2,.3,2,.5,4.1,0,6.1-.3,1.1-.8,1.5-1.9,1.4-1.7,0-3.4-.3-5.1-.5-1.4-.2-1.6.1-1.5,1.5.1,2.4.1,4.8.1,7.2,0,4.4,0,8.7,0,13.1,0,.5,0,.9,0,1.4-.2,1.7-.7,2.1-2.5,1.9-1.8-.1-3.6-.3-5.5-.3-1.3,0-1.4,0-1.6-1.3-.2-1.2-.2-2.5-.2-3.7,0-.7,0-1.4,0-2.1h0c0-2.6,0-5.3,0-7.9Z"/>
  <path class="st0" d="M276.8,170.5c0,3.5,0,6.9,0,10.4,0,1.6-.1,3.2-.2,4.8-.1,1.3-.3,1.5-1.7,1.5-2.3,0-4.6-.2-6.9-.3-.3,0-.7-.5-.8-.8-.2-.9-.4-1.9-.4-2.8,0-6.5,0-13-.1-19.4,0-1.9,0-3.8,0-5.7,0-1,.2-2,.5-2.9.2-.7.7-1.2,1.5-1.3,1.6-.1,3.2-.2,4.7-.4.4,0,.7,0,1.1,0,1.6,0,2.1.5,2.1,2.2,0,4.9,0,9.8,0,14.7h.2Z"/>
  <path class="st0" d="M317.9,186.9c-1.3,0-2.6-.2-3.9-.3-1.6-.1-1.7-.1-1.9-1.7-.5-3.1-1.1-6.2-1.6-9.3-.3-1.8-.5-3.5-.7-5.3,0-.2,0-.4,0-.6-.1-.5-.2-1.1-.8-1-.3,0-.6.6-.6,1-.2,2.5-1.3,4.6-2.3,6.7-.5,1.1-1.2,1.7-2.5,1.6-1.3,0-2.7,0-4.1,0-1.3,0-2-.5-2.5-1.6-.8-2.2-1.6-4.3-2.5-6.5-.1-.3-.2-.7-.3-1-.2-.3-.5-.5-.8-.8-.2.3-.5.6-.4.9.1,2.8-.6,5.5-1.1,8.2-.5,2.7-1.1,5.4-1.7,8.1-.4,1.6-.5,1.6-2,1.6-2.3,0-4.7,0-7,0-.8,0-1.1-.4-1.1-1.1.1-1.4.2-2.8.4-4.2.9-5.4,1.8-10.9,2.7-16.3.6-3.3,1.2-6.5,1.7-9.8.2-1.1.7-1.5,1.6-1.7.3,0,.7-.2,1-.2,2.4,0,4.8-.1,7.2-.3,1,0,1.6.4,1.9,1.3.7,1.9,1.3,3.8,1.9,5.7.6,2,1.2,4.1,1.8,6.2.2.7.3,1.6,1.2,1.6.4,0,.9-.9,1.1-1.5,1.1-3.2,2.1-6.5,3.2-9.8.2-.8.5-1.5.7-2.3.3-1.1,1.1-1.6,2.1-1.6.6,0,1.3.1,1.9.2.9,0,1.8,0,2.6.1.9.1,1.9.2,2.7.5.4.1.8.8.9,1.2.5,2.2.8,4.5,1.2,6.7.1.8.3,1.7.4,2.5,1.2,6.2,2.5,12.5,3.7,18.7.1.5.2,1.1.3,1.6.2,1.5-.4,2.3-1.9,2.3-.9,0-1.9-.1-2.8-.2,0,0,0,0,0,0h0Z"/>
  <path class="st0" d="M325.4,175.5c.2-4.4.5-8.8.7-13.2,0-1.7,0-3.4.2-5.1,0-.7.4-1.5.7-2.1.3-.6.9-.9,1.6-.8,2.6.2,5.2,0,7.8-.3,2.2-.2,4.4-.1,6.5-.1,1.3,0,1.6.4,1.6,1.7,0,2,0,4,0,6,0,1.3-.6,1.9-1.9,2-1,0-2,0-3,0-.8,0-1.5.2-2.3.4-.7.2-1.2,1-1.2,1.6,0,.6.7,1,1.6,1.1.5,0,1.1,0,1.6,0,1.2,0,2,.6,2,1.8,0,1.6,0,3.2,0,4.8,0,.7-.5,1.1-1.2,1.1-.6,0-1.2,0-1.8,0-.5,0-.9,0-1.4,0-.8.1-1.3.8-1.3,1.5,0,.7.5,1.1,1.1,1.1,1.2.1,2.3.2,3.5.3.9,0,1.9,0,2.8,0,.7,0,1.1.3,1.1,1.1,0,2.4,0,4.8,0,7.3,0,.8-.4,1.2-1.2,1.2-1.5,0-3.1.1-4.6.1-3.3,0-6.6-.2-9.9-.1-2.1,0-2.9-.5-3-2.7,0-2.8,0-5.7,0-8.5h-.2Z"/>
  <path class="st0" d="M365.2,172.7c0-3.3-.1-6.6,0-9.9,0-2.3.4-4.6.9-6.8.4-2,1.5-2.5,3.4-2,1.8.5,3.6.1,5.4,0,2.7-.1,5.4-.2,8.1-.3,1.1,0,1.5.4,1.5,1.5,0,2.1,0,4.2,0,6.4,0,1.3-.6,1.9-2,1.9-1.1,0-2.1,0-3.2,0-.8,0-1.5.2-2.2.4-.8.3-1,.9-.9,1.7.1.8.7.9,1.3.9.6,0,1.2,0,1.8,0,1.4,0,2.2.7,2.2,2,0,1.5-.1,3.1-.2,4.6,0,.7-.5,1-1.2,1.1-.8,0-1.7,0-2.5,0-1.8,0-2.2.6-2.3,2.4,0,2.6,0,5.2,0,7.8,0,1.9-.3,2.1-2.2,2.2-1.9,0-3.8,0-5.7,0-1,0-1.7-.5-2-1.4-.2-.5-.3-1.1-.3-1.7,0-2.7,0-5.4,0-8.1,0-.9,0-1.8,0-2.6h0Z"/>
  <path class="st0" d="M405.8,189c-6.5,0-10.9-2-14.2-5.8-5.8-6.7-6.8-14.1-2.9-21.9,4.2-8.4,13.5-10.8,20.9-7.8,5.5,2.2,9,6.2,10.8,11.7,1.8,5.2,1.4,10.2-1.2,15-3.1,5.7-8.1,8.7-13.4,8.8h0ZM396.7,170.1c0,1.6.4,3.3,1.2,4.6,2.5,4.5,8.6,5.4,12,1.6,3.3-3.6,3.4-8.5.2-12.4-1.1-1.3-2.5-2.1-4.2-2.4-1.1-.1-2.4-.4-3.3,0-3.8,1.6-5.8,4.4-5.8,8.5h0Z"/>
  <path class="st0" d="M425,180.3c0-8.1-.1-16.2-.2-24.4,0-1.4.4-2,1.8-2.3,2.1-.4,4.2-.6,6.3-.4,1.5.1,2.9,0,4.4,0,2.9-.2,5.8-.4,8.6.2,2.2.4,3.8,1.7,4.8,3.7,1.8,3.8,1.8,7.8.6,11.7-.4,1.5-1.3,2.8-2.6,3.7-1.4.9-1.3,1-.6,2.5,1.6,3.4,3.2,6.8,4.8,10.2.2.4.3.8.4,1.2,0,.7-.3,1.2-1,1.2-2.5,0-5.1,0-7.6,0-.7,0-1.2-.3-1.5-1-1.1-2.5-2.2-5-3.3-7.6-.4-.8-.6-1.8-1.1-2.5-.3-.5-.8-.9-1.3-1.1-.9-.3-1.6.2-1.7,1.3-.1,1.4-.1,2.8-.1,4.3,0,1.3,0,2.6,0,3.9,0,1.7-.6,2.3-2.3,2.4-2.1,0-4.2,0-6.4,0-1.3,0-1.7-.5-1.8-2,0-1.6,0-3.2,0-4.8,0,0-.1,0-.2,0ZM438.6,161v.2c-.7,0-1.3,0-2,0-.3,0-.7,0-1,.3-1.2,1-.5,5.2.9,5.8.1,0,.2,0,.3,0,1.2,0,2.5.2,3.7,0,2-.3,3.2-1.3,2.7-4-.2-1.1-.6-1.7-1.6-1.9-1-.2-2.1-.3-3.1-.5Z"/>
  <path class="st0" d="M486.4,188.7c-4.7,0-8.3-.9-11.2-3.2-1-.8-1.8-2-2.5-3-.5-.7-.4-1.4.4-2,1.5-1.1,3.1-2.1,4.6-3.1.5-.4,1-.3,1.5.2.9.8,1.9,1.5,2.9,2.2,1.4,1,3.1,1,4.8,1,2.2,0,3.2-2,2.6-3.4-.3-.8-.9-1.5-1.6-2.1-2.5-2.2-5.5-3.6-8.5-5.1-2.7-1.4-4.6-3.3-6.3-5.5-1-1.4-1-3.1-.7-4.7.6-3.3,2.7-5.7,6.1-7.1,2.7-1.1,5.5-1.6,8.5-1.1,1.4.2,2.8.5,4.1.9,1.2.4,2.4.9,3.4,1.5,2.6,1.6,2.6,2.2.4,4.2-1.1,1-2.2,2.1-3.4,3.1-1,.9-1.8.9-2.9.2-.7-.4-1.5-.9-2.3-1.2-1.1-.4-2.3.1-2.8,1-.5.8-.4,1.7.7,2.4,2,1.4,4.1,2.6,6.2,3.9,2.4,1.5,4.9,2.8,6.8,4.8,2.7,2.8,3.4,6.1,2.3,9.5-.3,1.1-1.3,2.1-2.2,3-1.8,1.7-4.1,2.8-6.7,3.2-1.7.2-3.3.3-4.2.4h0Z"/>
  <path class="st0" d="M506.9,183.2c-5.8-6.7-6.8-14.1-2.9-21.9,4.2-8.4,13.5-10.8,20.9-7.8,5.5,2.2,9,6.2,10.8,11.7,1.8,5.2,1.4,10.2-1.2,15-3.1,5.7-8.1,8.7-13.4,8.8-6.5,0-10.9-2-14.2-5.8ZM512,170.1c0,1.6.4,3.3,1.2,4.6,2.5,4.5,8.6,5.4,12,1.6,3.3-3.6,3.4-8.5.2-12.4-1.1-1.3-2.5-2.1-4.2-2.4-1.1-.1-2.4-.4-3.3,0-3.8,1.6-5.8,4.4-5.8,8.5h0Z"/>
  <path class="st0" d="M576.5,186.9c-1.3,0-2.6-.2-3.9-.3-1.6-.1-1.7-.1-1.9-1.7-.5-3.1-1.1-6.2-1.6-9.3-.3-1.8-.5-3.5-.7-5.3,0-.2,0-.4,0-.6-.1-.5-.2-1.1-.8-1-.3,0-.6.6-.6,1-.2,2.5-1.3,4.6-2.3,6.7-.5,1.1-1.2,1.7-2.5,1.6-1.4,0-2.7,0-4.1,0-1.2,0-2-.5-2.5-1.6-.8-2.2-1.6-4.3-2.5-6.5-.1-.3-.2-.7-.3-1-.2-.3-.5-.5-.8-.8-.2.3-.5.6-.4.9.1,2.8-.6,5.5-1.1,8.2-.5,2.7-1.1,5.4-1.7,8.1-.4,1.6-.5,1.6-2,1.6-2.3,0-4.7,0-7,0-.8,0-1.1-.4-1.1-1.1.1-1.4.2-2.8.4-4.2.9-5.4,1.8-10.9,2.7-16.3.6-3.3,1.2-6.5,1.7-9.8.2-1.1.7-1.5,1.6-1.7.3,0,.7-.2,1-.2,2.4,0,4.8-.1,7.2-.3,1,0,1.5.4,1.9,1.3.7,1.9,1.3,3.8,1.9,5.7.6,2,1.2,4.1,1.8,6.2.2.7.3,1.6,1.2,1.6.4,0,.9-.9,1.1-1.5,1.1-3.2,2.1-6.5,3.2-9.8.2-.8.5-1.5.7-2.3.3-1.1,1.1-1.6,2.1-1.6.6,0,1.3.1,1.9.2.9,0,1.8,0,2.6.1.9.1,1.9.2,2.7.5.4.1.8.8.9,1.2.5,2.2.8,4.5,1.2,6.7.1.8.3,1.7.4,2.5,1.2,6.2,2.5,12.5,3.7,18.7.1.5.2,1.1.3,1.6.2,1.5-.4,2.3-1.9,2.3-.9,0-1.9-.1-2.8-.2,0,0,0,0,0,0h0Z"/>
  <path class="st0" d="M584.1,175.5c.2-4.4.5-8.8.7-13.2,0-1.7,0-3.4.2-5.1,0-.7.4-1.5.7-2.1.3-.6.9-.9,1.6-.8,2.6.2,5.2,0,7.8-.3,2.2-.2,4.4-.1,6.5-.1,1.3,0,1.6.4,1.6,1.7,0,2,0,4,0,6,0,1.3-.6,1.9-1.9,2-1,0-2,0-3,0-.8,0-1.5.2-2.3.4-.7.2-1.3,1-1.2,1.6,0,.6.7,1,1.6,1.1.5,0,1.1,0,1.6,0,1.2,0,2,.6,2,1.8,0,1.6,0,3.2,0,4.8,0,.7-.5,1.1-1.2,1.1-.6,0-1.2,0-1.8,0-.5,0-1,0-1.4,0-.8.1-1.3.8-1.3,1.5,0,.7.5,1.1,1.1,1.1,1.2.1,2.3.2,3.5.3.9,0,1.9,0,2.8,0,.7,0,1.1.3,1.1,1.1,0,2.4,0,4.8,0,7.3,0,.8-.4,1.2-1.2,1.2-1.5,0-3.1.1-4.6.1-3.3,0-6.6-.2-9.9-.1-2.1,0-2.9-.5-3-2.7,0-2.8,0-5.7,0-8.5h-.2Z"/>
  <path class="st0" d="M613.5,171.7c0-1.9,0-3.9-.1-5.8,0-.8,0-1.6.3-2.4.4-.7,0-1.3-.8-1.3-.8,0-1.6,0-2.4.1-1.3.2-2.6.7-4,.9-1.2.2-1.4,0-1.4-1.3,0-.6,0-1.3.1-1.9.5-1.7.7-3.4.6-5.2,0-.7.4-1.1,1.1-1.2,1.1-.1,2.2-.2,3.3-.1,1.8.2,3.5.2,5.3,0,4.6-.7,9.2-1,13.9-.5,1.5.1,2.1.5,2.3,2,.3,2,.5,4.1,0,6.1-.3,1.1-.8,1.5-1.9,1.4-1.7,0-3.4-.3-5.1-.5-1.4-.2-1.6.1-1.5,1.5.1,2.4.1,4.8.1,7.2,0,4.4,0,8.7,0,13.1,0,.5,0,.9,0,1.4-.2,1.7-.7,2.1-2.5,1.9-1.8-.1-3.6-.3-5.5-.3-1.3,0-1.4,0-1.6-1.3-.2-1.2-.2-2.5-.2-3.7,0-.7,0-1.4,0-2.1h0c0-2.6,0-5.3,0-7.9Z"/>
  <path class="st0" d="M634.6,169.7c0-4.6,0-9.1,0-13.7,0-.4,0-.7,0-1.1.1-.8.5-1.3,1.3-1.1,2.1.5,4.2-.2,6.3-.1.2,0,.5,0,.7,0,1.3,0,1.8.5,1.9,1.8.1,2,.2,4.1.3,6.1,0,.6,0,1.2,0,1.8.2,1.1.7,1.5,1.8,1.6.7,0,1.4,0,2.1,0,1.4,0,1.7-.4,1.8-1.9,0-2.3,0-4.6.1-6.8,0-2,.7-2.6,2.7-2.6,1.4,0,2.7,0,4.1.1.4,0,.8,0,1.2.2,1.6.7,1.7.7,1.7,2.3.2,5.2.3,10.4.5,15.6,0,1.9.2,3.8.2,5.7,0,2.3-.1,4.6-.2,6.8,0,1.2-.4,1.8-1.6,2-1.2.2-2.4.5-3.7.5-1.1,0-2.3-.3-3.4-.6-.7-.2-.7-1-.8-1.7-.1-2-.3-3.9-.3-5.9,0-1.1,0-2.3,0-3.4s-.5-1.9-1.9-1.8c-.9,0-1.8.2-2.6.4-.3,0-.8.4-.9.8-.2.6-.3,1.3-.3,1.9,0,2.1.2,4.2.2,6.3,0,.9-.1,1.9-.3,2.8-.1.6-.5.8-1.2.7-1.6-.2-3.3-.4-4.9-.5-1,0-2.1,0-3.1.2-.9.1-1.2,0-1.3-.9-.2-2.1-.3-4.2-.3-6.3,0-3.2,0-6.4,0-9.5h-.2,0Z"/>
  <path class="st0" d="M676,170.5c0,3.5,0,6.9,0,10.4,0,1.6-.1,3.2-.2,4.8-.1,1.3-.3,1.5-1.7,1.5-2.3,0-4.6-.2-6.9-.3-.3,0-.7-.5-.8-.8-.2-.9-.4-1.9-.4-2.8,0-6.5,0-13-.1-19.4,0-1.9,0-3.8,0-5.7,0-1,.2-2,.5-2.9.2-.7.7-1.2,1.5-1.3,1.6-.1,3.2-.2,4.7-.4.4,0,.7,0,1.1,0,1.6,0,2.1.5,2.1,2.2,0,4.9,0,9.8,0,14.7h.2,0Z"/>
  <path class="st0" d="M709.5,179.1c0,1.8-.2,3.7-.3,5.5-.1,1.5-.4,1.8-1.8,2.1-1.3.2-2.6.2-3.9.2-1.1,0-2-.6-2.7-1.6-1.3-1.8-2.6-3.7-3.7-5.6-1.5-2.6-2.7-5.4-4.1-8.1-.2-.5-.5-1-.8-1.4-.1-.2-.6-.3-.8-.2-.3.1-.5.4-.6.8,0,.3,0,.6,0,.9,0,.6.1,1.2,0,1.8,0,3.7-.2,7.4-.3,11.2,0,1.6-.3,2.1-1.9,2.4-1.6.3-3.3.5-4.9.7-1.8.2-3.4-1.1-3.4-3.3.1-5.4.2-10.8.3-16.2,0-.8,0-1.6,0-2.4,0-3.1-.1-6.1,0-9.2,0-1.9.8-2.7,2.5-2.9,1.6-.2,3.3-.2,4.9-.2,1.2,0,2.2.7,2.9,1.8,1.7,2.8,3.5,5.7,5.2,8.5,1.2,2.1,2.4,4.2,3.7,6.3.2.3.6.6.8.5.3-.2.7-.5.7-.9,0-.6,0-1.2-.2-1.8-.5-1.5-.6-3.1-.6-4.7,0-2.6,0-5.3.1-7.9,0-1.7.5-2.4,2.1-2.3,1.8,0,3.6.3,5.4.7,1.3.3,1.5.7,1.5,2,0,2.1-.1,4.2-.1,6.2,0,2,0,4,0,6.1h-.2c0,3.7,0,7.3,0,11Z"/>
  <path class="st0" d="M739.6,167.5c1.5,0,3.1,0,4.6,0,2.5.1,3,.6,3.2,3.2.1,2.1-.1,4.2-.7,6.3-.8,2.6-2.1,5-4,7-2.3,2.4-5.2,3.5-8.4,3.8-3.6.3-7.2,0-10.6-1.2-4.3-1.4-7.2-4.4-9-8.5-2.6-6-2-11.7,1.4-17.2,1.5-2.5,3.6-4.4,5.9-5.9.9-.6,2-.7,2.9-1.1,2.9-1.3,6-1,9.1-.9,2.1,0,2.6.6,2.6,2.7s-.2,2.8-.4,4.2c0,.8-.6,1-1.3,1.1-2.2,0-4.3.5-6.4,1.3-3.6,1.6-6.1,5.1-5.3,8.8,1.5,7.4,8.4,9.2,12.8,6.9.8-.4,1.5-1.1,2.1-1.8.6-.9.3-1.6-.9-1.7-1.2,0-2.4,0-3.5,0-1.7,0-2-.3-2.1-2.1,0-1.1,0-2.1,0-3.2,0-.8.5-1.3,1.3-1.4,2.2-.2,4.3-.3,6.5-.5,0,0,0,.1,0,.2Z"/>
  <path class="st0" d="M779.4,186.8c-3.2,0-6.5,0-9.7,0-1.5,0-1.6-.1-1.9-1.5,0-.5-.2-.9-.2-1.4-.4-6.4-.6-12.7-.2-19.1.2-2.7,0-5.4,0-8.1,0-1.9,0-2,1.8-2.3,4.3-.6,8.5-.9,12.9-.8,1.6,0,3.3.1,4.9.4,2.2.3,4,1.3,5.4,3,1.5,1.8,1.5,3.9,1.4,6,0,1.9-.8,3.6-2,5-.6.7-.4.9.3,1.3,2.8,1.4,4.3,3.8,4.9,6.8.9,4.6-2.5,10.3-8.2,10.4-3.1,0-6.2.2-9.4.3,0,0,0,0,0,0h0ZM778.5,160.1c-1,0-1.6.6-1.9,1.4-.4,1.1-.3,2.3.2,3.4.2.3.7.7,1.1.7,1.6,0,3.2,0,4.7-.3,2.3-.5,2.9-2.5,1.3-4.3-.4-.4-1.1-.7-1.7-.8-.6-.1-1.3,0-1.9,0s-1.3,0-1.9,0ZM777.4,177.8c.2,1.2.6,1.5,1.8,1.4,1.2,0,2.3-.2,3.5-.3,2.5-.2,3.7-2.4,2.4-4.5-.9-1.6-2.2-2.8-4.8-2.4-3.1.5-3.1.5-3,3.9,0,.4,0,1.1.2,1.9Z"/>
  <path class="st0" d="M800,175.5c.2-4.4.5-8.8.7-13.2,0-1.7,0-3.4.2-5.1,0-.7.4-1.5.7-2.1.3-.6.9-.9,1.6-.8,2.6.2,5.2,0,7.8-.3,2.2-.2,4.4-.1,6.5-.1,1.3,0,1.6.4,1.6,1.7,0,2,0,4,0,6,0,1.3-.6,1.9-1.9,2-1,0-2,0-3,0-.8,0-1.5.2-2.3.4-.7.2-1.3,1-1.2,1.6,0,.6.7,1,1.6,1.1.5,0,1.1,0,1.6,0,1.2,0,2,.6,2,1.8,0,1.6,0,3.2,0,4.8,0,.7-.5,1.1-1.2,1.1-.6,0-1.2,0-1.8,0-.5,0-1,0-1.4,0-.8.1-1.3.8-1.3,1.5,0,.7.5,1.1,1.1,1.1,1.2.1,2.3.2,3.5.3.9,0,1.9,0,2.8,0,.7,0,1.1.3,1.1,1.1,0,2.4,0,4.8,0,7.3,0,.8-.4,1.2-1.2,1.2-1.5,0-3.1.1-4.6.1-3.3,0-6.6-.2-9.9-.1-2.1,0-2.9-.5-3-2.7,0-2.8,0-5.7,0-8.5h-.2Z"/>
  <path class="st0" d="M829.4,171.7c0-1.9,0-3.9-.1-5.8,0-.8,0-1.6.3-2.4.4-.7,0-1.3-.8-1.3-.8,0-1.6,0-2.4.1-1.3.2-2.6.7-4,.9-1.2.2-1.4,0-1.4-1.3,0-.6,0-1.3.1-1.9.5-1.7.7-3.4.6-5.2,0-.7.4-1.1,1.1-1.2,1.1-.1,2.2-.2,3.3-.1,1.8.2,3.5.2,5.3,0,4.6-.7,9.2-1,13.9-.5,1.5.1,2.1.5,2.3,2,.3,2,.5,4.1,0,6.1-.3,1.1-.8,1.5-1.9,1.4-1.7,0-3.4-.3-5.1-.5-1.4-.2-1.6.1-1.5,1.5.1,2.4.1,4.8.1,7.2,0,4.4,0,8.7,0,13.1,0,.5,0,.9,0,1.4-.2,1.7-.7,2.1-2.5,1.9-1.8-.1-3.6-.3-5.5-.3-1.3,0-1.4,0-1.6-1.3-.2-1.2-.2-2.5-.2-3.7,0-.7,0-1.4,0-2.1h0c0-2.6,0-5.3,0-7.9Z"/>
  <path class="st0" d="M857,171.7c0-1.9,0-3.9-.1-5.8,0-.8,0-1.6.3-2.4.4-.7,0-1.3-.8-1.3-.8,0-1.6,0-2.4.1-1.3.2-2.6.7-4,.9-1.2.2-1.4,0-1.4-1.3,0-.6,0-1.3.1-1.9.5-1.7.7-3.4.6-5.2,0-.7.4-1.1,1.1-1.2,1.1-.1,2.2-.2,3.3-.1,1.8.2,3.5.2,5.3,0,4.6-.7,9.2-1,13.9-.5,1.5.1,2.1.5,2.3,2,.3,2,.5,4.1,0,6.1-.3,1.1-.8,1.5-1.9,1.4-1.7,0-3.4-.3-5.1-.5-1.4-.2-1.6.1-1.5,1.5.1,2.4.1,4.8.1,7.2,0,4.4,0,8.7,0,13.1,0,.5,0,.9,0,1.4-.2,1.7-.7,2.1-2.5,1.9-1.8-.1-3.6-.3-5.5-.3-1.3,0-1.4,0-1.6-1.3-.2-1.2-.2-2.5-.2-3.7,0-.7,0-1.4,0-2.1h0c0-2.6,0-5.3,0-7.9Z"/>
  <path class="st0" d="M877.8,175.5c.2-4.4.5-8.8.7-13.2,0-1.7,0-3.4.2-5.1,0-.7.4-1.5.7-2.1.3-.6.9-.9,1.6-.8,2.6.2,5.2,0,7.8-.3,2.2-.2,4.4-.1,6.5-.1,1.3,0,1.6.4,1.6,1.7,0,2,0,4,0,6,0,1.3-.6,1.9-1.9,2-1,0-2,0-3,0-.8,0-1.5.2-2.3.4-.7.2-1.3,1-1.2,1.6,0,.6.7,1,1.6,1.1.5,0,1.1,0,1.6,0,1.2,0,2,.6,2,1.8,0,1.6,0,3.2,0,4.8,0,.7-.5,1.1-1.2,1.1-.6,0-1.2,0-1.8,0-.5,0-1,0-1.4,0-.8.1-1.3.8-1.3,1.5,0,.7.5,1.1,1.1,1.1,1.2.1,2.3.2,3.5.3.9,0,1.9,0,2.8,0,.7,0,1.1.3,1.1,1.1,0,2.4,0,4.8,0,7.3,0,.8-.4,1.2-1.2,1.2-1.5,0-3.1.1-4.6.1-3.3,0-6.6-.2-9.9-.1-2.1,0-2.9-.5-3-2.7,0-2.8,0-5.7,0-8.5h-.2Z"/>
  <path class="st0" d="M901,180.3c0-8.1-.1-16.2-.2-24.4,0-1.4.4-2,1.8-2.3,2.1-.4,4.2-.6,6.3-.4,1.5.1,2.9,0,4.4,0,2.9-.2,5.8-.4,8.6.2,2.2.4,3.8,1.7,4.8,3.7,1.8,3.8,1.8,7.8.6,11.7-.4,1.5-1.3,2.8-2.6,3.7-1.4.9-1.3,1-.6,2.5,1.6,3.4,3.2,6.8,4.8,10.2.2.4.3.8.4,1.2,0,.7-.3,1.2-1,1.2-2.5,0-5.1,0-7.6,0-.7,0-1.2-.3-1.5-1-1.1-2.5-2.2-5-3.3-7.6-.4-.8-.6-1.8-1.1-2.5-.3-.5-.8-.9-1.3-1.1-.9-.3-1.6.2-1.7,1.3-.1,1.4-.1,2.8-.1,4.3,0,1.3,0,2.6,0,3.9,0,1.7-.6,2.3-2.3,2.4-2.1,0-4.2,0-6.4,0-1.3,0-1.7-.5-1.8-2,0-1.6,0-3.2,0-4.8,0,0-.1,0-.2,0ZM914.6,161v.2c-.7,0-1.3,0-2,0-.3,0-.7,0-1,.3-1.2,1-.5,5.2.9,5.8.1,0,.2,0,.3,0,1.2,0,2.5.2,3.7,0,2-.3,3.2-1.3,2.7-4-.2-1.1-.6-1.7-1.6-1.9-1-.2-2.1-.3-3.1-.5Z"/>
  <path class="st0" d="M939.4,184.2c0,1.6-1,2.8-2.6,3-2.9.3-4.4-.4-5-2.8-.4-1.8.6-3.3,2.4-3.7.7-.1,1.5-.3,2.2-.2,1.7.1,2.9,1.8,2.9,3.7h0Z"/>
</svg>