<?xml version="1.0" encoding="UTF-8"?>
<svg id="Layer_1" xmlns="http://www.w3.org/2000/svg" version="1.1" viewBox="0 0 1280 218.5">
  <!-- Generator: Adobe Illustrator 29.4.0, SVG Export Plug-In . SVG Version: 2.1.0 Build 152)  -->
  <defs>
    <style>
      .st0 {
        fill: #ffef09;
      }

      .st0, .st1 {
        stroke: #000;
        stroke-linejoin: round;
        stroke-width: 4.7px;
      }
    </style>
  </defs>
  <g>
    <path class="st1" d="M20.3,66.4c-1.6,0-3.2,0-4.7,0-1.5,0-2-.6-2.2-2.2,0-.3,0-.7,0-1-.1-9.4-.3-18.7-.4-28.1,0-4.1,0-8.1-.1-12.2,0-1.9.6-2.8,2.5-3.2,3-.6,6.1-.9,9.2-.5,2,.2,4,0,6-.1,3.6-.2,7.3-.6,10.9.2,2.5.6,4.4,1.8,5.5,4.1,2.9,5.9,3.6,12,.9,18.2-1,2.2-2.6,3.8-4.9,4.6-3.2,1.1-6.3,2.2-9.7,2.5-.6,0-1.2.1-1.7.3-2.6.7-3.1,1.3-3.2,4.1-.1,3.3-.2,6.6-.3,9.8-.1,3-.7,3.6-3.6,3.7-.7,0-1.3,0-2,0-.7,0-1.3,0-2,0h0ZM31.4,28.8h0c-.6,0-1.2,0-1.7,0-1.7.1-2.2.5-2.3,2.3,0,1.3,0,2.6.1,3.9.2,1.7,1.2,2.7,2.9,3,2.2.3,4.2-.5,6.1-1.6.4-.3.8-.9.9-1.4.8-3.4-1.1-6-4.5-6.2-.5,0-1,0-1.5,0h0Z"/>
    <path class="st1" d="M53.9,57c0-11.4-.2-22.9-.3-34.3,0-2,.6-2.8,2.5-3.2,2.9-.6,5.9-.9,8.9-.6,2.1.2,4.1,0,6.2-.1,4.1-.2,8.1-.6,12.2.2,3.1.6,5.4,2.3,6.8,5.2,2.6,5.3,2.6,10.9.9,16.5-.6,2.1-1.8,3.9-3.7,5.1-1.9,1.3-1.8,1.4-.8,3.5,2.3,4.8,4.5,9.5,6.7,14.3.3.5.5,1.1.6,1.7.1,1-.4,1.7-1.4,1.7-3.6,0-7.1,0-10.7,0-1.1,0-1.7-.5-2.1-1.5-1.6-3.6-3.1-7.1-4.7-10.7-.5-1.2-.9-2.5-1.6-3.6-.4-.7-1.2-1.3-1.9-1.5-1.3-.5-2.3.3-2.4,1.8-.1,2-.2,4-.2,6,0,1.8,0,3.7,0,5.5-.1,2.4-.9,3.3-3.3,3.4-3,0-6,0-9,0-1.9,0-2.4-.7-2.5-2.8,0-2.3,0-4.5,0-6.8,0,0-.2,0-.2,0ZM73,29.7v.3c-.9,0-1.8,0-2.7,0-.5,0-1,.1-1.4.4-1.7,1.5-.7,7.3,1.2,8.1.2,0,.3.1.5.1,1.7,0,3.5.3,5.2,0,2.8-.4,4.5-1.9,3.9-5.7-.2-1.5-.8-2.4-2.3-2.7-1.5-.2-2.9-.4-4.4-.6Z"/>
    <path class="st1" d="M124,69.2c-9.2,0-15.3-2.8-20-8.2-8.1-9.4-9.6-19.8-4.1-30.8,5.9-11.9,19-15.2,29.4-11,7.8,3.1,12.7,8.7,15.3,16.4,2.5,7.3,2,14.4-1.7,21.2-4.4,8-11.4,12.2-18.9,12.5h0ZM112.8,49.1c3.5,6.4,12.1,7.6,16.9,2.2,4.6-5.1,4.8-12,.3-17.4-1.5-1.8-3.5-3-5.9-3.3-1.6-.2-3.4-.6-4.7,0-5.3,2.2-8.2,6.2-8.2,12,0,2.3.6,4.6,1.6,6.5Z"/>
    <path class="st1" d="M168.6,68.8c-6.7,0-11.7-1.3-15.8-4.6-1.4-1.2-2.5-2.8-3.6-4.2-.8-1-.6-2,.5-2.8,2.1-1.5,4.3-3,6.5-4.4.8-.5,1.4-.4,2.1.3,1.3,1.1,2.7,2.1,4.1,3.1,2,1.4,4.3,1.5,6.8,1.4,3.1-.1,4.5-2.8,3.7-4.8-.4-1.1-1.3-2.1-2.2-2.9-3.5-3.1-7.8-5-12-7.2-3.7-1.9-6.5-4.7-8.8-7.8-1.4-1.9-1.5-4.4-1.1-6.6.8-4.6,3.9-8,8.6-10,3.8-1.6,7.8-2.2,12-1.5,2,.3,3.9.6,5.8,1.2,1.7.5,3.4,1.3,4.8,2.2,3.7,2.3,3.7,3.2.6,5.9-1.6,1.4-3.2,2.9-4.8,4.4-1.4,1.2-2.5,1.3-4.1.3-1-.6-2.1-1.3-3.3-1.7-1.6-.5-3.2.2-4,1.4-.7,1.1-.6,2.4,1,3.4,2.8,1.9,5.8,3.7,8.7,5.4,3.4,2.1,6.9,4,9.5,6.8,3.8,4,4.8,8.5,3.2,13.4-.5,1.6-1.8,3-3.1,4.2-2.5,2.5-5.8,3.9-9.5,4.5-2.3.3-4.7.5-5.9.6h0Z"/>
    <path class="st1" d="M199.3,66.4c-1.6,0-3.2,0-4.7,0-1.5,0-2-.6-2.2-2.2,0-.3,0-.7,0-1-.1-9.4-.3-18.7-.4-28.1,0-4.1,0-8.1-.1-12.2,0-1.9.6-2.8,2.5-3.2,3-.6,6.1-.9,9.2-.5,2,.2,4,0,6-.1,3.6-.2,7.3-.6,10.9.2,2.5.6,4.4,1.8,5.5,4.1,2.9,5.9,3.6,12,.9,18.2-1,2.2-2.6,3.8-4.9,4.6-3.2,1.1-6.3,2.2-9.7,2.5-.6,0-1.2.1-1.7.3-2.6.7-3.1,1.3-3.2,4.1-.1,3.3-.2,6.6-.3,9.8-.1,3-.7,3.6-3.6,3.7-.7,0-1.3,0-2,0-.7,0-1.3,0-2,0h0ZM210.4,28.8h0c-.6,0-1.2,0-1.7,0-1.8.1-2.2.5-2.3,2.3,0,1.3,0,2.6.1,3.9.2,1.7,1.2,2.7,2.9,3,2.2.3,4.2-.5,6.1-1.6.4-.3.8-.9.9-1.4.8-3.4-1.1-6-4.5-6.2-.5,0-1,0-1.5,0h0Z"/>
    <path class="st1" d="M233.2,31.6c.1-2.4,0-4.8.2-7.2,0-1,.5-2.1,1-3,.4-.9,1.3-1.2,2.3-1.2,3.7.3,7.3,0,10.9-.4,3-.3,6.1-.2,9.2-.1,1.8,0,2.3.5,2.3,2.4,0,2.8,0,5.7,0,8.5,0,1.9-.8,2.7-2.7,2.9-1.4,0-2.8,0-4.2,0-1.1,0-2.1.2-3.2.5-1,.3-1.8,1.4-1.7,2.2,0,.9.9,1.5,2.3,1.5.7,0,1.5-.1,2.2,0,1.7,0,2.8.9,2.8,2.5,0,2.2,0,4.5-.1,6.7,0,1-.7,1.5-1.7,1.5-.8,0-1.7,0-2.5,0-.7,0-1.3,0-2,0-1.1.2-1.8,1.1-1.8,2,0,1,.7,1.5,1.6,1.6,1.6.2,3.3.3,5,.4,1.3,0,2.7,0,4,0,1,0,1.5.5,1.5,1.5,0,3.4,0,6.8,0,10.2,0,1.1-.6,1.7-1.7,1.7-2.2,0-4.3.2-6.5.1-4.6,0-9.3-.2-13.9-.2-3,0-4.2-.7-4.2-3.8-.1-4,0-8,0-12h-.3c.3-6.2.6-12.4.9-18.7Z"/>
    <path class="st1" d="M265,57c0-11.4-.2-22.9-.3-34.3,0-2,.6-2.8,2.5-3.2,2.9-.6,5.9-.9,8.9-.6,2.1.2,4.1,0,6.2-.1,4.1-.2,8.1-.6,12.2.2,3.1.6,5.4,2.3,6.8,5.2,2.6,5.3,2.6,10.9.9,16.5-.6,2.1-1.8,3.9-3.7,5.1-1.9,1.3-1.8,1.4-.8,3.5,2.3,4.8,4.5,9.5,6.7,14.3.3.5.5,1.1.6,1.7.1,1-.4,1.7-1.4,1.7-3.6,0-7.1,0-10.7,0-1.1,0-1.7-.5-2.1-1.5-1.6-3.6-3.1-7.1-4.7-10.7-.5-1.2-.9-2.5-1.6-3.6-.4-.7-1.2-1.3-1.9-1.5-1.3-.5-2.3.3-2.4,1.8-.1,2-.2,4-.2,6,0,1.8,0,3.7,0,5.5-.1,2.4-.9,3.3-3.3,3.4-3,0-6,0-9,0-1.9,0-2.4-.7-2.5-2.8,0-2.3,0-4.5,0-6.8,0,0-.2,0-.2,0ZM284.1,29.7v.3c-.9,0-1.8,0-2.7,0-.5,0-1,.1-1.4.4-1.7,1.5-.7,7.3,1.2,8.1.2,0,.3.1.5.1,1.7,0,3.5.3,5.2,0,2.8-.4,4.5-1.9,3.9-5.7-.2-1.5-.8-2.4-2.3-2.7-1.5-.2-2.9-.4-4.4-.6Z"/>
    <path class="st1" d="M382.6,66.7c-2.9-.3-6-.7-9-1-1.5-.1-3-.3-4.4-.1-1.3.2-1.9-.3-2.6-1.4-2.2-3.6-4.4-7.2-6.7-10.7-1.4-2.1-2.4-2.1-4.1-.2-2.9,3-5,6.6-7,10.3-.8,1.5-1.9,2.4-3.6,2.8-2.3.6-4.5.8-6.9.3-1.4-.3-3,0-4.5.2-.9,0-1.8.2-2.7.1-.5,0-1.1-.4-1.3-.8-.2-.2.1-1,.4-1.3,3.6-4.1,7.4-8.1,11-12.2,2.2-2.6,4.3-5.2,6.4-7.9.6-.8,1-1.7,1.3-2.7.4-1.2.2-2.4-.7-3.5-2.8-3.7-5.5-7.5-8.8-10.8-1.8-1.8-3.2-3.8-4.7-5.8-.7-.9-.6-1.6.4-1.9,1.1-.4,2.2-.5,3.4-.5,2.8,0,5.6,0,8.4-.1,2.3-.2,4.7.9,5.8,3.5.9,2.1,2.2,3.7,3.5,5.4,1.5,1.9,2.4,1.9,4,0,2.2-2.5,4.3-5.1,6.3-7.7.7-.9,1.6-1.2,2.6-1.2,4.5,0,9,.1,13.5.2.4,0,.9,0,1.2.2.6.3,1.6.6,1.8,1.2.3.9-.8,1-1.3,1.5-1.4,1.4-2.9,2.7-4.2,4.2-2,2.1-3.9,4.3-5.8,6.5-1.8,2.1-3.5,4.2-5.3,6.2-1.3,1.5-1.1,3.1-.3,4.6.5,1,1.3,2,2.1,2.7,3.7,3.1,6.4,6.9,9.6,10.5,2.1,2.4,4.2,4.7,6.3,7,1,1.1.9,1.7-.5,2.1-1,.3-2.1.3-3.3.5h0Z"/>
    <path class="st1" d="M412.1,69.2c-9.2,0-15.3-2.8-20-8.2-8.1-9.4-9.6-19.8-4.1-30.8,5.9-11.9,19-15.2,29.4-11,7.8,3.1,12.7,8.7,15.3,16.4,2.5,7.3,2,14.4-1.7,21.2-4.4,8-11.4,12.2-18.9,12.5h0ZM400.9,49.1c3.5,6.4,12.1,7.6,16.9,2.2,4.6-5.1,4.8-12,.3-17.4-1.5-1.8-3.5-3-5.9-3.3-1.6-.2-3.4-.6-4.7,0-5.3,2.2-8.2,6.2-8.2,12,0,2.3.6,4.6,1.6,6.5Z"/>
    <path class="st1" d="M476.9,43.1c0,4.9,0,9.8,0,14.7,0,2.2-.2,4.5-.3,6.7-.1,1.8-.5,2.1-2.4,2.1-3.2,0-6.4-.2-9.7-.5-.4,0-1-.6-1.1-1.1-.3-1.3-.5-2.6-.5-3.9,0-9.1-.1-18.3-.2-27.4,0-2.7-.1-5.3,0-8,0-1.4.3-2.8.7-4.1.3-1,1-1.7,2.1-1.8,2.2-.2,4.5-.3,6.7-.5.5,0,1,0,1.5,0,2.3.1,2.9.8,2.9,3.1,0,6.9,0,13.8,0,20.7h.3,0Z"/>
    <path class="st1" d="M501.6,68.8c-6.7,0-11.7-1.3-15.8-4.6-1.4-1.2-2.5-2.8-3.6-4.2-.8-1-.6-2,.5-2.8,2.1-1.5,4.3-3,6.5-4.4.8-.5,1.4-.4,2.1.3,1.3,1.1,2.7,2.1,4.1,3.1,2,1.4,4.3,1.5,6.8,1.4,3.1-.1,4.5-2.8,3.7-4.8-.4-1.1-1.3-2.1-2.2-2.9-3.5-3.1-7.8-5-12-7.2-3.7-1.9-6.5-4.7-8.8-7.8-1.4-1.9-1.5-4.4-1.1-6.6.8-4.6,3.9-8,8.6-10,3.8-1.6,7.8-2.2,12-1.5,2,.3,3.9.6,5.8,1.2,1.7.5,3.4,1.3,4.8,2.2,3.7,2.3,3.7,3.2.6,5.9-1.6,1.4-3.2,2.9-4.8,4.4-1.4,1.2-2.5,1.3-4.1.3-1-.6-2.1-1.3-3.3-1.7-1.6-.5-3.2.2-4,1.4-.7,1.1-.6,2.4,1,3.4,2.8,1.9,5.8,3.7,8.7,5.4,3.4,2.1,6.9,4,9.5,6.8,3.8,4,4.8,8.5,3.2,13.4-.5,1.6-1.8,3-3.1,4.2-2.5,2.5-5.8,3.9-9.5,4.5-2.3.3-4.7.5-5.9.6h0Z"/>
    <path class="st1" d="M568.9,20.4c1.9,0,3.8,0,5.7,0,2.6,0,4.8,1.6,5.5,4.2,1.7,5.7,3.4,11.5,4.8,17.3,1.7,6.4,3.1,12.9,4.7,19.4.2,1,.5,2,.5,2.9,0,1.7-1,2.6-2.6,2.7-2.5,0-5,.2-7.5.2-.6,0-1.2,0-1.7,0-1.1-.2-1.9-.8-2.2-2.1-.4-2.1-.9-4.2-1.4-6.3-.5-2.3-1.2-2.9-3.6-3-2.3,0-4.7,0-7,0-1.5,0-1.8.3-2.2,1.8-.5,2.1-1,4.2-1.6,6.3-.8,2.7-1.4,3-4.1,2.8-2.2-.1-4.3-.3-6.5-.2-3.4.1-4-1.4-3.4-4.1.6-3.2,1.3-6.4,2-9.5,2.3-9.5,4.7-19,7.1-28.5.6-2.5,1.3-3.1,3.9-3.4,3.1-.3,6.3-.4,9.4-.6v.2s0,0,0,0ZM567.4,45.3h0c.6,0,1.2,0,1.7,0,2.4,0,2.9-.7,2.5-3-.5-2.4-.9-4.7-1.4-7.1-.4-1.8-.9-2.4-2.3-2.4-1.5,0-2.7.7-3.1,2.3-.6,2.4-1.2,4.8-1.6,7.2-.4,2.5,0,2.9,2.5,3,.6,0,1.2,0,1.7,0h0Z"/>
    <path class="st1" d="M669.2,66.2c-1.8-.1-3.6-.3-5.5-.4-2.3-.2-2.3-.2-2.7-2.4-.8-4.3-1.5-8.7-2.2-13-.4-2.5-.7-5-1-7.5,0-.3,0-.5,0-.8-.2-.7-.3-1.6-1.1-1.4-.4,0-.9.9-.9,1.3-.2,3.5-1.9,6.4-3.2,9.5-.7,1.6-1.7,2.4-3.5,2.3-1.9-.1-3.8,0-5.7.1-1.8.1-2.8-.7-3.5-2.3-1.2-3.1-2.3-6.1-3.5-9.2-.2-.5-.2-1-.5-1.5-.3-.4-.7-.8-1.1-1.2-.2.4-.6.9-.6,1.3.2,4-.8,7.7-1.5,11.5s-1.5,7.6-2.5,11.4c-.6,2.3-.7,2.3-2.9,2.3-3.3,0-6.6,0-9.9,0-1.1,0-1.5-.6-1.5-1.6.1-2,.3-4,.6-5.9,1.2-7.7,2.5-15.4,3.8-23,.8-4.6,1.7-9.2,2.4-13.8.2-1.5,1-2.1,2.2-2.4.5-.1,1-.2,1.5-.3,3.4-.1,6.8-.2,10.2-.4,1.5,0,2.2.6,2.6,1.8.9,2.7,1.9,5.4,2.7,8.1.9,2.9,1.7,5.8,2.6,8.7.3,1,.5,2.3,1.6,2.2.6,0,1.3-1.3,1.6-2.1,1.6-4.6,3-9.2,4.5-13.8.3-1.1.7-2.1,1-3.2.5-1.5,1.5-2.3,3-2.3.9,0,1.8.2,2.7.2,1.2,0,2.5,0,3.7.2,1.3.2,2.6.3,3.8.7.6.2,1.1,1.1,1.3,1.7.6,3.1,1.1,6.3,1.7,9.4.2,1.2.4,2.4.6,3.6,1.8,8.8,3.5,17.6,5.3,26.4.2.8.3,1.5.4,2.3.3,2.2-.5,3.3-2.7,3.3-1.3,0-2.6-.2-4-.3,0,0,0,0,0,.1h0Z"/>
    <path class="st1" d="M685.4,61c-8.1-9.4-9.6-19.8-4.1-30.8,5.9-11.9,19-15.2,29.5-11,7.8,3.1,12.7,8.7,15.3,16.4,2.5,7.3,2,14.4-1.7,21.2-4.4,8-11.4,12.2-18.9,12.5-9.2,0-15.3-2.8-20-8.2ZM694.2,49.1c3.5,6.4,12.1,7.6,16.9,2.2,4.6-5.1,4.8-12,.3-17.4-1.5-1.8-3.5-3-5.9-3.3-1.6-.2-3.4-.6-4.7,0-5.3,2.2-8.2,6.2-8.2,12,0,2.3.6,4.6,1.6,6.5Z"/>
    <path class="st1" d="M756.4,66.9c-2.1-.2-4-.5-6-.7-1,0-2-.1-3,0-1,.1-1.8-.2-2.4-1-.4-.6-.9-1.3-1.2-1.9-2.8-6.3-5.8-12.6-8.5-19-3-7.4-5.7-14.9-8.4-22.3-.7-1.9-.6-1.9,1.4-2.5,2-.5,4-.9,6.1-.5,1.9.4,4,.5,5.9.6,1.1,0,1.9.6,2.2,1.7.1.5.3,1,.4,1.5,1.2,6.3,3.7,12.2,6.4,17.9,1.2,2.5,1.9,5,2.3,7.7.1.8.1,1.9,1.2,1.9,1,0,1.2-1,1.5-1.8.5-1.7.9-3.4,1.4-5.2,1.9-7,3.7-14.1,5.6-21.1.6-2.4.7-2.2,3.1-1.9,2.5.3,5,0,7.4,0,1,0,2-.4,3-.4,2,0,2.6.7,1.9,2.6-1.5,4.3-3,8.6-4.5,12.9-3.2,8.9-6.3,17.9-9.5,26.8-1.4,3.9-2.6,4.6-6.4,4.6h0Z"/>
    <path class="st1" d="M781.1,31.6c.1-2.4,0-4.8.2-7.2,0-1,.5-2.1,1-3,.4-.9,1.3-1.2,2.3-1.2,3.7.3,7.3,0,10.9-.4,3-.3,6.1-.2,9.2-.1,1.8,0,2.3.5,2.3,2.4,0,2.8,0,5.7,0,8.5,0,1.9-.8,2.7-2.7,2.9-1.4,0-2.8,0-4.2,0-1.1,0-2.1.2-3.2.5-1,.3-1.8,1.4-1.7,2.2,0,.9.9,1.5,2.3,1.5.7,0,1.5-.1,2.2,0,1.7,0,2.8.9,2.8,2.5,0,2.2,0,4.5-.1,6.7,0,1-.7,1.5-1.7,1.5-.8,0-1.7,0-2.5,0-.7,0-1.3,0-2,0-1.1.2-1.8,1.1-1.8,2,0,1,.7,1.5,1.6,1.6,1.6.2,3.3.3,5,.4,1.3,0,2.7,0,4,0,1,0,1.5.5,1.5,1.5,0,3.4,0,6.8,0,10.2,0,1.1-.6,1.7-1.7,1.7-2.2,0-4.3.2-6.5.1-4.6,0-9.3-.2-13.9-.2-3,0-4.2-.7-4.2-3.8-.1-4,0-8,0-12h-.3c.3-6.2.6-12.4.9-18.7Z"/>
    <path class="st1" d="M858.5,65.8c-2.3-.2-2.3-.2-2.7-2.4-.8-4.3-1.5-8.7-2.2-13-.4-2.5-.7-5-1-7.5,0-.3,0-.5,0-.8-.2-.7-.3-1.6-1.1-1.4-.4,0-.9.9-.9,1.3-.2,3.5-1.9,6.4-3.2,9.5-.7,1.6-1.7,2.4-3.5,2.3-1.9-.1-3.8,0-5.7.1-1.8.1-2.8-.7-3.5-2.3-1.2-3.1-2.3-6.1-3.5-9.2-.2-.5-.2-1-.5-1.5-.3-.4-.7-.8-1.1-1.2-.2.4-.6.9-.6,1.3.2,4-.9,7.7-1.5,11.5s-1.5,7.6-2.5,11.4c-.6,2.3-.7,2.3-2.9,2.3-3.3,0-6.6,0-9.9,0-1.1,0-1.5-.6-1.5-1.6.1-2,.3-4,.6-5.9,1.2-7.7,2.5-15.4,3.8-23,.8-4.6,1.7-9.2,2.4-13.8.2-1.5,1-2.1,2.2-2.4.5-.1,1-.2,1.5-.3,3.4-.1,6.8-.2,10.2-.4,1.5,0,2.2.6,2.6,1.8.9,2.7,1.9,5.4,2.7,8.1.9,2.9,1.7,5.8,2.6,8.7.3,1,.5,2.3,1.6,2.2.6,0,1.3-1.3,1.6-2.1,1.6-4.6,3-9.2,4.5-13.8.3-1.1.7-2.1,1-3.2.5-1.5,1.5-2.3,3-2.3.9,0,1.8.2,2.7.2,1.2,0,2.5,0,3.7.2,1.3.2,2.6.3,3.8.7.6.2,1.1,1.1,1.3,1.7.6,3.1,1.1,6.3,1.7,9.4.2,1.2.4,2.4.6,3.6,1.8,8.8,3.5,17.6,5.3,26.4.2.8.3,1.5.4,2.3.3,2.2-.5,3.3-2.7,3.3-1.3,0-2.6-.2-4-.3,0,0,0,0,0,.1-1.8-.1-3.6-.3-5.5-.4Z"/>
    <path class="st1" d="M875.5,31.6c.1-2.4,0-4.8.2-7.2,0-1,.5-2.1,1-3,.4-.9,1.3-1.2,2.3-1.2,3.7.3,7.3,0,10.9-.4,3-.3,6.1-.2,9.2-.1,1.8,0,2.3.5,2.3,2.4,0,2.8,0,5.7,0,8.5,0,1.9-.8,2.7-2.7,2.9-1.4,0-2.8,0-4.2,0-1.1,0-2.1.2-3.2.5-1,.3-1.8,1.4-1.7,2.2,0,.9.9,1.5,2.3,1.5.7,0,1.5-.1,2.2,0,1.7,0,2.8.9,2.8,2.5,0,2.2,0,4.5-.1,6.7,0,1-.7,1.5-1.7,1.5-.8,0-1.7,0-2.5,0-.7,0-1.3,0-2,0-1.1.2-1.8,1.1-1.8,2,0,1,.7,1.5,1.6,1.6,1.6.2,3.3.3,5,.4,1.3,0,2.7,0,4,0,1,0,1.5.5,1.5,1.5,0,3.4,0,6.8,0,10.2,0,1.1-.6,1.7-1.7,1.7-2.2,0-4.3.2-6.5.1-4.6,0-9.3-.2-13.9-.2-3,0-4.2-.7-4.2-3.8-.1-4,0-8,0-12h-.3c.3-6.2.6-12.4.9-18.7Z"/>
    <path class="st1" d="M947.7,55.3c0,2.6-.2,5.2-.4,7.7-.2,2.1-.5,2.6-2.5,2.9-1.8.3-3.6.3-5.5.3-1.6,0-2.9-.9-3.8-2.2-1.8-2.6-3.7-5.2-5.2-7.9-2.1-3.7-3.8-7.6-5.7-11.5-.3-.7-.7-1.4-1.1-2-.2-.3-.8-.5-1.1-.3-.4.2-.8.6-.9,1.1-.1.4,0,.8.1,1.3,0,.9.2,1.7.1,2.6-.1,5.2-.3,10.5-.5,15.7,0,2.3-.5,2.9-2.7,3.3-2.3.4-4.6.7-6.9.9-2.5.3-4.9-1.6-4.8-4.7.2-7.6.3-15.2.4-22.8,0-1.1,0-2.2,0-3.3,0-4.3-.2-8.6,0-12.9,0-2.6,1.1-3.7,3.6-4.1,2.3-.3,4.6-.3,7-.2,1.7,0,3.2,1,4.1,2.6,2.4,4,4.9,8,7.3,12,1.8,2.9,3.4,5.9,5.2,8.8.2.4.9.8,1.1.7.4-.2,1-.8,1-1.2,0-.8,0-1.7-.2-2.5-.7-2.2-.9-4.3-.8-6.6.1-3.7.1-7.4.2-11.1,0-2.4.7-3.3,2.9-3.3,2.5,0,5.1.5,7.6,1,1.9.4,2.2.9,2.1,2.9,0,2.9-.2,5.9-.2,8.8,0,2.8,0,5.7,0,8.5h-.3c0,5.2,0,10.4,0,15.5Z"/>
    <path class="st1" d="M963.5,44.9c0-2.7-.1-5.5-.2-8.2,0-1.2-.1-2.3.5-3.4.5-1,0-1.8-1.1-1.9-1.1-.1-2.3,0-3.4.2-1.9.3-3.7.9-5.6,1.3-1.8.3-2,0-2-1.8,0-.9,0-1.9.2-2.7.7-2.4,1.1-4.9.9-7.4,0-1.1.6-1.5,1.5-1.6,1.6-.1,3.2-.3,4.7-.2,2.5.2,4.9.3,7.4,0,6.5-1,13-1.4,19.6-.8,2.1.2,2.9.7,3.2,2.8.5,2.9.7,5.8,0,8.7-.4,1.5-1.1,2.1-2.7,2-2.4-.1-4.8-.4-7.2-.6-1.9-.2-2.3.2-2.2,2.1.2,3.4.2,6.8.2,10.2,0,6.2,0,12.3,0,18.5,0,.7,0,1.3,0,2-.3,2.4-1,2.9-3.5,2.7-2.6-.2-5.1-.4-7.7-.5-1.8,0-2,0-2.3-1.9-.2-1.7-.2-3.5-.3-5.2,0-1,0-2,0-3h0c0-3.7,0-7.5,0-11.2Z"/>
    <path class="st1" d="M1017.3,57c0-11.4-.2-22.9-.3-34.3,0-2,.6-2.8,2.5-3.2,2.9-.6,5.9-.9,8.9-.6,2.1.2,4.1,0,6.2-.1,4.1-.2,8.1-.6,12.2.2,3.1.6,5.4,2.3,6.8,5.2,2.6,5.3,2.6,10.9.9,16.5-.6,2.1-1.8,3.9-3.7,5.1-1.9,1.3-1.8,1.4-.8,3.5,2.3,4.8,4.5,9.5,6.7,14.3.3.5.5,1.1.6,1.7.1,1-.4,1.7-1.4,1.7-3.6,0-7.1,0-10.7,0-1.1,0-1.7-.5-2.1-1.5-1.6-3.6-3.1-7.1-4.7-10.7-.5-1.2-.9-2.5-1.6-3.6-.4-.7-1.2-1.3-1.9-1.5-1.3-.5-2.3.3-2.4,1.8-.2,2-.2,4-.2,6,0,1.8,0,3.7,0,5.5-.1,2.4-.9,3.3-3.3,3.4-3,0-6,0-9,0-1.9,0-2.4-.7-2.5-2.8,0-2.3,0-4.5,0-6.8,0,0-.2,0-.2,0ZM1036.4,29.7v.3c-.9,0-1.8,0-2.8,0-.5,0-1,.1-1.4.4-1.7,1.5-.7,7.3,1.2,8.1.2,0,.3.1.5.1,1.7,0,3.5.3,5.2,0,2.8-.4,4.5-1.9,3.9-5.7-.2-1.5-.8-2.4-2.3-2.7-1.5-.2-2.9-.4-4.4-.6Z"/>
    <path class="st1" d="M1067.4,61c-8.1-9.4-9.6-19.8-4.1-30.8,5.9-11.9,19-15.2,29.5-11,7.8,3.1,12.7,8.7,15.3,16.4,2.5,7.3,2,14.4-1.7,21.2-4.4,8-11.4,12.2-18.9,12.5-9.2,0-15.3-2.8-20-8.2ZM1076.2,49.1c3.5,6.4,12.1,7.6,16.9,2.2,4.6-5.1,4.8-12,.3-17.4-1.5-1.8-3.5-3-5.9-3.3-1.6-.2-3.4-.6-4.7,0-5.3,2.2-8.2,6.2-8.2,12,0,2.3.6,4.6,1.6,6.5Z"/>
    <path class="st1" d="M1139.9,69.2c-9.2,0-15.3-2.8-20-8.2-8.1-9.4-9.6-19.8-4.1-30.8,5.9-11.9,19-15.2,29.5-11,7.8,3.1,12.7,8.7,15.3,16.4,2.5,7.3,2,14.4-1.7,21.2-4.4,8-11.4,12.2-18.9,12.5h0ZM1128.7,49.1c3.5,6.4,12.1,7.6,16.9,2.2,4.6-5.1,4.8-12,.3-17.4-1.5-1.8-3.5-3-5.9-3.3-1.6-.2-3.4-.6-4.7,0-5.3,2.2-8.2,6.2-8.2,12,0,2.3.6,4.6,1.6,6.5Z"/>
    <path class="st1" d="M1175.8,44.9c0-2.7-.1-5.5-.2-8.2,0-1.2-.1-2.3.5-3.4.5-1,0-1.8-1.1-1.9-1.1-.1-2.3,0-3.4.2-1.9.3-3.7.9-5.6,1.3-1.8.3-2,0-2-1.8,0-.9,0-1.9.2-2.7.7-2.4,1.1-4.9.9-7.4,0-1.1.6-1.5,1.5-1.6,1.6-.1,3.2-.3,4.7-.2,2.5.2,4.9.3,7.4,0,6.5-1,13-1.4,19.6-.8,2.1.2,2.9.7,3.2,2.8.5,2.9.7,5.8,0,8.7-.4,1.5-1.1,2.1-2.7,2-2.4-.1-4.8-.4-7.2-.6-1.9-.2-2.3.2-2.2,2.1.2,3.4.2,6.8.2,10.2,0,6.2,0,12.3,0,18.5,0,.7,0,1.3,0,2-.3,2.4-1,2.9-3.5,2.7-2.6-.2-5.1-.4-7.7-.5-1.8,0-2,0-2.3-1.9-.2-1.7-.2-3.5-.3-5.2,0-1,0-2,0-3h0c0-3.7,0-7.5,0-11.2Z"/>
    <path class="st1" d="M1206,31.6c.1-2.4,0-4.8.2-7.2,0-1,.5-2.1,1-3,.4-.9,1.3-1.2,2.3-1.2,3.7.3,7.3,0,10.9-.4,3-.3,6.1-.2,9.2-.1,1.8,0,2.3.5,2.3,2.4,0,2.8,0,5.7,0,8.5,0,1.9-.8,2.7-2.7,2.9-1.4,0-2.8,0-4.2,0-1.1,0-2.1.2-3.2.5-1,.3-1.8,1.4-1.7,2.2,0,.9.9,1.5,2.3,1.5.7,0,1.5-.1,2.2,0,1.7,0,2.8.9,2.8,2.5,0,2.2,0,4.5-.1,6.7,0,1-.7,1.5-1.7,1.5-.8,0-1.7,0-2.5,0-.7,0-1.3,0-2,0-1.1.2-1.8,1.1-1.8,2,0,1,.7,1.5,1.6,1.6,1.6.2,3.3.3,5,.4,1.3,0,2.7,0,4,0,1,0,1.5.5,1.5,1.5,0,3.4,0,6.8,0,10.2,0,1.1-.6,1.7-1.7,1.7-2.2,0-4.3.2-6.5.1-4.6,0-9.3-.2-13.9-.2-3,0-4.2-.7-4.2-3.8-.1-4,0-8,0-12h-.3c.3-6.2.6-12.4.9-18.7Z"/>
    <path class="st1" d="M1237.5,44.2c.3-5.8.6-13,1-20.2,0-.7.1-1.3.2-2,0-.9.4-1.4,1.5-1.5,2.5-.2,5.1-.8,7.6-.9,3.7-.2,7.5,0,11.2-.1,4.9-.2,8.4,2,11,6,2.7,4.2,4,8.9,4.4,13.9.4,4.9.1,9.8-1.5,14.5-1,3-2.2,5.9-4.5,8.2-2.4,2.6-5.2,4.3-9,4.1-5.9-.2-11.8-.3-17.7-.5-.2,0-.3,0-.5,0-4.6-.7-3.8-.7-3.8-4.1,0-5.3,0-10.6,0-17.4h0ZM1250.8,45c0,2.1-.2,4.3-.3,6.5,0,.7.1,1.3.2,2,.1,1.1.8,1.6,1.7,1.9,2.1.7,5.5-.6,6.5-2.6,3.3-6.3,3.3-12.7.5-19.2-1-2.2-2.7-3.2-5.1-3.3-2.1,0-2.7.4-2.9,2.5-.3,4-.5,8.1-.8,12.2h.2Z"/>
    <path class="st1" d="M78.9,109.9c0,4.9,0,9.8,0,14.7,0,2.2-.2,4.5-.3,6.7-.1,1.8-.5,2.1-2.4,2.1-3.2,0-6.4-.2-9.7-.5-.4,0-1-.6-1.1-1.1-.3-1.3-.5-2.6-.5-3.9,0-9.1-.1-18.3-.2-27.4,0-2.7-.1-5.3,0-8,0-1.4.3-2.8.7-4.1.3-1,1-1.7,2.1-1.8,2.2-.2,4.5-.3,6.7-.5.5,0,1,0,1.5,0,2.3.1,2.9.8,2.9,3.1,0,6.9,0,13.8,0,20.7h.3,0Z"/>
    <path class="st1" d="M126,122c0,2.6-.2,5.2-.4,7.7-.2,2.1-.5,2.6-2.5,2.9-1.8.3-3.6.3-5.5.3-1.6,0-2.9-.9-3.8-2.2-1.8-2.6-3.7-5.2-5.2-7.9-2.1-3.7-3.8-7.6-5.7-11.5-.3-.7-.7-1.4-1.1-2-.2-.3-.8-.5-1.1-.3-.4.2-.7.6-.9,1.1-.1.4,0,.8.1,1.3,0,.9.2,1.7.1,2.6-.1,5.2-.3,10.5-.5,15.7,0,2.3-.5,2.9-2.7,3.3-2.3.4-4.6.7-6.9.9-2.5.3-4.9-1.6-4.8-4.7.2-7.6.3-15.2.4-22.8,0-1.1,0-2.2,0-3.3,0-4.3-.2-8.6,0-12.9,0-2.6,1.1-3.7,3.6-4.1,2.3-.3,4.6-.3,7-.2,1.7,0,3.2,1,4.1,2.6,2.4,4,4.9,8,7.3,12,1.8,2.9,3.4,5.9,5.2,8.8.2.4.9.8,1.1.7.4-.2,1-.8,1-1.2,0-.8,0-1.7-.2-2.5-.7-2.2-.9-4.3-.8-6.6.1-3.7.1-7.4.2-11.1,0-2.4.7-3.3,2.9-3.3,2.5,0,5.1.5,7.6,1,1.9.4,2.2.9,2.1,2.9,0,2.9-.2,5.9-.2,8.8,0,2.8,0,5.7,0,8.5h-.3c0,5.2,0,10.4,0,15.5Z"/>
    <path class="st1" d="M176.8,87.1c1.9,0,3.8,0,5.7,0,2.6,0,4.8,1.6,5.5,4.2,1.7,5.7,3.4,11.5,4.8,17.3,1.7,6.4,3.1,12.9,4.7,19.4.2,1,.5,2,.5,2.9,0,1.7-1,2.6-2.6,2.7-2.5,0-5,.2-7.5.2-.6,0-1.2,0-1.7,0-1.1-.2-1.9-.8-2.2-2.1-.4-2.1-.9-4.2-1.4-6.3-.5-2.3-1.2-2.9-3.6-3-2.3,0-4.7,0-7,0-1.5,0-1.8.3-2.2,1.8-.5,2.1-1,4.2-1.6,6.3-.8,2.7-1.4,3-4.1,2.8-2.2-.1-4.3-.3-6.5-.2-3.4.1-4-1.4-3.4-4.1.6-3.2,1.3-6.4,2-9.5,2.3-9.5,4.7-19,7.1-28.5.6-2.5,1.3-3.1,3.9-3.4,3.1-.3,6.3-.4,9.4-.6v.2s0,0,0,0ZM175.3,112h0c.6,0,1.2,0,1.7,0,2.4,0,2.9-.7,2.5-3-.5-2.4-.9-4.7-1.4-7.1-.4-1.8-.9-2.4-2.3-2.4-1.5,0-2.7.7-3.1,2.3-.6,2.4-1.2,4.8-1.6,7.2-.4,2.5,0,2.9,2.5,3,.6,0,1.2,0,1.7,0h0Z"/>
    <path class="st1" d="M202.3,123.8c0-11.4-.2-22.9-.3-34.3,0-2,.6-2.8,2.5-3.2,2.9-.6,5.9-.9,8.9-.6,2.1.2,4.1,0,6.2-.1,4.1-.2,8.1-.6,12.2.2,3.1.6,5.4,2.3,6.8,5.2,2.6,5.3,2.6,10.9.9,16.5-.6,2.1-1.8,3.9-3.7,5.1-1.9,1.3-1.8,1.4-.8,3.5,2.3,4.8,4.5,9.5,6.7,14.3.3.5.5,1.1.6,1.7.1,1-.4,1.7-1.4,1.7-3.6,0-7.1,0-10.7,0-1.1,0-1.7-.5-2.1-1.5-1.6-3.6-3.1-7.1-4.7-10.7-.5-1.2-.9-2.5-1.6-3.6-.4-.7-1.2-1.3-1.9-1.5-1.3-.5-2.3.3-2.4,1.8-.1,2-.2,4-.2,6,0,1.8,0,3.7,0,5.5-.1,2.4-.9,3.3-3.3,3.4-3,0-6,0-9,0-1.9,0-2.4-.7-2.5-2.8,0-2.3,0-4.5,0-6.8,0,0-.2,0-.2,0ZM221.4,96.5v.3c-.9,0-1.8,0-2.7,0-.5,0-1,.1-1.4.4-1.7,1.5-.7,7.3,1.2,8.1.2,0,.3.1.5.1,1.7,0,3.5.3,5.2,0,2.8-.4,4.5-1.9,3.9-5.7-.2-1.5-.8-2.4-2.3-2.7-1.5-.2-2.9-.4-4.4-.6Z"/>
    <path class="st1" d="M255.8,111.6c0-2.7-.1-5.5-.2-8.2,0-1.2-.1-2.3.5-3.4.5-1,0-1.8-1.1-1.9-1.1-.1-2.3,0-3.4.2-1.9.3-3.7.9-5.6,1.3-1.8.3-2,0-2-1.8,0-.9,0-1.9.2-2.7.7-2.4,1.1-4.9.9-7.4,0-1.1.6-1.5,1.5-1.6,1.6-.1,3.2-.3,4.7-.2,2.5.2,4.9.3,7.4,0,6.5-1,13-1.4,19.6-.8,2.1.2,2.9.7,3.2,2.8.5,2.9.7,5.8,0,8.7-.4,1.5-1.1,2.1-2.7,2-2.4-.1-4.8-.4-7.2-.6-1.9-.2-2.3.2-2.2,2.1.2,3.4.2,6.8.2,10.2,0,6.2,0,12.3,0,18.5,0,.7,0,1.3,0,2-.3,2.4-1,2.9-3.5,2.7-2.6-.2-5.1-.4-7.7-.5-1.8,0-2,0-2.3-1.9-.2-1.7-.2-3.5-.3-5.2,0-1,0-2,0-3h0c0-3.7,0-7.5,0-11.2Z"/>
    <path class="st1" d="M299.8,109.9c0,4.9,0,9.8,0,14.7,0,2.2-.2,4.5-.3,6.7-.1,1.8-.5,2.1-2.4,2.1-3.2,0-6.4-.2-9.7-.5-.4,0-1-.6-1.1-1.1-.3-1.3-.5-2.6-.5-3.9,0-9.1-.1-18.3-.2-27.4,0-2.7-.1-5.3,0-8,0-1.4.3-2.8.7-4.1.3-1,1-1.7,2.1-1.8,2.2-.2,4.5-.3,6.7-.5.5,0,1,0,1.5,0,2.3.1,2.9.8,2.9,3.1,0,6.9,0,13.8,0,20.7h.3,0Z"/>
    <path class="st1" d="M324.5,135.5c-6.7,0-11.7-1.3-15.8-4.6-1.4-1.2-2.5-2.8-3.6-4.2-.8-1-.6-2,.5-2.8,2.1-1.5,4.3-3,6.5-4.4.8-.5,1.4-.4,2.1.3,1.3,1.1,2.7,2.1,4.1,3.1,2,1.4,4.3,1.5,6.8,1.4,3.1-.1,4.5-2.8,3.7-4.8-.4-1.1-1.3-2.1-2.2-2.9-3.5-3.1-7.8-5-12-7.2-3.7-1.9-6.5-4.7-8.8-7.8-1.4-1.9-1.5-4.4-1.1-6.6.8-4.6,3.9-8,8.6-10,3.8-1.6,7.8-2.2,12-1.5,2,.3,3.9.6,5.8,1.2,1.7.5,3.4,1.3,4.8,2.2,3.7,2.3,3.7,3.2.6,5.9-1.6,1.4-3.2,2.9-4.8,4.4-1.4,1.2-2.5,1.3-4.1.3-1-.6-2.1-1.3-3.3-1.7-1.6-.5-3.2.2-4,1.4-.7,1.1-.6,2.4,1,3.4,2.8,1.9,5.8,3.7,8.7,5.4,3.4,2.1,6.9,4,9.5,6.8,3.8,4,4.8,8.5,3.2,13.4-.5,1.6-1.8,3-3.1,4.2-2.5,2.5-5.8,3.9-9.5,4.5-2.3.3-4.7.5-5.9.6h0Z"/>
    <path class="st1" d="M354.4,111.6c0-2.7-.1-5.5-.2-8.2,0-1.2-.1-2.3.5-3.4.5-1,0-1.8-1.1-1.9-1.1-.1-2.3,0-3.4.2-1.9.3-3.7.9-5.6,1.3-1.8.3-2,0-2-1.8,0-.9,0-1.9.2-2.7.7-2.4,1.1-4.9.9-7.4,0-1.1.6-1.5,1.5-1.6,1.6-.1,3.2-.3,4.7-.2,2.5.2,4.9.3,7.4,0,6.5-1,13-1.4,19.6-.8,2.1.2,2.9.7,3.2,2.8.5,2.9.7,5.8,0,8.7-.4,1.5-1.1,2.1-2.7,2-2.4-.1-4.8-.4-7.2-.6-1.9-.2-2.3.2-2.2,2.1.2,3.4.2,6.8.2,10.2,0,6.2,0,12.3,0,18.5,0,.7,0,1.3,0,2-.3,2.4-1,2.9-3.5,2.7-2.6-.2-5.1-.4-7.7-.5-1.8,0-2,0-2.3-1.9-.2-1.7-.2-3.5-.3-5.2,0-1,0-2,0-3h0c0-3.7,0-7.5,0-11.2Z"/>
    <path class="st1" d="M426.1,135.5c-6.7,0-11.7-1.3-15.8-4.6-1.4-1.2-2.5-2.8-3.6-4.2-.8-1-.6-2,.5-2.8,2.1-1.5,4.3-3,6.5-4.4.8-.5,1.4-.4,2.1.3,1.3,1.1,2.7,2.1,4.1,3.1,2,1.4,4.3,1.5,6.8,1.4,3.1-.1,4.5-2.8,3.7-4.8-.4-1.1-1.3-2.1-2.2-2.9-3.5-3.1-7.8-5-12-7.2-3.7-1.9-6.5-4.7-8.8-7.8-1.4-1.9-1.5-4.4-1.1-6.6.8-4.6,3.9-8,8.6-10,3.8-1.6,7.8-2.2,12-1.5,2,.3,3.9.6,5.8,1.2,1.7.5,3.4,1.3,4.8,2.2,3.7,2.3,3.7,3.2.6,5.9-1.6,1.4-3.2,2.9-4.8,4.4-1.4,1.2-2.5,1.3-4.1.3-1-.6-2.1-1.3-3.3-1.7-1.6-.5-3.2.2-4,1.4-.7,1.1-.6,2.4,1,3.4,2.8,1.9,5.8,3.7,8.7,5.4,3.4,2.1,6.9,4,9.5,6.8,3.8,4,4.8,8.5,3.2,13.4-.5,1.6-1.8,3-3.1,4.2-2.5,2.5-5.8,3.9-9.5,4.5-2.3.3-4.7.5-5.9.6h0Z"/>
    <path class="st1" d="M475.4,106.7c0-3.8-.1-7.5-.3-11.3-.1-2.4-.5-4.7-.8-7.1-.2-1.7,0-2.1,1.7-2.3,3-.3,5.9-1,8.9-.2,1,.2,2.1,0,3.2-.2.7-.1,1.3,0,1.2.8-.4,4.5,1.2,8.9.8,13.4-.5,6.4-.3,12.9-.9,19.3-.3,3.1-1.7,6.1-2.6,9.1-.2.6-.8,1.1-1.2,1.5-.6.6-1.5,1.2-2,1.9-1.7,2.4-4.1,3.2-6.8,3.5-5.1.4-10.1.9-15-1.2-2.9-1.2-5.8-2.3-7.9-4.9-2-2.6-3.3-5.5-3.5-8.7-.3-4.1-.7-8.3-1-12.4-.1-2.9,0-5.7,0-8.6-.2-3.5-.5-7-.8-10.5,0-.5-.1-1-.1-1.5,0-1.5,0-1.8,1.6-1.8,3.9,0,7.8,0,11.7,0,1.7,0,1.9.2,2,1.8.3,6.2.6,12.4.9,18.6.1,3.5.2,7,.3,10.5,0,1,.2,1.9.5,2.9,1,3.7,4.6,5.1,8,3.2,1.6-.9,2.6-2.1,2.5-4.2-.2-2.9,0-5.9,0-8.8,0-1,0-2-.1-2.9,0,0,0,0,0,0h0Z"/>
    <path class="st1" d="M514.2,135.5c-6.7,0-11.7-1.3-15.8-4.6-1.4-1.2-2.5-2.8-3.6-4.2-.8-1-.6-2,.5-2.8,2.1-1.5,4.3-3,6.5-4.4.8-.5,1.4-.4,2.1.3,1.3,1.1,2.7,2.1,4.1,3.1,2,1.4,4.3,1.5,6.8,1.4,3.1-.1,4.5-2.8,3.7-4.8-.4-1.1-1.3-2.1-2.2-2.9-3.5-3.1-7.8-5-12-7.2-3.7-1.9-6.5-4.7-8.8-7.8-1.4-1.9-1.5-4.4-1.1-6.6.8-4.6,3.9-8,8.6-10,3.8-1.6,7.8-2.2,12-1.5,2,.3,3.9.6,5.8,1.2,1.7.5,3.4,1.3,4.8,2.2,3.7,2.3,3.7,3.2.6,5.9-1.6,1.4-3.2,2.9-4.8,4.4-1.4,1.2-2.5,1.3-4.1.3-1-.6-2.1-1.3-3.3-1.7-1.6-.5-3.2.2-4,1.4-.7,1.1-.6,2.4,1,3.4,2.8,1.9,5.8,3.7,8.7,5.4,3.4,2.1,6.9,4,9.5,6.8,3.8,4,4.8,8.5,3.2,13.4-.5,1.6-1.8,3-3.1,4.2-2.5,2.5-5.8,3.9-9.5,4.5-2.3.3-4.7.5-5.9.6h0Z"/>
    <path class="st1" d="M544.1,111.6c0-2.7-.1-5.5-.2-8.2,0-1.2-.1-2.3.5-3.4.5-1,0-1.8-1.1-1.9-1.1-.1-2.3,0-3.4.2-1.9.3-3.7.9-5.6,1.3-1.8.3-2,0-2-1.8,0-.9,0-1.9.2-2.7.7-2.4,1.1-4.9.9-7.4,0-1.1.6-1.5,1.5-1.6,1.6-.1,3.2-.3,4.7-.2,2.5.2,4.9.3,7.4,0,6.5-1,13-1.4,19.6-.8,2.1.2,2.9.7,3.2,2.8.5,2.9.7,5.8,0,8.7-.4,1.5-1.1,2.1-2.7,2-2.4-.1-4.8-.4-7.2-.6-1.9-.2-2.3.2-2.2,2.1.2,3.4.2,6.8.2,10.2,0,6.2,0,12.3,0,18.5,0,.7,0,1.3,0,2-.3,2.4-1,2.9-3.5,2.7-2.6-.2-5.1-.4-7.7-.5-1.8,0-2,0-2.3-1.9-.2-1.7-.2-3.5-.3-5.2,0-1,0-2,0-3h0c0-3.7,0-7.5,0-11.2Z"/>
    <path class="st1" d="M590,87.1c1.9,0,3.8,0,5.7,0,2.6,0,4.8,1.6,5.5,4.2,1.7,5.7,3.4,11.5,4.8,17.3,1.7,6.4,3.1,12.9,4.7,19.4.2,1,.5,2,.5,2.9,0,1.7-1,2.6-2.6,2.7-2.5,0-5,.2-7.5.2-.6,0-1.2,0-1.7,0-1.1-.2-1.9-.8-2.2-2.1-.4-2.1-.9-4.2-1.4-6.3-.5-2.3-1.2-2.9-3.6-3-2.3,0-4.7,0-7,0-1.5,0-1.8.3-2.2,1.8-.5,2.1-1,4.2-1.6,6.3-.8,2.7-1.4,3-4.1,2.8-2.2-.1-4.3-.3-6.5-.2-3.4.1-4-1.4-3.4-4.1.6-3.2,1.3-6.4,2-9.5,2.3-9.5,4.7-19,7.1-28.5.6-2.5,1.3-3.1,3.9-3.4,3.1-.3,6.3-.4,9.4-.6v.2s0,0,0,0ZM588.5,112h0c.6,0,1.2,0,1.7,0,2.4,0,2.9-.7,2.5-3-.5-2.4-.9-4.7-1.4-7.1-.4-1.8-.9-2.4-2.3-2.4-1.5,0-2.7.7-3.1,2.3-.6,2.4-1.2,4.8-1.6,7.2-.4,2.5,0,2.9,2.5,3,.6,0,1.2,0,1.7,0h0Z"/>
    <path class="st1" d="M629.4,109.9c0,4.9,0,9.8,0,14.7,0,2.2-.2,4.5-.3,6.7-.1,1.8-.5,2.1-2.4,2.1-3.2,0-6.4-.2-9.7-.5-.4,0-1-.6-1.1-1.1-.3-1.3-.5-2.6-.5-3.9,0-9.1-.1-18.3-.2-27.4,0-2.7-.1-5.3,0-8,0-1.4.3-2.8.7-4.1.3-1,1-1.7,2.1-1.8,2.2-.2,4.5-.3,6.7-.5.5,0,1,0,1.5,0,2.3.1,2.9.8,2.9,3.1,0,6.9,0,13.8,0,20.7h.3,0Z"/>
    <path class="st1" d="M676.6,122c0,2.6-.2,5.2-.4,7.7-.2,2.1-.5,2.6-2.5,2.9-1.8.3-3.6.3-5.5.3-1.6,0-2.9-.9-3.8-2.2-1.8-2.6-3.7-5.2-5.2-7.9-2.1-3.7-3.8-7.6-5.7-11.5-.3-.7-.7-1.4-1.1-2-.2-.3-.8-.5-1.1-.3-.4.2-.7.6-.9,1.1-.1.4,0,.8.1,1.3,0,.9.2,1.7.1,2.6-.1,5.2-.3,10.5-.5,15.7,0,2.3-.5,2.9-2.7,3.3-2.3.4-4.6.7-6.9.9-2.5.3-4.9-1.6-4.8-4.7.2-7.6.3-15.2.4-22.8,0-1.1,0-2.2,0-3.3,0-4.3-.2-8.6,0-12.9,0-2.6,1.1-3.7,3.6-4.1,2.3-.3,4.6-.3,7-.2,1.7,0,3.2,1,4.1,2.6,2.4,4,4.9,8,7.3,12,1.8,2.9,3.4,5.9,5.2,8.8.2.4.9.8,1.1.7.4-.2,1-.8,1-1.2,0-.8,0-1.7-.2-2.5-.7-2.2-.9-4.3-.8-6.6.1-3.7.1-7.4.2-11.1,0-2.4.7-3.3,2.9-3.3,2.5,0,5.1.5,7.6,1,1.9.4,2.2.9,2.1,2.9,0,2.9-.2,5.9-.2,8.8,0,2.8,0,5.7,0,8.5h-.3c0,5.2,0,10.4,0,15.5Z"/>
    <path class="st1" d="M703.6,87.1c1.9,0,3.8,0,5.7,0,2.6,0,4.8,1.6,5.5,4.2,1.7,5.7,3.4,11.5,4.8,17.3,1.7,6.4,3.1,12.9,4.7,19.4.2,1,.5,2,.5,2.9,0,1.7-1,2.6-2.6,2.7-2.5,0-5,.2-7.5.2-.6,0-1.2,0-1.7,0-1.1-.2-1.9-.8-2.2-2.1-.4-2.1-.9-4.2-1.4-6.3-.5-2.3-1.2-2.9-3.6-3-2.3,0-4.7,0-7,0-1.5,0-1.8.3-2.2,1.8-.5,2.1-1,4.2-1.6,6.3-.8,2.7-1.4,3-4.1,2.8-2.2-.1-4.3-.3-6.5-.2-3.4.1-4-1.4-3.4-4.1.6-3.2,1.3-6.4,2-9.5,2.3-9.5,4.7-19,7.1-28.5.6-2.5,1.3-3.1,3.9-3.4,3.1-.3,6.3-.4,9.4-.6v.2s0,0,0,0ZM702.1,112.1c.6,0,1.2,0,1.7,0,2.4,0,2.9-.7,2.5-3-.5-2.4-.9-4.7-1.4-7.1-.4-1.8-.9-2.4-2.3-2.4-1.5,0-2.7.7-3.1,2.3-.6,2.4-1.2,4.8-1.6,7.2-.4,2.5,0,2.9,2.5,3,.6,0,1.2,0,1.7,0h0Z"/>
    <path class="st1" d="M732.2,132.8c-2.1,0-2.2-.1-2.6-2.2-.1-.6-.3-1.3-.3-2-.5-9-.8-17.9-.3-26.9.2-3.8.1-7.6.1-11.5,0-2.7,0-2.8,2.6-3.2,6-.9,12-1.3,18.1-1.1,2.3,0,4.7.2,6.9.5,3.1.4,5.6,1.8,7.6,4.3,2.1,2.6,2.1,5.5,1.9,8.5-.1,2.6-1.1,5-2.8,7-.8.9-.6,1.3.4,1.8,4,2,6,5.3,6.9,9.5,1.3,6.6-3.6,14.5-11.5,14.7-4.4,0-8.8.3-13.2.4h0c-4.6,0-9.1.1-13.7,0ZM747.4,95.3c-.9,0-1.8,0-2.7,0-1.4,0-2.2.8-2.6,1.9-.6,1.6-.4,3.3.3,4.8.2.5,1,1,1.6,1,2.2,0,4.5,0,6.7-.5,3.3-.7,4.1-3.5,1.8-6-.6-.6-1.5-1-2.3-1.2-.9-.2-1.8,0-2.7,0h0ZM743.1,120.1c.2,1.6.8,2.1,2.5,2,1.7,0,3.3-.3,5-.5,3.5-.3,5.2-3.3,3.4-6.4-1.3-2.2-3.1-4-6.8-3.3-4.3.7-4.4.6-4.2,5.4,0,.5,0,1.6.2,2.7Z"/>
    <path class="st1" d="M789.5,109.9c0,4.9,0,9.8,0,14.7,0,2.2-.2,4.5-.3,6.7-.1,1.8-.5,2.1-2.4,2.1-3.2,0-6.4-.2-9.7-.5-.4,0-1-.6-1.1-1.1-.3-1.3-.5-2.6-.5-3.9,0-9.1-.1-18.3-.2-27.4,0-2.7-.1-5.3,0-8,0-1.4.3-2.8.7-4.1.3-1,1-1.7,2.1-1.8,2.2-.2,4.5-.3,6.7-.5.5,0,1,0,1.5,0,2.3.1,2.9.8,2.9,3.1,0,6.9,0,13.8,0,20.7h.3Z"/>
    <path class="st1" d="M796,108.4c0-5.9,0-11.8,0-17.7,0-.8,0-1.6.3-2.2.2-.4.8-1,1.2-1,3.3-.2,6.6-.8,9.9-.1,2.2.4,2.3.4,2.3,2.8,0,8.5,0,17.1,0,25.6,0,1.4.2,2.7.4,4.1.1,1,.7,1.5,1.7,1.6.9,0,1.8,0,2.7,0,2.4,0,3,.6,3,2.9,0,2.5,0,4.9,0,7.4s-.4,1.8-1.6,1.7c-3.5-.2-7-.3-10.4-.4-2.3,0-4.7-.1-7-.1-1.8,0-2,0-2.2-1.9-.2-2.5-.4-5.1-.4-7.7,0-4.9,0-9.9,0-14.8h0Z"/>
    <path class="st1" d="M835.6,109.9c0,4.9,0,9.8,0,14.7,0,2.2-.2,4.5-.3,6.7-.1,1.8-.5,2.1-2.4,2.1-3.2,0-6.4-.2-9.7-.5-.4,0-1-.6-1.1-1.1-.3-1.3-.5-2.6-.5-3.9,0-9.1-.1-18.3-.2-27.4,0-2.7-.1-5.3,0-8,0-1.4.3-2.8.7-4.1.3-1,1-1.7,2.1-1.8,2.2-.2,4.5-.3,6.7-.5.5,0,1,0,1.5,0,2.3.1,2.9.8,2.9,3.1,0,6.9,0,13.8,0,20.7h.3Z"/>
    <path class="st1" d="M851.2,111.6c0-2.7-.1-5.5-.2-8.2,0-1.2-.1-2.3.5-3.4.5-1,0-1.8-1.1-1.9-1.1-.1-2.3,0-3.4.2-1.9.3-3.7.9-5.6,1.3-1.8.3-2,0-2-1.8,0-.9,0-1.9.2-2.7.7-2.4,1.1-4.9.9-7.4,0-1.1.6-1.5,1.5-1.6,1.6-.1,3.2-.3,4.7-.2,2.5.2,4.9.3,7.4,0,6.5-1,13-1.4,19.6-.8,2.1.2,2.9.7,3.2,2.8.5,2.9.7,5.8,0,8.7-.4,1.5-1.1,2.1-2.7,2-2.4-.1-4.8-.4-7.2-.6-1.9-.2-2.3.2-2.2,2.1.2,3.4.2,6.8.2,10.2,0,6.2,0,12.3,0,18.5,0,.7,0,1.3,0,2-.3,2.4-1,2.9-3.5,2.7-2.6-.2-5.1-.4-7.7-.5-1.8,0-2,0-2.3-1.9-.2-1.7-.2-3.5-.3-5.2,0-1,0-2,0-3h0c0-3.7,0-7.5,0-11.2Z"/>
    <path class="st1" d="M906.3,133.6c-2.6-.2-4.7-.2-6.9-.5-2.1-.2-2.5-.7-2.6-3-.2-3.1-.4-6.2-.6-9.4-.2-3.6-.5-7.1-2.4-10.2-.6-1-1.1-2-1.7-2.9-4.7-6.6-9.4-13.2-14.1-19.9-.3-.4-.6-1.1-.5-1.4.3-.4.9-.8,1.4-.8,2.2,0,4.5.1,6.7.1,2.3,0,4.6,0,6.9-.3,5.3-.7,5.1-.1,6.6,3.7,1.5,3.8,2.9,7.6,4.3,11.4,0,0,0,.2,0,.2.5.6.9,1.5,1.4,1.6,1,.2,1.4-.8,1.6-1.6.7-2.1,1.3-4.3,2.1-6.4.9-2.5,2-4.9,3.1-7.4.2-.4.9-.7,1.4-.8,3.3-.3,6.6-.6,9.9-.8,2,0,4,.1,6,.3,1,0,1.2.9.9,1.7-.4,1.2-.9,2.5-1.5,3.6-2.2,3.6-4.5,7.1-6.8,10.6-1.6,2.4-3.2,4.7-4.8,7-4.2,5.7-5.3,12-4.1,19,.2,1,.4,2,.5,3.1.2,1.5-.2,2.4-1.7,2.6-1.9.3-3.8.3-5.3.3Z"/>
    <path class="st1" d="M934.5,120.4c4.2.6,6.7,4.2,5.6,8.1-.8,2.7-1.5,5.4-3.6,7.5-1,1-1.7,2.4-2.7,3.6-.4.5-1.1,1-1.7,1.2-2.1.7-3.6-.6-3.1-2.8.2-.9.6-1.7.9-2.5.5-1.5.6-2.9-.4-4.4-.5-.7-.8-1.7-.8-2.6,0-1.5,0-3,.3-4.4.1-.6.8-1.2,1.4-1.6.5-.4,1.1-.8,1.7-1,.8-.4,1.7-.7,2.5-1h0Z"/>
    <path class="st1" d="M970,123.8c0-11.4-.2-22.9-.3-34.3,0-2,.6-2.8,2.5-3.2,2.9-.6,5.9-.9,8.9-.6,2,.2,4.1,0,6.2-.1,4.1-.2,8.1-.6,12.2.2,3.1.6,5.4,2.3,6.8,5.2,2.6,5.3,2.6,10.9.9,16.5-.6,2.1-1.8,3.9-3.7,5.1-1.9,1.3-1.8,1.4-.8,3.5,2.3,4.8,4.5,9.5,6.7,14.3.3.5.5,1.1.6,1.7.1,1-.4,1.7-1.4,1.7-3.6,0-7.1,0-10.7,0-1.1,0-1.7-.5-2.1-1.5-1.6-3.6-3.1-7.1-4.7-10.7-.5-1.2-.9-2.5-1.6-3.6-.4-.7-1.2-1.3-1.9-1.5-1.3-.5-2.3.3-2.4,1.8-.1,2-.2,4-.2,6,0,1.8,0,3.7,0,5.5-.1,2.4-.9,3.3-3.3,3.4-3,0-6,0-9,0-1.9,0-2.4-.7-2.5-2.8,0-2.3,0-4.5,0-6.8,0,0-.2,0-.2,0ZM989.1,96.5v.3c-.9,0-1.8,0-2.7,0-.5,0-1,.1-1.4.4-1.7,1.5-.7,7.3,1.2,8.1.2,0,.3.1.5.1,1.7,0,3.5.3,5.2,0,2.8-.4,4.5-1.9,3.9-5.7-.2-1.5-.8-2.4-2.3-2.7-1.5-.2-2.9-.4-4.4-.6Z"/>
    <path class="st1" d="M1034.7,87.1c1.9,0,3.8,0,5.7,0,2.6,0,4.8,1.6,5.5,4.2,1.7,5.7,3.4,11.5,4.8,17.3,1.7,6.4,3.1,12.9,4.7,19.4.2,1,.5,2,.5,2.9,0,1.7-1,2.6-2.6,2.7-2.5,0-5,.2-7.5.2-.6,0-1.2,0-1.7,0-1.1-.2-1.9-.8-2.1-2.1-.4-2.1-.9-4.2-1.4-6.3-.5-2.3-1.2-2.9-3.6-3-2.3,0-4.7,0-7,0-1.5,0-1.8.3-2.2,1.8-.5,2.1-1,4.2-1.6,6.3-.8,2.7-1.4,3-4.1,2.8-2.2-.1-4.3-.3-6.5-.2-3.4.1-4-1.4-3.4-4.1.6-3.2,1.3-6.4,2-9.5,2.3-9.5,4.7-19,7.1-28.5.6-2.5,1.3-3.1,3.9-3.4,3.1-.3,6.3-.4,9.4-.6v.2s0,0,0,0ZM1033.3,112.1c.6,0,1.2,0,1.7,0,2.4,0,2.9-.7,2.5-3-.5-2.4-.9-4.7-1.4-7.1-.4-1.8-.9-2.4-2.3-2.4-1.5,0-2.7.7-3.1,2.3-.6,2.4-1.2,4.8-1.6,7.2-.4,2.5,0,2.9,2.5,3,.6,0,1.2,0,1.7,0h0Z"/>
    <path class="st1" d="M1059.8,110.9c.3-5.8.6-13,1-20.2,0-.7.1-1.3.2-2,0-.9.4-1.4,1.5-1.5,2.5-.2,5.1-.8,7.6-.9,3.7-.2,7.5,0,11.2-.1,4.9-.2,8.4,2,11,6,2.7,4.2,4,8.9,4.4,13.9.4,4.9.1,9.8-1.5,14.5-1,3-2.2,5.9-4.5,8.2-2.4,2.6-5.2,4.3-9,4.1-5.9-.2-11.8-.3-17.7-.5-.2,0-.3,0-.5,0-4.6-.7-3.8-.7-3.8-4.1,0-5.3,0-10.6,0-17.4h0ZM1073.2,111.7c0,2.2-.2,4.3-.3,6.5,0,.7.1,1.3.2,2,.1,1.1.8,1.6,1.7,1.9,2.1.7,5.5-.6,6.5-2.6,3.3-6.3,3.3-12.7.5-19.2-1-2.2-2.7-3.2-5.1-3.3-2.1,0-2.7.4-2.9,2.5-.3,4-.5,8.1-.8,12.2h.2Z"/>
    <path class="st1" d="M1116.2,109.9c0,4.9,0,9.8,0,14.7,0,2.2-.2,4.5-.3,6.7-.1,1.8-.5,2.1-2.4,2.1-3.2,0-6.4-.2-9.7-.5-.4,0-1-.6-1.1-1.1-.3-1.3-.5-2.6-.5-3.9,0-9.1-.1-18.3-.2-27.4,0-2.7-.1-5.3,0-8,0-1.4.3-2.8.7-4.1.3-1,1-1.7,2.1-1.8,2.2-.2,4.5-.3,6.7-.5.5,0,1,0,1.5,0,2.3.1,2.9.8,2.9,3.1,0,6.9,0,13.8,0,20.7h.3Z"/>
    <path class="st1" d="M1151.6,126.4c0,1.4,0,2.8,0,4.2,0,3-.3,3.4-3.3,3.6-4.3.3-8.5-.3-12.5-1.7-8.4-3-14.4-11.4-14.8-20.3-.4-10.4,4-18.3,12.4-24.1,1.3-.9,3.1-1.2,4.6-1.8,3.8-1.6,7.8-1.3,11.8-1.2,1.4,0,1.9.5,1.9,2,0,3.1,0,6.2-.1,9.2,0,1.6-.4,2-2,2.3-.9.1-1.8.2-2.7.2-6.5.3-11.7,7.3-10.2,13.6.8,3.4,3.2,5.2,6.2,6.2,1.8.6,3.7.6,5.6.8.5,0,1,0,1.5,0,1.1,0,1.7.6,1.6,1.7,0,1.7,0,3.5,0,5.2h0Z"/>
    <path class="st1" d="M1177.2,87.1c1.9,0,3.8,0,5.7,0,2.6,0,4.8,1.6,5.5,4.2,1.7,5.7,3.4,11.5,4.9,17.3,1.7,6.4,3.1,12.9,4.7,19.4.2,1,.5,2,.5,2.9,0,1.7-1,2.6-2.6,2.7-2.5,0-5,.2-7.5.2-.6,0-1.2,0-1.7,0-1.1-.2-1.9-.8-2.2-2.1-.4-2.1-.9-4.2-1.4-6.3-.5-2.3-1.2-2.9-3.6-3-2.3,0-4.7,0-7,0-1.5,0-1.8.3-2.2,1.8-.5,2.1-1,4.2-1.6,6.3-.8,2.7-1.4,3-4.1,2.8-2.2-.1-4.3-.3-6.5-.2-3.4.1-4-1.4-3.4-4.1.6-3.2,1.3-6.4,2-9.5,2.3-9.5,4.7-19,7.1-28.5.6-2.5,1.3-3.1,3.9-3.4,3.1-.3,6.3-.4,9.4-.6v.2s0,0,0,0ZM1175.7,112h0c.6,0,1.2,0,1.7,0,2.4,0,2.9-.7,2.5-3-.5-2.4-.9-4.7-1.4-7.1-.4-1.8-.9-2.4-2.3-2.4-1.5,0-2.7.7-3.1,2.3-.6,2.4-1.2,4.8-1.6,7.2-.4,2.5,0,2.9,2.5,3,.6,0,1.2,0,1.7,0h0Z"/>
    <path class="st1" d="M1202.4,108.4c0-5.9,0-11.8,0-17.7,0-.8,0-1.6.3-2.2.2-.4.8-1,1.2-1,3.3-.2,6.6-.8,9.9-.1,2.2.4,2.3.4,2.3,2.8,0,8.5,0,17.1,0,25.6,0,1.4.2,2.7.4,4.1.1,1,.7,1.5,1.7,1.6.9,0,1.8,0,2.7,0,2.4,0,3,.6,3,2.9,0,2.5,0,4.9,0,7.4s-.4,1.8-1.6,1.7c-3.5-.2-7-.3-10.4-.4-2.3,0-4.7-.1-7-.1-1.8,0-2,0-2.2-1.9-.2-2.5-.4-5.1-.4-7.7,0-4.9,0-9.9,0-14.8h0Z"/>
    <path class="st1" d="M83,178.3c0-2.7-.1-5.5-.2-8.2,0-1.2-.1-2.3.5-3.4.5-1,0-1.8-1.1-1.9-1.1-.1-2.3,0-3.4.2-1.9.3-3.7.9-5.6,1.3-1.8.3-2,0-2-1.8,0-.9,0-1.9.2-2.7.7-2.4,1.1-4.9.9-7.4,0-1.1.6-1.5,1.5-1.6,1.6-.1,3.2-.3,4.7-.2,2.5.2,4.9.3,7.4,0,6.5-1,13-1.4,19.6-.8,2.1.2,2.9.7,3.2,2.8.5,2.9.7,5.8,0,8.7-.4,1.5-1.1,2.1-2.7,2-2.4-.1-4.8-.4-7.2-.6-1.9-.2-2.3.2-2.2,2.1.2,3.4.2,6.8.2,10.2,0,6.2,0,12.3,0,18.5,0,.7,0,1.3,0,2-.3,2.4-1,2.9-3.5,2.7-2.6-.2-5.1-.4-7.7-.5-1.8,0-2,0-2.3-1.9-.2-1.7-.2-3.5-.3-5.2,0-1,0-2,0-3h0c0-3.7,0-7.5,0-11.2Z"/>
    <path class="st1" d="M113,190.5c0-11.4-.2-22.9-.3-34.3,0-2,.6-2.8,2.5-3.2,2.9-.6,5.9-.9,8.9-.6,2.1.2,4.1,0,6.2-.1,4.1-.2,8.1-.6,12.2.2,3.1.6,5.4,2.3,6.8,5.2,2.6,5.3,2.6,10.9.9,16.5-.6,2.1-1.8,3.9-3.7,5.1-1.9,1.3-1.8,1.4-.8,3.5,2.3,4.8,4.5,9.5,6.7,14.3.3.5.5,1.1.6,1.7.1,1-.4,1.7-1.4,1.7-3.6,0-7.1,0-10.7,0-1.1,0-1.7-.5-2.1-1.5-1.6-3.6-3.1-7.1-4.7-10.7-.5-1.2-.9-2.5-1.6-3.6-.4-.7-1.2-1.3-1.9-1.5-1.3-.5-2.3.3-2.4,1.8-.1,2-.2,4-.2,6,0,1.8,0,3.7,0,5.5-.1,2.4-.9,3.3-3.3,3.4-3,0-6,0-9,0-1.9,0-2.4-.7-2.5-2.8,0-2.3,0-4.5,0-6.8,0,0-.2,0-.2,0ZM132.1,163.2v.3c-.9,0-1.8,0-2.7,0-.5,0-1,.1-1.4.4-1.7,1.5-.7,7.3,1.2,8.1.2,0,.3.1.5.1,1.7,0,3.5.3,5.2,0,2.8-.4,4.5-1.9,3.9-5.7-.2-1.5-.8-2.4-2.3-2.7-1.5-.2-2.9-.4-4.4-.6Z"/>
    <path class="st1" d="M177.8,153.8c1.9,0,3.8,0,5.7,0,2.6,0,4.8,1.6,5.5,4.2,1.7,5.7,3.4,11.5,4.8,17.3,1.7,6.4,3.1,12.9,4.7,19.4.2,1,.5,2,.5,2.9,0,1.7-1,2.6-2.6,2.7-2.5,0-5,.2-7.5.2-.6,0-1.2,0-1.7,0-1.1-.2-1.9-.8-2.2-2.1-.4-2.1-.9-4.2-1.4-6.3-.5-2.3-1.2-2.9-3.6-3-2.3,0-4.7,0-7,0-1.5,0-1.8.3-2.2,1.8-.5,2.1-1,4.2-1.6,6.3-.8,2.7-1.4,3-4.1,2.8-2.2-.1-4.3-.3-6.5-.2-3.4.1-4-1.4-3.4-4.1.6-3.2,1.3-6.4,2-9.5,2.3-9.5,4.7-19,7.1-28.5.6-2.5,1.3-3.1,3.9-3.4,3.1-.3,6.3-.4,9.4-.6v.2s0,0,0,0ZM176.3,178.7h0c.6,0,1.2,0,1.7,0,2.4,0,2.9-.7,2.5-3-.5-2.4-.9-4.7-1.4-7.1-.4-1.8-.9-2.4-2.3-2.4-1.5,0-2.7.7-3.1,2.3-.6,2.4-1.2,4.8-1.6,7.2-.4,2.5,0,2.9,2.5,3,.6,0,1.2,0,1.7,0h0Z"/>
    <path class="st1" d="M243.6,188.7c0,2.6-.2,5.2-.4,7.7-.2,2.1-.5,2.6-2.5,2.9-1.8.3-3.6.3-5.5.3-1.6,0-2.9-.9-3.8-2.2-1.8-2.6-3.7-5.2-5.2-7.9-2.1-3.7-3.8-7.6-5.7-11.5-.3-.7-.7-1.4-1.1-2-.2-.3-.8-.5-1.1-.3-.4.2-.7.6-.9,1.1-.1.4,0,.8.1,1.3,0,.9.2,1.7.1,2.6-.1,5.2-.3,10.5-.5,15.7,0,2.3-.5,2.9-2.7,3.3-2.3.4-4.6.7-6.9.9-2.5.3-4.9-1.6-4.8-4.7.2-7.6.3-15.2.4-22.8,0-1.1,0-2.2,0-3.3,0-4.3-.2-8.6,0-12.9,0-2.6,1.1-3.7,3.6-4.1,2.3-.3,4.6-.3,7-.2,1.7,0,3.2,1,4.1,2.6,2.4,4,4.9,8,7.3,12,1.8,2.9,3.4,5.9,5.2,8.8.2.4.9.8,1.1.7.4-.2,1-.8,1-1.2,0-.8,0-1.7-.2-2.5-.7-2.2-.9-4.3-.8-6.6.1-3.7.1-7.4.2-11.1,0-2.4.7-3.3,2.9-3.3,2.5,0,5.1.5,7.6,1,1.9.4,2.2.9,2.1,2.9,0,2.9-.2,5.9-.2,8.8,0,2.8,0,5.7,0,8.5h-.3c0,5.2,0,10.4,0,15.5Z"/>
    <path class="st1" d="M268.6,202.2c-6.7,0-11.7-1.3-15.8-4.6-1.4-1.2-2.5-2.8-3.6-4.2-.8-1-.6-2,.5-2.8,2.1-1.5,4.3-3,6.5-4.4.8-.5,1.4-.4,2.1.3,1.3,1.1,2.7,2.1,4.1,3.1,2,1.4,4.3,1.5,6.8,1.4,3.1-.1,4.5-2.8,3.7-4.8-.4-1.1-1.3-2.1-2.2-2.9-3.5-3.1-7.8-5-12-7.2-3.7-1.9-6.5-4.7-8.8-7.8-1.4-1.9-1.5-4.4-1.1-6.6.8-4.6,3.9-8,8.6-10,3.8-1.6,7.8-2.2,12-1.5,2,.3,3.9.6,5.8,1.2,1.7.5,3.4,1.3,4.8,2.2,3.7,2.3,3.7,3.2.6,5.9-1.6,1.4-3.2,2.9-4.8,4.4-1.4,1.2-2.5,1.3-4.1.3-1-.6-2.1-1.3-3.3-1.7-1.6-.5-3.2.2-4,1.4-.7,1.1-.6,2.4,1,3.4,2.8,1.9,5.8,3.7,8.7,5.4,3.4,2.1,6.9,4,9.5,6.8,3.8,4,4.8,8.5,3.2,13.4-.5,1.6-1.8,3-3.1,4.2-2.5,2.5-5.8,3.9-9.5,4.5-2.3.3-4.7.5-5.9.6h0Z"/>
    <path class="st1" d="M299.3,199.9c-1.6,0-3.2,0-4.7,0-1.5,0-2-.6-2.2-2.2,0-.3,0-.7,0-1-.1-9.4-.3-18.7-.4-28.1,0-4.1,0-8.1-.1-12.2,0-1.9.6-2.8,2.5-3.2,3-.6,6.1-.9,9.2-.5,2,.2,4,0,6-.1,3.6-.2,7.3-.6,10.9.2,2.5.6,4.4,1.8,5.5,4.1,2.9,5.9,3.6,12,.9,18.2-1,2.2-2.6,3.8-4.9,4.6-3.2,1.1-6.3,2.2-9.7,2.5-.6,0-1.2.1-1.7.3-2.6.7-3.1,1.3-3.2,4.1-.1,3.3-.2,6.6-.3,9.8-.1,3-.7,3.6-3.6,3.7-.7,0-1.3,0-2,0-.7,0-1.3,0-2,0h0ZM310.5,162.3h0c-.6,0-1.2,0-1.7,0-1.8.1-2.2.5-2.3,2.3,0,1.3,0,2.6.1,3.9.2,1.7,1.2,2.7,2.9,3,2.2.3,4.2-.5,6.1-1.6.4-.3.8-.9.9-1.4.8-3.4-1.1-6-4.5-6.2-.5,0-1,0-1.5,0h0Z"/>
    <path class="st1" d="M350.4,153.8c1.9,0,3.8,0,5.7,0,2.6,0,4.8,1.6,5.5,4.2,1.7,5.7,3.4,11.5,4.8,17.3,1.7,6.4,3.1,12.9,4.7,19.4.2,1,.5,2,.5,2.9,0,1.7-1,2.6-2.6,2.7-2.5,0-5,.2-7.5.2-.6,0-1.2,0-1.7,0-1.1-.2-1.9-.8-2.2-2.1-.4-2.1-.9-4.2-1.4-6.3-.5-2.3-1.2-2.9-3.6-3-2.3,0-4.7,0-7,0-1.5,0-1.8.3-2.2,1.8-.5,2.1-1,4.2-1.6,6.3-.8,2.7-1.4,3-4.1,2.8-2.2-.1-4.3-.3-6.5-.2-3.4.1-4-1.4-3.4-4.1.6-3.2,1.3-6.4,2-9.5,2.3-9.5,4.7-19,7.1-28.5.6-2.5,1.3-3.1,3.9-3.4,3.1-.3,6.3-.4,9.4-.6v.2s0,0,0,0ZM348.9,178.7h0c.6,0,1.2,0,1.7,0,2.4,0,2.9-.7,2.5-3-.5-2.4-.9-4.7-1.4-7.1-.4-1.8-.9-2.4-2.3-2.4-1.5,0-2.7.7-3.1,2.3-.6,2.4-1.2,4.8-1.6,7.2-.4,2.5,0,2.9,2.5,3,.6,0,1.2,0,1.7,0h0Z"/>
    <path class="st1" d="M375.8,190.5c0-11.4-.2-22.9-.3-34.3,0-2,.6-2.8,2.5-3.2,2.9-.6,5.9-.9,8.9-.6,2.1.2,4.1,0,6.2-.1,4.1-.2,8.1-.6,12.2.2,3.1.6,5.4,2.3,6.8,5.2,2.6,5.3,2.6,10.9.9,16.5-.6,2.1-1.8,3.9-3.7,5.1-1.9,1.3-1.8,1.4-.8,3.5,2.3,4.8,4.5,9.5,6.7,14.3.3.5.5,1.1.6,1.7.1,1-.4,1.7-1.4,1.7-3.6,0-7.1,0-10.7,0-1.1,0-1.7-.5-2.1-1.5-1.6-3.6-3.1-7.1-4.7-10.7-.5-1.2-.9-2.5-1.6-3.6-.4-.7-1.2-1.3-1.9-1.5-1.3-.5-2.3.3-2.4,1.8-.1,2-.2,4-.2,6,0,1.8,0,3.7,0,5.5-.1,2.4-.9,3.3-3.3,3.4-3,0-6,0-9,0-1.9,0-2.4-.7-2.5-2.8,0-2.3,0-4.5,0-6.8,0,0-.2,0-.2,0ZM394.9,163.2v.3c-.9,0-1.8,0-2.7,0-.5,0-1,.1-1.4.4-1.7,1.5-.7,7.3,1.2,8.1.2,0,.3.1.5.1,1.7,0,3.5.3,5.2,0,2.8-.4,4.5-1.9,3.9-5.7-.2-1.5-.8-2.4-2.3-2.7-1.5-.2-2.9-.4-4.4-.6Z"/>
    <path class="st1" d="M420.9,165c.1-2.4,0-4.8.2-7.2,0-1,.5-2.1,1-3,.4-.9,1.3-1.2,2.3-1.2,3.7.3,7.3,0,10.9-.4,3-.3,6.1-.2,9.2-.1,1.8,0,2.3.5,2.3,2.4,0,2.8,0,5.7,0,8.5,0,1.9-.8,2.7-2.7,2.9-1.4,0-2.8,0-4.2,0-1.1,0-2.1.2-3.2.5-1,.3-1.8,1.4-1.7,2.2,0,.9.9,1.5,2.3,1.5.7,0,1.5-.1,2.2,0,1.7,0,2.8.9,2.8,2.5,0,2.2,0,4.5-.1,6.7,0,1-.7,1.5-1.7,1.5-.8,0-1.7,0-2.5,0-.7,0-1.3,0-2,0-1.1.2-1.8,1.1-1.8,2,0,1,.7,1.5,1.6,1.6,1.6.2,3.3.3,5,.4,1.3,0,2.7,0,4,0,1,0,1.5.5,1.5,1.5,0,3.4,0,6.8,0,10.2,0,1.1-.6,1.7-1.7,1.7-2.2,0-4.3.2-6.5.1-4.6,0-9.3-.2-13.9-.2-3,0-4.2-.7-4.2-3.8-.1-4,0-8,0-12h-.3c.3-6.2.6-12.4.9-18.7Z"/>
    <path class="st1" d="M493,188.7c0,2.6-.2,5.2-.4,7.7-.2,2.1-.5,2.6-2.5,2.9-1.8.3-3.6.3-5.5.3-1.6,0-2.9-.9-3.8-2.2-1.8-2.6-3.7-5.2-5.2-7.9-2.1-3.7-3.8-7.6-5.7-11.5-.3-.7-.7-1.4-1.1-2-.2-.3-.8-.5-1.1-.3-.4.2-.7.6-.9,1.1-.1.4,0,.8.1,1.3,0,.9.2,1.7.1,2.6-.1,5.2-.3,10.5-.5,15.7,0,2.3-.5,2.9-2.7,3.3-2.3.4-4.6.7-6.9.9-2.5.3-4.9-1.6-4.8-4.7.2-7.6.3-15.2.4-22.8,0-1.1,0-2.2,0-3.3,0-4.3-.2-8.6,0-12.9,0-2.6,1.1-3.7,3.6-4.1,2.3-.3,4.6-.3,7-.2,1.7,0,3.2,1,4.1,2.6,2.4,4,4.9,8,7.3,12,1.8,2.9,3.4,5.9,5.2,8.8.2.4.9.8,1.1.7.4-.2,1-.8,1-1.2,0-.8,0-1.7-.2-2.5-.7-2.2-.9-4.3-.8-6.6.1-3.7.1-7.4.2-11.1,0-2.4.7-3.3,2.9-3.3,2.5,0,5.1.5,7.6,1,1.9.4,2.2.9,2.1,2.9,0,2.9-.2,5.9-.2,8.8,0,2.8,0,5.7,0,8.5h-.3c0,5.2,0,10.4,0,15.5Z"/>
    <path class="st1" d="M528.7,193.1c0,1.4,0,2.8,0,4.2,0,3-.3,3.4-3.3,3.6-4.3.3-8.5-.3-12.5-1.7-8.4-3-14.4-11.4-14.8-20.3-.4-10.4,4-18.3,12.4-24.1,1.3-.9,3.1-1.2,4.6-1.8,3.8-1.6,7.8-1.3,11.8-1.2,1.4,0,1.9.5,1.9,2,0,3.1,0,6.2-.1,9.2,0,1.6-.4,2-2,2.3-.9.1-1.8.2-2.7.2-6.5.3-11.7,7.3-10.2,13.6.8,3.4,3.2,5.2,6.2,6.2,1.8.6,3.7.6,5.6.8.5,0,1,0,1.5,0,1.1,0,1.7.6,1.6,1.7,0,1.7,0,3.5,0,5.2h0Z"/>
    <path class="st1" d="M559.3,200.4c-2.6-.2-4.7-.2-6.9-.5-2.1-.2-2.5-.7-2.6-3-.2-3.1-.4-6.2-.6-9.4-.2-3.6-.5-7.1-2.4-10.2-.6-1-1.1-2-1.7-2.9-4.7-6.6-9.4-13.2-14.1-19.9-.3-.4-.6-1.1-.5-1.4.3-.4.9-.8,1.4-.8,2.2,0,4.5.1,6.7.1,2.3,0,4.6,0,6.9-.3,5.3-.7,5.1-.1,6.6,3.7,1.5,3.8,2.9,7.6,4.3,11.4,0,0,0,.2,0,.2.5.6.9,1.5,1.4,1.6,1,.2,1.4-.8,1.6-1.6.7-2.1,1.3-4.3,2.1-6.4.9-2.5,2-4.9,3.1-7.4.2-.4.9-.7,1.4-.8,3.3-.3,6.6-.6,9.9-.8,2,0,4,.1,6,.3,1,0,1.2.9.9,1.7-.4,1.2-.9,2.5-1.5,3.6-2.2,3.6-4.5,7.1-6.8,10.6-1.6,2.4-3.2,4.7-4.8,7-4.2,5.7-5.3,12-4.1,19,.2,1,.4,2,.5,3.1.2,1.5-.2,2.4-1.7,2.6-1.9.3-3.8.3-5.3.3Z"/>
    <path class="st1" d="M587.6,187.2c4.2.6,6.7,4.2,5.6,8.1-.8,2.7-1.5,5.4-3.6,7.5-1,1-1.7,2.4-2.7,3.6-.4.5-1.1,1-1.7,1.2-2.1.7-3.6-.6-3.1-2.8.2-.9.6-1.7.9-2.5.5-1.5.6-2.9-.4-4.4-.5-.7-.8-1.7-.8-2.6,0-1.5,0-3,.3-4.4.1-.6.8-1.2,1.4-1.6.5-.4,1.1-.8,1.7-1,.8-.4,1.7-.7,2.5-1h0Z"/>
    <path class="st1" d="M643.1,153.8c1.9,0,3.8,0,5.7,0,2.6,0,4.8,1.6,5.5,4.2,1.7,5.7,3.4,11.5,4.9,17.3,1.7,6.4,3.1,12.9,4.7,19.4.2,1,.5,2,.5,2.9,0,1.7-1,2.6-2.6,2.7-2.5,0-5,.2-7.5.2-.6,0-1.2,0-1.7,0-1.1-.2-1.9-.8-2.2-2.1-.4-2.1-.9-4.2-1.4-6.3-.5-2.3-1.2-2.9-3.6-3-2.3,0-4.7,0-7,0-1.5,0-1.8.3-2.2,1.8-.5,2.1-1,4.2-1.6,6.3-.8,2.7-1.4,3-4.1,2.8-2.2-.1-4.3-.3-6.5-.2-3.4.1-4-1.4-3.4-4.1.6-3.2,1.3-6.4,2-9.5,2.3-9.5,4.7-19,7.1-28.5.6-2.5,1.3-3.1,3.9-3.4,3.1-.3,6.3-.4,9.4-.6v.2s0,0,0,0ZM641.6,178.7h0c.6,0,1.2,0,1.7,0,2.4,0,2.9-.7,2.5-3-.5-2.4-.9-4.7-1.4-7.1-.4-1.8-.9-2.4-2.3-2.4-1.5,0-2.7.7-3.1,2.3-.6,2.4-1.2,4.8-1.6,7.2-.4,2.5,0,2.9,2.5,3,.6,0,1.2,0,1.7,0h0Z"/>
    <path class="st1" d="M708.9,188.7c0,2.6-.2,5.2-.4,7.7-.2,2.1-.5,2.6-2.5,2.9-1.8.3-3.6.3-5.5.3-1.6,0-2.9-.9-3.8-2.2-1.8-2.6-3.7-5.2-5.2-7.9-2.1-3.7-3.8-7.6-5.7-11.5-.3-.7-.7-1.4-1.1-2-.2-.3-.8-.5-1.1-.3-.4.2-.8.6-.9,1.1-.1.4,0,.8.1,1.3,0,.9.2,1.7.1,2.6-.1,5.2-.3,10.5-.5,15.7,0,2.3-.5,2.9-2.7,3.3-2.3.4-4.6.7-6.9.9-2.5.3-4.9-1.6-4.8-4.7.2-7.6.3-15.2.4-22.8,0-1.1,0-2.2,0-3.3,0-4.3-.2-8.6,0-12.9,0-2.6,1.1-3.7,3.6-4.1,2.3-.3,4.6-.3,7-.2,1.7,0,3.2,1,4.1,2.6,2.4,4,4.9,8,7.3,12,1.8,2.9,3.4,5.9,5.2,8.8.2.4.9.8,1.1.7.4-.2,1-.8,1-1.2,0-.8,0-1.7-.2-2.5-.7-2.2-.9-4.3-.8-6.6.1-3.7.1-7.4.2-11.1,0-2.4.7-3.3,2.9-3.3,2.5,0,5.1.5,7.6,1,1.9.4,2.2.9,2.1,2.9,0,2.9-.2,5.9-.2,8.8,0,2.8,0,5.7,0,8.5h-.3c0,5.2,0,10.4,0,15.5Z"/>
    <path class="st1" d="M715.6,177.6c.3-5.8.6-13,1-20.2,0-.7.1-1.3.2-2,0-.9.4-1.4,1.5-1.5,2.5-.2,5.1-.8,7.6-.9,3.7-.2,7.5,0,11.2-.1,4.9-.2,8.4,2,11,6,2.7,4.2,4,8.9,4.4,13.9.4,4.9.1,9.8-1.5,14.5-1,3-2.2,5.9-4.5,8.2-2.4,2.6-5.2,4.3-9,4.1-5.9-.2-11.8-.3-17.7-.5-.2,0-.3,0-.5,0-4.6-.7-3.8-.7-3.8-4.1,0-5.3,0-10.6,0-17.4h0ZM728.9,178.4c0,2.2-.2,4.3-.3,6.5,0,.7.1,1.3.2,2,.1,1.1.8,1.6,1.7,1.9,2.1.7,5.5-.6,6.5-2.6,3.3-6.3,3.2-12.7.5-19.2-1-2.2-2.7-3.2-5.1-3.3-2.1,0-2.7.4-2.9,2.5-.3,4-.5,8.1-.8,12.2h.2Z"/>
    <path class="st1" d="M790.6,178.3c0-2.7-.1-5.5-.2-8.2,0-1.2-.1-2.3.5-3.4.5-1,0-1.8-1.1-1.9-1.1-.1-2.3,0-3.4.2-1.9.3-3.7.9-5.6,1.3-1.8.3-2,0-2-1.8,0-.9,0-1.9.2-2.7.7-2.4,1.1-4.9.9-7.4,0-1.1.6-1.5,1.5-1.6,1.6-.1,3.2-.3,4.7-.2,2.5.2,4.9.3,7.4,0,6.5-1,13-1.4,19.6-.8,2.1.2,2.9.7,3.2,2.8.5,2.9.7,5.8,0,8.7-.4,1.5-1.1,2.1-2.7,2-2.4-.1-4.8-.4-7.2-.6-1.9-.2-2.3.2-2.2,2.1.2,3.4.2,6.8.2,10.2,0,6.2,0,12.3,0,18.5,0,.7,0,1.3,0,2-.3,2.4-1,2.9-3.5,2.7-2.6-.2-5.1-.4-7.7-.5-1.8,0-2,0-2.3-1.9-.2-1.7-.2-3.5-.3-5.2,0-1,0-2,0-3h0c0-3.7,0-7.5,0-11.2Z"/>
    <path class="st1" d="M820.6,190.5c0-11.4-.2-22.9-.3-34.3,0-2,.6-2.8,2.5-3.2,2.9-.6,5.9-.9,8.9-.6,2.1.2,4.1,0,6.2-.1,4.1-.2,8.1-.6,12.2.2,3.1.6,5.4,2.3,6.8,5.2,2.6,5.3,2.6,10.9.9,16.5-.6,2.1-1.8,3.9-3.7,5.1-1.9,1.3-1.8,1.4-.8,3.5,2.3,4.8,4.5,9.5,6.7,14.3.3.5.5,1.1.6,1.7.1,1-.4,1.7-1.4,1.7-3.6,0-7.1,0-10.7,0-1.1,0-1.7-.5-2.1-1.5-1.6-3.6-3.1-7.1-4.7-10.7-.5-1.2-.9-2.5-1.6-3.6-.4-.7-1.2-1.3-1.9-1.5-1.3-.5-2.3.3-2.4,1.8-.2,2-.2,4-.2,6,0,1.8,0,3.7,0,5.5-.1,2.4-.9,3.3-3.3,3.4-3,0-6,0-9,0-1.9,0-2.4-.7-2.5-2.8,0-2.3,0-4.5,0-6.8,0,0-.2,0-.2,0ZM839.8,163.2v.3c-.9,0-1.8,0-2.8,0-.5,0-1,.1-1.4.4-1.7,1.5-.7,7.3,1.2,8.1.2,0,.3.1.5.1,1.7,0,3.5.3,5.2,0,2.8-.4,4.5-1.9,3.9-5.7-.2-1.5-.8-2.4-2.3-2.7-1.5-.2-2.9-.4-4.4-.6Z"/>
    <path class="st1" d="M890.8,162.1c-.1-2.4-.5-4.7-.8-7.1-.2-1.7,0-2.1,1.7-2.3,3-.3,5.9-1,8.9-.2,1,.2,2.1,0,3.2-.2.7-.1,1.3,0,1.2.8-.4,4.5,1.2,8.9.8,13.4-.5,6.4-.3,12.9-.9,19.3-.3,3.1-1.7,6.1-2.6,9.1-.2.6-.8,1.1-1.2,1.5-.6.6-1.5,1.2-2,1.9-1.7,2.4-4.1,3.2-6.8,3.5-5.1.4-10.1.9-15-1.2-2.9-1.2-5.8-2.3-7.9-4.9-2-2.6-3.3-5.5-3.5-8.7-.3-4.1-.7-8.3-1-12.4-.1-2.9,0-5.7,0-8.6-.2-3.5-.5-7-.8-10.5,0-.5-.1-1-.1-1.5,0-1.5,0-1.8,1.6-1.8,3.9,0,7.8,0,11.7,0,1.7,0,1.9.2,2,1.8.3,6.2.6,12.4.9,18.6.1,3.5.2,7,.3,10.5,0,1,.2,1.9.5,2.9,1,3.7,4.6,5.1,8,3.2,1.6-.9,2.6-2.1,2.5-4.2-.2-2.9,0-5.9,0-8.8,0-1,0-2-.1-2.9,0,0,0,0,0,0,0-3.8-.1-7.5-.3-11.3Z"/>
    <path class="st1" d="M912.2,165c.1-2.4,0-4.8.2-7.2,0-1,.5-2.1,1-3,.4-.9,1.3-1.2,2.3-1.2,3.7.3,7.3,0,10.9-.4,3-.3,6.1-.2,9.2-.1,1.8,0,2.3.5,2.3,2.4,0,2.8,0,5.7,0,8.5,0,1.9-.8,2.7-2.7,2.9-1.4,0-2.8,0-4.2,0-1.1,0-2.1.2-3.2.5-1,.3-1.8,1.4-1.7,2.2,0,.9.9,1.5,2.3,1.5.7,0,1.5-.1,2.2,0,1.7,0,2.8.9,2.8,2.5,0,2.2,0,4.5-.1,6.7,0,1-.7,1.5-1.7,1.5-.8,0-1.7,0-2.5,0-.7,0-1.3,0-2,0-1.1.2-1.8,1.1-1.8,2,0,1,.7,1.5,1.6,1.6,1.6.2,3.3.3,5,.4,1.3,0,2.7,0,4,0,1,0,1.5.5,1.5,1.5,0,3.4,0,6.8,0,10.2,0,1.1-.6,1.7-1.7,1.7-2.2,0-4.3.2-6.5.1-4.6,0-9.3-.2-13.9-.2-3,0-4.2-.7-4.2-3.8-.1-4,0-8,0-12h-.3c.3-6.2.6-12.4.9-18.7Z"/>
    <path class="st1" d="M968,165c.1-2.4,0-4.8.2-7.2,0-1,.5-2.1,1-3,.4-.9,1.3-1.2,2.3-1.2,3.7.3,7.3,0,10.9-.4,3-.3,6.1-.2,9.2-.1,1.8,0,2.3.5,2.3,2.4,0,2.8,0,5.7,0,8.5,0,1.9-.8,2.7-2.7,2.9-1.4,0-2.8,0-4.2,0-1.1,0-2.1.2-3.2.5-1,.3-1.8,1.4-1.7,2.2,0,.9.9,1.5,2.3,1.5.7,0,1.5-.1,2.2,0,1.7,0,2.8.9,2.8,2.5,0,2.2,0,4.5-.1,6.7,0,1-.7,1.5-1.7,1.5-.8,0-1.7,0-2.5,0-.7,0-1.3,0-2,0-1.1.2-1.8,1.1-1.8,2,0,1,.7,1.5,1.6,1.6,1.6.2,3.3.3,5,.4,1.3,0,2.7,0,4,0,1,0,1.5.5,1.5,1.5,0,3.4,0,6.8,0,10.2,0,1.1-.6,1.7-1.7,1.7-2.2,0-4.3.2-6.5.1-4.6,0-9.3-.2-13.9-.2-3,0-4.2-.7-4.2-3.8-.1-4,0-8,0-12h-.3c.3-6.2.6-12.4.9-18.7Z"/>
    <path class="st1" d="M1018.5,150.9c12.6.3,21.3,8.5,24.1,17.5,1.7,5.6,1.9,11.1.3,16.6-.4,1.4-.9,2.7-1.6,4-1.6,3-1.5,5.8.5,8.6.9,1.2,1.6,2.6,2.5,3.9.7,1.1.7,2.1-.2,3-.4.4-.8.9-1.3,1.3-1.6,1.2-3.2,2.3-4.8,3.4-2.1,1.4-2.4,1.3-3.9-.6-1.3-1.8-2.7-3.5-4-5.3-1.3-1.6-2.9-2.1-4.9-1.8-8.4,1.2-15.5-1.4-21.2-7.9-4.6-5.3-6.9-11.6-6.7-18.6.3-8.9,3.9-16.2,11.5-21.1,3.5-2.3,7.5-3.1,9.7-3h0ZM1015.8,165.6c-5.2,3.8-6.6,11.5-2.7,17.4,3.1,4.7,8.5,5.8,13.2,3.1,3-1.8,4.5-4.6,5.3-7.8,1.5-5.9-2.4-15-11-14.6-1.9-.6-3.4.8-4.8,1.9Z"/>
    <path class="st1" d="M1074.7,162.1c-.1-2.4-.5-4.7-.8-7.1-.2-1.7,0-2.1,1.7-2.3,3-.3,5.9-1,8.9-.2,1,.2,2.1,0,3.2-.2.7-.1,1.3,0,1.2.8-.4,4.5,1.2,8.9.8,13.4-.5,6.4-.3,12.9-.9,19.3-.3,3.1-1.7,6.1-2.6,9.1-.2.6-.8,1.1-1.2,1.5-.6.6-1.5,1.2-2,1.9-1.7,2.4-4.1,3.2-6.8,3.5-5.1.4-10.1.9-15-1.2-2.9-1.2-5.8-2.3-7.9-4.9-2-2.6-3.3-5.5-3.5-8.7-.3-4.1-.7-8.3-1-12.4-.1-2.9,0-5.7,0-8.6-.2-3.5-.5-7-.8-10.5,0-.5-.1-1-.1-1.5,0-1.5,0-1.8,1.6-1.8,3.9,0,7.8,0,11.7,0,1.7,0,1.9.2,2,1.8.3,6.2.6,12.4.9,18.6.1,3.5.2,7,.3,10.5,0,1,.2,1.9.5,2.9,1,3.7,4.6,5.1,8,3.2,1.6-.9,2.6-2.1,2.5-4.2-.2-2.9,0-5.9,0-8.8,0-1,0-2-.1-2.9,0,0,0,0,0,0,0-3.8-.1-7.5-.3-11.3Z"/>
    <path class="st1" d="M1109.8,176.6c0,4.9,0,9.8,0,14.7,0,2.2-.2,4.5-.3,6.7-.1,1.8-.5,2.1-2.4,2.1-3.2,0-6.4-.2-9.7-.5-.4,0-1-.6-1.1-1.1-.3-1.3-.5-2.6-.5-3.9,0-9.1-.1-18.3-.2-27.4,0-2.7-.1-5.3,0-8,0-1.4.3-2.8.7-4.1.3-1,1-1.7,2.1-1.8,2.2-.2,4.5-.3,6.7-.5.5,0,1,0,1.5,0,2.3.1,2.9.8,2.9,3.1,0,6.9,0,13.8,0,20.7h.3Z"/>
    <path class="st1" d="M1125.3,178.3c0-2.7-.1-5.5-.2-8.2,0-1.2-.1-2.3.5-3.4.5-1,0-1.8-1.1-1.9-1.1-.1-2.3,0-3.4.2-1.9.3-3.7.9-5.6,1.3-1.8.3-2,0-2-1.8,0-.9,0-1.9.2-2.7.7-2.4,1.1-4.9.9-7.4,0-1.1.6-1.5,1.5-1.6,1.6-.1,3.2-.3,4.7-.2,2.5.2,4.9.3,7.4,0,6.5-1,13-1.4,19.6-.8,2.1.2,2.9.7,3.2,2.8.5,2.9.7,5.8,0,8.7-.4,1.5-1.1,2.1-2.7,2-2.4-.1-4.8-.4-7.2-.6-1.9-.2-2.3.2-2.2,2.1.2,3.4.2,6.8.2,10.2,0,6.2,0,12.3,0,18.5,0,.7,0,1.3-.1,2-.3,2.4-1,2.9-3.5,2.7-2.6-.2-5.1-.4-7.7-.5-1.8,0-2,0-2.3-1.9-.2-1.7-.2-3.5-.3-5.2,0-1,0-2,0-3h0c0-3.7,0-7.5,0-11.2Z"/>
    <path class="st1" d="M1180.4,200.4c-2.6-.2-4.7-.2-6.9-.5-2.1-.2-2.5-.7-2.6-3-.2-3.1-.4-6.2-.6-9.4-.2-3.6-.5-7.1-2.4-10.2-.6-1-1.1-2-1.7-2.9-4.7-6.6-9.4-13.2-14.1-19.9-.3-.4-.6-1.1-.5-1.4.3-.4.9-.8,1.4-.8,2.2,0,4.5.1,6.7.1,2.3,0,4.6,0,6.9-.3,5.3-.7,5.1-.1,6.6,3.7,1.5,3.8,2.9,7.6,4.3,11.4,0,0,0,.2,0,.2.5.6.9,1.5,1.4,1.6,1,.2,1.4-.8,1.6-1.6.7-2.1,1.3-4.3,2.1-6.4s2-4.9,3.1-7.4c.2-.4.9-.7,1.4-.8,3.3-.3,6.6-.6,9.9-.8,2,0,4,.1,6,.3,1,0,1.2.9.9,1.7-.4,1.2-.9,2.5-1.5,3.6-2.2,3.6-4.5,7.1-6.8,10.6-1.6,2.4-3.2,4.7-4.8,7-4.2,5.7-5.3,12-4.1,19,.2,1,.4,2,.5,3.1.2,1.5-.2,2.4-1.7,2.6-1.9.3-3.8.3-5.3.3Z"/>
    <path class="st1" d="M1213.4,195.9c0,2.2-1.4,4-3.6,4.2-4.1.5-6.2-.6-7.1-4-.6-2.5.9-4.7,3.4-5.2,1-.2,2.1-.4,3.1-.3,2.4.2,4.1,2.5,4.1,5.2h0Z"/>
  </g>
  <g>
    <path class="st0" d="M13,60c-1.6,0-3.2,0-4.7,0-1.5,0-2-.6-2.2-2.2,0-.3,0-.7,0-1-.1-9.4-.3-18.7-.4-28.1,0-4.1,0-8.1-.1-12.2,0-1.9.6-2.8,2.5-3.2,3-.6,6.1-.9,9.2-.5,2,.2,4,0,6-.1,3.6-.2,7.3-.6,10.9.2,2.5.6,4.4,1.8,5.5,4.1,2.9,5.9,3.6,12,.9,18.2-1,2.2-2.6,3.8-4.9,4.6-3.2,1.1-6.3,2.2-9.7,2.5-.6,0-1.2.1-1.7.3-2.6.7-3.1,1.3-3.2,4.1-.1,3.3-.2,6.6-.3,9.8-.1,3-.7,3.6-3.6,3.7-.7,0-1.3,0-2,0-.7,0-1.3,0-2,0h0ZM24.1,22.4h0c-.6,0-1.2,0-1.7,0-1.7.1-2.2.5-2.3,2.3,0,1.3,0,2.6.1,3.9.2,1.7,1.2,2.7,2.9,3,2.2.3,4.2-.5,6.1-1.6.4-.3.8-.9.9-1.4.8-3.4-1.1-6-4.5-6.2-.5,0-1,0-1.5,0h0Z"/>
    <path class="st0" d="M46.5,50.6c0-11.4-.2-22.9-.3-34.3,0-2,.6-2.8,2.5-3.2,2.9-.6,5.9-.9,8.9-.6,2.1.2,4.1,0,6.2-.1,4.1-.2,8.1-.6,12.2.2,3.1.6,5.4,2.3,6.8,5.2,2.6,5.3,2.6,10.9.9,16.5-.6,2.1-1.8,3.9-3.7,5.1-1.9,1.3-1.8,1.4-.8,3.5,2.3,4.8,4.5,9.5,6.7,14.3.3.5.5,1.1.6,1.7.1,1-.4,1.7-1.4,1.7-3.6,0-7.1,0-10.7,0-1.1,0-1.7-.5-2.1-1.5-1.6-3.6-3.1-7.1-4.7-10.7-.5-1.2-.9-2.5-1.6-3.6-.4-.7-1.2-1.3-1.9-1.5-1.3-.5-2.3.3-2.4,1.8-.1,2-.2,4-.2,6,0,1.8,0,3.7,0,5.5-.1,2.4-.9,3.3-3.3,3.4-3,0-6,0-9,0-1.9,0-2.4-.7-2.5-2.8,0-2.3,0-4.5,0-6.8,0,0-.2,0-.2,0ZM65.6,23.3v.3c-.9,0-1.8,0-2.7,0-.5,0-1,.1-1.4.4-1.7,1.5-.7,7.3,1.2,8.1.2,0,.3.1.5.1,1.7,0,3.5.3,5.2,0,2.8-.4,4.5-1.9,3.9-5.7-.2-1.5-.8-2.4-2.3-2.7-1.5-.2-2.9-.4-4.4-.6Z"/>
    <path class="st0" d="M116.6,62.8c-9.2,0-15.3-2.8-20-8.2-8.1-9.4-9.6-19.8-4.1-30.8,5.9-11.9,19-15.2,29.4-11,7.8,3.1,12.7,8.7,15.3,16.4,2.5,7.3,2,14.4-1.7,21.2-4.4,8-11.4,12.2-18.9,12.5h0ZM105.5,42.7c3.5,6.4,12.1,7.6,16.9,2.2,4.6-5.1,4.8-12,.3-17.4-1.5-1.8-3.5-3-5.9-3.3-1.6-.2-3.4-.6-4.7,0-5.3,2.2-8.2,6.2-8.2,12,0,2.3.6,4.6,1.6,6.5Z"/>
    <path class="st0" d="M161.2,62.3c-6.7,0-11.7-1.3-15.8-4.6-1.4-1.2-2.5-2.8-3.6-4.2-.8-1-.6-2,.5-2.8,2.1-1.5,4.3-3,6.5-4.4.8-.5,1.4-.4,2.1.3,1.3,1.1,2.7,2.1,4.1,3.1,2,1.4,4.3,1.5,6.8,1.4,3.1-.1,4.5-2.8,3.7-4.8-.4-1.1-1.3-2.1-2.2-2.9-3.5-3.1-7.8-5-12-7.2-3.7-1.9-6.5-4.7-8.8-7.8-1.4-1.9-1.5-4.4-1.1-6.6.8-4.6,3.9-8,8.6-10,3.8-1.6,7.8-2.2,12-1.5,2,.3,3.9.6,5.8,1.2,1.7.5,3.4,1.3,4.8,2.2,3.7,2.3,3.7,3.2.6,5.9-1.6,1.4-3.2,2.9-4.8,4.4-1.4,1.2-2.5,1.3-4.1.3-1-.6-2.1-1.3-3.3-1.7-1.6-.5-3.2.2-4,1.4-.7,1.1-.6,2.4,1,3.4,2.8,1.9,5.8,3.7,8.7,5.4,3.4,2.1,6.9,4,9.5,6.8,3.8,4,4.8,8.5,3.2,13.4-.5,1.6-1.8,3-3.1,4.2-2.5,2.5-5.8,3.9-9.5,4.5-2.3.3-4.7.5-5.9.6h0Z"/>
    <path class="st0" d="M192,60c-1.6,0-3.2,0-4.7,0-1.5,0-2-.6-2.2-2.2,0-.3,0-.7,0-1-.1-9.4-.3-18.7-.4-28.1,0-4.1,0-8.1-.1-12.2,0-1.9.6-2.8,2.5-3.2,3-.6,6.1-.9,9.2-.5,2,.2,4,0,6-.1,3.6-.2,7.3-.6,10.9.2,2.5.6,4.4,1.8,5.5,4.1,2.9,5.9,3.6,12,.9,18.2-1,2.2-2.6,3.8-4.9,4.6-3.2,1.1-6.3,2.2-9.7,2.5-.6,0-1.2.1-1.7.3-2.6.7-3.1,1.3-3.2,4.1-.1,3.3-.2,6.6-.3,9.8-.1,3-.7,3.6-3.6,3.7-.7,0-1.3,0-2,0-.7,0-1.3,0-2,0h0ZM203.1,22.4h0c-.6,0-1.2,0-1.7,0-1.8.1-2.2.5-2.3,2.3,0,1.3,0,2.6.1,3.9.2,1.7,1.2,2.7,2.9,3,2.2.3,4.2-.5,6.1-1.6.4-.3.8-.9.9-1.4.8-3.4-1.1-6-4.5-6.2-.5,0-1,0-1.5,0h0Z"/>
    <path class="st0" d="M225.9,25.1c.1-2.4,0-4.8.2-7.2,0-1,.5-2.1,1-3,.4-.9,1.3-1.2,2.3-1.2,3.7.3,7.3,0,10.9-.4,3-.3,6.1-.2,9.2-.1,1.8,0,2.3.5,2.3,2.4,0,2.8,0,5.7,0,8.5,0,1.9-.8,2.7-2.7,2.9-1.4,0-2.8,0-4.2,0-1.1,0-2.1.2-3.2.5-1,.3-1.8,1.4-1.7,2.2,0,.9.9,1.5,2.3,1.5.7,0,1.5-.1,2.2,0,1.7,0,2.8.9,2.8,2.5,0,2.2,0,4.5-.1,6.7,0,1-.7,1.5-1.7,1.5-.8,0-1.7,0-2.5,0-.7,0-1.3,0-2,0-1.1.2-1.8,1.1-1.8,2,0,1,.7,1.5,1.6,1.6,1.6.2,3.3.3,5,.4,1.3,0,2.7,0,4,0,1,0,1.5.5,1.5,1.5,0,3.4,0,6.8,0,10.2,0,1.1-.6,1.7-1.7,1.7-2.2,0-4.3.2-6.5.1-4.6,0-9.3-.2-13.9-.2-3,0-4.2-.7-4.2-3.8-.1-4,0-8,0-12h-.3c.3-6.2.6-12.4.9-18.7Z"/>
    <path class="st0" d="M257.7,50.6c0-11.4-.2-22.9-.3-34.3,0-2,.6-2.8,2.5-3.2,2.9-.6,5.9-.9,8.9-.6,2.1.2,4.1,0,6.2-.1,4.1-.2,8.1-.6,12.2.2,3.1.6,5.4,2.3,6.8,5.2,2.6,5.3,2.6,10.9.9,16.5-.6,2.1-1.8,3.9-3.7,5.1-1.9,1.3-1.8,1.4-.8,3.5,2.3,4.8,4.5,9.5,6.7,14.3.3.5.5,1.1.6,1.7.1,1-.4,1.7-1.4,1.7-3.6,0-7.1,0-10.7,0-1.1,0-1.7-.5-2.1-1.5-1.6-3.6-3.1-7.1-4.7-10.7-.5-1.2-.9-2.5-1.6-3.6-.4-.7-1.2-1.3-1.9-1.5-1.3-.5-2.3.3-2.4,1.8-.1,2-.2,4-.2,6,0,1.8,0,3.7,0,5.5-.1,2.4-.9,3.3-3.3,3.4-3,0-6,0-9,0-1.9,0-2.4-.7-2.5-2.8,0-2.3,0-4.5,0-6.8,0,0-.2,0-.2,0ZM276.8,23.3v.3c-.9,0-1.8,0-2.7,0-.5,0-1,.1-1.4.4-1.7,1.5-.7,7.3,1.2,8.1.2,0,.3.1.5.1,1.7,0,3.5.3,5.2,0,2.8-.4,4.5-1.9,3.9-5.7-.2-1.5-.8-2.4-2.3-2.7-1.5-.2-2.9-.4-4.4-.6Z"/>
    <path class="st0" d="M375.3,60.2c-2.9-.3-6-.7-9-1-1.5-.1-3-.3-4.4-.1-1.3.2-1.9-.3-2.6-1.4-2.2-3.6-4.4-7.2-6.7-10.7-1.4-2.1-2.4-2.1-4.1-.2-2.9,3-5,6.6-7,10.3-.8,1.5-1.9,2.4-3.6,2.8-2.3.6-4.5.8-6.9.3-1.4-.3-3,0-4.5.2-.9,0-1.8.2-2.7.1-.5,0-1.1-.4-1.3-.8-.2-.2.1-1,.4-1.3,3.6-4.1,7.4-8.1,11-12.2,2.2-2.6,4.3-5.2,6.4-7.9.6-.8,1-1.7,1.3-2.7.4-1.2.2-2.4-.7-3.5-2.8-3.7-5.5-7.5-8.8-10.8-1.8-1.8-3.2-3.8-4.7-5.8-.7-.9-.6-1.6.4-1.9,1.1-.4,2.2-.5,3.4-.5,2.8,0,5.6,0,8.4-.1,2.3-.2,4.7.9,5.8,3.5.9,2.1,2.2,3.7,3.5,5.4,1.5,1.9,2.4,1.9,4,0,2.2-2.5,4.3-5.1,6.3-7.7.7-.9,1.6-1.2,2.6-1.2,4.5,0,9,.1,13.5.2.4,0,.9,0,1.2.2.6.3,1.6.6,1.8,1.2.3.9-.8,1-1.3,1.5-1.4,1.4-2.9,2.7-4.2,4.2-2,2.1-3.9,4.3-5.8,6.5-1.8,2.1-3.5,4.2-5.3,6.2-1.3,1.5-1.1,3.1-.3,4.6.5,1,1.3,2,2.1,2.7,3.7,3.1,6.4,6.9,9.6,10.5,2.1,2.4,4.2,4.7,6.3,7,1,1.1.9,1.7-.5,2.1-1,.3-2.1.3-3.3.5h0Z"/>
    <path class="st0" d="M404.8,62.8c-9.2,0-15.3-2.8-20-8.2-8.1-9.4-9.6-19.8-4.1-30.8,5.9-11.9,19-15.2,29.4-11,7.8,3.1,12.7,8.7,15.3,16.4,2.5,7.3,2,14.4-1.7,21.2-4.4,8-11.4,12.2-18.9,12.5h0ZM393.6,42.7c3.5,6.4,12.1,7.6,16.9,2.2,4.6-5.1,4.8-12,.3-17.4-1.5-1.8-3.5-3-5.9-3.3-1.6-.2-3.4-.6-4.7,0-5.3,2.2-8.2,6.2-8.2,12,0,2.3.6,4.6,1.6,6.5Z"/>
    <path class="st0" d="M469.6,36.7c0,4.9,0,9.8,0,14.7,0,2.2-.2,4.5-.3,6.7-.1,1.8-.5,2.1-2.4,2.1-3.2,0-6.4-.2-9.7-.5-.4,0-1-.6-1.1-1.1-.3-1.3-.5-2.6-.5-3.9,0-9.1-.1-18.3-.2-27.4,0-2.7-.1-5.3,0-8,0-1.4.3-2.8.7-4.1.3-1,1-1.7,2.1-1.8,2.2-.2,4.5-.3,6.7-.5.5,0,1,0,1.5,0,2.3.1,2.9.8,2.9,3.1,0,6.9,0,13.8,0,20.7h.3,0Z"/>
    <path class="st0" d="M494.3,62.3c-6.7,0-11.7-1.3-15.8-4.6-1.4-1.2-2.5-2.8-3.6-4.2-.8-1-.6-2,.5-2.8,2.1-1.5,4.3-3,6.5-4.4.8-.5,1.4-.4,2.1.3,1.3,1.1,2.7,2.1,4.1,3.1,2,1.4,4.3,1.5,6.8,1.4,3.1-.1,4.5-2.8,3.7-4.8-.4-1.1-1.3-2.1-2.2-2.9-3.5-3.1-7.8-5-12-7.2-3.7-1.9-6.5-4.7-8.8-7.8-1.4-1.9-1.5-4.4-1.1-6.6.8-4.6,3.9-8,8.6-10,3.8-1.6,7.8-2.2,12-1.5,2,.3,3.9.6,5.8,1.2,1.7.5,3.4,1.3,4.8,2.2,3.7,2.3,3.7,3.2.6,5.9-1.6,1.4-3.2,2.9-4.8,4.4-1.4,1.2-2.5,1.3-4.1.3-1-.6-2.1-1.3-3.3-1.7-1.6-.5-3.2.2-4,1.4-.7,1.1-.6,2.4,1,3.4,2.8,1.9,5.8,3.7,8.7,5.4,3.4,2.1,6.9,4,9.5,6.8,3.8,4,4.8,8.5,3.2,13.4-.5,1.6-1.8,3-3.1,4.2-2.5,2.5-5.8,3.9-9.5,4.5-2.3.3-4.7.5-5.9.6h0Z"/>
    <path class="st0" d="M561.6,14c1.9,0,3.8,0,5.7,0,2.6,0,4.8,1.6,5.5,4.2,1.7,5.7,3.4,11.5,4.8,17.3,1.7,6.4,3.1,12.9,4.7,19.4.2,1,.5,2,.5,2.9,0,1.7-1,2.6-2.6,2.7-2.5,0-5,.2-7.5.2-.6,0-1.2,0-1.7,0-1.1-.2-1.9-.8-2.2-2.1-.4-2.1-.9-4.2-1.4-6.3-.5-2.3-1.2-2.9-3.6-3-2.3,0-4.7,0-7,0-1.5,0-1.8.3-2.2,1.8-.5,2.1-1,4.2-1.6,6.3-.8,2.7-1.4,3-4.1,2.8-2.2-.1-4.3-.3-6.5-.2-3.4.1-4-1.4-3.4-4.1.6-3.2,1.3-6.4,2-9.5,2.3-9.5,4.7-19,7.1-28.5.6-2.5,1.3-3.1,3.9-3.4,3.1-.3,6.3-.4,9.4-.6v.2s0,0,0,0ZM560.1,38.8h0c.6,0,1.2,0,1.7,0,2.4,0,2.9-.7,2.5-3-.5-2.4-.9-4.7-1.4-7.1-.4-1.8-.9-2.4-2.3-2.4-1.5,0-2.7.7-3.1,2.3-.6,2.4-1.2,4.8-1.6,7.2-.4,2.5,0,2.9,2.5,3,.6,0,1.2,0,1.7,0h0Z"/>
    <path class="st0" d="M656.4,59.4c-2.3-.2-2.3-.2-2.7-2.4-.8-4.3-1.5-8.7-2.2-13-.4-2.5-.7-5-1-7.5,0-.3,0-.5,0-.8-.1-.7-.3-1.6-1.1-1.4-.4,0-.9.9-.9,1.3-.2,3.5-1.9,6.4-3.2,9.5-.7,1.6-1.7,2.4-3.5,2.3-1.9-.1-3.8,0-5.7.1-1.8.1-2.8-.7-3.5-2.3-1.2-3.1-2.3-6.1-3.5-9.2-.2-.5-.2-1-.5-1.5-.3-.4-.7-.8-1.1-1.2-.2.4-.6.9-.6,1.3.2,4-.8,7.7-1.5,11.5s-1.5,7.6-2.5,11.4c-.6,2.3-.7,2.3-2.9,2.3-3.3,0-6.6,0-9.9,0-1.1,0-1.5-.6-1.5-1.6.1-2,.3-4,.6-5.9,1.2-7.7,2.5-15.4,3.8-23,.8-4.6,1.7-9.2,2.4-13.8.2-1.5,1-2.1,2.2-2.4.5-.1,1-.2,1.5-.3,3.4-.1,6.8-.2,10.2-.4,1.5,0,2.2.6,2.6,1.8.9,2.7,1.9,5.4,2.7,8.1.9,2.9,1.7,5.8,2.6,8.7.3,1,.5,2.3,1.6,2.2.6,0,1.3-1.3,1.6-2.1,1.6-4.6,3-9.2,4.5-13.8.3-1.1.7-2.1,1.1-3.2.5-1.5,1.5-2.3,3-2.3.9,0,1.8.2,2.7.2,1.2,0,2.5,0,3.7.2,1.3.2,2.6.3,3.8.7.6.2,1.1,1.1,1.3,1.7.6,3.1,1.1,6.3,1.7,9.4.2,1.2.4,2.4.6,3.6,1.8,8.8,3.5,17.6,5.3,26.4.2.8.3,1.5.4,2.3.3,2.2-.5,3.3-2.7,3.3-1.3,0-2.6-.2-4-.3h0c-1.8,0-3.6-.1-5.5-.3Z"/>
    <path class="st0" d="M698,62.8c-9.2,0-15.3-2.8-20-8.2-8.1-9.4-9.6-19.8-4.1-30.8,5.9-11.9,19-15.2,29.4-11,7.8,3.1,12.7,8.7,15.3,16.4,2.5,7.3,2,14.4-1.7,21.2-4.4,8-11.4,12.2-18.9,12.5h0ZM686.9,42.7c3.5,6.4,12.1,7.6,16.9,2.2,4.6-5.1,4.8-12,.3-17.4-1.5-1.8-3.5-3-5.9-3.3-1.6-.2-3.4-.6-4.7,0-5.3,2.2-8.2,6.2-8.2,12,0,2.3.6,4.6,1.6,6.5Z"/>
    <path class="st0" d="M749.1,60.5c-2.1-.2-4-.5-6-.7-1,0-2-.1-3,0-1,.1-1.8-.2-2.4-1-.4-.6-.9-1.3-1.2-1.9-2.8-6.3-5.8-12.6-8.5-19-3-7.4-5.7-14.9-8.4-22.3-.7-1.9-.6-1.9,1.4-2.5,2-.5,4-.9,6.1-.5,1.9.4,4,.5,5.9.6,1.1,0,1.9.6,2.2,1.7.1.5.3,1,.4,1.5,1.2,6.3,3.7,12.2,6.4,17.9,1.2,2.5,1.9,5,2.3,7.7.1.8.1,1.9,1.2,1.9,1,0,1.2-1,1.5-1.8.5-1.7.9-3.4,1.4-5.2,1.9-7,3.7-14.1,5.6-21.1.6-2.4.7-2.2,3.1-1.9,2.5.3,5,0,7.4,0,1,0,2-.4,3-.4,2,0,2.6.7,1.9,2.6-1.5,4.3-3,8.6-4.5,12.9-3.2,8.9-6.3,17.9-9.5,26.8-1.4,3.9-2.6,4.6-6.4,4.6h0Z"/>
    <path class="st0" d="M773.8,25.1c.1-2.4,0-4.8.2-7.2,0-1,.5-2.1,1-3,.4-.9,1.3-1.2,2.3-1.2,3.7.3,7.3,0,10.9-.4,3-.3,6.1-.2,9.2-.1,1.8,0,2.3.5,2.3,2.4,0,2.8,0,5.7,0,8.5,0,1.9-.8,2.7-2.7,2.9-1.4,0-2.8,0-4.2,0-1.1,0-2.1.2-3.2.5-1,.3-1.8,1.4-1.7,2.2,0,.9.9,1.5,2.3,1.5.7,0,1.5-.1,2.2,0,1.7,0,2.8.9,2.8,2.5,0,2.2,0,4.5-.1,6.7,0,1-.7,1.5-1.7,1.5-.8,0-1.7,0-2.5,0-.7,0-1.3,0-2,0-1.1.2-1.8,1.1-1.8,2,0,1,.7,1.5,1.6,1.6,1.6.2,3.3.3,5,.4,1.3,0,2.7,0,4,0,1,0,1.5.5,1.5,1.5,0,3.4,0,6.8,0,10.2,0,1.1-.6,1.7-1.7,1.7-2.2,0-4.3.2-6.5.1-4.6,0-9.3-.2-13.9-.2-3,0-4.2-.7-4.2-3.8-.1-4,0-8,0-12h-.3c.3-6.2.6-12.4.9-18.7Z"/>
    <path class="st0" d="M856.6,59.8c-1.8-.1-3.6-.3-5.5-.4-2.3-.2-2.3-.2-2.7-2.4-.8-4.3-1.5-8.7-2.2-13-.4-2.5-.7-5-1-7.5,0-.3,0-.5,0-.8-.1-.7-.3-1.6-1.1-1.4-.4,0-.9.9-.9,1.3-.2,3.5-1.9,6.4-3.2,9.5-.7,1.6-1.7,2.4-3.5,2.3-1.9-.1-3.8,0-5.7.1-1.8.1-2.8-.7-3.5-2.3-1.2-3.1-2.3-6.1-3.5-9.2-.2-.5-.2-1-.5-1.5-.3-.4-.7-.8-1.1-1.2-.2.4-.6.9-.6,1.3.2,4-.8,7.7-1.5,11.5s-1.5,7.6-2.5,11.4c-.6,2.3-.7,2.3-2.9,2.3-3.3,0-6.6,0-9.9,0-1.1,0-1.6-.6-1.5-1.6.1-2,.3-4,.6-5.9,1.2-7.7,2.5-15.4,3.8-23,.8-4.6,1.7-9.2,2.4-13.8.2-1.5,1-2.1,2.2-2.4.5-.1,1-.2,1.5-.3,3.4-.1,6.8-.2,10.2-.4,1.5,0,2.2.6,2.6,1.8.9,2.7,1.9,5.4,2.7,8.1.9,2.9,1.7,5.8,2.6,8.7.3,1,.5,2.3,1.6,2.2.6,0,1.3-1.3,1.6-2.1,1.6-4.6,3-9.2,4.5-13.8.3-1.1.7-2.1,1.1-3.2.5-1.5,1.5-2.3,3-2.3.9,0,1.8.2,2.7.2,1.2,0,2.5,0,3.7.2,1.3.2,2.6.3,3.8.7.6.2,1.1,1.1,1.3,1.7.6,3.1,1.1,6.3,1.7,9.4.2,1.2.4,2.4.6,3.6,1.8,8.8,3.5,17.6,5.3,26.4.2.8.3,1.5.4,2.3.3,2.2-.5,3.3-2.7,3.3-1.3,0-2.6-.2-4-.3h0c0,.1,0,.1,0,.1Z"/>
    <path class="st0" d="M868.1,25.1c.1-2.4,0-4.8.2-7.2,0-1,.5-2.1,1-3,.4-.9,1.3-1.2,2.3-1.2,3.7.3,7.3,0,10.9-.4,3-.3,6.1-.2,9.2-.1,1.8,0,2.3.5,2.3,2.4,0,2.8,0,5.7,0,8.5,0,1.9-.8,2.7-2.7,2.9-1.4,0-2.8,0-4.2,0-1.1,0-2.1.2-3.2.5-1,.3-1.8,1.4-1.7,2.2,0,.9.9,1.5,2.3,1.5.7,0,1.5-.1,2.2,0,1.7,0,2.8.9,2.8,2.5,0,2.2,0,4.5-.1,6.7,0,1-.7,1.5-1.7,1.5-.8,0-1.7,0-2.5,0-.7,0-1.3,0-2,0-1.1.2-1.8,1.1-1.8,2,0,1,.7,1.5,1.6,1.6,1.6.2,3.3.3,5,.4,1.3,0,2.7,0,4,0,1,0,1.5.5,1.5,1.5,0,3.4,0,6.8,0,10.2,0,1.1-.6,1.7-1.7,1.7-2.2,0-4.3.2-6.5.1-4.6,0-9.3-.2-13.9-.2-3,0-4.2-.7-4.2-3.8-.1-4,0-8,0-12h-.3c.3-6.2.6-12.4.9-18.7Z"/>
    <path class="st0" d="M940.3,48.9c0,2.6-.2,5.2-.4,7.7-.2,2.1-.5,2.6-2.5,2.9-1.8.3-3.6.3-5.5.3-1.6,0-2.9-.9-3.8-2.2-1.8-2.6-3.7-5.2-5.2-7.9-2.1-3.7-3.8-7.6-5.7-11.5-.3-.7-.7-1.4-1.1-2-.2-.3-.8-.5-1.1-.3-.4.2-.7.6-.9,1.1-.1.4,0,.8.1,1.3,0,.9.2,1.7.1,2.6-.1,5.2-.3,10.5-.5,15.7,0,2.3-.5,2.9-2.7,3.3-2.3.4-4.6.7-6.9.9-2.5.3-4.9-1.6-4.8-4.7.2-7.6.3-15.2.4-22.8,0-1.1,0-2.2,0-3.3,0-4.3-.2-8.6,0-12.9,0-2.6,1.1-3.7,3.6-4.1,2.3-.3,4.6-.3,7-.2,1.7,0,3.2,1,4.1,2.6,2.4,4,4.9,8,7.3,12,1.8,2.9,3.4,5.9,5.2,8.8.2.4.9.8,1.1.7.4-.2,1-.8,1-1.2,0-.8,0-1.7-.2-2.5-.7-2.2-.9-4.3-.8-6.6.1-3.7.1-7.4.2-11.1,0-2.4.7-3.3,2.9-3.3,2.5,0,5.1.5,7.6,1,1.9.4,2.2.9,2.1,2.9,0,2.9-.2,5.9-.2,8.8,0,2.8,0,5.7,0,8.5h-.3c0,5.2,0,10.4,0,15.5Z"/>
    <path class="st0" d="M956.2,38.4c0-2.7-.1-5.5-.2-8.2,0-1.2-.1-2.3.5-3.4.5-1,0-1.8-1.1-1.9-1.1-.1-2.3,0-3.4.2-1.9.3-3.7.9-5.6,1.3-1.8.3-2,0-2-1.8,0-.9,0-1.9.2-2.7.7-2.4,1.1-4.9.9-7.4,0-1.1.6-1.5,1.5-1.6,1.6-.1,3.2-.3,4.7-.2,2.5.2,4.9.3,7.4,0,6.5-1,13-1.4,19.6-.8,2.1.2,2.9.7,3.2,2.8.5,2.9.7,5.8,0,8.7-.4,1.5-1.1,2.1-2.7,2-2.4-.1-4.8-.4-7.2-.6-1.9-.2-2.3.2-2.2,2.1.2,3.4.2,6.8.2,10.2,0,6.2,0,12.3,0,18.5,0,.7,0,1.3,0,2-.3,2.4-1,2.9-3.5,2.7-2.6-.2-5.1-.4-7.7-.5-1.8,0-2,0-2.3-1.9-.2-1.7-.2-3.5-.3-5.2,0-1,0-2,0-3h0c0-3.7,0-7.5,0-11.2Z"/>
    <path class="st0" d="M1010,50.6c0-11.4-.2-22.9-.3-34.3,0-2,.6-2.8,2.5-3.2,2.9-.6,5.9-.9,8.9-.6,2,.2,4.1,0,6.2-.1,4.1-.2,8.1-.6,12.2.2,3.1.6,5.4,2.3,6.8,5.2,2.6,5.3,2.6,10.9.9,16.5-.6,2.1-1.8,3.9-3.7,5.1-1.9,1.3-1.8,1.4-.8,3.5,2.3,4.8,4.5,9.5,6.7,14.3.3.5.5,1.1.6,1.7.1,1-.4,1.7-1.4,1.7-3.6,0-7.1,0-10.7,0-1.1,0-1.7-.5-2.1-1.5-1.6-3.6-3.1-7.1-4.7-10.7-.5-1.2-.9-2.5-1.6-3.6-.4-.7-1.2-1.3-1.9-1.5-1.3-.5-2.3.3-2.4,1.8-.1,2-.2,4-.2,6,0,1.8,0,3.7,0,5.5-.1,2.4-.9,3.3-3.3,3.4-3,0-6,0-9,0-1.9,0-2.4-.7-2.5-2.8,0-2.3,0-4.5,0-6.8,0,0-.2,0-.2,0ZM1029.1,23.3v.3c-.9,0-1.8,0-2.7,0-.5,0-1,.1-1.4.4-1.7,1.5-.7,7.3,1.2,8.1.2,0,.3.1.5.1,1.7,0,3.5.3,5.2,0,2.8-.4,4.5-1.9,3.9-5.7-.2-1.5-.8-2.4-2.3-2.7-1.5-.2-2.9-.4-4.4-.6Z"/>
    <path class="st0" d="M1080.1,62.8c-9.2,0-15.3-2.8-20-8.2-8.1-9.4-9.6-19.8-4.1-30.8,5.9-11.9,19-15.2,29.4-11,7.8,3.1,12.7,8.7,15.3,16.4,2.5,7.3,2,14.4-1.7,21.2-4.4,8-11.4,12.2-18.9,12.5h0ZM1068.9,42.7c3.5,6.4,12.1,7.6,16.9,2.2,4.6-5.1,4.8-12,.3-17.4-1.5-1.8-3.5-3-5.9-3.3-1.6-.2-3.4-.6-4.7,0-5.3,2.2-8.2,6.2-8.2,12,0,2.3.6,4.6,1.6,6.5Z"/>
    <path class="st0" d="M1112.5,54.6c-8.1-9.4-9.6-19.8-4.1-30.8,5.9-11.9,19-15.2,29.4-11,7.8,3.1,12.7,8.7,15.3,16.4,2.5,7.3,2,14.4-1.7,21.2-4.4,8-11.4,12.2-18.9,12.5-9.2,0-15.3-2.8-20-8.2ZM1121.3,42.7c3.5,6.4,12.1,7.6,16.9,2.2,4.6-5.1,4.8-12,.3-17.4-1.5-1.8-3.5-3-5.9-3.3-1.6-.2-3.4-.6-4.7,0-5.3,2.2-8.2,6.2-8.2,12,0,2.3.6,4.6,1.6,6.5Z"/>
    <path class="st0" d="M1168.4,38.4c0-2.7-.1-5.5-.2-8.2,0-1.2-.1-2.3.5-3.4.5-1,0-1.8-1.1-1.9-1.1-.1-2.3,0-3.4.2-1.9.3-3.7.9-5.6,1.3-1.8.3-2,0-2-1.8,0-.9,0-1.9.2-2.7.7-2.4,1.1-4.9.9-7.4,0-1.1.6-1.5,1.5-1.6,1.6-.1,3.2-.3,4.7-.2,2.5.2,4.9.3,7.4,0,6.5-1,13-1.4,19.6-.8,2.1.2,2.9.7,3.2,2.8.5,2.9.7,5.8,0,8.7-.4,1.5-1.1,2.1-2.7,2-2.4-.1-4.8-.4-7.2-.6-1.9-.2-2.3.2-2.2,2.1.2,3.4.2,6.8.2,10.2,0,6.2,0,12.3,0,18.5,0,.7,0,1.3,0,2-.3,2.4-1,2.9-3.5,2.7-2.6-.2-5.1-.4-7.7-.5-1.8,0-2,0-2.3-1.9-.2-1.7-.2-3.5-.3-5.2,0-1,0-2,0-3h0c0-3.7,0-7.5,0-11.2Z"/>
    <path class="st0" d="M1198.7,25.1c.1-2.4,0-4.8.2-7.2,0-1,.5-2.1,1-3,.4-.9,1.3-1.2,2.3-1.2,3.7.3,7.3,0,10.9-.4,3-.3,6.1-.2,9.2-.1,1.8,0,2.3.5,2.3,2.4,0,2.8,0,5.7,0,8.5,0,1.9-.8,2.7-2.7,2.9-1.4,0-2.8,0-4.2,0-1.1,0-2.1.2-3.2.5-1,.3-1.8,1.4-1.7,2.2,0,.9.9,1.5,2.3,1.5.7,0,1.5-.1,2.2,0,1.7,0,2.8.9,2.8,2.5,0,2.2,0,4.5-.1,6.7,0,1-.7,1.5-1.7,1.5-.8,0-1.7,0-2.5,0-.7,0-1.3,0-2,0-1.1.2-1.8,1.1-1.8,2,0,1,.7,1.5,1.6,1.6,1.6.2,3.3.3,5,.4,1.3,0,2.7,0,4,0,1,0,1.5.5,1.5,1.5,0,3.4,0,6.8,0,10.2,0,1.1-.6,1.7-1.7,1.7-2.2,0-4.3.2-6.5.1-4.6,0-9.3-.2-13.9-.2-3,0-4.2-.7-4.2-3.8-.1-4,0-8,0-12h-.3c.3-6.2.6-12.4.9-18.7Z"/>
    <path class="st0" d="M1231.1,17.5c0-.7.1-1.3.2-2,0-.9.4-1.4,1.5-1.5,2.5-.2,5.1-.8,7.6-.9,3.7-.2,7.5,0,11.2-.1,4.9-.2,8.4,2,11,6,2.7,4.2,4,8.9,4.4,13.9.4,4.9.1,9.8-1.5,14.5-1,3-2.2,5.9-4.5,8.2-2.4,2.6-5.2,4.3-9,4.1-5.9-.2-11.8-.3-17.7-.5-.2,0-.3,0-.5,0-4.6-.7-3.8-.7-3.8-4.1,0-5.3,0-10.6,0-17.4.3-5.8.6-13,1-20.2ZM1243.5,38.5c0,2.1-.2,4.3-.3,6.5,0,.7.1,1.3.2,2,.1,1.1.8,1.6,1.7,1.9,2.1.7,5.5-.6,6.5-2.6,3.3-6.3,3.2-12.7.5-19.2-1-2.2-2.7-3.2-5.1-3.3-2.2,0-2.7.4-2.9,2.5-.3,4-.5,8.1-.8,12.2h.2Z"/>
    <path class="st0" d="M71.5,103.4c0,4.9,0,9.8,0,14.7,0,2.2-.2,4.5-.3,6.7-.1,1.8-.5,2.1-2.4,2.1-3.2,0-6.4-.2-9.7-.5-.4,0-1-.6-1.1-1.1-.3-1.3-.5-2.6-.5-3.9,0-9.1-.1-18.3-.2-27.4,0-2.7-.1-5.3,0-8,0-1.4.3-2.8.7-4.1.3-1,1-1.7,2.1-1.8,2.2-.2,4.5-.3,6.7-.5.5,0,1,0,1.5,0,2.3.1,2.9.8,2.9,3.1,0,6.9,0,13.8,0,20.7h.3,0Z"/>
    <path class="st0" d="M118.7,115.6c0,2.6-.2,5.2-.4,7.7-.2,2.1-.5,2.6-2.5,2.9-1.8.3-3.6.3-5.5.3-1.6,0-2.9-.9-3.8-2.2-1.8-2.6-3.7-5.2-5.2-7.9-2.1-3.7-3.8-7.6-5.7-11.5-.3-.7-.7-1.4-1.1-2-.2-.3-.8-.5-1.1-.3-.4.2-.7.6-.9,1.1-.1.4,0,.8.1,1.3,0,.9.2,1.7.1,2.6-.1,5.2-.3,10.5-.5,15.7,0,2.3-.5,2.9-2.7,3.3-2.3.4-4.6.7-6.9.9-2.5.3-4.9-1.6-4.8-4.7.2-7.6.3-15.2.4-22.8,0-1.1,0-2.2,0-3.3,0-4.3-.2-8.6,0-12.9,0-2.6,1.1-3.7,3.6-4.1,2.3-.3,4.6-.3,7-.2,1.7,0,3.2,1,4.1,2.6,2.4,4,4.9,8,7.3,12,1.8,2.9,3.4,5.9,5.2,8.8.2.4.9.8,1.1.7.4-.2,1-.8,1-1.2,0-.8,0-1.7-.2-2.5-.7-2.2-.9-4.3-.8-6.6.1-3.7.1-7.4.2-11.1,0-2.4.7-3.3,2.9-3.3,2.5,0,5.1.5,7.6,1,1.9.4,2.2.9,2.1,2.9,0,2.9-.2,5.9-.2,8.8,0,2.8,0,5.7,0,8.5h-.3c0,5.2,0,10.4,0,15.5Z"/>
    <path class="st0" d="M169.5,80.7c1.9,0,3.8,0,5.7,0,2.6,0,4.8,1.6,5.5,4.2,1.7,5.7,3.4,11.5,4.8,17.3,1.7,6.4,3.1,12.9,4.7,19.4.2,1,.5,2,.5,2.9,0,1.7-1,2.6-2.6,2.7-2.5,0-5,.2-7.5.2-.6,0-1.2,0-1.7,0-1.1-.2-1.9-.8-2.2-2.1-.4-2.1-.9-4.2-1.4-6.3-.5-2.3-1.2-2.9-3.6-3-2.3,0-4.7,0-7,0-1.5,0-1.8.3-2.2,1.8-.5,2.1-1,4.2-1.6,6.3-.8,2.7-1.4,3-4.1,2.8-2.2-.1-4.3-.3-6.5-.2-3.4.1-4-1.4-3.4-4.1.6-3.2,1.3-6.4,2-9.5,2.3-9.5,4.7-19,7.1-28.5.6-2.5,1.3-3.1,3.9-3.4,3.1-.3,6.3-.4,9.4-.6v.2s0,0,0,0ZM168,105.6h0c.6,0,1.2,0,1.7,0,2.4,0,2.9-.7,2.5-3-.5-2.4-.9-4.7-1.4-7.1-.4-1.8-.9-2.4-2.3-2.4-1.5,0-2.7.7-3.1,2.3-.6,2.4-1.2,4.8-1.6,7.2-.4,2.5,0,2.9,2.5,3,.6,0,1.2,0,1.7,0h0Z"/>
    <path class="st0" d="M194.9,117.4c0-11.4-.2-22.9-.3-34.3,0-2,.6-2.8,2.5-3.2,2.9-.6,5.9-.9,8.9-.6,2.1.2,4.1,0,6.2-.1,4.1-.2,8.1-.6,12.2.2,3.1.6,5.4,2.3,6.8,5.2,2.6,5.3,2.6,10.9.9,16.5-.6,2.1-1.8,3.9-3.7,5.1-1.9,1.3-1.8,1.4-.8,3.5,2.3,4.8,4.5,9.5,6.7,14.3.3.5.5,1.1.6,1.7.1,1-.4,1.7-1.4,1.7-3.6,0-7.1,0-10.7,0-1.1,0-1.7-.5-2.1-1.5-1.6-3.6-3.1-7.1-4.7-10.7-.5-1.2-.9-2.5-1.6-3.6-.4-.7-1.2-1.3-1.9-1.5-1.3-.5-2.3.3-2.4,1.8-.1,2-.2,4-.2,6,0,1.8,0,3.7,0,5.5-.1,2.4-.9,3.3-3.3,3.4-3,0-6,0-9,0-1.9,0-2.4-.7-2.5-2.8,0-2.3,0-4.5,0-6.8,0,0-.2,0-.2,0ZM214.1,90v.3c-.9,0-1.8,0-2.7,0-.5,0-1,.1-1.4.4-1.7,1.5-.7,7.3,1.2,8.1.2,0,.3.1.5.1,1.7,0,3.5.3,5.2,0,2.8-.4,4.5-1.9,3.9-5.7-.2-1.5-.8-2.4-2.3-2.7-1.5-.2-2.9-.4-4.4-.6Z"/>
    <path class="st0" d="M248.5,105.2c0-2.7-.1-5.5-.2-8.2,0-1.2-.1-2.3.5-3.4.5-1,0-1.8-1.1-1.9-1.1-.1-2.3,0-3.4.2-1.9.3-3.7.9-5.6,1.3-1.8.3-2,0-2-1.8,0-.9,0-1.9.2-2.7.7-2.4,1.1-4.9.9-7.4,0-1.1.6-1.5,1.5-1.6,1.6-.1,3.2-.3,4.7-.2,2.5.2,4.9.3,7.4,0,6.5-1,13-1.4,19.6-.8,2.1.2,2.9.7,3.2,2.8.5,2.9.7,5.8,0,8.7-.4,1.5-1.1,2.1-2.7,2-2.4-.1-4.8-.4-7.2-.6-1.9-.2-2.3.2-2.2,2.1.2,3.4.2,6.8.2,10.2,0,6.2,0,12.3,0,18.5,0,.7,0,1.3,0,2-.3,2.4-1,2.9-3.5,2.7-2.6-.2-5.1-.4-7.7-.5-1.8,0-2,0-2.3-1.9-.2-1.7-.2-3.5-.3-5.2,0-1,0-2,0-3h0c0-3.7,0-7.5,0-11.2Z"/>
    <path class="st0" d="M292.5,103.4c0,4.9,0,9.8,0,14.7,0,2.2-.2,4.5-.3,6.7-.1,1.8-.5,2.1-2.4,2.1-3.2,0-6.4-.2-9.7-.5-.4,0-1-.6-1.1-1.1-.3-1.3-.5-2.6-.5-3.9,0-9.1-.1-18.3-.2-27.4,0-2.7-.1-5.3,0-8,0-1.4.3-2.8.7-4.1.3-1,1-1.7,2.1-1.8,2.2-.2,4.5-.3,6.7-.5.5,0,1,0,1.5,0,2.3.1,2.9.8,2.9,3.1,0,6.9,0,13.8,0,20.7h.3,0Z"/>
    <path class="st0" d="M317.2,129.1c-6.7,0-11.7-1.3-15.8-4.6-1.4-1.2-2.5-2.8-3.6-4.2-.8-1-.6-2,.5-2.8,2.1-1.5,4.3-3,6.5-4.4.8-.5,1.4-.4,2.1.3,1.3,1.1,2.7,2.1,4.1,3.1,2,1.4,4.3,1.5,6.8,1.4,3.1-.1,4.5-2.8,3.7-4.8-.4-1.1-1.3-2.1-2.2-2.9-3.5-3.1-7.8-5-12-7.2-3.7-1.9-6.5-4.7-8.8-7.8-1.4-1.9-1.5-4.4-1.1-6.6.8-4.6,3.9-8,8.6-10,3.8-1.6,7.8-2.2,12-1.5,2,.3,3.9.6,5.8,1.2,1.7.5,3.4,1.3,4.8,2.2,3.7,2.3,3.7,3.2.6,5.9-1.6,1.4-3.2,2.9-4.8,4.4-1.4,1.2-2.5,1.3-4.1.3-1-.6-2.1-1.3-3.3-1.7-1.6-.5-3.2.2-4,1.4-.7,1.1-.6,2.4,1,3.4,2.8,1.9,5.8,3.7,8.7,5.4,3.4,2.1,6.9,4,9.5,6.8,3.8,4,4.8,8.5,3.2,13.4-.5,1.6-1.8,3-3.1,4.2-2.5,2.5-5.8,3.9-9.5,4.5-2.3.3-4.7.5-5.9.6h0Z"/>
    <path class="st0" d="M347.1,105.2c0-2.7-.1-5.5-.2-8.2,0-1.2-.1-2.3.5-3.4.5-1,0-1.8-1.1-1.9-1.1-.1-2.3,0-3.4.2-1.9.3-3.7.9-5.6,1.3-1.8.3-2,0-2-1.8,0-.9,0-1.9.2-2.7.7-2.4,1.1-4.9.9-7.4,0-1.1.6-1.5,1.5-1.6,1.6-.1,3.2-.3,4.7-.2,2.5.2,4.9.3,7.4,0,6.5-1,13-1.4,19.6-.8,2.1.2,2.9.7,3.2,2.8.5,2.9.7,5.8,0,8.7-.4,1.5-1.1,2.1-2.7,2-2.4-.1-4.8-.4-7.2-.6-1.9-.2-2.3.2-2.2,2.1.2,3.4.2,6.8.2,10.2,0,6.2,0,12.3,0,18.5,0,.7,0,1.3,0,2-.3,2.4-1,2.9-3.5,2.7-2.6-.2-5.1-.4-7.7-.5-1.8,0-2,0-2.3-1.9-.2-1.7-.2-3.5-.3-5.2,0-1,0-2,0-3h0c0-3.7,0-7.5,0-11.2Z"/>
    <path class="st0" d="M418.8,129.1c-6.7,0-11.7-1.3-15.8-4.6-1.4-1.2-2.5-2.8-3.6-4.2-.8-1-.6-2,.5-2.8,2.1-1.5,4.3-3,6.5-4.4.8-.5,1.4-.4,2.1.3,1.3,1.1,2.7,2.1,4.1,3.1,2,1.4,4.3,1.5,6.8,1.4,3.1-.1,4.5-2.8,3.7-4.8-.4-1.1-1.3-2.1-2.2-2.9-3.5-3.1-7.8-5-12-7.2-3.7-1.9-6.5-4.7-8.8-7.8-1.4-1.9-1.5-4.4-1.1-6.6.8-4.6,3.9-8,8.6-10,3.8-1.6,7.8-2.2,12-1.5,2,.3,3.9.6,5.8,1.2,1.7.5,3.4,1.3,4.8,2.2,3.7,2.3,3.7,3.2.6,5.9-1.6,1.4-3.2,2.9-4.8,4.4-1.4,1.2-2.5,1.3-4.1.3-1-.6-2.1-1.3-3.3-1.7-1.6-.5-3.2.2-4,1.4-.7,1.1-.6,2.4,1,3.4,2.8,1.9,5.8,3.7,8.7,5.4,3.4,2.1,6.9,4,9.5,6.8,3.8,4,4.8,8.5,3.2,13.4-.5,1.6-1.8,3-3.1,4.2-2.5,2.5-5.8,3.9-9.5,4.5-2.3.3-4.7.5-5.9.6h0Z"/>
    <path class="st0" d="M468.1,100.3c0-3.8-.1-7.5-.3-11.3-.1-2.4-.5-4.7-.8-7.1-.2-1.7,0-2.1,1.7-2.3,3-.3,5.9-1,8.9-.2,1,.2,2.1,0,3.2-.2.7-.1,1.3,0,1.2.8-.4,4.5,1.2,8.9.8,13.4-.5,6.4-.3,12.9-.9,19.3-.3,3.1-1.7,6.1-2.6,9.1-.2.6-.8,1.1-1.2,1.5-.6.6-1.5,1.2-2,1.9-1.7,2.4-4.1,3.2-6.8,3.5-5.1.4-10.1.9-15-1.2-2.9-1.2-5.8-2.3-7.9-4.9-2-2.6-3.3-5.5-3.5-8.7-.3-4.1-.7-8.3-1-12.4-.1-2.9,0-5.7,0-8.6-.2-3.5-.5-7-.8-10.5,0-.5-.1-1-.1-1.5,0-1.5,0-1.8,1.6-1.8,3.9,0,7.8,0,11.7,0,1.7,0,1.9.2,2,1.8.3,6.2.6,12.4.9,18.6.1,3.5.2,7,.3,10.5,0,1,.2,1.9.5,2.9,1,3.7,4.6,5.1,8,3.2,1.6-.9,2.6-2.1,2.5-4.2-.2-2.9,0-5.9,0-8.8,0-1,0-2-.1-2.9,0,0,0,0,0,0h0Z"/>
    <path class="st0" d="M506.9,129.1c-6.7,0-11.7-1.3-15.8-4.6-1.4-1.2-2.5-2.8-3.6-4.2-.8-1-.6-2,.5-2.8,2.1-1.5,4.3-3,6.5-4.4.8-.5,1.4-.4,2.1.3,1.3,1.1,2.7,2.1,4.1,3.1,2,1.4,4.3,1.5,6.8,1.4,3.1-.1,4.5-2.8,3.7-4.8-.4-1.1-1.3-2.1-2.2-2.9-3.5-3.1-7.8-5-12-7.2-3.7-1.9-6.5-4.7-8.8-7.8-1.4-1.9-1.5-4.4-1.1-6.6.8-4.6,3.9-8,8.6-10,3.8-1.6,7.8-2.2,12-1.5,2,.3,3.9.6,5.8,1.2,1.7.5,3.4,1.3,4.8,2.2,3.7,2.3,3.7,3.2.6,5.9-1.6,1.4-3.2,2.9-4.8,4.4-1.4,1.2-2.5,1.3-4.1.3-1-.6-2.1-1.3-3.3-1.7-1.6-.5-3.2.2-4,1.4-.7,1.1-.6,2.4,1,3.4,2.8,1.9,5.8,3.7,8.7,5.4,3.4,2.1,6.9,4,9.5,6.8,3.8,4,4.8,8.5,3.2,13.4-.5,1.6-1.8,3-3.1,4.2-2.5,2.5-5.8,3.9-9.5,4.5-2.3.3-4.7.5-5.9.6h0Z"/>
    <path class="st0" d="M536.8,105.2c0-2.7-.1-5.5-.2-8.2,0-1.2-.1-2.3.5-3.4.5-1,0-1.8-1.1-1.9-1.1-.1-2.3,0-3.4.2-1.9.3-3.7.9-5.6,1.3-1.8.3-2,0-2-1.8,0-.9,0-1.9.2-2.7.7-2.4,1.1-4.9.9-7.4,0-1.1.6-1.5,1.5-1.6,1.6-.1,3.2-.3,4.7-.2,2.5.2,4.9.3,7.4,0,6.5-1,13-1.4,19.6-.8,2.1.2,2.9.7,3.2,2.8.5,2.9.7,5.8,0,8.7-.4,1.5-1.1,2.1-2.7,2-2.4-.1-4.8-.4-7.2-.6-1.9-.2-2.3.2-2.2,2.1.2,3.4.2,6.8.2,10.2,0,6.2,0,12.3,0,18.5,0,.7,0,1.3,0,2-.3,2.4-1,2.9-3.5,2.7-2.6-.2-5.1-.4-7.7-.5-1.8,0-2,0-2.3-1.9-.2-1.7-.2-3.5-.3-5.2,0-1,0-2,0-3h0c0-3.7,0-7.5,0-11.2Z"/>
    <path class="st0" d="M582.7,80.7c1.9,0,3.8,0,5.7,0,2.6,0,4.8,1.6,5.5,4.2,1.7,5.7,3.4,11.5,4.8,17.3,1.7,6.4,3.1,12.9,4.7,19.4.2,1,.5,2,.5,2.9,0,1.7-1,2.6-2.6,2.7-2.5,0-5,.2-7.5.2-.6,0-1.2,0-1.7,0-1.1-.2-1.9-.8-2.2-2.1-.4-2.1-.9-4.2-1.4-6.3-.5-2.3-1.2-2.9-3.6-3-2.3,0-4.7,0-7,0-1.5,0-1.8.3-2.2,1.8-.5,2.1-1,4.2-1.6,6.3-.8,2.7-1.4,3-4.1,2.8-2.2-.1-4.3-.3-6.5-.2-3.4.1-4-1.4-3.4-4.1.6-3.2,1.3-6.4,2-9.5,2.3-9.5,4.7-19,7.1-28.5.6-2.5,1.3-3.1,3.9-3.4,3.1-.3,6.3-.4,9.4-.6v.2s0,0,0,0ZM581.2,105.6h0c.6,0,1.2,0,1.7,0,2.4,0,2.9-.7,2.5-3-.5-2.4-.9-4.7-1.4-7.1-.4-1.8-.9-2.4-2.3-2.4-1.5,0-2.7.7-3.1,2.3-.6,2.4-1.2,4.8-1.6,7.2-.4,2.5,0,2.9,2.5,3,.6,0,1.2,0,1.7,0h0Z"/>
    <path class="st0" d="M622.1,103.4c0,4.9,0,9.8,0,14.7,0,2.2-.2,4.5-.3,6.7-.1,1.8-.5,2.1-2.4,2.1-3.2,0-6.4-.2-9.7-.5-.4,0-1-.6-1.1-1.1-.3-1.3-.5-2.6-.5-3.9,0-9.1-.1-18.3-.2-27.4,0-2.7-.1-5.3,0-8,0-1.4.3-2.8.7-4.1.3-1,1-1.7,2.1-1.8,2.2-.2,4.5-.3,6.7-.5.5,0,1,0,1.5,0,2.3.1,2.9.8,2.9,3.1,0,6.9,0,13.8,0,20.7h.3,0Z"/>
    <path class="st0" d="M669.2,115.6c0,2.6-.2,5.2-.4,7.7-.2,2.1-.5,2.6-2.5,2.9-1.8.3-3.6.3-5.5.3-1.6,0-2.9-.9-3.8-2.2-1.8-2.6-3.7-5.2-5.2-7.9-2.1-3.7-3.8-7.6-5.7-11.5-.3-.7-.7-1.4-1.1-2-.2-.3-.8-.5-1.1-.3-.4.2-.7.6-.9,1.1-.1.4,0,.8.1,1.3,0,.9.2,1.7.1,2.6-.1,5.2-.3,10.5-.5,15.7,0,2.3-.5,2.9-2.7,3.3-2.3.4-4.6.7-6.9.9-2.5.3-4.9-1.6-4.8-4.7.2-7.6.3-15.2.4-22.8,0-1.1,0-2.2,0-3.3,0-4.3-.2-8.6,0-12.9,0-2.6,1.1-3.7,3.6-4.1,2.3-.3,4.6-.3,7-.2,1.7,0,3.2,1,4.1,2.6,2.4,4,4.9,8,7.3,12,1.8,2.9,3.4,5.9,5.2,8.8.2.4.9.8,1.1.7.4-.2,1-.8,1-1.2,0-.8,0-1.7-.2-2.5-.7-2.2-.9-4.3-.8-6.6.1-3.7.1-7.4.2-11.1,0-2.4.7-3.3,2.9-3.3,2.5,0,5.1.5,7.6,1,1.9.4,2.2.9,2.1,2.9,0,2.9-.2,5.9-.2,8.8,0,2.8,0,5.7,0,8.5h-.3c0,5.2,0,10.4,0,15.5Z"/>
    <path class="st0" d="M696.2,80.7c1.9,0,3.8,0,5.7,0,2.6,0,4.8,1.6,5.5,4.2,1.7,5.7,3.4,11.5,4.9,17.3,1.7,6.4,3.1,12.9,4.7,19.4.2,1,.5,2,.5,2.9,0,1.7-1,2.6-2.6,2.7-2.5,0-5,.2-7.5.2-.6,0-1.2,0-1.7,0-1.1-.2-1.9-.8-2.2-2.1-.4-2.1-.9-4.2-1.4-6.3-.5-2.3-1.2-2.9-3.6-3-2.3,0-4.7,0-7,0-1.5,0-1.8.3-2.2,1.8-.5,2.1-1,4.2-1.6,6.3-.8,2.7-1.4,3-4.1,2.8-2.2-.1-4.3-.3-6.5-.2-3.4.1-4-1.4-3.4-4.1.6-3.2,1.3-6.4,2-9.5,2.3-9.5,4.7-19,7.1-28.5.6-2.5,1.3-3.1,3.9-3.4,3.1-.3,6.3-.4,9.4-.6v.2s0,0,0,0ZM694.7,105.6h0c.6,0,1.2,0,1.7,0,2.4,0,2.9-.7,2.5-3-.5-2.4-.9-4.7-1.4-7.1-.4-1.8-.9-2.4-2.3-2.4-1.5,0-2.7.7-3.1,2.3-.6,2.4-1.2,4.8-1.6,7.2-.4,2.5,0,2.9,2.5,3,.6,0,1.2,0,1.7,0h0Z"/>
    <path class="st0" d="M738.5,126.4c-4.6,0-9.1,0-13.7,0-2.1,0-2.2-.1-2.6-2.2-.1-.6-.3-1.3-.3-2-.5-9-.8-17.9-.3-26.9.2-3.8.1-7.6.1-11.5,0-2.7,0-2.8,2.6-3.2,6-.9,12-1.3,18.1-1.1,2.3,0,4.7.2,7,.5,3.1.4,5.6,1.8,7.6,4.3,2.1,2.6,2.1,5.5,1.9,8.5-.1,2.6-1.1,5-2.8,7-.8.9-.6,1.3.4,1.8,4,2,6,5.3,6.9,9.5,1.3,6.6-3.6,14.5-11.5,14.7-4.4,0-8.8.3-13.2.4,0,0,0,0,0,0h0ZM740,88.9c-.9,0-1.8,0-2.7,0-1.4,0-2.2.8-2.6,1.9-.6,1.6-.4,3.3.3,4.8.2.5,1,1,1.6,1,2.2,0,4.5,0,6.7-.5,3.3-.7,4.1-3.5,1.8-6-.6-.6-1.5-1-2.3-1.2-.9-.2-1.8,0-2.7,0h0ZM735.6,111.1c0,.5,0,1.6.2,2.7.2,1.6.8,2.1,2.5,2,1.7,0,3.3-.3,5-.5,3.5-.3,5.2-3.3,3.4-6.4-1.3-2.2-3.1-4-6.8-3.3-4.3.7-4.3.6-4.2,5.4h0Z"/>
    <path class="st0" d="M782.1,103.4c0,4.9,0,9.8,0,14.7,0,2.2-.2,4.5-.3,6.7-.1,1.8-.5,2.1-2.4,2.1-3.2,0-6.4-.2-9.7-.5-.4,0-1-.6-1.1-1.1-.3-1.3-.5-2.6-.5-3.9,0-9.1-.1-18.3-.2-27.4,0-2.7-.1-5.3,0-8,0-1.4.3-2.8.7-4.1.3-1,1-1.7,2.1-1.8,2.2-.2,4.5-.3,6.7-.5.5,0,1,0,1.5,0,2.3.1,2.9.8,2.9,3.1,0,6.9,0,13.8,0,20.7h.3,0Z"/>
    <path class="st0" d="M788.7,101.9c0-5.9,0-11.8,0-17.7,0-.8,0-1.6.3-2.2.2-.4.8-1,1.2-1,3.3-.2,6.6-.8,9.9-.1,2.2.4,2.3.4,2.3,2.8,0,8.5,0,17.1,0,25.6,0,1.4.2,2.7.4,4.1.1,1,.7,1.5,1.7,1.6.9,0,1.8,0,2.7,0,2.4,0,3,.6,3,2.9,0,2.5,0,4.9,0,7.4,0,1.1-.4,1.8-1.6,1.7-3.5-.2-7-.3-10.4-.4-2.3,0-4.7-.1-7-.1-1.8,0-2,0-2.2-1.9-.2-2.5-.4-5.1-.4-7.7,0-4.9,0-9.9,0-14.8h0Z"/>
    <path class="st0" d="M828.3,103.4c0,4.9,0,9.8,0,14.7,0,2.2-.2,4.5-.3,6.7-.1,1.8-.5,2.1-2.4,2.1-3.2,0-6.4-.2-9.7-.5-.4,0-1-.6-1.1-1.1-.3-1.3-.5-2.6-.5-3.9,0-9.1-.1-18.3-.2-27.4,0-2.7-.1-5.3,0-8,0-1.4.3-2.8.7-4.1.3-1,1-1.7,2.1-1.8,2.2-.2,4.5-.3,6.7-.5.5,0,1,0,1.5,0,2.3.1,2.9.8,2.9,3.1,0,6.9,0,13.8,0,20.7h.3,0Z"/>
    <path class="st0" d="M843.9,105.2c0-2.7-.1-5.5-.2-8.2,0-1.2-.1-2.3.5-3.4.5-1,0-1.8-1.1-1.9-1.1-.1-2.3,0-3.4.2-1.9.3-3.7.9-5.6,1.3-1.8.3-2,0-2-1.8,0-.9,0-1.9.2-2.7.7-2.4,1.1-4.9.9-7.4,0-1.1.6-1.5,1.5-1.6,1.6-.1,3.2-.3,4.7-.2,2.5.2,4.9.3,7.4,0,6.5-1,13-1.4,19.6-.8,2.1.2,2.9.7,3.2,2.8.5,2.9.7,5.8,0,8.7-.4,1.5-1.1,2.1-2.7,2-2.4-.1-4.8-.4-7.2-.6-1.9-.2-2.3.2-2.2,2.1.2,3.4.2,6.8.2,10.2,0,6.2,0,12.3,0,18.5,0,.7,0,1.3,0,2-.3,2.4-1,2.9-3.5,2.7-2.6-.2-5.1-.4-7.7-.5-1.8,0-2,0-2.3-1.9-.2-1.7-.2-3.5-.3-5.2,0-1,0-2,0-3h0c0-3.7,0-7.5,0-11.2Z"/>
    <path class="st0" d="M898.9,127.2c-2.6-.2-4.7-.2-6.9-.5-2.1-.2-2.5-.7-2.6-3-.2-3.1-.4-6.2-.6-9.4-.2-3.6-.5-7.1-2.4-10.2-.6-1-1.1-2-1.7-2.9-4.7-6.6-9.4-13.2-14.1-19.9-.3-.4-.6-1.1-.5-1.4.3-.4.9-.8,1.4-.8,2.2,0,4.5.1,6.7.1,2.3,0,4.6,0,6.9-.3,5.3-.7,5.1-.1,6.6,3.7,1.5,3.8,2.9,7.6,4.3,11.4,0,0,0,.2,0,.2.5.6.9,1.5,1.4,1.6,1,.2,1.4-.8,1.6-1.6.7-2.1,1.3-4.3,2.1-6.4.9-2.5,2-4.9,3.1-7.4.2-.4.9-.7,1.4-.8,3.3-.3,6.6-.6,9.9-.8,2,0,4,.1,6,.3,1,0,1.2.9.9,1.7-.4,1.2-.9,2.5-1.5,3.6-2.2,3.6-4.5,7.1-6.8,10.6-1.6,2.4-3.2,4.7-4.8,7-4.2,5.7-5.3,12-4.1,19,.2,1,.4,2,.5,3.1.2,1.5-.2,2.4-1.7,2.6-1.9.3-3.8.3-5.3.3Z"/>
    <path class="st0" d="M932.8,122.1c-.8,2.7-1.5,5.4-3.6,7.5-1,1-1.7,2.4-2.7,3.6-.4.5-1.1,1-1.7,1.2-2.1.7-3.6-.6-3.1-2.8.2-.9.6-1.7.9-2.5.5-1.5.6-2.9-.4-4.4-.5-.7-.8-1.7-.8-2.6,0-1.5,0-3,.3-4.4.1-.6.8-1.2,1.4-1.6.5-.4,1.1-.8,1.7-1,.8-.4,1.7-.7,2.5-1,4.2.6,6.7,4.2,5.6,8.1Z"/>
    <path class="st0" d="M962.6,117.4c0-11.4-.2-22.9-.3-34.3,0-2,.6-2.8,2.5-3.2,2.9-.6,5.9-.9,8.9-.6,2.1.2,4.1,0,6.2-.1,4.1-.2,8.1-.6,12.2.2,3.1.6,5.4,2.3,6.8,5.2,2.6,5.3,2.6,10.9.9,16.5-.6,2.1-1.8,3.9-3.7,5.1-1.9,1.3-1.8,1.4-.8,3.5,2.3,4.8,4.5,9.5,6.7,14.3.3.5.5,1.1.6,1.7.1,1-.4,1.7-1.4,1.7-3.6,0-7.1,0-10.7,0-1.1,0-1.7-.5-2.1-1.5-1.6-3.6-3.1-7.1-4.7-10.7-.5-1.2-.9-2.5-1.6-3.6-.4-.7-1.2-1.3-1.9-1.5-1.3-.5-2.3.3-2.4,1.8-.2,2-.2,4-.2,6,0,1.8,0,3.7,0,5.5-.1,2.4-.9,3.3-3.3,3.4-3,0-6,0-9,0-1.9,0-2.4-.7-2.5-2.8,0-2.3,0-4.5,0-6.8,0,0-.2,0-.2,0ZM981.8,90v.3c-.9,0-1.8,0-2.8,0-.5,0-1,.1-1.4.4-1.7,1.5-.7,7.3,1.2,8.1.2,0,.3.1.5.1,1.7,0,3.5.3,5.2,0,2.8-.4,4.5-1.9,3.9-5.7-.2-1.5-.8-2.4-2.3-2.7-1.5-.2-2.9-.4-4.4-.6Z"/>
    <path class="st0" d="M1027.4,80.7c1.9,0,3.8,0,5.7,0,2.6,0,4.8,1.6,5.5,4.2,1.7,5.7,3.4,11.5,4.9,17.3,1.7,6.4,3.1,12.9,4.7,19.4.2,1,.5,2,.5,2.9,0,1.7-1,2.6-2.6,2.7-2.5,0-5,.2-7.5.2-.6,0-1.2,0-1.7,0-1.1-.2-1.9-.8-2.2-2.1-.4-2.1-.9-4.2-1.4-6.3-.5-2.3-1.2-2.9-3.6-3-2.3,0-4.7,0-7,0-1.5,0-1.8.3-2.2,1.8-.5,2.1-1,4.2-1.6,6.3-.8,2.7-1.4,3-4.1,2.8-2.2-.1-4.3-.3-6.5-.2-3.4.1-4-1.4-3.4-4.1.6-3.2,1.3-6.4,2-9.5,2.3-9.5,4.7-19,7.1-28.5.6-2.5,1.3-3.1,3.9-3.4,3.1-.3,6.3-.4,9.4-.6v.2s0,0,0,0ZM1025.9,105.6h0c.6,0,1.2,0,1.7,0,2.4,0,2.9-.7,2.5-3-.5-2.4-.9-4.7-1.4-7.1-.4-1.8-.9-2.4-2.3-2.4-1.5,0-2.7.7-3.1,2.3-.6,2.4-1.2,4.8-1.6,7.2-.4,2.5,0,2.9,2.5,3,.6,0,1.2,0,1.7,0h0Z"/>
    <path class="st0" d="M1053.5,84.3c0-.7.1-1.3.2-2,0-.9.4-1.4,1.5-1.5,2.5-.2,5.1-.8,7.6-.9,3.7-.2,7.5,0,11.2-.1,4.9-.2,8.4,2,11,6,2.7,4.2,4,8.9,4.4,13.9.4,4.9.1,9.8-1.5,14.5-1,3-2.2,5.9-4.5,8.2-2.4,2.6-5.2,4.3-9,4.1-5.9-.2-11.8-.3-17.7-.5-.2,0-.3,0-.5,0-4.6-.7-3.8-.7-3.8-4.1,0-5.3,0-10.6,0-17.4.3-5.8.6-13,1-20.2ZM1065.9,105.3c0,2.2-.2,4.3-.3,6.5,0,.7.1,1.3.2,2,.1,1.1.8,1.6,1.7,1.9,2.1.7,5.5-.6,6.5-2.6,3.3-6.3,3.2-12.7.5-19.2-1-2.2-2.7-3.2-5.1-3.3-2.2,0-2.7.4-2.9,2.5-.3,4-.5,8.1-.8,12.2h.2Z"/>
    <path class="st0" d="M1108.9,103.4c0,4.9,0,9.8,0,14.7,0,2.2-.2,4.5-.3,6.7-.1,1.8-.5,2.1-2.4,2.1-3.2,0-6.4-.2-9.7-.5-.4,0-1-.6-1.1-1.1-.3-1.3-.5-2.6-.5-3.9,0-9.1-.1-18.3-.2-27.4,0-2.7-.1-5.3,0-8,0-1.4.3-2.8.7-4.1.3-1,1-1.7,2.1-1.8,2.2-.2,4.5-.3,6.7-.5.5,0,1,0,1.5,0,2.3.1,2.9.8,2.9,3.1,0,6.9,0,13.8,0,20.7h.3,0Z"/>
    <path class="st0" d="M1144.3,119.9c0,1.4,0,2.8,0,4.2,0,3-.3,3.4-3.3,3.6-4.3.3-8.5-.3-12.5-1.7-8.4-3-14.4-11.4-14.8-20.3-.4-10.4,4-18.3,12.4-24.1,1.3-.9,3.1-1.2,4.6-1.8,3.8-1.6,7.8-1.3,11.8-1.2,1.4,0,1.9.5,1.9,2,0,3.1,0,6.2-.1,9.2,0,1.6-.4,2-2,2.3-.9.1-1.8.2-2.7.2-6.5.3-11.7,7.3-10.2,13.6.8,3.4,3.2,5.2,6.2,6.2,1.8.6,3.7.6,5.6.8.5,0,1,0,1.5,0,1.1,0,1.7.6,1.6,1.7,0,1.7,0,3.5,0,5.2h0Z"/>
    <path class="st0" d="M1169.9,80.7c1.9,0,3.8,0,5.7,0,2.6,0,4.8,1.6,5.5,4.2,1.7,5.7,3.4,11.5,4.8,17.3,1.7,6.4,3.1,12.9,4.7,19.4.2,1,.5,2,.5,2.9,0,1.7-1,2.6-2.6,2.7-2.5,0-5,.2-7.5.2-.6,0-1.2,0-1.7,0-1.1-.2-1.9-.8-2.1-2.1-.4-2.1-.9-4.2-1.4-6.3-.5-2.3-1.2-2.9-3.6-3-2.3,0-4.7,0-7,0-1.5,0-1.8.3-2.2,1.8-.5,2.1-1,4.2-1.6,6.3-.8,2.7-1.4,3-4.1,2.8-2.2-.1-4.3-.3-6.5-.2-3.4.1-4-1.4-3.4-4.1.6-3.2,1.3-6.4,2-9.5,2.3-9.5,4.7-19,7.1-28.5.6-2.5,1.3-3.1,3.9-3.4,3.1-.3,6.3-.4,9.4-.6v.2s0,0,0,0ZM1168.4,105.6c.6,0,1.2,0,1.7,0,2.4,0,2.9-.7,2.5-3-.5-2.4-.9-4.7-1.4-7.1-.4-1.8-.9-2.4-2.3-2.4-1.5,0-2.7.7-3.1,2.3-.6,2.4-1.2,4.8-1.6,7.2-.4,2.5,0,2.9,2.5,3,.6,0,1.2,0,1.7,0h0Z"/>
    <path class="st0" d="M1195.1,101.9c0-5.9,0-11.8,0-17.7,0-.8,0-1.6.3-2.2.2-.4.8-1,1.2-1,3.3-.2,6.6-.8,9.9-.1,2.2.4,2.3.4,2.3,2.8,0,8.5,0,17.1,0,25.6,0,1.4.2,2.7.4,4.1.1,1,.7,1.5,1.7,1.6.9,0,1.8,0,2.7,0,2.4,0,3,.6,3,2.9,0,2.5,0,4.9,0,7.4,0,1.1-.4,1.8-1.6,1.7-3.5-.2-7-.3-10.4-.4-2.3,0-4.7-.1-7-.1-1.8,0-2,0-2.2-1.9-.2-2.5-.4-5.1-.4-7.7,0-4.9,0-9.9,0-14.8h0Z"/>
    <path class="st0" d="M75.6,171.9c0-2.7-.1-5.5-.2-8.2,0-1.2-.1-2.3.5-3.4.5-1,0-1.8-1.1-1.9-1.1-.1-2.3,0-3.4.2-1.9.3-3.7.9-5.6,1.3-1.8.3-2,0-2-1.8,0-.9,0-1.9.2-2.7.7-2.4,1.1-4.9.9-7.4,0-1.1.6-1.5,1.5-1.6,1.6-.1,3.2-.3,4.7-.2,2.5.2,4.9.3,7.4,0,6.5-1,13-1.4,19.6-.8,2.1.2,2.9.7,3.2,2.8.5,2.9.7,5.8,0,8.7-.4,1.5-1.1,2.1-2.7,2-2.4-.1-4.8-.4-7.2-.6-1.9-.2-2.3.2-2.2,2.1.2,3.4.2,6.8.2,10.2,0,6.2,0,12.3,0,18.5,0,.7,0,1.3,0,2-.3,2.4-1,2.9-3.5,2.7-2.6-.2-5.1-.4-7.7-.5-1.8,0-2,0-2.3-1.9-.2-1.7-.2-3.5-.3-5.2,0-1,0-2,0-3h0c0-3.7,0-7.5,0-11.2Z"/>
    <path class="st0" d="M105.7,184.1c0-11.4-.2-22.9-.3-34.3,0-2,.6-2.8,2.5-3.2,2.9-.6,5.9-.9,8.9-.6,2.1.2,4.1,0,6.2-.1,4.1-.2,8.1-.6,12.2.2,3.1.6,5.4,2.3,6.8,5.2,2.6,5.3,2.6,10.9.9,16.5-.6,2.1-1.8,3.9-3.7,5.1-1.9,1.3-1.8,1.4-.8,3.5,2.3,4.8,4.5,9.5,6.7,14.3.3.5.5,1.1.6,1.7.1,1-.4,1.7-1.4,1.7-3.6,0-7.1,0-10.7,0-1.1,0-1.7-.5-2.1-1.5-1.6-3.6-3.1-7.1-4.7-10.7-.5-1.2-.9-2.5-1.6-3.6-.4-.7-1.2-1.3-1.9-1.5-1.3-.5-2.3.3-2.4,1.8-.1,2-.2,4-.2,6,0,1.8,0,3.7,0,5.5-.1,2.4-.9,3.3-3.3,3.4-3,0-6,0-9,0-1.9,0-2.4-.7-2.5-2.8,0-2.3,0-4.5,0-6.8,0,0-.2,0-.2,0ZM124.8,156.8v.3c-.9,0-1.8,0-2.7,0-.5,0-1,.1-1.4.4-1.7,1.5-.7,7.3,1.2,8.1.2,0,.3.1.5.1,1.7,0,3.5.3,5.2,0,2.8-.4,4.5-1.9,3.9-5.7-.2-1.5-.8-2.4-2.3-2.7-1.5-.2-2.9-.4-4.4-.6Z"/>
    <path class="st0" d="M170.4,147.4c1.9,0,3.8,0,5.7,0,2.6,0,4.8,1.6,5.5,4.2,1.7,5.7,3.4,11.5,4.8,17.3,1.7,6.4,3.1,12.9,4.7,19.4.2,1,.5,2,.5,2.9,0,1.7-1,2.6-2.6,2.7-2.5,0-5,.2-7.5.2-.6,0-1.2,0-1.7,0-1.1-.2-1.9-.8-2.2-2.1-.4-2.1-.9-4.2-1.4-6.3-.5-2.3-1.2-2.9-3.6-3-2.3,0-4.7,0-7,0-1.5,0-1.8.3-2.2,1.8-.5,2.1-1,4.2-1.6,6.3-.8,2.7-1.4,3-4.1,2.8-2.2-.1-4.3-.3-6.5-.2-3.4.1-4-1.4-3.4-4.1.6-3.2,1.3-6.4,2-9.5,2.3-9.5,4.7-19,7.1-28.5.6-2.5,1.3-3.1,3.9-3.4,3.1-.3,6.3-.4,9.4-.6v.2s0,0,0,0ZM168.9,172.3h0c.6,0,1.2,0,1.7,0,2.4,0,2.9-.7,2.5-3-.5-2.4-.9-4.7-1.4-7.1-.4-1.8-.9-2.4-2.3-2.4-1.5,0-2.7.7-3.1,2.3-.6,2.4-1.2,4.8-1.6,7.2-.4,2.5,0,2.9,2.5,3,.6,0,1.2,0,1.7,0h0Z"/>
    <path class="st0" d="M236.3,182.3c0,2.6-.2,5.2-.4,7.7-.2,2.1-.5,2.6-2.5,2.9-1.8.3-3.6.3-5.5.3-1.6,0-2.9-.9-3.8-2.2-1.8-2.6-3.7-5.2-5.2-7.9-2.1-3.7-3.8-7.6-5.7-11.5-.3-.7-.7-1.4-1.1-2-.2-.3-.8-.5-1.1-.3-.4.2-.7.6-.9,1.1-.1.4,0,.8.1,1.3,0,.9.2,1.7.1,2.6-.1,5.2-.3,10.5-.5,15.7,0,2.3-.5,2.9-2.7,3.3-2.3.4-4.6.7-6.9.9-2.5.3-4.9-1.6-4.8-4.7.2-7.6.3-15.2.4-22.8,0-1.1,0-2.2,0-3.3,0-4.3-.2-8.6,0-12.9,0-2.6,1.1-3.7,3.6-4.1,2.3-.3,4.6-.3,7-.2,1.7,0,3.2,1,4.1,2.6,2.4,4,4.9,8,7.3,12,1.8,2.9,3.4,5.9,5.2,8.8.2.4.9.8,1.1.7.4-.2,1-.8,1-1.2,0-.8,0-1.7-.2-2.5-.7-2.2-.9-4.3-.8-6.6.1-3.7.1-7.4.2-11.1,0-2.4.7-3.3,2.9-3.3,2.5,0,5.1.5,7.6,1,1.9.4,2.2.9,2.1,2.9,0,2.9-.2,5.9-.2,8.8,0,2.8,0,5.7,0,8.5h-.3c0,5.2,0,10.4,0,15.5Z"/>
    <path class="st0" d="M261.3,195.8c-6.7,0-11.7-1.3-15.8-4.6-1.4-1.2-2.5-2.8-3.6-4.2-.8-1-.6-2,.5-2.8,2.1-1.5,4.3-3,6.5-4.4.8-.5,1.4-.4,2.1.3,1.3,1.1,2.7,2.1,4.1,3.1,2,1.4,4.3,1.5,6.8,1.4,3.1-.1,4.5-2.8,3.7-4.8-.4-1.1-1.3-2.1-2.2-2.9-3.5-3.1-7.8-5-12-7.2-3.7-1.9-6.5-4.7-8.8-7.8-1.4-1.9-1.5-4.4-1.1-6.6.8-4.6,3.9-8,8.6-10,3.8-1.6,7.8-2.2,12-1.5,2,.3,3.9.6,5.8,1.2,1.7.5,3.4,1.3,4.8,2.2,3.7,2.3,3.7,3.2.6,5.9-1.6,1.4-3.2,2.9-4.8,4.4-1.4,1.2-2.5,1.3-4.1.3-1-.6-2.1-1.3-3.3-1.7-1.6-.5-3.2.2-4,1.4-.7,1.1-.6,2.4,1,3.4,2.8,1.9,5.8,3.7,8.7,5.4,3.4,2.1,6.9,4,9.5,6.8,3.8,4,4.8,8.5,3.2,13.4-.5,1.6-1.8,3-3.1,4.2-2.5,2.5-5.8,3.9-9.5,4.5-2.3.3-4.7.5-5.9.6h0Z"/>
    <path class="st0" d="M292,193.4c-1.6,0-3.2,0-4.7,0-1.5,0-2-.6-2.2-2.2,0-.3,0-.7,0-1-.1-9.4-.3-18.7-.4-28.1,0-4.1,0-8.1-.1-12.2,0-1.9.6-2.8,2.5-3.2,3-.6,6.1-.9,9.2-.5,2,.2,4,0,6-.1,3.6-.2,7.3-.6,10.9.2,2.5.6,4.4,1.8,5.5,4.1,2.9,5.9,3.6,12,.9,18.2-1,2.2-2.6,3.8-4.9,4.6-3.2,1.1-6.3,2.2-9.7,2.5-.6,0-1.2.1-1.7.3-2.6.7-3.1,1.3-3.2,4.1-.1,3.3-.2,6.6-.3,9.8-.1,3-.7,3.6-3.6,3.7-.7,0-1.3,0-2,0-.7,0-1.3,0-2,0h0ZM303.1,155.8h0c-.6,0-1.2,0-1.7,0-1.8.1-2.2.5-2.3,2.3,0,1.3,0,2.6.1,3.9.2,1.7,1.2,2.7,2.9,3,2.2.3,4.2-.5,6.1-1.6.4-.3.8-.9.9-1.4.8-3.4-1.1-6-4.5-6.2-.5,0-1,0-1.5,0h0Z"/>
    <path class="st0" d="M343.1,147.4c1.9,0,3.8,0,5.7,0,2.6,0,4.8,1.6,5.5,4.2,1.7,5.7,3.4,11.5,4.8,17.3,1.7,6.4,3.1,12.9,4.7,19.4.2,1,.5,2,.5,2.9,0,1.7-1,2.6-2.6,2.7-2.5,0-5,.2-7.5.2-.6,0-1.2,0-1.7,0-1.1-.2-1.9-.8-2.2-2.1-.4-2.1-.9-4.2-1.4-6.3-.5-2.3-1.2-2.9-3.6-3-2.3,0-4.7,0-7,0-1.5,0-1.8.3-2.2,1.8-.5,2.1-1,4.2-1.6,6.3-.8,2.7-1.4,3-4.1,2.8-2.2-.1-4.3-.3-6.5-.2-3.4.1-4-1.4-3.4-4.1.6-3.2,1.3-6.4,2-9.5,2.3-9.5,4.7-19,7.1-28.5.6-2.5,1.3-3.1,3.9-3.4,3.1-.3,6.3-.4,9.4-.6v.2s0,0,0,0ZM341.6,172.3h0c.6,0,1.2,0,1.7,0,2.4,0,2.9-.7,2.5-3-.5-2.4-.9-4.7-1.4-7.1-.4-1.8-.9-2.4-2.3-2.4-1.5,0-2.7.7-3.1,2.3-.6,2.4-1.2,4.8-1.6,7.2-.4,2.5,0,2.9,2.5,3,.6,0,1.2,0,1.7,0h0Z"/>
    <path class="st0" d="M368.5,184.1c0-11.4-.2-22.9-.3-34.3,0-2,.6-2.8,2.5-3.2,2.9-.6,5.9-.9,8.9-.6,2.1.2,4.1,0,6.2-.1,4.1-.2,8.1-.6,12.2.2,3.1.6,5.4,2.3,6.8,5.2,2.6,5.3,2.6,10.9.9,16.5-.6,2.1-1.8,3.9-3.7,5.1-1.9,1.3-1.8,1.4-.8,3.5,2.3,4.8,4.5,9.5,6.7,14.3.3.5.5,1.1.6,1.7.1,1-.4,1.7-1.4,1.7-3.6,0-7.1,0-10.7,0-1.1,0-1.7-.5-2.1-1.5-1.6-3.6-3.1-7.1-4.7-10.7-.5-1.2-.9-2.5-1.6-3.6-.4-.7-1.2-1.3-1.9-1.5-1.3-.5-2.3.3-2.4,1.8-.1,2-.2,4-.2,6,0,1.8,0,3.7,0,5.5-.1,2.4-.9,3.3-3.3,3.4-3,0-6,0-9,0-1.9,0-2.4-.7-2.5-2.8,0-2.3,0-4.5,0-6.8,0,0-.2,0-.2,0ZM387.6,156.8v.3c-.9,0-1.8,0-2.7,0-.5,0-1,.1-1.4.4-1.7,1.5-.7,7.3,1.2,8.1.2,0,.3.1.5.1,1.7,0,3.5.3,5.2,0,2.8-.4,4.5-1.9,3.9-5.7-.2-1.5-.8-2.4-2.3-2.7-1.5-.2-2.9-.4-4.4-.6Z"/>
    <path class="st0" d="M413.5,158.6c.1-2.4,0-4.8.2-7.2,0-1,.5-2.1,1-3,.4-.9,1.3-1.2,2.3-1.2,3.7.3,7.3,0,10.9-.4,3-.3,6.1-.2,9.2-.1,1.8,0,2.3.5,2.3,2.4,0,2.8,0,5.7,0,8.5,0,1.9-.8,2.7-2.7,2.9-1.4,0-2.8,0-4.2,0-1.1,0-2.1.2-3.2.5-1,.3-1.8,1.4-1.7,2.2,0,.9.9,1.5,2.3,1.5.7,0,1.5-.1,2.2,0,1.7,0,2.8.9,2.8,2.5,0,2.2,0,4.5-.1,6.7,0,1-.7,1.5-1.7,1.5-.8,0-1.7,0-2.5,0-.7,0-1.3,0-2,0-1.1.2-1.8,1.1-1.8,2,0,1,.7,1.5,1.6,1.6,1.6.2,3.3.3,5,.4,1.3,0,2.7,0,4,0,1,0,1.5.5,1.5,1.5,0,3.4,0,6.8,0,10.2,0,1.1-.6,1.7-1.7,1.7-2.2,0-4.3.2-6.5.1-4.6,0-9.3-.2-13.9-.2-3,0-4.2-.7-4.2-3.8-.1-4,0-8,0-12h-.3c.3-6.2.6-12.4.9-18.7Z"/>
    <path class="st0" d="M485.7,182.3c0,2.6-.2,5.2-.4,7.7-.2,2.1-.5,2.6-2.5,2.9-1.8.3-3.6.3-5.5.3-1.6,0-2.9-.9-3.8-2.2-1.8-2.6-3.7-5.2-5.2-7.9-2.1-3.7-3.8-7.6-5.7-11.5-.3-.7-.7-1.4-1.1-2-.2-.3-.8-.5-1.1-.3-.4.2-.7.6-.9,1.1-.1.4,0,.8.1,1.3,0,.9.2,1.7.1,2.6-.1,5.2-.3,10.5-.5,15.7,0,2.3-.5,2.9-2.7,3.3-2.3.4-4.6.7-6.9.9-2.5.3-4.9-1.6-4.8-4.7.2-7.6.3-15.2.4-22.8,0-1.1,0-2.2,0-3.3,0-4.3-.2-8.6,0-12.9,0-2.6,1.1-3.7,3.6-4.1,2.3-.3,4.6-.3,7-.2,1.7,0,3.2,1,4.1,2.6,2.4,4,4.9,8,7.3,12,1.8,2.9,3.4,5.9,5.2,8.8.2.4.9.8,1.1.7.4-.2,1-.8,1-1.2,0-.8,0-1.7-.2-2.5-.7-2.2-.9-4.3-.8-6.6.1-3.7.1-7.4.2-11.1,0-2.4.7-3.3,2.9-3.3,2.5,0,5.1.5,7.6,1,1.9.4,2.2.9,2.1,2.9,0,2.9-.2,5.9-.2,8.8,0,2.8,0,5.7,0,8.5h-.3c0,5.2,0,10.4,0,15.5Z"/>
    <path class="st0" d="M521.4,186.7c0,1.4,0,2.8,0,4.2,0,3-.3,3.4-3.3,3.6-4.3.3-8.5-.3-12.5-1.7-8.4-3-14.4-11.4-14.8-20.3-.4-10.4,4-18.3,12.4-24.1,1.3-.9,3.1-1.2,4.6-1.8,3.8-1.6,7.8-1.3,11.8-1.2,1.4,0,1.9.5,1.9,2,0,3.1,0,6.2-.1,9.2,0,1.6-.4,2-2,2.3-.9.1-1.8.2-2.7.2-6.5.3-11.7,7.3-10.2,13.6.8,3.4,3.2,5.2,6.2,6.2,1.8.6,3.7.6,5.6.8.5,0,1,0,1.5,0,1.1,0,1.7.6,1.6,1.7,0,1.7,0,3.5,0,5.2h0Z"/>
    <path class="st0" d="M552,193.9c-2.6-.2-4.7-.2-6.9-.5-2.1-.2-2.5-.7-2.6-3-.2-3.1-.4-6.2-.6-9.4-.2-3.6-.5-7.1-2.4-10.2-.6-1-1.1-2-1.7-2.9-4.7-6.6-9.4-13.2-14.1-19.9-.3-.4-.6-1.1-.5-1.4.3-.4.9-.8,1.4-.8,2.2,0,4.5.1,6.7.1,2.3,0,4.6,0,6.9-.3,5.3-.7,5.1-.1,6.6,3.7,1.5,3.8,2.9,7.6,4.3,11.4,0,0,0,.2,0,.2.5.6.9,1.5,1.4,1.6,1,.2,1.4-.8,1.6-1.6.7-2.1,1.3-4.3,2.1-6.4.9-2.5,2-4.9,3.1-7.4.2-.4.9-.7,1.4-.8,3.3-.3,6.6-.6,9.9-.8,2,0,4,.1,6,.3,1,0,1.2.9.9,1.7-.4,1.2-.9,2.5-1.5,3.6-2.2,3.6-4.5,7.1-6.8,10.6-1.6,2.4-3.2,4.7-4.8,7-4.2,5.7-5.3,12-4.1,19,.2,1,.4,2,.5,3.1.2,1.5-.2,2.4-1.7,2.6-1.9.3-3.8.3-5.3.3Z"/>
    <path class="st0" d="M580.3,180.7c4.2.6,6.7,4.2,5.6,8.1-.8,2.7-1.5,5.4-3.6,7.5-1,1-1.7,2.4-2.7,3.6-.4.5-1.1,1-1.7,1.2-2.1.7-3.6-.6-3.1-2.8.2-.9.6-1.7.9-2.5.5-1.5.6-2.9-.4-4.4-.5-.7-.8-1.7-.8-2.6,0-1.5,0-3,.3-4.4.1-.6.8-1.2,1.4-1.6.5-.4,1.1-.8,1.7-1,.8-.4,1.7-.7,2.5-1h0Z"/>
    <path class="st0" d="M635.7,147.4c1.9,0,3.8,0,5.7,0,2.6,0,4.8,1.6,5.5,4.2,1.7,5.7,3.4,11.5,4.8,17.3,1.7,6.4,3.1,12.9,4.7,19.4.2,1,.5,2,.5,2.9,0,1.7-1,2.6-2.6,2.7-2.5,0-5,.2-7.5.2-.6,0-1.2,0-1.7,0-1.1-.2-1.9-.8-2.2-2.1-.4-2.1-.9-4.2-1.4-6.3-.5-2.3-1.2-2.9-3.6-3-2.3,0-4.7,0-7,0-1.5,0-1.8.3-2.2,1.8-.5,2.1-1,4.2-1.6,6.3-.8,2.7-1.4,3-4.1,2.8-2.2-.1-4.3-.3-6.5-.2-3.4.1-4-1.4-3.4-4.1.6-3.2,1.3-6.4,2-9.5,2.3-9.5,4.7-19,7.1-28.5.6-2.5,1.3-3.1,3.9-3.4,3.1-.3,6.3-.4,9.4-.6v.2s0,0,0,0ZM634.2,172.3h0c.6,0,1.2,0,1.7,0,2.4,0,2.9-.7,2.5-3-.5-2.4-.9-4.7-1.4-7.1-.4-1.8-.9-2.4-2.3-2.4-1.5,0-2.7.7-3.1,2.3-.6,2.4-1.2,4.8-1.6,7.2-.4,2.5,0,2.9,2.5,3,.6,0,1.2,0,1.7,0h0Z"/>
    <path class="st0" d="M701.6,182.3c0,2.6-.2,5.2-.4,7.7-.2,2.1-.5,2.6-2.5,2.9-1.8.3-3.6.3-5.5.3-1.6,0-2.9-.9-3.8-2.2-1.8-2.6-3.7-5.2-5.2-7.9-2.1-3.7-3.8-7.6-5.7-11.5-.3-.7-.7-1.4-1.1-2-.2-.3-.8-.5-1.1-.3-.4.2-.7.6-.9,1.1-.1.4,0,.8.1,1.3,0,.9.2,1.7.1,2.6-.1,5.2-.3,10.5-.5,15.7,0,2.3-.5,2.9-2.7,3.3-2.3.4-4.6.7-6.9.9-2.5.3-4.9-1.6-4.8-4.7.2-7.6.3-15.2.4-22.8,0-1.1,0-2.2,0-3.3,0-4.3-.2-8.6,0-12.9,0-2.6,1.1-3.7,3.6-4.1,2.3-.3,4.6-.3,7-.2,1.7,0,3.2,1,4.1,2.6,2.4,4,4.9,8,7.3,12,1.8,2.9,3.4,5.9,5.2,8.8.2.4.9.8,1.1.7.4-.2,1-.8,1-1.2,0-.8,0-1.7-.2-2.5-.7-2.2-.9-4.3-.8-6.6.1-3.7.1-7.4.2-11.1,0-2.4.7-3.3,2.9-3.3,2.5,0,5.1.5,7.6,1,1.9.4,2.2.9,2.1,2.9,0,2.9-.2,5.9-.2,8.8,0,2.8,0,5.7,0,8.5h-.3c0,5.2,0,10.4,0,15.5Z"/>
    <path class="st0" d="M708.2,171.2c.3-5.8.6-13,1-20.2,0-.7.1-1.3.2-2,0-.9.4-1.4,1.5-1.5,2.5-.2,5.1-.8,7.6-.9,3.7-.2,7.5,0,11.2-.1,4.9-.2,8.4,2,11,6,2.7,4.2,4,8.9,4.4,13.9.4,4.9.1,9.8-1.5,14.5-1,3-2.2,5.9-4.5,8.2-2.4,2.6-5.2,4.3-9,4.1-5.9-.2-11.8-.3-17.7-.5-.2,0-.3,0-.5,0-4.6-.7-3.8-.7-3.8-4.1,0-5.3,0-10.6,0-17.4h0ZM721.6,172c0,2.2-.2,4.3-.3,6.5,0,.7.1,1.3.2,2,.1,1.1.8,1.6,1.7,1.9,2.1.7,5.5-.6,6.5-2.6,3.3-6.3,3.3-12.7.5-19.2-1-2.2-2.7-3.2-5.1-3.3-2.2,0-2.7.4-2.9,2.5-.3,4-.5,8.1-.8,12.2h.2Z"/>
    <path class="st0" d="M783.3,171.9c0-2.7-.1-5.5-.2-8.2,0-1.2-.1-2.3.5-3.4.5-1,0-1.8-1.1-1.9-1.1-.1-2.3,0-3.4.2-1.9.3-3.7.9-5.6,1.3-1.8.3-2,0-2-1.8,0-.9,0-1.9.2-2.7.7-2.4,1.1-4.9.9-7.4,0-1.1.6-1.5,1.5-1.6,1.6-.1,3.2-.3,4.7-.2,2.5.2,4.9.3,7.4,0,6.5-1,13-1.4,19.6-.8,2.1.2,2.9.7,3.2,2.8.5,2.9.7,5.8,0,8.7-.4,1.5-1.1,2.1-2.7,2-2.4-.1-4.8-.4-7.2-.6-1.9-.2-2.3.2-2.2,2.1.2,3.4.2,6.8.2,10.2,0,6.2,0,12.3,0,18.5,0,.7,0,1.3,0,2-.3,2.4-1,2.9-3.5,2.7-2.6-.2-5.1-.4-7.7-.5-1.8,0-2,0-2.3-1.9-.2-1.7-.2-3.5-.3-5.2,0-1,0-2,0-3h0c0-3.7,0-7.5,0-11.2Z"/>
    <path class="st0" d="M813.3,184.1c0-11.4-.2-22.9-.3-34.3,0-2,.6-2.8,2.5-3.2,2.9-.6,5.9-.9,8.9-.6,2,.2,4.1,0,6.2-.1,4.1-.2,8.1-.6,12.2.2,3.1.6,5.4,2.3,6.8,5.2,2.6,5.3,2.6,10.9.9,16.5-.6,2.1-1.8,3.9-3.7,5.1-1.9,1.3-1.8,1.4-.8,3.5,2.3,4.8,4.5,9.5,6.7,14.3.3.5.5,1.1.6,1.7.1,1-.4,1.7-1.4,1.7-3.6,0-7.1,0-10.7,0-1.1,0-1.7-.5-2.1-1.5-1.6-3.6-3.1-7.1-4.7-10.7-.5-1.2-.9-2.5-1.6-3.6-.4-.7-1.2-1.3-1.9-1.5-1.3-.5-2.3.3-2.4,1.8-.1,2-.2,4-.2,6,0,1.8,0,3.7,0,5.5-.1,2.4-.9,3.3-3.3,3.4-3,0-6,0-9,0-1.9,0-2.4-.7-2.5-2.8,0-2.3,0-4.5,0-6.8,0,0-.2,0-.2,0ZM832.4,156.8v.3c-.9,0-1.8,0-2.7,0-.5,0-1,.1-1.4.4-1.7,1.5-.7,7.3,1.2,8.1.2,0,.3.1.5.1,1.7,0,3.5.3,5.2,0,2.8-.4,4.5-1.9,3.9-5.7-.2-1.5-.8-2.4-2.3-2.7-1.5-.2-2.9-.4-4.4-.6Z"/>
    <path class="st0" d="M883.8,167c0-3.8-.1-7.5-.3-11.3-.1-2.4-.5-4.7-.8-7.1-.2-1.7,0-2.1,1.7-2.3,3-.3,5.9-1,8.9-.2,1,.2,2.1,0,3.2-.2.7-.1,1.3,0,1.2.8-.4,4.5,1.2,8.9.8,13.4-.5,6.4-.3,12.9-.9,19.3-.3,3.1-1.7,6.1-2.6,9.1-.2.6-.8,1.1-1.2,1.5-.6.6-1.5,1.2-2,1.9-1.7,2.4-4.1,3.2-6.8,3.5-5.1.4-10.1.9-15-1.2-2.9-1.2-5.8-2.3-7.9-4.9-2-2.6-3.3-5.5-3.5-8.7-.3-4.1-.7-8.3-1-12.4-.2-2.9,0-5.7,0-8.6-.2-3.5-.5-7-.8-10.5,0-.5-.1-1-.2-1.5,0-1.5,0-1.8,1.6-1.8,3.9,0,7.8,0,11.7,0,1.7,0,1.9.2,2,1.8.3,6.2.6,12.4.9,18.6.1,3.5.2,7,.3,10.5,0,1,.2,1.9.5,2.9,1,3.7,4.6,5.1,8,3.2,1.6-.9,2.6-2.1,2.5-4.2-.2-2.9,0-5.9,0-8.8,0-1,0-2-.1-2.9,0,0,0,0,0,0h0Z"/>
    <path class="st0" d="M904.9,158.6c.1-2.4,0-4.8.2-7.2,0-1,.5-2.1,1-3,.4-.9,1.3-1.2,2.3-1.2,3.7.3,7.3,0,10.9-.4,3-.3,6.1-.2,9.2-.1,1.8,0,2.3.5,2.3,2.4,0,2.8,0,5.7,0,8.5,0,1.9-.8,2.7-2.7,2.9-1.4,0-2.8,0-4.2,0-1.1,0-2.1.2-3.2.5-1,.3-1.8,1.4-1.7,2.2,0,.9.9,1.5,2.3,1.5.7,0,1.5-.1,2.2,0,1.7,0,2.8.9,2.8,2.5,0,2.2,0,4.5-.1,6.7,0,1-.7,1.5-1.7,1.5-.8,0-1.7,0-2.5,0-.7,0-1.3,0-2,0-1.1.2-1.8,1.1-1.8,2,0,1,.7,1.5,1.6,1.6,1.6.2,3.3.3,5,.4,1.3,0,2.7,0,4,0,1,0,1.5.5,1.5,1.5,0,3.4,0,6.8,0,10.2,0,1.1-.6,1.7-1.7,1.7-2.2,0-4.3.2-6.5.1-4.6,0-9.3-.2-13.9-.2-3,0-4.2-.7-4.2-3.8-.1-4,0-8,0-12h-.3c.3-6.2.6-12.4.9-18.7Z"/>
    <path class="st0" d="M960.7,158.6c.1-2.4,0-4.8.2-7.2,0-1,.5-2.1,1-3,.4-.9,1.3-1.2,2.3-1.2,3.7.3,7.3,0,10.9-.4,3-.3,6.1-.2,9.2-.1,1.8,0,2.3.5,2.3,2.4,0,2.8,0,5.7,0,8.5,0,1.9-.8,2.7-2.7,2.9-1.4,0-2.8,0-4.2,0-1.1,0-2.1.2-3.2.5-1,.3-1.8,1.4-1.7,2.2,0,.9.9,1.5,2.3,1.5.7,0,1.5-.1,2.2,0,1.7,0,2.8.9,2.8,2.5,0,2.2,0,4.5-.1,6.7,0,1-.7,1.5-1.7,1.5-.8,0-1.7,0-2.5,0-.7,0-1.3,0-2,0-1.1.2-1.8,1.1-1.8,2,0,1,.7,1.5,1.6,1.6,1.6.2,3.3.3,5,.4,1.3,0,2.7,0,4,0,1,0,1.5.5,1.5,1.5,0,3.4,0,6.8,0,10.2,0,1.1-.6,1.7-1.7,1.7-2.2,0-4.3.2-6.5.1-4.6,0-9.3-.2-13.9-.2-3,0-4.2-.7-4.2-3.8-.1-4,0-8,0-12h-.3c.3-6.2.6-12.4.9-18.7Z"/>
    <path class="st0" d="M1011.2,144.4c12.6.3,21.3,8.5,24.1,17.5,1.7,5.6,1.9,11.1.3,16.6-.4,1.4-.9,2.7-1.6,4-1.6,3-1.5,5.8.5,8.6.9,1.2,1.6,2.6,2.5,3.9.7,1.1.7,2.1-.2,3-.4.4-.8.9-1.3,1.3-1.6,1.2-3.2,2.3-4.8,3.4-2.1,1.4-2.4,1.3-3.9-.6-1.3-1.8-2.7-3.5-4-5.3-1.3-1.6-2.9-2.1-4.9-1.8-8.4,1.2-15.5-1.4-21.2-7.9-4.6-5.3-6.9-11.6-6.7-18.6.3-8.9,3.9-16.2,11.5-21.1,3.5-2.3,7.5-3.1,9.7-3h0ZM1013.3,157.3c-1.9-.6-3.4.8-4.8,1.9-5.2,3.8-6.6,11.5-2.7,17.4,3.1,4.7,8.5,5.8,13.2,3.1,3-1.8,4.5-4.6,5.3-7.8,1.5-5.9-2.4-15-11-14.6h0Z"/>
    <path class="st0" d="M1067.7,167c0-3.8-.1-7.5-.3-11.3-.1-2.4-.5-4.7-.8-7.1-.2-1.7,0-2.1,1.7-2.3,3-.3,5.9-1,8.9-.2,1,.2,2.1,0,3.2-.2.7-.1,1.3,0,1.2.8-.4,4.5,1.2,8.9.8,13.4-.5,6.4-.3,12.9-.9,19.3-.3,3.1-1.7,6.1-2.6,9.1-.2.6-.8,1.1-1.2,1.5-.6.6-1.5,1.2-2,1.9-1.7,2.4-4.1,3.2-6.8,3.5-5.1.4-10.1.9-15-1.2-2.9-1.2-5.8-2.3-7.9-4.9-2-2.6-3.3-5.5-3.5-8.7-.3-4.1-.7-8.3-1-12.4-.2-2.9,0-5.7,0-8.6-.2-3.5-.5-7-.8-10.5,0-.5-.1-1-.2-1.5,0-1.5,0-1.8,1.6-1.8,3.9,0,7.8,0,11.7,0,1.7,0,1.9.2,2,1.8.3,6.2.6,12.4.9,18.6.1,3.5.2,7,.3,10.5,0,1,.2,1.9.5,2.9,1,3.7,4.6,5.1,8,3.2,1.6-.9,2.6-2.1,2.5-4.2-.2-2.9,0-5.9,0-8.8,0-1,0-2-.1-2.9,0,0,0,0,0,0h0Z"/>
    <path class="st0" d="M1102.4,170.2c0,4.9,0,9.8,0,14.7,0,2.2-.2,4.5-.3,6.7-.1,1.8-.5,2.1-2.4,2.1-3.2,0-6.4-.2-9.7-.5-.4,0-1-.6-1.1-1.1-.3-1.3-.5-2.6-.5-3.9,0-9.1-.1-18.3-.2-27.4,0-2.7-.1-5.3,0-8,0-1.4.3-2.8.7-4.1.3-1,1-1.7,2.1-1.8,2.2-.2,4.5-.3,6.7-.5.5,0,1,0,1.5,0,2.3.1,2.9.8,2.9,3.1,0,6.9,0,13.8,0,20.7h.3,0Z"/>
    <path class="st0" d="M1118,171.9c0-2.7-.1-5.5-.2-8.2,0-1.2-.1-2.3.5-3.4.5-1,0-1.8-1.1-1.9-1.1-.1-2.3,0-3.4.2-1.9.3-3.7.9-5.6,1.3-1.8.3-2,0-2-1.8,0-.9,0-1.9.2-2.7.7-2.4,1.1-4.9.9-7.4,0-1.1.6-1.5,1.5-1.6,1.6-.1,3.2-.3,4.7-.2,2.5.2,4.9.3,7.4,0,6.5-1,13-1.4,19.6-.8,2.1.2,2.9.7,3.2,2.8.5,2.9.7,5.8,0,8.7-.4,1.5-1.1,2.1-2.7,2-2.4-.1-4.8-.4-7.2-.6-1.9-.2-2.3.2-2.2,2.1.2,3.4.2,6.8.2,10.2,0,6.2,0,12.3,0,18.5,0,.7,0,1.3,0,2-.3,2.4-1,2.9-3.5,2.7-2.6-.2-5.1-.4-7.7-.5-1.8,0-2,0-2.3-1.9-.2-1.7-.2-3.5-.3-5.2,0-1,0-2,0-3h0c0-3.7,0-7.5,0-11.2Z"/>
    <path class="st0" d="M1173.1,193.9c-2.6-.2-4.7-.2-6.9-.5-2.1-.2-2.5-.7-2.6-3-.2-3.1-.4-6.2-.6-9.4-.2-3.6-.5-7.1-2.4-10.2-.6-1-1.1-2-1.7-2.9-4.7-6.6-9.4-13.2-14.1-19.9-.3-.4-.6-1.1-.5-1.4.3-.4.9-.8,1.4-.8,2.2,0,4.5.1,6.7.1,2.3,0,4.6,0,6.9-.3,5.3-.7,5.1-.1,6.6,3.7,1.5,3.8,2.9,7.6,4.3,11.4,0,0,0,.2,0,.2.5.6.9,1.5,1.4,1.6,1,.2,1.4-.8,1.6-1.6.7-2.1,1.3-4.3,2.1-6.4.9-2.5,2-4.9,3.1-7.4.2-.4.9-.7,1.4-.8,3.3-.3,6.6-.6,9.9-.8,2,0,4,.1,6,.3,1,0,1.2.9.9,1.7-.4,1.2-.9,2.5-1.5,3.6-2.2,3.6-4.5,7.1-6.8,10.6-1.6,2.4-3.2,4.7-4.8,7-4.2,5.7-5.3,12-4.1,19,.2,1,.4,2,.5,3.1.2,1.5-.2,2.4-1.7,2.6-1.9.3-3.8.3-5.3.3Z"/>
    <path class="st0" d="M1206,189.5c0,2.2-1.4,4-3.6,4.2-4.1.5-6.2-.6-7.1-4-.6-2.5.9-4.7,3.4-5.2,1-.2,2.1-.4,3.1-.3,2.4.2,4.1,2.5,4.1,5.2h0Z"/>
  </g>
</svg>