<?xml version="1.0" encoding="UTF-8"?>
<svg id="Layer_1" xmlns="http://www.w3.org/2000/svg" version="1.1" viewBox="0 0 85.4 25.8">
  <!-- Generator: Adobe Illustrator 29.6.0, SVG Export Plug-In . SVG Version: 2.1.1 Build 207)  -->
  <defs>
    <style>
      .st0 {
        fill: #ffef09;
        stroke: #000;
        stroke-linecap: round;
        stroke-linejoin: round;
        stroke-width: .5px;
      }
    </style>
  </defs>
  <g>
    <path d="M2,4.5c0-.2,0-.5,0-.7,0-.5.3-.8.8-.7,1.3.3,2.7-.1,4,0,.1,0,.3,0,.4,0,.8,0,1.1.3,1.2,1.2,0,1.3.1,2.6.2,3.8,0,.4,0,.8,0,1.1.1.7.4.9,1.1,1,.4,0,.9,0,1.3,0,.9,0,1.1-.3,1.1-1.2,0-1.4,0-2.9,0-4.3,0-1.3.5-1.6,1.7-1.6.9,0,1.7,0,2.6,0,.3,0,.5,0,.8.1,1,.4,1.1.4,1.1,1.4,0,3.3.2,6.6.3,9.8,0,1.2.1,2.4.1,3.6,0,1.4,0,2.9-.1,4.3,0,.8-.3,1.1-1,1.3-.8.2-1.5.3-2.3.3-.7,0-1.5-.2-2.2-.4-.5-.1-.5-.6-.5-1,0-1.2-.2-2.5-.2-3.7,0-.7,0-1.4,0-2.2,0-.9-.3-1.2-1.2-1.1-.6,0-1.1.1-1.6.3-.2,0-.5.3-.5.5-.1.4-.2.8-.2,1.2,0,1.3.1,2.6.1,4,0,.6,0,1.2-.2,1.8,0,.4-.3.5-.8.5-1-.1-2-.3-3.1-.3-.7,0-1.3,0-2,.1-.6,0-.8,0-.8-.6-.1-1.3-.2-2.6-.2-4,0-2,0-4,0-6h-.1c0-2.9,0-5.7,0-8.6Z"/>
    <path d="M33.1,25.2c-4.1,0-6.8-1.3-8.9-3.7-3.6-4.2-4.3-8.9-1.8-13.8,2.6-5.3,8.5-6.8,13.2-4.9,3.5,1.4,5.7,3.9,6.8,7.3,1.1,3.3.9,6.4-.8,9.5-2,3.6-5.1,5.5-8.4,5.6h0ZM28.1,16.2c1.6,2.8,5.4,3.4,7.6,1,2.1-2.3,2.1-5.4.1-7.8-.7-.8-1.6-1.3-2.6-1.5-.7,0-1.5-.3-2.1,0-2.4,1-3.6,2.8-3.7,5.3,0,1,.3,2.1.7,2.9Z"/>
    <path d="M68,23.9c-.8,0-1.6-.1-2.4-.2-1,0-1,0-1.2-1.1-.3-1.9-.7-3.9-1-5.8-.2-1.1-.3-2.2-.4-3.3,0-.1,0-.2,0-.3,0-.3-.1-.7-.5-.6-.2,0-.4.4-.4.6-.1,1.6-.8,2.9-1.4,4.2-.3.7-.7,1.1-1.5,1-.8,0-1.7,0-2.6,0-.8,0-1.3-.3-1.5-1-.5-1.4-1-2.7-1.6-4.1,0-.2,0-.5-.2-.7-.1-.2-.3-.3-.5-.5,0,.2-.3.4-.3.6,0,1.8-.4,3.5-.7,5.2-.3,1.7-.7,3.4-1.1,5.1-.3,1-.3,1-1.3,1-1.5,0-2.9,0-4.4,0-.5,0-.7-.3-.7-.7,0-.9.1-1.8.3-2.7.6-3.4,1.1-6.9,1.7-10.3.3-2.1.8-4.1,1.1-6.2.1-.7.4-.9,1-1.1.2,0,.4-.1.7-.1,1.5,0,3,0,4.6-.2.6,0,1,.3,1.2.8.4,1.2.8,2.4,1.2,3.6.4,1.3.8,2.6,1.2,3.9.1.4.2,1,.7,1,.3,0,.6-.6.7-.9.7-2,1.4-4.1,2-6.1.2-.5.3-1,.5-1.4.2-.7.7-1,1.3-1,.4,0,.8,0,1.2,0,.6,0,1.1,0,1.7,0,.6,0,1.2.1,1.7.3.3,0,.5.5.6.8.3,1.4.5,2.8.7,4.2,0,.5.2,1.1.3,1.6.8,3.9,1.6,7.9,2.4,11.8,0,.3.1.7.2,1,.2,1-.2,1.5-1.2,1.5-.6,0-1.2,0-1.8-.1,0,0,0,0,0,0h0Z"/>
    <path d="M72.8,16.7c.1-2.8.3-5.6.4-8.3,0-1.1,0-2.1.1-3.2,0-.5.2-.9.4-1.3.2-.4.6-.6,1-.5,1.6.1,3.3,0,4.9-.2,1.4-.2,2.7,0,4.1,0,.8,0,1,.2,1,1.1,0,1.3,0,2.5,0,3.8,0,.8-.4,1.2-1.2,1.3-.6,0-1.3,0-1.9,0-.5,0-1,.1-1.4.2-.5.1-.8.6-.7,1,0,.4.4.7,1,.7.3,0,.7,0,1,0,.8,0,1.2.4,1.3,1.1,0,1,0,2,0,3,0,.4-.3.7-.7.7-.4,0-.7,0-1.1,0-.3,0-.6,0-.9,0-.5,0-.8.5-.8.9,0,.5.3.7.7.7.7,0,1.5.1,2.2.2.6,0,1.2,0,1.8,0,.4,0,.7.2.7.7,0,1.5,0,3,0,4.6,0,.5-.3.8-.7.8-1,0-1.9,0-2.9,0-2.1,0-4.2-.1-6.2,0-1.3,0-1.9-.3-1.9-1.7,0-1.8,0-3.6,0-5.3h-.1Z"/>
  </g>
  <g>
    <path class="st0" d="M.9,11.5c0-2.8,0-5.7,0-8.5,0-.2,0-.4,0-.7,0-.5.3-.8.8-.7,1.3.3,2.6-.1,3.9,0,.1,0,.3,0,.4,0,.8,0,1.1.3,1.2,1.1,0,1.3.1,2.5.2,3.8,0,.4,0,.8,0,1.1.1.7.4.9,1.1,1,.4,0,.9,0,1.3,0,.9,0,1.1-.2,1.1-1.2,0-1.4,0-2.8,0-4.2,0-1.3.5-1.6,1.7-1.6.8,0,1.7,0,2.5,0,.3,0,.5,0,.8.1,1,.4,1,.4,1.1,1.4,0,3.2.2,6.5.3,9.7,0,1.2.1,2.4.1,3.6,0,1.4,0,2.8-.1,4.2,0,.8-.3,1.1-1,1.2-.8.1-1.5.3-2.3.3-.7,0-1.4-.2-2.1-.4-.4-.1-.5-.6-.5-1,0-1.2-.2-2.5-.2-3.7,0-.7,0-1.4,0-2.1,0-.9-.3-1.2-1.2-1.1-.5,0-1.1.1-1.6.3-.2,0-.5.3-.5.5-.1.4-.2.8-.2,1.2,0,1.3,0,2.6.1,3.9,0,.6,0,1.2-.2,1.8,0,.4-.3.5-.7.5-1-.1-2-.3-3-.3-.6,0-1.3,0-1.9.1-.6,0-.8,0-.8-.6-.1-1.3-.2-2.6-.2-3.9,0-2,0-3.9,0-5.9h-.1,0Z"/>
    <path class="st0" d="M31.6,23.5c-4.1,0-6.7-1.2-8.8-3.6-3.6-4.1-4.2-8.7-1.8-13.6C23.6,1,29.4-.5,34,1.4c3.4,1.4,5.6,3.8,6.7,7.2,1.1,3.2.9,6.4-.8,9.3-1.9,3.5-5,5.4-8.3,5.5h0ZM26,11.7c0,1,.3,2,.7,2.9,1.5,2.8,5.3,3.3,7.5,1,2-2.2,2.1-5.3.1-7.7-.7-.8-1.6-1.3-2.6-1.5-.7,0-1.5-.2-2.1,0-2.3,1-3.6,2.8-3.6,5.3h0Z"/>
    <path class="st0" d="M66.1,22.2c-.8,0-1.6-.1-2.4-.2-1,0-1,0-1.2-1.1-.3-1.9-.7-3.8-1-5.7-.2-1.1-.3-2.2-.4-3.3,0-.1,0-.2,0-.3,0-.3-.1-.7-.5-.6-.2,0-.4.4-.4.6-.1,1.5-.8,2.8-1.4,4.2-.3.7-.7,1.1-1.5,1-.8,0-1.7,0-2.5,0-.8,0-1.3-.3-1.5-1-.5-1.3-1-2.7-1.5-4,0-.2,0-.5-.2-.6-.1-.2-.3-.3-.5-.5,0,.2-.3.4-.3.6,0,1.7-.4,3.4-.7,5.1-.3,1.7-.7,3.4-1.1,5-.3,1-.3,1-1.3,1-1.5,0-2.9,0-4.4,0-.5,0-.7-.3-.7-.7,0-.9.1-1.8.3-2.6.5-3.4,1.1-6.8,1.7-10.1.3-2,.8-4,1.1-6.1.1-.7.4-.9,1-1.1.2,0,.4-.1.6-.1,1.5,0,3,0,4.5-.2.6,0,1,.3,1.2.8.4,1.2.8,2.4,1.2,3.6.4,1.3.8,2.5,1.1,3.8.1.4.2,1,.7,1,.3,0,.6-.6.7-.9.7-2,1.3-4,2-6.1.2-.5.3-.9.5-1.4.2-.7.7-1,1.3-1,.4,0,.8,0,1.2,0,.5,0,1.1,0,1.6,0,.6,0,1.2.1,1.7.3.2,0,.5.5.6.8.3,1.4.5,2.8.7,4.2,0,.5.2,1.1.3,1.6.8,3.9,1.6,7.8,2.3,11.6,0,.3.1.7.2,1,.2,1-.2,1.4-1.2,1.4-.6,0-1.2,0-1.8-.1,0,0,0,0,0,0h0Z"/>
    <path class="st0" d="M70.8,15.1c.1-2.7.3-5.5.4-8.2,0-1.1,0-2.1.1-3.2,0-.5.2-.9.4-1.3.2-.4.6-.5,1-.5,1.6.1,3.2,0,4.8-.2,1.3-.1,2.7,0,4.1,0,.8,0,1,.2,1,1.1,0,1.2,0,2.5,0,3.7,0,.8-.4,1.2-1.2,1.3-.6,0-1.2,0-1.9,0-.5,0-.9.1-1.4.2-.5.1-.8.6-.7,1,0,.4.4.6,1,.7.3,0,.7,0,1,0,.8,0,1.2.4,1.2,1.1,0,1,0,2,0,3,0,.4-.3.7-.7.7-.4,0-.7,0-1.1,0-.3,0-.6,0-.9,0-.5,0-.8.5-.8.9,0,.4.3.7.7.7.7,0,1.5.1,2.2.2.6,0,1.2,0,1.8,0,.4,0,.7.2.7.7,0,1.5,0,3,0,4.5,0,.5-.3.7-.7.8-.9,0-1.9,0-2.8,0-2,0-4.1-.1-6.1,0-1.3,0-1.8-.3-1.9-1.7,0-1.8,0-3.5,0-5.3h-.1Z"/>
  </g>
</svg>