<?xml version="1.0" encoding="UTF-8"?>
<svg id="Layer_1" xmlns="http://www.w3.org/2000/svg" version="1.1" viewBox="0 0 1098.2 273.9">
  <!-- Generator: Adobe Illustrator 29.4.0, SVG Export Plug-In . SVG Version: 2.1.0 Build 152)  -->
  <defs>
    <style>
      .st0 {
        fill: #ff4f4f;
      }
    </style>
  </defs>
  <path class="st0" d="M1052.4,153l2.1-1c4.4-7.4,15.4-27.6,26-23.3,9.8,4,7.5,22.2,7.1,30.9-1,20.1-4.4,51.5-9.3,70.7-2.2,8.5-3.5,13.8-14,11.7-13.5-2.7-61.2-23.6-72.9-31.6-28.8-19.7-.7-29,19.9-32-17.4-44.8-49.2-85.3-88.3-113.1-9.7-6.9-26-14.2-34-21.4-3.3-3-6.4-7.1-2.9-11.6,3.9-4.9,14-2.3,19.3-1,39.3,9.5,84.6,43.6,111.3,73.3,13.1,14.6,25.7,31.4,35.8,48.1Z"/>
  <path class="st0" d="M566.7,189.6c2.3.5,3.1-1.6,4.9-2.5,5.6-3,19.7-9.4,25.8-9.2,13.9.4,7.5,16.6,3.7,23.8-7.7,14.6-36.1,55.6-48.8,64.6-13.5,9.5-29-12.9-36.3-22.4-7.8-10.2-31.9-44.9-32.2-56.3-.5-17.7,29.7-3.6,36.5,1.6,2.5.9,1.4-9,1.5-10.9,3.5-44.1,12.6-96.8,24.3-139.5,1.7-6.3,6.9-26.3,11-30.1,4.8-4.5,12.1-1.3,12.1,5.1,0,8.6-2.5,19.7-3.1,28.7-2.5,36.5-2.6,72.9-2.4,109.5l3.1,37.6Z"/>
  <path class="st0" d="M192.8,5.8c-23.6-4.1-60.4,20.2-77.6,35.3-27.5,24.2-46.7,56.1-60.8,89.7-3-3-5.8-6.2-8.9-9.2,0,0,0,0,0,0-10.7-11.6-28.7-25.4-34.5-9.5-4.9,13.5,7.1,65.5,11.5,81,2.1,7.6,5.2,20.1,10.5,29.9,2.6,6.1,6.3,11.4,12,11.6,5.3.2,29.7-13.5,35.9-16.9,13.8-7.6,52.2-28.4,56.1-43.4,4.6-17.8-27.8-18.6-38.5-19.8,12.9-44.3,39.3-84.6,76.1-112.5,6.1-4.6,25.3-15.5,28-21.2,4-8.3-2.1-13.5-10.1-14.9Z"/>
</svg>