<?xml version="1.0" encoding="UTF-8"?>
<svg id="Layer_1" xmlns="http://www.w3.org/2000/svg" xmlns:xlink="http://www.w3.org/1999/xlink" version="1.1" viewBox="0 0 50 50">
  <!-- Generator: Adobe Illustrator 29.4.0, SVG Export Plug-In . SVG Version: 2.1.0 Build 152)  -->
  <defs>
    <style>
      .st0 {
        fill: url(#linear-gradient);
      }
    </style>
    <linearGradient id="linear-gradient" x1="1.3" y1="25" x2="48.7" y2="25" gradientUnits="userSpaceOnUse">
      <stop offset="0" stop-color="#ffe494"/>
      <stop offset="1" stop-color="#f77fff"/>
    </linearGradient>
  </defs>
  <path class="st0" d="M47.7,13.6c1,3.7,1,11.4,1,11.4,0,0,0,7.7-1,11.4-.5,2-2.2,3.7-4.2,4.2-3.7,1-18.5,1-18.5,1,0,0-14.8,0-18.5-1-2-.5-3.7-2.2-4.2-4.2-1-3.7-1-11.4-1-11.4,0,0,0-7.7,1-11.4.5-2,2.2-3.7,4.2-4.2,3.7-1,18.5-1,18.5-1,0,0,14.8,0,18.5,1,2,.5,3.7,2.2,4.2,4.2M20.3,32.1l12.3-7.1-12.3-7.1v14.2Z"/>
</svg>