<?xml version="1.0" encoding="UTF-8"?>
<svg id="Layer_1" xmlns="http://www.w3.org/2000/svg" xmlns:xlink="http://www.w3.org/1999/xlink" version="1.1" viewBox="0 0 50 50">
  <!-- Generator: Adobe Illustrator 29.6.0, SVG Export Plug-In . SVG Version: 2.1.1 Build 207)  -->
  <defs>
    <style>
      .st0 {
        fill: url(#linear-gradient);
      }
    </style>
    <linearGradient id="linear-gradient" x1=".7" y1="25.1" x2="49.2" y2="25.1" gradientUnits="userSpaceOnUse">
      <stop offset="0" stop-color="#ffe494"/>
      <stop offset="1" stop-color="#f77fff"/>
    </linearGradient>
  </defs>
  <path class="st0" d="M46.6.8H3.3C1.9.8.7,2,.7,3.4v43.2c0,1.5,1.2,2.7,2.7,2.7h23.3v-18.8h-6.3v-7.4h6.3v-5.4c0-6.3,3.8-9.7,9.4-9.7s5,.2,5.7.3v6.6h-3.9c-3,0-3.6,1.4-3.6,3.6v4.7h7.3l-.9,7.4h-6.3v18.8h12.4c1.5,0,2.7-1.2,2.7-2.7V3.4c0-1.5-1.2-2.7-2.7-2.7Z"/>
</svg>