<?xml version="1.0" encoding="UTF-8"?>
<svg id="linkedin" xmlns="http://www.w3.org/2000/svg" version="1.1" viewBox="0 0 100 100">
  <!-- Generator: Adobe Illustrator 29.5.1, SVG Export Plug-In . SVG Version: 2.1.0 Build 141)  -->
  <defs>
    <style>
      .st0 {
        fill: #fff;
      }
    </style>
  </defs>
  <path class="st0" d="M20.2,0c3.8-.5,5.6,2,6.9,5.1s2.2,6.7,3.4,9.8,4.3,9.2,4.6,11.9c.8,6.4-9.5,7.4-8.4,14.7.7,4.3,8,13,11.1,16.4,3.2,3.5,15.5,15.2,19.8,15.7,7,.8,8.7-7.5,14.5-7.3,2.7,0,9.9,4.4,12.8,5.8s6.7,2.5,9.4,4.1c6.8,3.8,2.5,9.3-.7,13.8-5.9,8.2-9.8,11.3-20.5,9.3C44.1,94.1,7.4,55.9,2.7,27c-1.5-9.4-.2-17,8.2-22.4C12.9,3.3,18,.4,20.2,0Z"/>
</svg>