<?xml version="1.0" encoding="UTF-8"?>
<svg id="Layer_1" xmlns="http://www.w3.org/2000/svg" version="1.1" viewBox="0 0 50 50">
  <!-- Generator: Adobe Illustrator 29.4.0, SVG Export Plug-In . SVG Version: 2.1.0 Build 152)  -->
  <defs>
    <style>
      .st0 {
        fill: #231f20;
      }
    </style>
  </defs>
  <path class="st0" d="M44.2.7H5.8C3.2.7,1,2.9,1,5.6v38.9c0,2.7,2.2,4.9,4.8,4.9h38.3c2.7,0,4.8-2.2,4.8-4.9V5.6c0-2.7-2.2-4.9-4.8-4.9ZM16.4,39.1h-6.5v-20.8h6.5v20.8ZM13.1,15.8c-2,0-3.4-1.4-3.4-3.2s1.4-3.2,3.4-3.2,3.4,1.4,3.4,3.2c0,1.8-1.3,3.2-3.5,3.2ZM40,39.1h-6.5v-11.5c0-2.7-.9-4.5-3.3-4.5s-2.8,1.2-3.3,2.4c-.2.4-.2,1-.2,1.6v12h-6.5v-14.2c0-2.6,0-4.8-.2-6.6h5.6l.3,2.9h.1c.8-1.4,2.9-3.4,6.4-3.4s7.4,2.8,7.4,9v12.3Z"/>
</svg>