<?xml version="1.0" encoding="UTF-8"?>
<svg id="Layer_1" xmlns="http://www.w3.org/2000/svg" xmlns:xlink="http://www.w3.org/1999/xlink" version="1.1" viewBox="0 0 50 50">
  <!-- Generator: Adobe Illustrator 29.4.0, SVG Export Plug-In . SVG Version: 2.1.0 Build 152)  -->
  <defs>
    <style>
      .st0 {
        fill: url(#linear-gradient2);
      }

      .st1 {
        fill: url(#linear-gradient1);
      }

      .st2 {
        fill: url(#linear-gradient);
      }
    </style>
    <linearGradient id="linear-gradient" x1=".9" y1="25" x2="49.1" y2="25" gradientUnits="userSpaceOnUse">
      <stop offset="0" stop-color="#ffe494"/>
      <stop offset="1" stop-color="#f77fff"/>
    </linearGradient>
    <linearGradient id="linear-gradient1" x1="12.6" x2="37.4" xlink:href="#linear-gradient"/>
    <linearGradient id="linear-gradient2" x1="35" y1="12.1" x2="40.8" y2="12.1" xlink:href="#linear-gradient"/>
  </defs>
  <path class="st2" d="M25,.9c-6.6,0-7.4,0-9.9.1-2.6.1-4.3.5-5.9,1.1-1.6.6-2.9,1.4-4.3,2.8-1.3,1.3-2.2,2.7-2.8,4.3-.6,1.5-1,3.3-1.1,5.9-.1,2.6-.1,3.4-.1,9.9s0,7.4.1,9.9c.1,2.6.5,4.3,1.1,5.9.6,1.6,1.4,2.9,2.8,4.3,1.3,1.3,2.7,2.2,4.3,2.8,1.5.6,3.3,1,5.9,1.1,2.6.1,3.4.1,9.9.1s7.4,0,9.9-.1c2.6-.1,4.3-.5,5.9-1.1,1.6-.6,2.9-1.4,4.3-2.8,1.3-1.3,2.2-2.7,2.8-4.3.6-1.5,1-3.3,1.1-5.9.1-2.6.1-3.4.1-9.9s0-7.4-.1-9.9c-.1-2.6-.5-4.3-1.1-5.9-.6-1.6-1.4-2.9-2.8-4.3-1.3-1.3-2.7-2.2-4.3-2.8-1.5-.6-3.3-1-5.9-1.1-2.6-.1-3.4-.1-9.9-.1h0ZM25,5.2c6.4,0,7.2,0,9.7.1,2.4.1,3.6.5,4.5.8,1.1.4,1.9,1,2.8,1.8.8.8,1.4,1.6,1.8,2.8.3.9.7,2.1.8,4.5.1,2.5.1,3.3.1,9.8s0,7.2-.1,9.7c-.1,2.4-.5,3.6-.8,4.5-.4,1.1-1,1.9-1.8,2.8-.8.8-1.6,1.4-2.8,1.8-.9.3-2.1.7-4.5.8-2.5.1-3.3.1-9.7.1s-7.2,0-9.8-.1c-2.4-.1-3.6-.5-4.5-.8-1.1-.4-1.9-1-2.8-1.8-.8-.8-1.4-1.6-1.8-2.8-.3-.9-.7-2.1-.8-4.5-.1-2.5-.1-3.3-.1-9.7s0-7.2.1-9.8c.1-2.4.5-3.6.8-4.5.4-1.1,1-1.9,1.8-2.8.8-.8,1.6-1.4,2.8-1.8.9-.3,2.1-.7,4.5-.8,2.5-.1,3.3-.1,9.8-.1"/>
  <path class="st1" d="M25,33c-4.4,0-8-3.6-8-8s3.6-8,8-8,8,3.6,8,8-3.6,8-8,8h0ZM25,12.6c-6.8,0-12.4,5.5-12.4,12.4s5.5,12.4,12.4,12.4,12.4-5.5,12.4-12.4-5.5-12.4-12.4-12.4h0Z"/>
  <path class="st0" d="M40.8,12.1c0,1.6-1.3,2.9-2.9,2.9s-2.9-1.3-2.9-2.9,1.3-2.9,2.9-2.9,2.9,1.3,2.9,2.9h0Z"/>
</svg>