<?xml version="1.0" encoding="UTF-8"?>
<svg id="linkedin" xmlns="http://www.w3.org/2000/svg" version="1.1" viewBox="0 0 118 100">
  <!-- Generator: Adobe Illustrator 29.5.1, SVG Export Plug-In . SVG Version: 2.1.0 Build 141)  -->
  <defs>
    <style>
      .st0 {
        fill: #fff;
      }
    </style>
  </defs>
  <path class="st0" d="M9.6,9.8h97.3c5.4.3,9.8,1.8,10.3,8v62.7c-.5,6.6-4.2,9.3-10.6,9.7H10.1c-6.5-.6-8.5-5.7-8.9-11.4-1-16.4,0-35.3.2-51.9.1-7.5-1.9-15.6,8.2-17h0ZM105.9,16.5H12.5l47,39,46.4-39ZM111,79.5V21.3l-34.2,28.7,34.2,29.5ZM7.7,79.5l33.9-29.8L7.7,21.6v57.9ZM13.6,83.7h91.8l-33.5-29.3c-5,2.7-9.4,11.3-15.8,7.4l-9-7.7-33.4,29.6h-.1Z"/>
</svg>