<?xml version="1.0" encoding="UTF-8"?>
<svg id="Layer_1" xmlns="http://www.w3.org/2000/svg" version="1.1" viewBox="0 0 100 100">
  <!-- Generator: Adobe Illustrator 29.5.1, SVG Export Plug-In . SVG Version: 2.1.0 Build 141)  -->
  <defs>
    <style>
      .st0 {
        fill: #ffef09;
      }
    </style>
  </defs>
  <path class="st0" d="M89.5,0H10.5C5,0,.6,4.5.6,10v80c0,5.5,4.5,10,10,10h78.9c5.5,0,10-4.5,10-10V10c0-5.5-4.5-10-10-10ZM32.3,79.1h-13.3v-42.8h13.3v42.8ZM25.6,31.1c-4.2,0-6.9-3-6.9-6.6s2.8-6.6,7.1-6.6,6.9,2.9,7,6.6c0,3.7-2.7,6.6-7.2,6.6ZM80.8,79.1h-13.3v-23.7c0-5.5-1.9-9.3-6.7-9.3s-5.9,2.5-6.8,5c-.4.9-.4,2.1-.4,3.3v24.7h-13.3v-29.1c0-5.3-.2-9.8-.3-13.6h11.5l.6,5.9h.3c1.7-2.8,6-6.9,13.2-6.9s15.3,5.9,15.3,18.5v25.3h0Z"/>
</svg>