<?xml version="1.0" encoding="UTF-8"?>
<svg id="linkedin" xmlns="http://www.w3.org/2000/svg" version="1.1" viewBox="0 0 100 100">
  <!-- Generator: Adobe Illustrator 29.5.1, SVG Export Plug-In . SVG Version: 2.1.0 Build 141)  -->
  <defs>
    <style>
      .st0 {
        fill: #ffef09;
      }
    </style>
  </defs>
  <path class="st0" d="M50,0c-13.6,0-15.3,0-20.6.3-5.3.2-9,1.1-12.1,2.3-3.3,1.3-6.1,3-8.9,5.8-2.8,2.8-4.5,5.6-5.8,8.9-1.2,3.2-2.1,6.8-2.3,12.1-.3,5.3-.3,7-.3,20.6s0,15.3.3,20.6c.2,5.3,1.1,9,2.3,12.1,1.3,3.3,3,6.1,5.8,8.9,2.8,2.8,5.6,4.5,8.9,5.8,3.2,1.2,6.8,2.1,12.1,2.3,5.3.2,7,.3,20.6.3s15.3,0,20.6-.3c5.3-.2,9-1.1,12.1-2.3,3.3-1.3,6.1-3,8.9-5.8s4.5-5.6,5.8-8.9c1.2-3.2,2.1-6.8,2.3-12.1.2-5.3.3-7,.3-20.6s0-15.3-.3-20.6c-.2-5.3-1.1-9-2.3-12.1-1.3-3.3-3-6.1-5.8-8.9-2.8-2.8-5.6-4.5-8.9-5.8-3.2-1.2-6.8-2.1-12.1-2.3C65.3,0,63.6,0,50,0h0ZM50,9c13.4,0,14.9,0,20.2.3,4.9.2,7.5,1,9.3,1.7,2.3.9,4,2,5.7,3.7s2.8,3.4,3.7,5.7c.7,1.8,1.5,4.4,1.7,9.3.2,5.3.3,6.9.3,20.2s0,14.9-.3,20.2c-.2,4.9-1,7.5-1.7,9.3-.9,2.3-2,4-3.7,5.7s-3.4,2.8-5.7,3.7c-1.8.7-4.4,1.5-9.3,1.7-5.3.2-6.9.3-20.2.3s-14.9,0-20.2-.3c-4.9-.2-7.5-1-9.3-1.7-2.3-.9-4-2-5.7-3.7s-2.8-3.4-3.7-5.7c-.7-1.8-1.5-4.4-1.7-9.3-.2-5.3-.3-6.9-.3-20.2s0-14.9.3-20.2c.2-4.9,1-7.5,1.7-9.3.9-2.3,2-4,3.7-5.7s3.4-2.8,5.7-3.7c1.8-.7,4.4-1.5,9.3-1.7,5.3-.2,6.9-.3,20.2-.3"/>
  <path class="st0" d="M50,66.7c-9.2,0-16.7-7.5-16.7-16.7s7.5-16.7,16.7-16.7,16.7,7.5,16.7,16.7-7.5,16.7-16.7,16.7h0ZM50,24.3c-14.2,0-25.7,11.5-25.7,25.7s11.5,25.7,25.7,25.7,25.7-11.5,25.7-25.7-11.5-25.7-25.7-25.7h0Z"/>
  <path class="st0" d="M82.7,23.3c0,3.3-2.7,6-6,6s-6-2.7-6-6,2.7-6,6-6,6,2.7,6,6h0Z"/>
</svg>